<?xml version="1.0" encoding="utf-8"?>
<!-- Generator: Adobe Illustrator 27.2.0, SVG Export Plug-In . SVG Version: 6.00 Build 0)  -->
<svg version="1.1" id="Blonnopies_12" xmlns="http://www.w3.org/2000/svg" xmlns:xlink="http://www.w3.org/1999/xlink" x="0px"
	 y="0px" viewBox="0 0 300 450" style="enable-background:new 0 0 300 450;" xml:space="preserve">
<style type="text/css">
	.st0{fill:none;}
	.st1{fill:#FAC6C2;}
	.st2{fill:#FFFFFF;}
	.st3{fill:#DDD4EA;}
	.st4{fill:#DCEFF3;}
	.st5{fill:#F58675;}
	.st6{fill:#F9B7AC;}
	.st7{fill:none;stroke:#F8A79B;stroke-linecap:round;stroke-linejoin:round;stroke-miterlimit:10;}
	.st8{fill:none;stroke:#F8A79B;stroke-width:3;stroke-linecap:round;stroke-linejoin:round;stroke-miterlimit:10;}
	.st9{fill:none;stroke:#F8A79B;stroke-width:2;stroke-linecap:round;stroke-linejoin:round;stroke-miterlimit:10;}
	.st10{fill:#E7DAEB;}
	.st11{fill:url(#Arbol_1_00000183248108988554038110000003885915222992365969_);}
	.st12{fill:url(#SVGID_1_);}
	.st13{fill:url(#_x31__hojas_arbol_00000119824778519661004110000009459461761354131587_);}
	.st14{fill:#FBC7BA;stroke:#FBC7BA;stroke-width:2;stroke-linecap:round;stroke-linejoin:round;stroke-miterlimit:10;}
	.st15{fill:#F9B0A1;stroke:#F9B0A1;stroke-width:2;stroke-linecap:round;stroke-linejoin:round;stroke-miterlimit:10;}
	.st16{fill:#F69988;stroke:#F69988;stroke-width:2;stroke-linecap:round;stroke-linejoin:round;stroke-miterlimit:10;}
	.st17{fill:#B4B4DA;stroke:#B4B4DA;stroke-width:2;stroke-linecap:round;stroke-linejoin:round;stroke-miterlimit:10;}
	.st18{fill:#9896CA;stroke:#9896CA;stroke-width:2;stroke-linecap:round;stroke-linejoin:round;stroke-miterlimit:10;}
	.st19{fill:#676AB1;stroke:#676AB1;stroke-width:2;stroke-linecap:round;stroke-linejoin:round;stroke-miterlimit:10;}
	.st20{fill:none;stroke:#99B0D7;stroke-width:3;stroke-linecap:round;stroke-linejoin:round;stroke-miterlimit:10;}
	.st21{fill:none;stroke:#99B0D7;stroke-linecap:round;stroke-linejoin:round;stroke-miterlimit:10;}
	.st22{fill:none;stroke:#99B0D7;stroke-width:2;stroke-linecap:round;stroke-linejoin:round;stroke-miterlimit:10;}
	.st23{fill:none;stroke:#FBC7BA;stroke-width:2;stroke-linecap:round;stroke-linejoin:round;stroke-miterlimit:10;}
	.st24{fill:none;stroke:#FBC7BA;stroke-linecap:round;stroke-linejoin:round;stroke-miterlimit:10;}
	.st25{fill:none;stroke:#FBC7BA;stroke-width:3;stroke-linecap:round;stroke-linejoin:round;stroke-miterlimit:10;}
	.st26{fill:url(#Arbol_tronco_00000059994566210924062110000003005065891984424116_);}
	.st27{fill:#F8B1B8;}
	.st28{fill:url(#Rama_00000057861022810472633020000006539230347791086768_);}
	.st29{fill:url(#Rama_00000036948036524948145590000005798201660597173944_);}
	.st30{fill:url(#_x33__hojas_arbol_00000106863182245218721500000014873437342761888179_);}
	.st31{fill:#FAC8C9;}
	.st32{fill:none;stroke:#F9B0A1;stroke-width:2;stroke-linecap:round;stroke-linejoin:round;stroke-miterlimit:10;}
	.st33{fill:none;stroke:#F9B0A1;stroke-width:3;stroke-linecap:round;stroke-linejoin:round;stroke-miterlimit:10;}
	.st34{fill:none;stroke:#7F719B;stroke-width:3;stroke-linecap:round;stroke-linejoin:round;stroke-miterlimit:10;}
	.st35{fill:none;stroke:#7F719B;stroke-width:2;stroke-linecap:round;stroke-linejoin:round;stroke-miterlimit:10;}
	.st36{fill:none;stroke:#7F719B;stroke-linecap:round;stroke-linejoin:round;stroke-miterlimit:10;}
	.st37{fill:#CCB7D9;}
	.st38{opacity:0.66;fill:url(#SVGID_00000049937760057625599950000010361728937982430377_);}
	.st39{fill:url(#SVGID_00000174562540547706472930000004208952989963807677_);}
	.st40{fill:#CABCDC;}
	.st41{fill:url(#SVGID_00000004510107358260413260000002225317382534830005_);}
	.st42{fill:#F9CDE1;}
	.st43{fill:url(#SVGID_00000152223330877156252940000001719392660604836028_);}
	.st44{fill:url(#SVGID_00000088105727893344102380000003833419469334266779_);}
	.st45{fill:#FFFCD7;}
	.st46{fill:none;stroke:#FFC63E;stroke-width:2;stroke-linecap:round;stroke-linejoin:round;stroke-miterlimit:10;}
	.st47{fill:none;stroke:#FFC63E;stroke-width:3;stroke-linecap:round;stroke-linejoin:round;stroke-miterlimit:10;}
	.st48{fill:none;stroke:#FFC63E;stroke-linecap:round;stroke-linejoin:round;stroke-miterlimit:10;}
	.st49{fill:#B37BA8;}
	.st50{fill:url(#SVGID_00000106121459110783080030000009423851962658961830_);}
	.st51{fill:none;stroke:#E3CFE2;stroke-width:3;stroke-linecap:round;stroke-linejoin:round;stroke-miterlimit:10;}
	.st52{fill:#FFFFFF;stroke:#FFED96;stroke-width:2;stroke-linecap:round;stroke-linejoin:round;stroke-miterlimit:10;}
	.st53{fill:#7291B9;}
	.st54{fill:none;stroke:#B3809F;stroke-width:2;stroke-linecap:round;stroke-linejoin:round;stroke-miterlimit:10;}
	.st55{fill:none;stroke:#B3809F;stroke-linecap:round;stroke-linejoin:round;stroke-miterlimit:10;}
</style>
<pattern  x="-1371.8" y="-516.9" width="1200" height="1200" patternUnits="userSpaceOnUse" id="New_Pattern_45" viewBox="85.8 -1200 1200 1200" style="overflow:visible;">
	<g>
		<rect x="85.8" y="-1200" class="st0" width="1200" height="1200"/>
		<g>
			<rect x="85.8" y="-1200" class="st1" width="1200" height="1200"/>
			<polygon id="XMLID_7377_" class="st2" points="198.3,-1050.1 325.1,-900 198.3,-749.8 325.1,-599.5 198.3,-449.2 325.1,-298.9 
				198.3,-149.4 325.1,0 375,0 248.1,-149.4 375,-299.3 248.1,-449.5 375,-599.7 248.1,-750 375,-900.3 248.1,-1050.2 375,-1200 
				325.1,-1200 			"/>
			<polygon id="XMLID_7376_" class="st2" points="428.8,-900.3 302,-749.9 428.8,-599.6 302,-449.2 428.8,-298.9 302,-149.4 
				428.8,0 478.7,0 351.8,-149.4 478.7,-299.3 351.8,-449.5 478.7,-599.7 351.8,-750 478.7,-900.3 351.8,-1050.2 478.7,-1200 
				428.8,-1200 302,-1050.1 			"/>
			<polygon id="XMLID_7375_" class="st2" points="531.6,-900.3 404.7,-749.9 531.6,-599.6 404.7,-449.2 531.6,-298.9 404.7,-149.4 
				531.6,0 581.4,0 454.6,-149.4 581.4,-299.3 454.6,-449.5 581.4,-599.7 454.6,-750 581.4,-900.3 454.6,-1050.2 581.4,-1200 
				531.6,-1200 404.7,-1050.1 			"/>
			<polygon id="XMLID_7374_" class="st2" points="631.6,-900.3 504.7,-749.9 631.6,-599.6 504.7,-449.2 631.6,-298.9 504.7,-149.4 
				631.6,0 681.4,0 554.6,-149.4 681.4,-299.3 554.6,-449.5 681.4,-599.7 554.6,-750 681.4,-900.3 554.6,-1050.2 681.4,-1200 
				631.6,-1200 504.7,-1050.1 			"/>
			<polygon id="XMLID_7373_" class="st2" points="731.7,-900.3 604.9,-749.9 731.7,-599.6 604.9,-449.2 731.7,-298.9 604.9,-149.4 
				731.7,0 781.6,0 654.8,-149.4 781.6,-299.3 654.8,-449.5 781.6,-599.7 654.8,-750 781.6,-900.3 654.8,-1050.2 781.6,-1200 
				731.7,-1200 604.9,-1050.1 			"/>
			<polygon id="XMLID_7372_" class="st2" points="269.8,-301.1 143,-450.7 269.8,-600.2 143,-749.8 269.8,-899.3 143,-1049.7 
				269.8,-1200 219.9,-1200 93.1,-1049.7 219.9,-899.7 93.1,-750 219.9,-600.3 93.1,-450.7 219.9,-301.1 93.1,-150.6 219.9,0 
				269.8,0 143,-150.6 			"/>
			<polygon id="XMLID_7371_" class="st2" points="800.4,-1050.1 927.2,-900 800.4,-749.8 927.2,-599.5 800.4,-449.2 927.2,-298.9 
				800.4,-149.4 927.2,0 977,0 850.2,-149.4 977,-299.3 850.2,-449.5 977,-599.7 850.2,-750 977,-900.3 850.2,-1050.2 977,-1200 
				927.2,-1200 			"/>
			<polygon id="XMLID_7370_" class="st2" points="1028.9,-900.3 902.1,-749.9 1028.9,-599.6 902.1,-449.2 1028.9,-298.9 
				902.1,-149.4 1028.9,0 1078.7,0 951.9,-149.4 1078.7,-299.3 951.9,-449.5 1078.7,-599.7 951.9,-750 1078.7,-900.3 951.9,-1050.2 
				1078.7,-1200 1028.9,-1200 902.1,-1050.1 			"/>
			<polygon id="XMLID_7369_" class="st2" points="1129.7,-900.3 1002.8,-749.9 1129.7,-599.6 1002.8,-449.2 1129.7,-298.9 
				1002.8,-149.4 1129.7,0 1179.5,0 1052.7,-149.4 1179.5,-299.3 1052.7,-449.5 1179.5,-599.7 1052.7,-750 1179.5,-900.3 
				1052.7,-1050.2 1179.5,-1200 1129.7,-1200 1002.8,-1050.1 			"/>
			<polygon id="XMLID_7368_" class="st2" points="1228.7,-900.3 1101.8,-749.9 1228.7,-599.6 1101.8,-449.2 1228.7,-298.9 
				1101.8,-149.4 1228.7,0 1278.5,0 1151.7,-149.4 1278.5,-299.3 1151.7,-449.5 1278.5,-599.7 1151.7,-750 1278.5,-900.3 
				1151.7,-1050.2 1278.5,-1200 1228.7,-1200 1101.8,-1050.1 			"/>
			<polygon id="XMLID_7367_" class="st2" points="1326.8,-900.3 1200,-749.9 1326.8,-599.6 1200,-449.2 1326.8,-298.9 1200,-149.4 
				1326.8,0 1376.7,0 1249.8,-149.4 1376.7,-299.3 1249.8,-449.5 1376.7,-599.7 1249.8,-750 1376.7,-900.3 1249.8,-1050.2 
				1376.7,-1200 1326.8,-1200 1200,-1050.1 			"/>
			<polygon id="XMLID_7366_" class="st2" points="876.9,-301.1 750.1,-450.7 876.9,-600.2 750.1,-749.8 876.9,-899.3 750.1,-1049.7 
				876.9,-1200 827.1,-1200 700.2,-1049.7 827.1,-899.7 700.2,-750 827.1,-600.3 700.2,-450.7 827.1,-301.1 700.2,-150.6 827.1,0 
				876.9,0 750.1,-150.6 			"/>
		</g>
		<g>
			<polygon id="XMLID_7365_" class="st2" points="126.8,-900.3 0,-749.9 126.8,-599.6 0,-449.2 126.8,-298.9 0,-149.4 126.8,0 
				176.7,0 49.8,-149.4 176.7,-299.3 49.8,-449.5 176.7,-599.7 49.8,-750 176.7,-900.3 49.8,-1050.2 176.7,-1200 126.8,-1200 
				0,-1050.1 			"/>
		</g>
	</g>
</pattern>
<pattern  x="-1371.8" y="-516.9" width="1200" height="1200" patternUnits="userSpaceOnUse" id="New_Pattern_46" viewBox="0 -1200 1200 1200" style="overflow:visible;">
	<g>
		<rect x="0" y="-1200" class="st0" width="1200" height="1200"/>
		<rect id="XMLID_7416_" y="-1200" class="st3" width="1200" height="1200"/>
		<g id="XMLID_7378_">
			<rect id="XMLID_7415_" y="-308" class="st0" width="1200" height="47"/>
			<rect id="XMLID_7414_" y="-1002" class="st0" width="1200" height="46"/>
			<rect id="XMLID_7413_" y="-181" class="st0" width="1200" height="46"/>
			<rect id="XMLID_7412_" y="-1129" class="st0" width="1200" height="47"/>
			<rect id="XMLID_7411_" y="-55" class="st0" width="1200" height="47"/>
			<rect id="XMLID_7410_" y="-939" class="st0" width="1200" height="47"/>
			<rect id="XMLID_7409_" y="-244" class="st0" width="1200" height="46"/>
			<rect id="XMLID_7408_" y="-118" class="st0" width="1200" height="47"/>
			<rect id="XMLID_7407_" y="-371" class="st0" width="1200" height="47"/>
			<rect id="XMLID_7406_" y="-813" class="st0" width="1200" height="47"/>
			<rect id="XMLID_7405_" y="-1192" class="st0" width="1200" height="47"/>
			<rect id="XMLID_7404_" y="-750" class="st0" width="1200" height="47"/>
			<rect id="XMLID_7403_" y="-686" class="st0" width="1200" height="46"/>
			<rect id="XMLID_7402_" y="-560" class="st0" width="1200" height="46"/>
			<rect id="XMLID_7401_" y="-1065" class="st0" width="1200" height="46"/>
			<rect id="XMLID_7400_" y="-623" class="st0" width="1200" height="46"/>
			<rect id="XMLID_7399_" y="-497" class="st0" width="1200" height="47"/>
			<rect id="XMLID_7398_" y="-8" class="st2" width="1200" height="8"/>
			<rect id="XMLID_7397_" y="-71" class="st2" width="1200" height="16"/>
			<rect id="XMLID_7396_" y="-135" class="st2" width="1200" height="17"/>
			<rect id="XMLID_7395_" y="-198" class="st2" width="1200" height="17"/>
			<rect id="XMLID_7394_" y="-261" class="st2" width="1200" height="17"/>
			<rect id="XMLID_7393_" y="-324" class="st2" width="1200" height="16"/>
			<rect id="XMLID_7392_" y="-387" class="st2" width="1200" height="16"/>
			<rect id="XMLID_7391_" y="-450" class="st2" width="1200" height="16"/>
			<rect id="XMLID_7390_" y="-514" class="st2" width="1200" height="17"/>
			<rect id="XMLID_7389_" y="-577" class="st2" width="1200" height="17"/>
			<rect id="XMLID_7388_" y="-640" class="st2" width="1200" height="17"/>
			<rect id="XMLID_7387_" y="-703" class="st2" width="1200" height="17"/>
			<rect id="XMLID_7386_" y="-766" class="st2" width="1200" height="16"/>
			<rect id="XMLID_7385_" y="-829" class="st2" width="1200" height="16"/>
			<rect id="XMLID_7384_" y="-892" class="st2" width="1200" height="16"/>
			<rect id="XMLID_7383_" y="-956" class="st2" width="1200" height="17"/>
			<rect id="XMLID_7382_" y="-1019" class="st2" width="1200" height="17"/>
			<rect id="XMLID_7381_" y="-1082" class="st2" width="1200" height="17"/>
			<rect id="XMLID_7380_" y="-1145" class="st2" width="1200" height="16"/>
			<rect id="XMLID_7379_" y="-1200" class="st2" width="1200" height="8"/>
		</g>
	</g>
</pattern>
<rect x="-0.3" y="-1.3" class="st4" width="302.3" height="398.5"/>
<rect x="-1.3" y="393.8" class="st5" width="301.6" height="55.7"/>
<g id="Arbol_4">
	<path class="st6" d="M243.3,0.5c-1.8,21.2-3.7,42.4-5.5,63.5c-1.2,13.3-2.3,26.7-2.6,40c-1.2,52.2,10.8,104.6,4.9,156.5
		c-3.4,30.1-12.8,59.3-14.8,89.5c-1,15.6-0.1,31.3-1.7,46.8h77.9V-0.2L243.3,0.5z"/>
	<path class="st7" d="M264.6,10.2c-3.7,53.5,5.1,107.1,3,160.7c-1.6,43.2-10.3,85.9-18.6,128.4c-1.7,8.8-3.4,17.7-3,26.7
		c0.8,18.6,10.4,36.1,9.9,54.6"/>
	<path class="st8" d="M277.4,6.9c-0.9,95.6-5.1,191.2-12.6,286.6c-0.8,10.6-1.7,21.3-1.2,31.9c1.1,22,8.3,43.8,4.8,65.5"/>
	<path class="st9" d="M290.1,9.6c0.3,33.6,0.6,67.3,0.8,100.9c0.1,16.5,0.3,33-0.2,49.6c-0.3,10.5-0.9,21-1.4,31.5
		c-0.5,9.6-1,19.2-1.5,28.8c-0.6,10.7-1.1,21.5-2.9,32c-2.6,15.7-7.7,30.9-9,46.8c-2.3,28.5,8,56.6,7.7,85.2"/>
</g>
<g>
	<path class="st10" d="M37.5,239.3c5.9-3.4,11.3-7.6,16-12.6c1.4-1.5,2.8-3.1,3.2-5.1c0.7-3.1-1-6.2-1.3-9.3c-0.2-2.5,0.6-5,2.1-7
		c0.7,3.5,1.4,7,2,10.5c2.8-5.6,6.9-10.4,11.9-14.2c-0.9,2.8,0.6,5.9,0.4,8.9c-0.2,3.3-2.4,6.1-4.3,8.8c-3.2,4.5-6,9.3-8.2,14.3
		c12.5-3.3,23-13.5,26.4-26c0.7-0.1,1.5-0.2,2.2-0.3c-3.4,15.9-16.6,29.2-32.4,32.7c-1.3,0.3-2.6,0.5-3.8,1.1
		c-1,0.5-1.9,1.4-2.7,2.2c-4.9,4.9-8.9,10.7-11.6,17.1c-0.1-4.9-0.2-9.7-0.3-14.6L37.5,239.3z"/>
	
		<pattern  id="Arbol_1_00000032635660024275786670000002502197306473825971_" xlink:href="#New_Pattern_46" patternTransform="matrix(0.2636 0 0 0.2636 -2610.7854 -5518.9766)">
	</pattern>
	<path id="Arbol_1" style="fill:url(#Arbol_1_00000032635660024275786670000002502197306473825971_);" d="M0.2,0.4
		c-5.4,132.1-5.7,264.5-1,396.6c11.8,0.1,23.6,0.2,35.4,0.3c1.3,0,2.7,0,3.6-0.9c1-0.9,1.1-2.5,1.1-3.9c-0.1-81.9-0.7-163.7-2-245.5
		c-0.2-14.8-0.5-29.7-0.7-44.5C36.4,90,36.2,77.5,36,65c-0.4-21.7-0.7-43.4-1.1-65.2C22.7,0,12.4,0.2,0.2,0.4z"/>
	<pattern  id="SVGID_1_" xlink:href="#New_Pattern_46" patternTransform="matrix(0.2636 0 0 0.2636 -2610.7854 -5518.9766)">
	</pattern>
	<path class="st12" d="M36.3,86.2c21.6-10.9,40.5-26.3,59.3-41.5c9.8-8,19.5-13.7,20.1-30.5c0.1-3.8,7.5-2.8,6.1,7.7
		c-0.7,5.3,9.9-3.2,14.2-6.5c6.8-5.3,18.8-13.9,22.9-11.8c5,2.7-4.8,9.6-9.7,12.5c-9.3,5.4-17.7,12.5-24.6,20.9
		c7.3,2.2,17.7-1.6,22.3,4.4c1.7,2.2-0.8,9-3.2,7.6c-12-6.6-19.5-2.4-28.6,0.9s-17.4,8.7-25.6,14c-6.5,4.2-13,8.5-19.5,12.7
		c-12.2,8-24.5,16.1-34.5,26.7C34.6,97.9,35.5,91.7,36.3,86.2z"/>
</g>
<g id="Arbol_2_00000068664353862797684990000003197267935596000147_">
	<g id="Hojas_1_00000025433187721454917300000015037863444614741419_">
		
			<linearGradient id="_x31__hojas_arbol_00000080920870594879729720000013044842089507038127_" gradientUnits="userSpaceOnUse" x1="13.8801" y1="51.7335" x2="154.0403" y2="51.7335">
			<stop  offset="0" style="stop-color:#FFF1DB"/>
			<stop  offset="0.5" style="stop-color:#FDDECE"/>
			<stop  offset="0.5772" style="stop-color:#F3D9CF"/>
			<stop  offset="0.6995" style="stop-color:#DCCED1"/>
			<stop  offset="0.8506" style="stop-color:#B9BDD4"/>
			<stop  offset="1" style="stop-color:#8EAAD9"/>
		</linearGradient>
		
			<path id="_x31__hojas_arbol_00000075843531730982512690000008533642845846826379_" style="fill:url(#_x31__hojas_arbol_00000080920870594879729720000013044842089507038127_);" d="
			M96.7,81.6c2,2,5.7,1.6,7.3-0.8c3.2,0.4,6.3,0.9,9.5,1.3c2,0.3,4.1,0.5,6.1-0.1c0.6-0.2,1.2-0.5,1.8-0.7c1.1-0.3,2.2,0,3.3,0.2
			c3.8,0.6,7.8,0.5,11.3-1.2c3.5-1.6,6.6-4.8,7.7-8.8c5.6,1,10.9-5.5,10.2-11.7c-0.7-6.2-6.5-10.8-12.2-10.8
			c-0.3-8.8-6.7-17-14.7-18.5c-0.1-6.1-2.6-12.3-7.2-15.6s-11.6-2.8-15.1,1.9C101.5,7,89.9,1.8,81.4,6.2c-1.8,0.9-3.5,2.2-5.4,2.7
			c-1.2,0.3-2.4,0.3-3.6,0.3c-4.2-0.1-8.5-0.3-12.3,1.3s-7.3,5.6-7.2,10.1c-4.6,0.2-9.3,0.9-13.3,3.4s-7.1,7.1-6.9,12.1
			c-4.4-0.7-9,1.4-11.6,5.3s-3.1,9.3-1.3,13.7c-2.5,3.3-5,6.8-5.7,11c-0.7,4.2,0.9,9.2,4.5,10.8c-3.8,1.3-5,7.1-3.1,11
			c1.9,3.8,5.8,6,9.7,7.1c3.2,1,6.7,1.5,10,0.5c1.9,2.9,5.7,3.9,8.9,3.1c3.2-0.7,6.1-2.9,8.7-5.1c6.2,3.3,14.5,0.7,18.3-5.6
			c0,0.1,7.1-0.5,7.8-0.7c1.5-0.4,3-0.9,4.6-1.2C88.2,85.1,92.6,84.8,96.7,81.6z"/>
		<g id="Dulce_Arbol_1_00000155125473536707281560000012098797069217706369_">
			<path class="st14" d="M128.9,45.9c0.6,0,1.1-0.1,1.7,0c0.4,0,0.9,0,1.3,0c0.8,0.1,1.4,0.4,2.3,0.2c0.4-0.1,0.8,0,1.3-0.1
				c0.3,0,0.5-0.1,0.8,0c0.4,0.1,0.9,0,1.3,0.3c0.5,0.3,0.3,0.7,0.4,1.2c0.1,1.4,0.1,2.8,0.1,4.1c0,0.5,0,0.9-0.1,1.4
				c0,0.2,0,1-0.1,1.1c-0.2,0.3-1.3,0.2-1.6,0.1c-0.9-0.1-1.7-0.2-2.6-0.3c-1-0.1-2.1,0.1-3.1-0.1c-0.6-0.1-1.2-0.2-1.8-0.3
				c-0.3,0-0.5-0.1-0.8-0.1c-0.1,0-0.4,0.1-0.5,0c0,0,0,0-0.1,0c0-1.2-0.1-5.8,0.2-7.1C127.7,46.2,128.5,45.8,128.9,45.9z"/>
			<path class="st15" d="M127.6,53.4c-0.4-0.1-0.9-0.3-1.2-0.5c-0.4-0.3-0.7-0.8-1-1.2c-0.3-0.4-0.6-0.9-1-1.2
				c-0.3-0.3-0.6-0.5-0.9-0.8c-0.2-0.2-0.3-0.4-0.5-0.6c0.2-1.2,0.3-2.4,0.5-3.6c0.1-0.8,0.2-1.5,0.3-2.3c0.1-0.6,0-1.2,0.2-1.8
				c0.2,0.2,0.4,0.6,0.6,0.9c0.2,0.3,0.5,0.5,0.7,0.8c0.4,0.4,0.8,0.9,1.1,1.4c0.4,0.5,0.8,1.3,1.3,1.7L127.6,53.4z"/>
			<path class="st16" d="M124,41.3c0.8,0.3,1,0.3,1.8,0.5c0.4,0.1,0.9,0.2,1.3,0.2c0.9,0.1,1.8-0.2,2.6-0.1c0.5,0,0.8,0.2,1.3,0.1
				c0.3,0,0.9-0.3,1.2-0.2c0.3,0,0.6,0.3,0.8,0.4c0.9,0.5,1.6,1.3,2.5,2c0.4,0.3,0.8,0.6,1.2,1c0.3,0.3,0.6,0.8,1,1h-9.7L124,41.3z"
				/>
		</g>
		<g id="Dulce_Arbol_1_00000149343781031036664510000005130514673442391438_">
			<path class="st17" d="M36.4,75c-0.1,0.2-0.3,0.4-0.4,0.6c-0.2,0.3-0.3,0.5-0.5,0.8c-0.3,0.5-0.8,1-1.1,1.5
				c-0.4,0.6-0.7,1.3-1.1,1.9c-0.3-0.4-0.5-1.1-0.7-1.6c-0.2-0.5-0.4-1-0.6-1.4c-0.2-0.3-0.4-0.7-0.6-1c-0.2-0.6-0.3-1.2-0.6-1.8
				c-0.2-0.3-0.3-0.7-0.2-1c0.2-0.4,0.6-0.9,0.9-1.2c0.2-0.3,0.4-0.6,0.7-0.9c0.3-0.3,0.5-0.6,0.8-0.9c0.2-0.2,0.5-0.5,0.6-0.7
				c0,0,1.1,2,1.5,2.7c0.4,0.9,0.9,1.8,1.3,2.7C36.4,74.8,36.5,75,36.4,75z"/>
			<path class="st18" d="M30.6,73.4c-0.4-0.1-0.8-0.3-1.2-0.5c-0.5-0.2-1-0.5-1.5-0.8c-0.4-0.2-0.8-0.4-1.2-0.7
				c-0.2-0.1-0.5-0.2-0.7-0.4c-0.1-0.1-0.3-0.2-0.2-0.3c0-0.1,0.2-0.2,0.2-0.2c0.1-0.1,0.1-0.2,0.2-0.2c0.1-0.1,0.2-0.2,0.3-0.3
				c0.1-0.1,0.2-0.3,0.3-0.4c0.2-0.2,0.5-0.4,0.7-0.7c0.1-0.1,0.2-0.2,0.3-0.3c0.1-0.1,0.2-0.3,0.3-0.4c0.2-0.3,0.5-0.6,0.7-0.9
				c0.1-0.1,0.2-0.2,0.3-0.3c0.2-0.1,0.4,0.1,0.5,0.2c0.2,0.1,0.4,0.2,0.6,0.3c0.2,0.1,0.5,0.3,0.8,0.4c0.3,0.1,0.5,0.3,0.8,0.4
				c0.2,0.1,0.4,0.1,0.6,0.2c0.2,0.1,0.4,0.3,0.6,0.4c0.2,0.1,0.4,0.2,0.5,0.3L30.6,73.4z"/>
			<path class="st19" d="M33.3,79.9c-0.2-0.1-0.5-0.2-0.8-0.3c-0.1,0-0.2-0.1-0.3-0.1c-0.3,0-0.7-0.2-1-0.4c-0.7-0.3-1.3-0.6-2-0.8
				c-0.3-0.1-0.7-0.3-1.1-0.4c-0.3-0.1-0.6-0.2-0.9-0.4c-0.2-0.1-0.4-0.2-0.6-0.2c-0.1,0-0.3-0.1-0.3-0.2c-0.1-0.1,0-0.4-0.1-0.5
				c-0.1-0.4,0-0.9-0.1-1.3c0-0.2-0.1-0.3-0.1-0.5c0-0.2,0-0.4,0-0.7c0-0.4,0-0.7,0-1.1c0-0.2,0-0.3-0.1-0.4c0-0.2,0-0.4,0-0.6
				c0-0.2,0-0.4,0-0.7c0-0.3,0-0.2,0-0.5l4.7,2.6L33.3,79.9z"/>
		</g>
		<g id="Dulce_Arbol_1_00000041991451095540833580000010254533749328116126_">
			<path class="st17" d="M121,26.8c-0.2,0.1-0.4,0.3-0.6,0.4c-0.3,0.1-0.5,0.3-0.8,0.5c-0.5,0.3-1.1,0.5-1.6,0.9
				c-0.6,0.4-1.2,0.8-1.8,1.2c-0.1-0.5,0-1.2,0-1.7c0-0.5,0.1-1.1,0-1.6c0-0.4-0.1-0.8-0.1-1.2c0.1-0.6,0.2-1.2,0.2-1.9
				c0-0.4,0-0.8,0.2-1c0.3-0.3,0.9-0.5,1.3-0.6c0.3-0.1,0.6-0.3,0.9-0.5c0.3-0.1,0.7-0.3,1-0.4c0.2-0.1,0.6-0.2,0.8-0.3
				c0,0,0.2,2.3,0.3,3.2c0,1,0.1,2,0.1,3C121.1,26.6,121.1,26.8,121,26.8z"/>
			<path class="st18" d="M116.4,22.5c-0.3-0.3-0.6-0.7-0.8-1c-0.3-0.5-0.7-0.9-1-1.4c-0.3-0.4-0.6-0.8-0.8-1.2
				c-0.2-0.2-0.3-0.4-0.4-0.6c-0.1-0.1-0.2-0.3,0-0.4c0.1-0.1,0.2-0.1,0.3-0.1c0.1,0,0.2-0.1,0.3-0.1c0.1,0,0.3-0.1,0.4-0.1
				c0.2-0.1,0.3-0.2,0.4-0.2c0.3-0.1,0.6-0.2,0.9-0.2c0.1,0,0.2,0,0.3-0.1c0.1-0.1,0.3-0.2,0.4-0.3c0.3-0.2,0.7-0.3,1-0.5
				c0.1,0,0.2-0.1,0.3-0.1c0.2,0,0.3,0.3,0.4,0.4c0.1,0.2,0.2,0.4,0.4,0.6c0.2,0.2,0.3,0.5,0.5,0.7c0.2,0.3,0.4,0.5,0.6,0.8
				c0.1,0.2,0.3,0.3,0.4,0.5c0.2,0.2,0.3,0.4,0.4,0.6c0.1,0.2,0.3,0.3,0.4,0.5L116.4,22.5z"/>
			<path class="st19" d="M116.3,29.7c-0.2-0.2-0.4-0.4-0.6-0.6c-0.1-0.1-0.2-0.1-0.3-0.2c-0.3-0.2-0.5-0.5-0.8-0.8
				c-0.5-0.6-1-1.1-1.5-1.7c-0.3-0.3-0.5-0.6-0.8-0.9c-0.2-0.3-0.5-0.5-0.7-0.8c-0.2-0.2-0.3-0.3-0.5-0.5c-0.1-0.1-0.2-0.2-0.2-0.3
				c0-0.2,0.1-0.4,0.2-0.5c0.1-0.4,0.3-0.8,0.4-1.3c0-0.2,0.1-0.3,0.1-0.5c0.1-0.2,0.2-0.4,0.3-0.6c0.1-0.3,0.3-0.7,0.4-1
				c0.1-0.1,0.1-0.3,0.1-0.4c0-0.2,0.2-0.4,0.2-0.5c0.1-0.2,0.1-0.4,0.2-0.6c0.1-0.3,0.1-0.2,0.2-0.5l3.2,4.5L116.3,29.7z"/>
		</g>
		<g id="Dulce_Arbol_1_00000182488546294325640440000009084760603383123088_">
			<path class="st17" d="M58.2,49.5c-0.8,0.4-1.7,1.2-2.5,1.4c-0.1-0.2,0-0.5-0.1-0.6c0-0.3-0.1-0.5-0.1-0.8
				c-0.1-0.4-0.2-0.8-0.3-1.2c-0.2-0.7-0.5-1.4-0.8-2c-0.3-0.8-0.5-1.7-0.8-2.5c-0.2-0.5-0.4-1-0.6-1.5c-0.1-0.3-0.2-0.5-0.3-0.8
				c-0.1-0.2-0.3-0.6-0.3-0.8c0-0.4,0.7-0.6,1-0.8c0.5-0.3,0.9-0.5,1.4-0.8c0.4-0.2,3.4-1.4,3.8-1.6c0.1-0.1,0.4-0.3,0.6-0.3
				c0.2,0,0.2,0.2,0.3,0.4c0.2,0.5,0.3,0.9,0.4,1.4c0.2,1,0.4,2,0.9,2.9c0.2,0.4,0.4,0.8,0.5,1.3c0,0.2,0.1,0.5,0.1,0.8
				c0.2,0.6,0.6,1.2,0.8,1.8c0.1,0.2,0.1,0.4,0.2,0.7c0.1,0.3,0.2,0.3,0,0.6c-0.4,0.4-1,0.6-1.4,0.8C60.1,48.4,59.1,48.9,58.2,49.5z
				"/>
			<path class="st19" d="M62.7,46.9c0.4-0.7,0.5-1.5,0.8-2.3c0.2-0.4,0.3-0.9,0.5-1.3c0.2-0.6,0.6-1.5,0.4-2.1
				c-0.2-0.8-0.5-1.6-0.9-2.3c-0.2-0.5-0.5-1-0.7-1.5c-0.6-1.3-1.2-2.6-1.9-3.9l-0.3,0.7c0,0.2-0.1,0.5-0.2,0.7
				c-0.1,0.3-0.1,0.5-0.2,0.8c-0.2,0.5-0.6,1-0.7,1.5L62.7,46.9z"/>
			<path class="st18" d="M60.9,33.6c-0.6,0.1-1,0.4-1.6,0.6c-0.4,0.2-4.6,1.4-4.8,1.7c-0.2,0.2-0.4,0.8-0.5,1
				c-0.1,0.3-0.2,0.7-0.4,1c-0.1,0.2-0.3,0.4-0.4,0.6c-0.1,0.3-0.2,0.5-0.3,0.8c-0.2,0.4-0.4,0.7-0.5,1.1l7-3.2L60.9,33.6z"/>
		</g>
		<g id="Dulce_Arbol_1_00000062153207745041337680000011919417798711215269_">
			<path class="st14" d="M61.3,67c0.2,1.1,0.6,2.2,0.7,3.2c0.2,1.1,0.2,2.4,0.4,3.5c-0.7,0.2-1.5,0.3-2.2,0.5
				c-1,0.2-1.8,0.7-2.8,0.9c-0.4,0.1-2.9,0.5-2.9,0.8c-0.1-0.4-0.1-0.9-0.1-1.3c-0.1-0.9-0.4-1.8-0.5-2.8c-0.1-1-0.1-2-0.3-3
				c0.5-0.1,1-0.3,1.5-0.5c0.7-0.2,1.5-0.4,2.2-0.6c1.1-0.4,2.2-0.5,3.4-0.7L61.3,67z"/>
			<path class="st15" d="M54.6,76c-0.2-0.4-0.8-0.8-1.1-1.1c-0.4-0.4-0.8-0.9-1.1-1.3c-0.4-0.5-0.8-0.9-1.3-1.4
				c-0.5-0.6-0.7-0.9-0.8-1.7c-0.3-1.5-0.7-3-1-4.5l4.4,2.7L54.6,76z"/>
			<path class="st16" d="M49.4,66.1c0.6,0.4,3.5,2.2,4.3,2.6l7.7-1.8c-0.8-0.7-1.7-1.4-2.6-2.1c-0.3-0.2-0.7-0.6-1-0.7
				c-0.5-0.1-1.1,0.2-1.6,0.3C54,64.9,51.7,65.6,49.4,66.1L49.4,66.1z"/>
		</g>
		<g id="Dulce_Arbol_1_00000085961884207059675600000006279105773538912182_">
			<path class="st14" d="M35.9,40.4c0.2,1.1,0.6,2.2,0.7,3.2c0.2,1.1,0.2,2.4,0.4,3.5c-0.7,0.2-1.5,0.3-2.2,0.5
				c-1,0.2-1.8,0.7-2.8,0.9c-0.4,0.1-2.9,0.5-2.9,0.8c-0.1-0.4-0.1-0.9-0.1-1.3c-0.1-0.9-0.4-1.8-0.5-2.8c-0.1-1-0.1-2-0.3-3
				c0.5-0.1,1-0.3,1.5-0.5c0.7-0.2,1.5-0.4,2.2-0.6c1.1-0.4,2.2-0.5,3.4-0.7L35.9,40.4z"/>
			<path class="st15" d="M29.2,49.5c-0.2-0.4-0.8-0.8-1.1-1.1c-0.4-0.4-0.8-0.9-1.1-1.3c-0.4-0.5-0.8-0.9-1.3-1.4
				c-0.5-0.6-0.7-0.9-0.8-1.7c-0.3-1.5-0.7-3-1-4.5l4.4,2.7L29.2,49.5z"/>
			<path class="st16" d="M24,39.5c0.6,0.4,3.5,2.2,4.3,2.6l7.7-1.8c-0.8-0.7-1.7-1.4-2.6-2.1c-0.3-0.2-0.7-0.6-1-0.7
				c-0.5-0.1-1.1,0.2-1.6,0.3C28.6,38.4,26.3,39,24,39.5L24,39.5z"/>
		</g>
		<g id="Dulce_Arbol_1_00000070825833271407751670000010343114624285282209_">
			<path class="st14" d="M101.1,43.7c-0.2,0.2-0.4,0.6-0.5,0.8c-0.2,0.4-0.5,0.7-0.7,1.1c-0.5,0.7-1.1,1.4-1.5,2.1
				c-0.5,0.9-1,1.8-1.5,2.6c-0.4-0.5-0.7-1.5-0.9-2.2c-0.3-0.7-0.5-1.3-0.9-2c-0.2-0.4-0.6-1-0.8-1.4c-0.3-0.8-0.4-1.7-0.8-2.5
				c-0.2-0.5-0.5-0.9-0.3-1.4c0.2-0.6,0.8-1.2,1.2-1.6c0.3-0.4,0.6-0.8,0.9-1.2c0.4-0.4,0.7-0.8,1.1-1.2c0.3-0.3,0.7-0.6,0.9-0.9
				c0,0,1.6,2.7,2.1,3.7c0.6,1.2,1.3,2.4,1.8,3.7C101.1,43.3,101.2,43.5,101.1,43.7z"/>
			<path class="st16" d="M93.1,41.4c-0.6-0.1-1.1-0.5-1.6-0.7c-0.7-0.3-1.4-0.7-2-1.1c-0.5-0.3-1.1-0.6-1.7-0.9
				c-0.3-0.2-0.6-0.3-0.9-0.5c-0.1-0.1-0.4-0.2-0.3-0.5c0-0.1,0.2-0.2,0.3-0.3c0.1-0.1,0.2-0.2,0.3-0.3c0.1-0.1,0.3-0.2,0.4-0.4
				c0.2-0.2,0.3-0.4,0.4-0.6c0.3-0.3,0.7-0.6,1-0.9c0.1-0.1,0.3-0.2,0.4-0.4c0.1-0.2,0.2-0.4,0.4-0.6c0.3-0.5,0.7-0.8,1-1.3
				c0.1-0.1,0.2-0.3,0.4-0.4c0.2-0.1,0.5,0.1,0.7,0.2c0.3,0.2,0.5,0.3,0.8,0.5c0.3,0.2,0.7,0.4,1,0.6c0.4,0.2,0.7,0.4,1.1,0.6
				c0.3,0.1,0.5,0.2,0.8,0.3c0.3,0.2,0.6,0.4,0.9,0.5c0.2,0.1,0.5,0.2,0.7,0.4L93.1,41.4z"/>
			<path class="st15" d="M96.8,50.3c-0.3-0.1-0.7-0.2-1-0.4c-0.1-0.1-0.3-0.1-0.4-0.1c-0.5-0.1-0.9-0.3-1.4-0.5
				c-0.9-0.4-1.9-0.8-2.8-1.2c-0.5-0.2-1-0.4-1.4-0.6c-0.4-0.2-0.8-0.3-1.3-0.5c-0.3-0.1-0.6-0.2-0.9-0.3c-0.2-0.1-0.4-0.1-0.4-0.3
				c-0.1-0.2-0.1-0.5-0.1-0.7C87,45.2,87,44.6,86.9,44c-0.1-0.3-0.1-0.4-0.1-0.7c0-0.3,0-0.6,0-0.9c0-0.5-0.1-1-0.1-1.5
				c0-0.2-0.1-0.4-0.1-0.6c0-0.3,0-0.5,0-0.8c0-0.3-0.1-0.6-0.1-0.9c0-0.4,0-0.3,0-0.7l6.5,3.5L96.8,50.3z"/>
		</g>
		<g id="Dulce_Arbol_1_00000173137612128468371270000008014335781857435035_">
			<path class="st17" d="M62.1,11.9c0.6,0,1.1-0.1,1.7,0c0.4,0,0.9,0,1.3,0c0.8,0.1,1.4,0.4,2.3,0.2c0.4-0.1,0.8,0,1.3-0.1
				c0.3,0,0.5-0.1,0.8,0c0.4,0.1,0.9,0,1.3,0.3c0.5,0.3,0.3,0.7,0.4,1.2c0.1,1.4,0.1,2.8,0.1,4.1c0,0.5,0,0.9-0.1,1.4
				c0,0.2,0,1-0.1,1.1c-0.2,0.3-1.3,0.2-1.6,0.1c-0.9-0.1-1.7-0.2-2.6-0.3c-1-0.1-2.1,0.1-3.1-0.1c-0.6-0.1-1.2-0.2-1.8-0.3
				c-0.3,0-0.5-0.1-0.8-0.1c-0.1,0-0.4,0.1-0.5,0c0,0,0,0-0.1,0c0-1.2-0.1-5.8,0.2-7.1C60.9,12.3,61.7,11.9,62.1,11.9z"/>
			<path class="st19" d="M60.8,19.5c-0.4-0.1-0.9-0.3-1.2-0.5c-0.4-0.3-0.7-0.8-1-1.2c-0.3-0.4-0.6-0.9-1-1.2
				c-0.3-0.3-0.6-0.5-0.9-0.8c-0.2-0.2-0.3-0.4-0.5-0.6c0.2-1.2,0.3-2.4,0.5-3.6c0.1-0.8,0.2-1.5,0.3-2.3c0.1-0.6,0-1.2,0.2-1.8
				c0.2,0.2,0.4,0.6,0.6,0.9c0.2,0.3,0.5,0.5,0.7,0.8c0.4,0.4,0.8,0.9,1.1,1.4c0.4,0.5,0.8,1.3,1.3,1.7L60.8,19.5z"/>
			<path class="st18" d="M57.2,7.4c0.8,0.3,1,0.3,1.8,0.5c0.4,0.1,0.9,0.2,1.3,0.2C61.2,8.2,62.1,7.9,63,8c0.5,0,0.8,0.2,1.3,0.1
				c0.3,0,0.9-0.3,1.2-0.2c0.3,0,0.6,0.3,0.8,0.4c0.9,0.5,1.6,1.3,2.5,2c0.4,0.3,0.8,0.6,1.2,1c0.3,0.3,0.6,0.8,1,1h-9.7L57.2,7.4z"
				/>
		</g>
		<g id="Primer_arbusto_dulces_00000034073369642146110330000012217494996150725038_">
			<path class="st20" d="M141.6,51.6c-0.7-0.3-1.7-0.1-2.2,0.5c-0.5,0.6-0.6,1.7-0.2,2.4c-0.9-0.1-1.8-0.2-2.7-0.4
				c-0.2,0-0.4,0-0.6,0c-0.6,0.3-0.1,1.3-0.3,1.9c-1-0.8-2.6-0.5-3.3,0.6c0.1-0.9-0.6-1.7-1.4-1.9c-0.8-0.2-1.6,0.1-2.4,0.4
				c0-0.8-0.6-1.5-1.3-1.8c-0.7-0.3-1.5-0.4-2.2-0.3c0.4-1.6-1.1-3.4-2.6-3.1"/>
			<path class="st21" d="M102.9,43c-1.5,0.5-2.7,2.1-2.8,3.8c-1.7,0.4-3,2.3-2.7,4.2c-1-1-2.6-1.1-3.7-0.3c-0.3-1.8-2.6-2.8-4-1.8
				c-1.1-1.4-3-2.1-4.7-1.6"/>
			<path class="st22" d="M123.4,27.6c-0.8-0.1-1.6,0-2.3,0.3c-0.4,0.2-0.9,0.7-0.6,1.1c-0.8-0.5-1.7-0.6-2.5-0.2
				c-0.8,0.4-1.4,1.2-1.6,2.1c-0.4-0.8-1.4-1.2-2.1-0.9c0.1-1.2-0.3-2.6-1.2-3.4c-0.9-0.8-2.1-1.1-3.2-0.8c0.9-1,0.7-2.8-0.4-3.6"/>
			<path class="st22" d="M40.1,45.4c-0.6-0.3-1.3,0.1-1.6,0.8s-0.2,1.4-0.2,2.1c-0.6-0.6-1.5-0.9-2.4-0.6c-0.8,0.2-1.5,1-1.8,1.8
				c-0.5-0.9-1.7-1.2-2.5-0.7c-0.9,0.4-1.4,1.4-1.7,2.4c-0.5-0.8-1.1-1.5-1.8-2.1c-0.7-0.5-1.7-0.7-2.5-0.3c0.5-0.8,0.3-2-0.3-2.7
				c-0.6-0.8-1.4-1.2-2.2-1.6"/>
			<path class="st21" d="M73.4,16.9c-0.9,0-1.7,1-1.9,2c-0.2,1,0.2,2.1,0.7,2.9c-0.1-0.6-0.8-0.9-1.4-1.1C69.6,20.4,68,20,67,21
				c-0.6,0.6-0.9,1.4-1.4,2.1c0-1.4-1.1-2.5-2.4-2.8s-2.5,0.2-3.5,1.1c-0.2-1.7-1.4-3.2-2.9-3.5"/>
			<path class="st23" d="M64,74.1c-1.5-0.5-3.3,0.5-3.7,2.2c-0.6-1.3-2.1-2-3.4-1.8c-1.3,0.3-2.4,1.6-2.5,3
				c-0.3-0.9-0.7-1.7-1.4-2.4s-1.6-1-2.4-0.7c0.3-0.9,0-2.1-0.6-2.8s-1.5-1.2-2.4-1.4"/>
			<path class="st24" d="M38.9,73.6c-0.8-0.3-1.7,0.3-2.1,1.1c-0.4,0.8-0.3,1.8-0.3,2.7c-0.6-0.7-1.8-0.4-2.2,0.4
				c-0.5,0.8-0.4,1.9,0,2.8c-1.2-0.6-2.4-0.9-3.7-0.9c-0.7,0-1.5,0.1-1.8,0.8c-0.2-1-0.9-1.8-1.7-2.2c-0.8-0.4-1.8-0.5-2.7-0.5"/>
			<path class="st25" d="M67.1,40.9c-1.3,0.2-2.2,2-1.7,3.3c-0.2-0.2-0.6-0.3-0.9-0.2c-0.7,0.1-1.2,0.8-1.4,1.5s-0.1,1.5-0.1,2.3
				c-0.8-0.5-1.8-0.4-2.5,0.1s-1.1,1.6-0.9,2.6c-0.4-0.5-1-0.6-1.6-0.4c-0.6,0.1-1,0.5-1.5,0.8c-0.6,0.5-1.3,0.9-1.9,1.4"/>
		</g>
	</g>
	
		<pattern  id="Arbol_tronco_00000167358485812603179970000016767062256883414915_" xlink:href="#New_Pattern_45" patternTransform="matrix(0.2636 0 0 0.2636 -2415.0056 -5954.0254)">
	</pattern>
	
		<path id="Arbol_tronco_00000049182248307444733710000014054401500598224533_" style="fill:url(#Arbol_tronco_00000167358485812603179970000016767062256883414915_);" d="
		M89.6,393.5c-1-8.4-8.4-142.9-8.3-151.3c0-2.8,0.5-20.9,3-36.1c0.6-3.5,1-11,1.1-14.6c0.3-8.2,0.5-16.5-1.4-24.5
		c-0.4-1.7-0.9-3.4-1-5.2c-0.1-1.8,0.2-3.6-0.4-5.3l-2.6-28.3c0.2-13.1,1-26.1,2.2-39.1c0.1-1.5,0.3-3.1,0.3-4.6
		c0-1.8-0.3-3.6-0.4-5.4c-0.2-2-0.1-4-0.1-6.1c0-4.1,0.1-8.2,0.1-12.2c-1.4-0.1-3.1-0.2-4.5-0.3c-0.2,0-0.5,0-0.6,0.1
		c-0.3,0.2-0.3,0.6-0.3,0.9c-0.6,8.5-1.3,17.1-1.5,25.6c0,1.8-0.1,3.5-0.2,5.3c-0.1,1.4-0.4,2.8-0.6,4.2c-0.1,0.9-0.3,1.7-0.4,2.6
		c-0.3,1.5-0.2,3.2-0.4,4.7c-0.4,2.5-0.8,5-1.2,7.5c-0.2,1.4-1.6,13.2-1.5,14.8l3.2,31.3c-0.6,3.6,0.3,7.2,0.7,10.8
		c0.4,3.7,0.2,7.5-0.1,11.3c-0.5,7.7-1.4,46.8-1.6,48c-3.7,17.4,4.2,163.3,4.2,165.9H89.6z"/>
	<path id="arbol_rama_2_00000145022374371531712830000002997755425605525176_" class="st27" d="M82.6,76.4c-0.2,0.1-0.6,0.3-0.6,0.5
		c0,0.1,0.3,5.1,0.3,5.2c0.1,0.2,0.6,0.1,0.8,0c0.2-0.1,0.3-0.3,0.4-0.5c0.3-0.5,0.7-1,1.1-1.4c0.6-0.6,1.3-1.1,1.8-1.6
		c0.5-0.4,0.9-1,1.3-1.5c0.6-0.7,1.1-1.4,1.7-2.1c0.3-0.4,0.6-0.8,0.8-1.3c0.2-0.7,0-1.5-0.5-2c-1.5-1.5-2.3,0.5-3.2,1.5
		C85.4,74.5,83.9,75.3,82.6,76.4z"/>
	
		<pattern  id="Rama_00000081639213861698490020000010935933311819916702_" xlink:href="#New_Pattern_45" patternTransform="matrix(0.2636 0 0 0.2636 -2415.0056 -5954.0254)">
	</pattern>
	
		<path id="Rama_00000011750539402228865250000013314560362722883977_" style="fill:url(#Rama_00000081639213861698490020000010935933311819916702_);" d="
		M51.1,94.2c1,2.2,1.9,4.5,2.9,6.7c1.8,4.1,3.6,8.2,6.1,11.8c2.6,3.6,6,6.6,10,7.7c1.7,0.5,3.8,0.4,5-1.1c0.9-1.2,0.9-3.1,0.2-4.5
		c-0.7-1.4-1.9-2.4-3.2-3.1s-2.7-1.3-4-2c-1.1-0.6-2.1-1.4-3-2.3c-3.6-3.3-6.4-7.7-8.2-12.5c-0.3-1-0.7-2-1.4-2.6
		c-0.1-0.1-0.2-0.2-0.3-0.2c-0.1,0-0.2,0-0.3,0.1c-0.8,0.2-1.5,0.5-2.3,0.7c-0.3,0.1-0.7,0.2-0.9,0.5C51.4,93.6,51,93.9,51.1,94.2z"
		/>
	<path id="Arbol_Rama_3_00000174592468790795906210000004833845274772448953_" class="st27" d="M53.3,98.4c-2.1-0.6-4.4-2-6-3.4
		c-0.5-0.4-0.9-0.8-1.5-1c-0.6-0.2-1.2-0.1-1.7,0.3c-0.2,0.2-0.3,0.6-0.2,0.9c0,0.1,0.1,0.3,0.2,0.4c0.7,1,1.4,2,2.2,2.9
		c2.4,2.7,6.2,4.2,9.3,5.7C54.7,102.4,54,100.2,53.3,98.4z"/>
	
		<pattern  id="Rama_00000152229566061794996300000011821956017611531909_" xlink:href="#New_Pattern_45" patternTransform="matrix(0.2636 0 0 0.2636 -2415.0056 -5954.0254)">
	</pattern>
	
		<path id="Rama_00000047747795946756837190000008343114297400499636_" style="fill:url(#Rama_00000152229566061794996300000011821956017611531909_);" d="
		M99.2,132.9c-3.3,1.1-6.6,2.3-9.9,3.4c-0.2,0.1-0.5,0.2-0.7,0.4c-0.3,0.3-0.3,0.8-0.3,1.2c0.1,1.7,0.9,3.4,2.3,4.2
		c1.7,1,3.8,0.4,5.7-0.3c3.1-1.2,6.1-2.6,8.8-4.5c2.5-1.8,4.8-3.9,7-6.1c1.2-1.1,2.4-2.3,3.4-3.6c1-1.2,2-2.6,2.9-4
		c0.1-0.1,0.2-0.3,0.2-0.5c0-0.3-0.3-0.4-0.6-0.5c-2-0.6-4.5-0.8-6.5,0c-1.3,0.6-1.7,1.8-2.4,3C106.8,129.8,103.4,131.5,99.2,132.9z
		"/>
	<path id="Arbol_Rama_4_00000103252440359480145400000002963575409012239247_" class="st27" d="M130.7,122.8c-2.3,2-4,5.1-6.8,5.9
		c-1.4,0.4-2.9,0.1-4.3-0.1c-1.6-0.3-3.2-0.6-4.7-0.8c-1.1-0.2-2.3-0.4-3.4,0c-1.1,0.4-2.1,1.4-2,2.7c0.1,0.9,0.7,1.7,1.4,2.2
		c2.2,1.6,5.2,1.2,7.9,0.7c4.3-0.8,8.9-1.9,12-5.3c1.1-1.3,1.7-3.1,2.3-4.7C132.2,123.1,131.6,123,130.7,122.8z"/>
	<path id="Arbol_Rama_6_00000068659998410986355030000018008188611420874137_" class="st27" d="M95.2,200c0.8-4.7-4.3-1.3-4.5-2.3
		c-0.7,1.6-1.4,3.2-2.4,4.5c-1.1,1.3-2.5,2.4-4.1,2.5c-0.8,4-0.8,7.4-1.4,10.9c2.9-2.5,6.2-5.8,8.4-9
		C92.7,204.5,94.1,202.4,95.2,200z"/>
	<path id="Arbol_Rama_5_00000116204941684350039630000015562193030216226977_" class="st27" d="M68.4,152.6c1,4,3.4,7.6,6.6,9.8
		c2.4,1.7,5.4,3,6.3,5.9c0.7,2.5-0.7,5.5-3,6.3c-0.6,0.2-1.2,0.2-1.8,0c-0.7-0.3-1.3-0.9-1.8-1.5c-3.6-4.4-6.8-9.2-9.5-14.4
		c-0.8-1.6-1.2-3.5-2-5.2c1.2-0.6,2.3-1.2,3.5-1.9c0.3-0.2,0.6-0.3,1-0.2C68.1,151.6,68.3,152,68.4,152.6z"/>
	<g id="Hojas_3_00000045612849077251819950000007108719465459841465_">
		
			<linearGradient id="_x33__hojas_arbol_00000106105194848266533960000003203002254476774788_" gradientUnits="userSpaceOnUse" x1="24.082" y1="140.4012" x2="101.7189" y2="140.4012">
			<stop  offset="0" style="stop-color:#FFF1DB"/>
			<stop  offset="0.5" style="stop-color:#FDDECE"/>
			<stop  offset="0.5772" style="stop-color:#F3D9CF"/>
			<stop  offset="0.6995" style="stop-color:#DCCED1"/>
			<stop  offset="0.8506" style="stop-color:#B9BDD4"/>
			<stop  offset="1" style="stop-color:#8EAAD9"/>
		</linearGradient>
		
			<path id="_x33__hojas_arbol_00000142168356477211031730000011502159384578245054_" style="fill:url(#_x33__hojas_arbol_00000106105194848266533960000003203002254476774788_);" d="
			M58.3,126.6c2.5-3.8,8.2-4.7,11.5-1.7c1.2,1,2.1,2.5,2.2,4.1c2.1-0.5,4.1-1.1,6.3-0.9c2.1,0.1,4.3,1,5.6,2.8
			c1.1,1.6,1.5,3.6,1.7,5.6c2.3-1,5.2-0.5,7.1,1.3c1.9,1.8,2.8,4.8,2.2,7.4c2-0.4,4.2,0.6,5.5,2.5c1.3,1.8,1.6,4.3,1.2,6.5
			c-0.1,0.4-0.2,0.9-0.5,1.2c-0.3,0.4-0.9,0.5-1.3,0.6c-2.1,0.4-4.2,0.8-6.4,1.1c-1.2,0.2-2.4,0.4-3.6,0.3c-2.4-0.2-4.6-1.8-5.8-4.1
			c-1.5,2.7-4.4,4.1-7.2,4c-2.8-0.1-5.5-1.6-7.6-3.7c-3.8,4.2-10.2,5.3-14.9,2.4c-0.6-0.4-1.2-0.8-1.8-0.8c-0.7,0-1.4,0.4-2.1,0.8
			c-2,1.1-4.2,1.8-6.4,1.6c-2.2-0.2-4.4-1.4-5.6-3.4c-0.4-0.7-0.8-1.6-1.5-1.9c-0.6-0.3-1.2-0.3-1.8-0.3c-2.2,0.1-4.3-0.3-6.4-0.9
			c-2.1-0.7-4.5-2.4-4.4-4.8c0-1.5,1-2.8,2.2-3.5c1.2-0.7,2.6-1,3.9-1.3c0.4-2.8,1.5-5.5,3.6-7.2c2.1-1.7,4.8-2,7.1-0.8
			c0.5-3.8,3.5-5.2,6.5-6.3C51.5,125.5,54.1,123.7,58.3,126.6z"/>
		<g id="Dulce_Arbol_3_00000098201025747414885730000014065123328208276114_">
			<path class="st17" d="M45.6,135c0.2,1.1,0.6,2.2,0.7,3.2c0.2,1.1,0.2,2.4,0.4,3.5c-0.7,0.2-1.5,0.3-2.2,0.5
				c-1,0.2-1.8,0.7-2.8,0.9c-0.4,0.1-2.9,0.5-2.9,0.8c-0.1-0.4-0.1-0.9-0.1-1.3c-0.1-0.9-0.4-1.8-0.5-2.8c-0.1-1-0.1-2-0.3-3
				c0.5-0.1,1-0.3,1.5-0.5c0.7-0.2,1.5-0.4,2.2-0.6c1.1-0.4,2.2-0.5,3.4-0.7L45.6,135z"/>
			<path class="st19" d="M38.8,144c-0.2-0.4-0.8-0.8-1.1-1.1c-0.4-0.4-0.8-0.9-1.1-1.3c-0.4-0.5-0.8-0.9-1.3-1.4
				c-0.5-0.6-0.7-0.9-0.8-1.7c-0.3-1.5-0.7-3-1-4.5l4.4,2.7L38.8,144z"/>
			<path class="st18" d="M33.6,134.1c0.6,0.4,3.5,2.2,4.3,2.6l7.7-1.8c-0.8-0.7-1.7-1.4-2.6-2.1c-0.3-0.2-0.7-0.6-1-0.7
				c-0.5-0.1-1.1,0.2-1.6,0.3C38.2,133,36,133.6,33.6,134.1L33.6,134.1z"/>
		</g>
		<g id="Dulce_Arbol_3_00000021835337226398692740000012225388364920836788_">
			<path class="st14" d="M57.9,136.4c-0.9,0.1-1.9,0.4-2.8,0.3c-0.1-0.2,0.1-0.4,0.2-0.6c0.1-0.2,0.1-0.5,0.1-0.8
				c0.1-0.4,0.1-0.9,0.1-1.3c0-0.7,0-1.5,0-2.2c0-0.9,0.1-1.8,0.1-2.7c0-0.5,0-1.1,0-1.6c0-0.3,0-0.6,0-0.8c0-0.2-0.1-0.7,0-0.9
				c0.1-0.3,0.9-0.3,1.2-0.3c0.5-0.1,1.1-0.1,1.6-0.2c0.4,0,3.6,0.1,4,0.1c0.2,0,0.5-0.1,0.6,0c0.2,0.1,0.1,0.3,0.1,0.5
				c0,0.5,0,1-0.1,1.5c-0.1,1-0.3,2-0.2,3.1c0,0.5,0.1,0.9,0,1.4c0,0.2-0.1,0.5-0.1,0.8c0,0.6,0.1,1.3,0.1,1.9c0,0.2,0,0.5,0,0.7
				c0,0.4,0.1,0.4-0.2,0.5c-0.5,0.2-1.1,0.1-1.6,0.2C60.1,136.1,59,136.3,57.9,136.4z"/>
			<path class="st15" d="M63,135.9c0.6-0.5,1-1.2,1.5-1.8c0.3-0.3,0.6-0.7,0.9-1c0.4-0.5,1-1.1,1.1-1.8c0.1-0.8,0-1.7,0-2.5
				c-0.1-0.6-0.1-1.1-0.2-1.7c-0.1-1.4-0.3-2.9-0.4-4.3l-0.5,0.5c-0.1,0.2-0.3,0.4-0.4,0.5c-0.2,0.2-0.3,0.4-0.5,0.6
				c-0.4,0.4-0.9,0.7-1.2,1.1L63,135.9z"/>
			<path class="st16" d="M65.9,122.8c-0.6-0.1-1.1-0.1-1.7-0.1c-0.4,0-4.7-0.5-5-0.4c-0.2,0.1-0.6,0.6-0.8,0.8
				c-0.2,0.2-0.5,0.5-0.7,0.8c-0.2,0.2-0.4,0.2-0.6,0.4c-0.2,0.2-0.4,0.4-0.6,0.6c-0.3,0.3-0.6,0.5-0.9,0.8l7.6-0.1L65.9,122.8z"/>
		</g>
		<g id="_x33__arbusto_dulces_00000034780822987021440850000015544026912690240902_">
			<path class="st21" d="M68.1,133.4c-0.9-0.1-2-0.2-2.7,0.4c-1.1,0.8-1.2,2.6-1.1,4c-0.5-1.2-1.8-1.9-3-1.7s-2.2,1.3-2.6,2.5
				c-0.2-1-1-1.8-1.9-2c-0.9-0.1-1.9,0.5-2.2,1.4c-0.4-1.2-0.8-2.6-1.8-3.3"/>
			<path class="st22" d="M48.4,143.2c-1.1-0.3-2.3-0.6-3.5-0.5c-1.2,0.1-2.4,0.8-2.9,1.9c-0.6-0.7-1.7-1-2.5-0.7
				c-0.9,0.3-1.6,1.1-1.9,2c-0.3-0.8-0.6-1.6-1-2.4c-0.2-0.4-0.5-0.8-0.8-1.1s-0.9-0.4-1.2-0.1c0.2-1-0.2-2-0.9-2.6"/>
		</g>
	</g>
	<path id="Arbol_rama_1_00000113347393123353933220000014980023161571648921_" class="st27" d="M79.1,71.4c-0.5,0.4-1.2,0.4-1.8,0.1
		c-0.6-0.3-1.1-0.8-1.4-1.3c-0.9-1.4-1.4-3-1.8-4.7c-0.3-1.1-0.6-2.3-0.9-3.4C73,61.5,72.9,61,73,60.4c0.2-0.7,0.8-1.2,1.4-1.4
		c0.6-0.2,1.3-0.1,2-0.1c0.9,3,2.1,5.9,3.6,8.6C80.8,68.8,80.2,70.6,79.1,71.4z"/>
	<g id="Hojas_4_00000129897726822941244810000016811754730086417075_">
		<path id="_x34__hojas_arbol_00000128469818839203252200000013801842683750559639_" class="st31" d="M102.4,170.7
			c3,0.9,5.5,3.7,6.2,7c1.8-3.2,6.4-3.5,9-1.2c2.6,2.4,3.4,6.7,2.4,10.3c2.4-0.1,4.9,0.5,6.9,2.1c2,1.6,3.3,4.2,3.1,6.8
			c-0.2,2.6-2.1,5.1-4.6,5.4c-0.5,2.8-3.6,4.2-6.1,3.6c-2.5-0.5-4.6-2.4-6.8-4c-0.4-0.3-0.8-0.6-1.3-0.7c-0.6-0.1-1.3,0.1-1.9,0.3
			c-4.2,1.6-9.1,3.7-13,1.1c-0.8-0.5-1.4-1.1-2.3-1.5c-1.6-0.6-3.3,0.1-5,0.6c-4.4,1.1-9.2-0.1-12.7-3.2c-0.6-0.5-1.1-1-1.8-1.3
			c-0.6-0.2-1.3-0.2-1.9-0.3c-2.7-0.4-5-3.1-5.1-6.1c-0.1-3,2-5.9,4.7-6.5c0.4-0.1,0.8-0.1,1.2-0.3c1.6-0.6,2.1-2.7,2.9-4.3
			c2.1-3.9,7.8-4.7,10.7-1.5c-1.4-1.5,5.9-3.8,6.4-4C96.7,171.7,98.9,169.7,102.4,170.7z"/>
		<g id="Dulce_Arbol_4_00000054984583264624984470000015511510182723972285_">
			<path class="st17" d="M99.1,178.2c-0.1,0.2-0.3,0.4-0.4,0.6c-0.2,0.3-0.3,0.5-0.5,0.8c-0.3,0.5-0.8,1-1.1,1.5
				c-0.4,0.6-0.7,1.3-1.1,1.9c-0.3-0.4-0.5-1.1-0.7-1.6c-0.2-0.5-0.4-1-0.6-1.4c-0.2-0.3-0.4-0.7-0.6-1c-0.2-0.6-0.3-1.2-0.6-1.8
				c-0.2-0.3-0.3-0.7-0.2-1c0.2-0.4,0.6-0.9,0.9-1.2c0.2-0.3,0.4-0.6,0.7-0.9c0.3-0.3,0.5-0.6,0.8-0.9c0.2-0.2,0.5-0.5,0.6-0.7
				c0,0,1.1,2,1.5,2.7c0.4,0.9,0.9,1.8,1.3,2.7C99.1,177.9,99.1,178.1,99.1,178.2z"/>
			<path class="st18" d="M93.2,176.6c-0.4-0.1-0.8-0.3-1.2-0.5c-0.5-0.2-1-0.5-1.5-0.8c-0.4-0.2-0.8-0.4-1.2-0.7
				c-0.2-0.1-0.5-0.2-0.7-0.4c-0.1-0.1-0.3-0.2-0.2-0.3c0-0.1,0.2-0.2,0.2-0.2c0.1-0.1,0.1-0.2,0.2-0.2c0.1-0.1,0.2-0.2,0.3-0.3
				c0.1-0.1,0.2-0.3,0.3-0.4c0.2-0.2,0.5-0.4,0.7-0.7c0.1-0.1,0.2-0.2,0.3-0.3c0.1-0.1,0.2-0.3,0.3-0.4c0.2-0.3,0.5-0.6,0.7-0.9
				c0.1-0.1,0.2-0.2,0.3-0.3c0.2-0.1,0.4,0.1,0.5,0.2c0.2,0.1,0.4,0.2,0.6,0.3c0.2,0.1,0.5,0.3,0.8,0.4c0.3,0.1,0.5,0.3,0.8,0.4
				c0.2,0.1,0.4,0.1,0.6,0.2c0.2,0.1,0.4,0.3,0.6,0.4c0.2,0.1,0.4,0.2,0.5,0.3L93.2,176.6z"/>
			<path class="st19" d="M95.9,183.1c-0.2-0.1-0.5-0.2-0.8-0.3c-0.1,0-0.2-0.1-0.3-0.1c-0.3,0-0.7-0.2-1-0.4c-0.7-0.3-1.3-0.6-2-0.8
				c-0.3-0.1-0.7-0.3-1.1-0.4c-0.3-0.1-0.6-0.2-0.9-0.4c-0.2-0.1-0.4-0.2-0.6-0.2c-0.1,0-0.3-0.1-0.3-0.2c-0.1-0.1,0-0.4-0.1-0.5
				c-0.1-0.4,0-0.9-0.1-1.3c0-0.2-0.1-0.3-0.1-0.5c0-0.2,0-0.4,0-0.7c0-0.4,0-0.7,0-1.1c0-0.2,0-0.3-0.1-0.4c0-0.2,0-0.4,0-0.6
				c0-0.2,0-0.4,0-0.7c0-0.3,0-0.2,0-0.5l4.7,2.6L95.9,183.1z"/>
		</g>
		<g id="Dulce_Arbol_4_00000116193908371484071510000008801073920090318214_">
			<path class="st17" d="M105,183.1c-0.2,1.1-0.6,2.2-0.7,3.2c-0.2,1.1-0.2,2.4-0.4,3.5c0.7,0.2,1.5,0.3,2.2,0.5
				c1,0.2,1.8,0.7,2.8,0.9c0.4,0.1,2.9,0.5,2.9,0.8c0.1-0.4,0.1-0.9,0.1-1.3c0.1-0.9,0.4-1.8,0.5-2.8c0.1-1,0.1-2,0.3-3
				c-0.5-0.1-1-0.3-1.5-0.5c-0.7-0.2-1.5-0.4-2.2-0.6c-1.1-0.4-2.2-0.5-3.4-0.7L105,183.1z"/>
			<path class="st19" d="M111.8,192.2c0.2-0.4,0.8-0.8,1.1-1.1c0.4-0.4,0.8-0.9,1.1-1.3c0.4-0.5,0.8-0.9,1.3-1.4
				c0.5-0.6,0.7-0.9,0.8-1.7c0.3-1.5,0.7-3,1-4.5l-4.4,2.7L111.8,192.2z"/>
			<path class="st18" d="M116.9,182.3c-0.6,0.4-3.5,2.2-4.3,2.6l-7.7-1.8c0.8-0.7,1.7-1.4,2.6-2.1c0.3-0.2,0.7-0.6,1-0.7
				c0.5-0.1,1.1,0.2,1.6,0.3C112.3,181.1,114.6,181.7,116.9,182.3L116.9,182.3z"/>
		</g>
		<g id="_x34__arbusto_dulces_00000152948021294734198440000001326272222747063697_">
			<path class="st21" d="M118.6,187.4c-0.7-0.4-1.7-0.2-2.3,0.4s-0.7,1.7-0.3,2.5c-0.5-0.8-1.6-0.9-2.3-0.3c-0.7,0.6-1,1.6-1,2.5
				c-1.3-1.4-3.7-1.2-4.8,0.3c-1.1-2.1-3.5-3.2-5.6-2.6"/>
			<path class="st32" d="M100.9,178.1c-0.6-0.4-1.4,0-1.7,0.7c-0.3,0.7-0.2,1.5,0,2.2c-0.5-0.8-1.8-0.5-2.3,0.3
				c-0.5,0.8-0.5,1.9-0.4,2.9c-0.8-0.6-1.6-1.2-2.5-1.5c-0.9-0.3-1.9-0.3-2.7,0.3c-0.3-1.6-1.9-2.7-3.3-2.4"/>
		</g>
	</g>
	<g id="Hojas_2_00000165221929230211838210000004190572553120275851_">
		<path id="_x32__hojas_arbol_00000075884287847853790730000011474764177880436121_" class="st31" d="M144.2,79.2
			c1.3,1.2,2,3.2,1.8,5c3.8,0.5,6.9,4.7,6.5,8.9c4.2-0.2,8.2,3.4,8.9,7.9c2.1-0.5,4.4,0.1,5.9,1.7c1.6,1.6,2.4,4,2.1,6.3
			c1.8-0.3,3.5,1.1,4.7,2.6c1.3,1.5,2.6,3.2,2.9,5.2c0.4,2-0.4,4.4-2.1,5.3c-1.6,0.8-3.6,0-5.3,0.7c-0.7,0.3-1.2,0.8-1.8,1.3
			c-3.5,2.8-8.3,3.5-12.4,1.7c-0.6-0.3-1.3-0.6-1.9-0.7c-0.8-0.1-1.7,0.3-2.5,0.5c-3.5,1.2-7.3,1.2-10.8,0c-0.4-0.1-0.8-0.3-1.3-0.3
			c-0.9,0-1.6,0.6-2.4,1c-4.3,2.3-9.3-1-14.1-1.3c-3.8-0.3-7.9,1.2-11.3-0.6c-1.1-0.6-2.2-1.6-3.4-1.8c-0.8-0.1-1.6,0-2.4,0.2
			c-3.4,0.8-7.2,2-10.3,0.1c-1-0.6-1.8-1.5-2.8-2.2c-1.5-1-3.4-1.2-5.1-1.7s-3.5-1.5-4.2-3.3c-0.3-0.9-0.3-1.9-0.3-2.9
			c0.1-2.3,0.6-4.7,1.9-6.5s3.8-2.7,5.7-1.7c-1.6-3.1-0.8-7.3,1.5-9.7c2.3-2.4,6-3.2,9.1-2.1c0.6-1.6-0.1-3.5,0.3-5.2
			c0.6-2.5,3.3-3.4,5.5-3.9c2.2-0.4,4.4-0.7,6.6-0.9c2-0.2,4-0.3,5.9,0.4c1.9,0.7,3.6,2.2,4,4.3c3-3.5,8.2-4.6,12.2-2.6
			c-0.5-0.2,2.7-6.1,3.3-6.6C140.4,77.4,142.8,78,144.2,79.2z"/>
		<g id="Dulce_Arbol_2_00000005266510641749019560000014690333721295782786_">
			<path class="st17" d="M156.4,90c0.2,1.2,0.6,2.5,0.8,3.8c0.2,1.3,0.3,2.7,0.5,4c-0.8,0.2-1.5,0.4-2.3,0.5c-1,0.2-1.9,0.7-2.9,1
				c-0.5,0.1-3,0.5-3,0.9c-0.1-0.5-0.1-1.1-0.2-1.5c-0.1-1.1-0.4-2.1-0.5-3.2c-0.1-1.2-0.2-2.3-0.4-3.5c0.5-0.1,1-0.3,1.5-0.5
				c0.7-0.2,1.5-0.4,2.3-0.7c1.2-0.4,2.3-0.5,3.5-0.8L156.4,90z"/>
			<path class="st19" d="M149.6,100.3c-0.3-0.5-0.8-0.9-1.2-1.3c-0.4-0.5-0.8-1-1.2-1.5c-0.4-0.6-0.9-1.1-1.4-1.7
				c-0.6-0.7-0.7-1.1-0.9-2c-0.4-1.7-0.8-3.5-1.1-5.2l4.7,3.2L149.6,100.3z"/>
			<path class="st18" d="M144,88.7c0.6,0.5,3.7,2.6,4.5,3.1l8-1.9c-0.9-0.8-1.8-1.7-2.7-2.5c-0.3-0.3-0.7-0.8-1.1-0.9
				c-0.5-0.1-1.2,0.2-1.6,0.3C148.7,87.5,146.4,88.1,144,88.7L144,88.7z"/>
		</g>
		<g id="Dulce_Arbol_2_00000157294421762603786550000013994157968144615065_">
			<path class="st17" d="M118.7,91c-0.2,0.2-0.4,0.6-0.5,0.8c-0.2,0.4-0.5,0.7-0.7,1.1c-0.5,0.7-1.1,1.4-1.5,2.1
				c-0.5,0.9-1,1.8-1.5,2.6c-0.4-0.5-0.7-1.5-0.9-2.2c-0.3-0.7-0.5-1.3-0.9-2c-0.2-0.4-0.6-1-0.8-1.4c-0.3-0.8-0.4-1.7-0.8-2.5
				c-0.2-0.5-0.5-0.9-0.3-1.4c0.2-0.6,0.8-1.2,1.2-1.6c0.3-0.4,0.6-0.8,0.9-1.2c0.4-0.4,0.7-0.8,1.1-1.2c0.3-0.3,0.7-0.6,0.9-0.9
				c0,0,1.6,2.7,2.1,3.7c0.6,1.2,1.3,2.4,1.8,3.7C118.7,90.6,118.8,90.8,118.7,91z"/>
			<path class="st18" d="M110.7,88.7c-0.6-0.1-1.1-0.5-1.6-0.7c-0.7-0.3-1.4-0.7-2-1.1c-0.5-0.3-1.1-0.6-1.7-0.9
				c-0.3-0.2-0.6-0.3-0.9-0.5c-0.1-0.1-0.4-0.2-0.3-0.5c0-0.1,0.2-0.2,0.3-0.3c0.1-0.1,0.2-0.2,0.3-0.3c0.1-0.1,0.3-0.2,0.4-0.4
				c0.2-0.2,0.3-0.4,0.4-0.6c0.3-0.3,0.7-0.6,1-0.9c0.1-0.1,0.3-0.2,0.4-0.4c0.1-0.2,0.2-0.4,0.4-0.6c0.3-0.5,0.7-0.8,1-1.3
				c0.1-0.1,0.2-0.3,0.4-0.4c0.2-0.1,0.5,0.1,0.7,0.2c0.3,0.2,0.5,0.3,0.8,0.5c0.3,0.2,0.7,0.4,1,0.6c0.4,0.2,0.7,0.4,1.1,0.6
				c0.3,0.1,0.5,0.2,0.8,0.3c0.3,0.2,0.6,0.4,0.9,0.5c0.2,0.1,0.5,0.2,0.7,0.4L110.7,88.7z"/>
			<path class="st19" d="M114.4,97.6c-0.3-0.1-0.7-0.2-1-0.4c-0.1-0.1-0.3-0.1-0.4-0.1c-0.5-0.1-0.9-0.3-1.4-0.5
				c-0.9-0.4-1.9-0.8-2.8-1.2c-0.5-0.2-1-0.4-1.4-0.6c-0.4-0.2-0.8-0.3-1.3-0.5c-0.3-0.1-0.6-0.2-0.9-0.3c-0.2-0.1-0.4-0.1-0.4-0.3
				c-0.1-0.2-0.1-0.5-0.1-0.7c-0.1-0.6-0.1-1.2-0.2-1.8c-0.1-0.3-0.1-0.4-0.1-0.7c0-0.3,0-0.6,0-0.9c0-0.5-0.1-1-0.1-1.5
				c0-0.2-0.1-0.4-0.1-0.6c0-0.3,0-0.5,0-0.8c0-0.3-0.1-0.6-0.1-0.9c0-0.4,0-0.3,0-0.7l6.5,3.5L114.4,97.6z"/>
		</g>
		<g id="Dulce_Arbol_2_00000039125786506644150600000015797102672148642456_">
			<path class="st17" d="M99.8,95c0.2,1.1,0.6,2.2,0.7,3.2c0.2,1.1,0.2,2.4,0.4,3.5c-0.7,0.2-1.5,0.3-2.2,0.5
				c-1,0.2-1.8,0.7-2.8,0.9c-0.4,0.1-2.9,0.5-2.9,0.8c-0.1-0.4-0.1-0.9-0.1-1.3c-0.1-0.9-0.4-1.8-0.5-2.8c-0.1-1-0.1-2-0.3-3
				c0.5-0.1,1-0.3,1.5-0.5c0.7-0.2,1.5-0.4,2.2-0.6c1.1-0.4,2.2-0.5,3.4-0.7L99.8,95z"/>
			<path class="st19" d="M93.1,104.1c-0.2-0.4-0.8-0.8-1.1-1.1c-0.4-0.4-0.8-0.9-1.1-1.3c-0.4-0.5-0.8-0.9-1.3-1.4
				c-0.5-0.6-0.7-0.9-0.8-1.7c-0.3-1.5-0.7-3-1-4.5l4.4,2.7L93.1,104.1z"/>
			<path class="st18" d="M87.9,94.1c0.6,0.4,3.5,2.2,4.3,2.6l7.7-1.8c-0.8-0.7-1.7-1.4-2.6-2.1c-0.3-0.2-0.7-0.6-1-0.7
				c-0.5-0.1-1.1,0.2-1.6,0.3C92.5,93,90.2,93.6,87.9,94.1L87.9,94.1z"/>
		</g>
		<g id="Dulce_Arbol_2_00000111890774594424391820000001666389222886860168_">
			<path class="st17" d="M126.8,104.4c-0.9,0-2,0.1-2.8-0.2c0-0.2,0.2-0.4,0.3-0.6c0.1-0.2,0.2-0.5,0.2-0.7c0.1-0.4,0.2-0.8,0.3-1.3
				c0.1-0.7,0.2-1.5,0.3-2.2c0.1-0.9,0.4-1.7,0.5-2.6c0.1-0.5,0.1-1,0.2-1.6c0-0.3,0.1-0.5,0.1-0.8c0-0.2,0-0.7,0.1-0.9
				c0.2-0.3,0.9-0.1,1.3-0.1c0.5,0,1.1,0.1,1.6,0.1c0.4,0,3.5,0.7,4,0.7c0.2,0,0.5,0,0.6,0.1c0.2,0.1,0.1,0.3,0.1,0.5
				c-0.1,0.5-0.2,1-0.3,1.5c-0.2,1-0.5,2-0.6,3c0,0.5-0.1,0.9-0.2,1.4c-0.1,0.2-0.2,0.5-0.2,0.7c-0.1,0.6-0.1,1.3-0.2,1.9
				c0,0.2-0.1,0.5-0.1,0.7c0,0.4,0,0.4-0.3,0.5c-0.5,0.1-1.1-0.1-1.6-0.1C129,104.6,127.9,104.5,126.8,104.4z"/>
			<path class="st19" d="M131.9,104.8c0.6-0.4,1.2-1,1.8-1.5c0.4-0.3,0.7-0.6,1-0.9c0.5-0.4,1.2-0.9,1.3-1.6
				c0.2-0.8,0.3-1.7,0.3-2.5c0-0.6,0.1-1.2,0.1-1.7c0.1-1.5,0.1-2.9,0.2-4.4l-0.6,0.4c-0.1,0.2-0.3,0.3-0.5,0.5
				c-0.2,0.2-0.4,0.4-0.6,0.5c-0.4,0.4-1,0.5-1.3,0.9L131.9,104.8z"/>
			<path class="st18" d="M136.5,92.2c-0.6-0.2-1.1-0.3-1.6-0.3c-0.4-0.1-4.6-1.3-4.9-1.2c-0.3,0.1-0.7,0.5-0.9,0.6
				c-0.3,0.2-0.5,0.5-0.8,0.6c-0.2,0.1-0.5,0.2-0.7,0.3c-0.2,0.2-0.4,0.4-0.6,0.5c-0.3,0.2-0.7,0.4-1,0.7l7.6,1.1L136.5,92.2z"/>
		</g>
		<g id="Segundo_abusto_Dulces_00000105384472403587023220000006630795489359134365_">
			<path class="st32" d="M158.6,99.9c-0.8-0.4-1.7-0.8-2.6-0.7c-0.9,0.1-1.8,0.8-1.9,1.7c-0.7-0.8-1.8-1.1-2.7-0.8
				c-0.9,0.3-1.7,1.2-1.9,2.2c0.4-0.5,0-1.4-0.5-1.7s-1.2-0.2-1.8-0.1c0.2-1-0.1-2.2-0.8-2.9c-0.7-0.8-1.6-1.2-2.6-1.1"/>
			<path class="st33" d="M121.8,92c-0.8,0.4-1.6,0.8-2.3,1.5c-0.7,0.6-1.2,1.5-1.3,2.5c-0.8-0.6-1.9-0.6-2.7,0
				c-0.8,0.6-1.2,1.7-1.1,2.7c-0.7-0.9-1.6-1.6-2.7-1.7c-1-0.1-2.2,0.5-2.6,1.6c-0.1-1.8-2.1-3.2-3.7-2.6c0.5-0.3,0.5-1.1,0.1-1.5
				c-0.4-0.4-0.9-0.5-1.5-0.6"/>
			<path class="st21" d="M104.1,99.8c-0.7-0.1-1.5-0.1-2.2,0.3c-0.7,0.4-1.2,1.2-1.1,2c-1.5-0.5-3.2,0.7-3.4,2.4
				c-0.8,0-1.6-0.1-2.4,0.2c-0.8,0.3-1.5,0.8-1.8,1.7c0.2-0.7,0.4-1.5,0.1-2.2c-0.2-0.7-1.1-1.2-1.6-0.8"/>
			<path class="st22" d="M137.6,101.3c-0.7-0.5-1.7-0.2-2.2,0.5c-0.5,0.7-0.6,1.6-0.5,2.5c-0.5-0.6-1.3-0.8-2-0.6
				c-0.7,0.2-1.3,0.8-1.5,1.6c-0.8-0.5-1.7-0.8-2.6-0.7c-0.9,0.2-1.7,1-1.7,2c-0.1-1.1-0.9-2.1-1.9-2.3c-1-0.3-2.1,0.2-2.7,1"/>
		</g>
	</g>
</g>
<g id="Zzzz">
	<path class="st34" d="M86.6,256.9c-4.3,2.6-8.4,5.4-12.4,8.5"/>
	<path class="st35" d="M67.9,272.7c-1.9,3.5-3.4,7.3-4.5,11.2"/>
	<path class="st34" d="M63.2,295.2c-1,5.2-0.2,10.7,2.1,15.5"/>
	<path class="st36" d="M70.7,320.2c2.8,3.5,6.3,6.5,10.2,8.8"/>
	<path class="st34" d="M86.8,332c4-0.1,8-0.7,11.9-1.8"/>
	<path class="st35" d="M102.3,320.1c0-3.7-0.8-7.4-2.5-10.7"/>
	<path class="st34" d="M90.9,303.6c-4.9-0.9-9.8-1.6-14.8-1.9"/>
	<path class="st36" d="M48.8,322.2c-6.2-3.4-14.6-2.2-19.6,2.8"/>
	<path class="st34" d="M22.7,329.6c-1.2,4-2.3,8.1-1.9,12.2c0.4,4.1,2.7,8.3,6.5,9.9"/>
	<path class="st35" d="M56.5,322.6c3.3-0.1,6.6-1.6,8.9-4"/>
	<path class="st36" d="M89,258.1c2.9,1.8,4.8,5.2,4.7,8.6"/>
</g>
<g>
	<path class="st37" d="M59.8,378.8c-3.1,1.6-6.2,3.1-9.3,4.7c-2.3,1.2-5,2.8-5.1,5.4c0,1.8,1.4,3.4,3.2,3.7c1.8,0.2,3.6-1.1,3.9-2.8
		c0.1-0.7,0.1-1.4,0.3-2.1c0.6-2.3,3.2-3.2,5.4-4.2C64,381.1,59.8,378.8,59.8,378.8z"/>
	<g id="Leslie_Zee_Bee">
		
			<linearGradient id="SVGID_00000168114362513379778510000011558509894634095001_" gradientUnits="userSpaceOnUse" x1="49.4512" y1="302.0669" x2="167.4761" y2="302.0669">
			<stop  offset="0" style="stop-color:#B1C7D7"/>
			<stop  offset="0.264" style="stop-color:#EDD9E3"/>
			<stop  offset="0.3483" style="stop-color:#B1C7D7"/>
			<stop  offset="0.6685" style="stop-color:#CBD1E4"/>
			<stop  offset="0.7022" style="stop-color:#CFDFDF"/>
			<stop  offset="1" style="stop-color:#EDD9E3"/>
		</linearGradient>
		<path style="opacity:0.66;fill:url(#SVGID_00000168114362513379778510000011558509894634095001_);" d="M166,293.2
			c-1.9-5.8-3.8-11.6-5.8-17.4c-1.1-3.3-2.2-6.7-3.9-9.8c-1.7-3.1-4.1-5-6.5-7.6c-1.6-1.7-8-5.9-10.2-6.8c-3.3-1.3-6.9-0.9-10.4-0.3
			c-6.5,1-13.1,2.3-18.5,5.9c-3.5,2.4-6.4,5.6-9,9c-4.8,6.3-9,13.5-9.8,21.4c-1.1,11.5,5.1,22.5,13.2,30.8
			c-5.2-2.1-23.2-4.7-26.4-5.2c-6.8-1.1-13.8,1.3-19.3,5.4c-2.1,1.6-4.1,3.4-5.6,5.6c-1.3,2-2.1,4.2-3,6.4
			c-4.1,10.3,2.5,16.4,4,17.5c2.5,1.7,5,3.4,7.9,4.3c4.9,1.6,10.4,1.1,15.4-0.4c5-1.5,9.6-3.9,14.5-5.9c1.2-0.5,11.2-5.2,14-6.7
			c-1.8,0.9-2.9,3.1-2.4,5c0.4,2,2.3,3.5,4.3,3.5c11.1,0.1,20.9-7.6,30.4-13.4c2.2-1.3,4.3-2.7,6-4.5c1.4-1.5,2.5-3.2,3.6-5
			c4.6-7.2,9.7-14,15.2-20.4c1.4-1.6,2.8-3.2,3.5-5.2C167.8,297.5,167.6,294.6,166,293.2z"/>
		<path class="st37" d="M115.5,345.1c2.8-1.3,7.5-3.6,10.3-5c7.2-3.3,14.4-6.8,20.3-12c2.7,6.4,5.4,12.8,8.1,19.2
			c1.9,4.6,3.9,9.2,6.3,13.6c2,3.5,4.3,6.8,6.9,9.9c0,0,0.1,0,0.1,0c7.9,1.6,15.6,1.4,23.7,1.5c2.9,0,5.7,0.1,8.5,0.2
			c0.8,0,1.6,0.1,2.3,0.2c1,0.2,2,0.7,2.9,1.2c2.9,1.7,5.3,4.3,6.8,7.3c-1.8,3-3.6,6.1-5.5,8.9c-1.7,2.5-3.6,4.9-5.5,7.3
			c-2.8,3.6-5.7,7.2-8.5,10.7c-2.7,3.4-6,7.5-9.1,10.6c0,0-32.5-24.4-43.5-38.6C128.7,366,115.5,345.1,115.5,345.1z"/>
		
			<linearGradient id="SVGID_00000090272383855074295890000002139703030312013501_" gradientUnits="userSpaceOnUse" x1="42.2356" y1="373.4344" x2="65.3595" y2="373.4344">
			<stop  offset="0" style="stop-color:#ACCAEA"/>
			<stop  offset="0.2247" style="stop-color:#CFC2DF"/>
			<stop  offset="0.427" style="stop-color:#F9EABF"/>
			<stop  offset="0.5342" style="stop-color:#F8E8C0"/>
			<stop  offset="0.5925" style="stop-color:#F6E2C4"/>
			<stop  offset="0.639" style="stop-color:#F1D9C8"/>
			<stop  offset="0.6791" style="stop-color:#EBCCCE"/>
			<stop  offset="0.715" style="stop-color:#E4BBD4"/>
			<stop  offset="0.7191" style="stop-color:#E3B9D7"/>
			<stop  offset="0.7304" style="stop-color:#E1B9D7"/>
			<stop  offset="0.7345" style="stop-color:#DBBCDA"/>
			<stop  offset="0.7374" style="stop-color:#D1C0DE"/>
			<stop  offset="0.7397" style="stop-color:#C1C5E4"/>
			<stop  offset="0.7416" style="stop-color:#ACCAEA"/>
			<stop  offset="1" style="stop-color:#C9E6D1"/>
		</linearGradient>
		<path style="fill:url(#SVGID_00000090272383855074295890000002139703030312013501_);" d="M42.2,357.5c1.6,1.4,4,1.8,6.1,2.1
			c5.6,0.7,11.3,1,17,0.8c-4.1,9-5.7,19.1-4.7,29C59.7,385.4,44.2,367.7,42.2,357.5z"/>
		<path class="st40" d="M83,358.1c-6.7,18.3-1.4,53.2,0.9,58.5c-7.6-9.3-15.3-18.4-23.3-27.3c-0.9-10.1,0.4-19.8,4.7-28.9
			C68.5,359.9,80,358,83,358.1z"/>
		
			<linearGradient id="SVGID_00000137829501263759023810000016031863748079057540_" gradientUnits="userSpaceOnUse" x1="79.6068" y1="394.8689" x2="113.5316" y2="394.8689">
			<stop  offset="0" style="stop-color:#ACCAEA"/>
			<stop  offset="0.2247" style="stop-color:#CFC2DF"/>
			<stop  offset="0.427" style="stop-color:#F9EABF"/>
			<stop  offset="0.5342" style="stop-color:#F8E8C0"/>
			<stop  offset="0.5925" style="stop-color:#F6E2C4"/>
			<stop  offset="0.639" style="stop-color:#F1D9C8"/>
			<stop  offset="0.6791" style="stop-color:#EBCCCE"/>
			<stop  offset="0.715" style="stop-color:#E4BBD4"/>
			<stop  offset="0.7191" style="stop-color:#E3B9D7"/>
			<stop  offset="0.7304" style="stop-color:#E1B9D7"/>
			<stop  offset="0.7345" style="stop-color:#DBBCDA"/>
			<stop  offset="0.7374" style="stop-color:#D1C0DE"/>
			<stop  offset="0.7397" style="stop-color:#C1C5E4"/>
			<stop  offset="0.7416" style="stop-color:#ACCAEA"/>
			<stop  offset="1" style="stop-color:#C9E6D1"/>
		</linearGradient>
		<path style="fill:url(#SVGID_00000137829501263759023810000016031863748079057540_);" d="M83,358.2c3.8-2.3,7.8-2.4,12-3.9
			c-0.2,2.4-0.3,3.2-0.5,5.6c-0.2,2.6-0.4,5.2-0.7,7.8c-1,11.5,2.6,22.9,5.6,34.1c3.1,11.4,8.5,23.2,14.2,33.6
			c-18-5.2-28-15.4-29.4-18.8c-6.9-16.3-3.9-48.1-3.5-51.7C80.7,364,82.6,358.4,83,358.2z"/>
		<path class="st42" d="M112.1,434.7c8,3.5,17,4.2,25.8,4.2c6.4,0,13.1-0.3,19-2.8c1.3-0.6,2.6-1.2,3.9-1.8l-0.2-0.2
			c-3.2-3.1-5.9-6.6-8.7-10c-1.4-1.8-2.8-3.6-4.2-5.4c-0.9-1.2-1.9-2.4-3-3.4c-0.8-0.7-1.7-1.4-2.5-2.1c-0.8-0.7-1.5-1.5-2.2-2.3
			c-3.9-4.3-6.9-9.7-11.7-12.8c-0.9-0.6-1.7-1.3-2.4-2.1c-0.6-0.8-1.1-1.7-1.7-2.6c-1.1-1.8-2.1-3.7-3.2-5.5c-0.6-1-1.1-2-1.6-3
			c-1-2-1.6-4.2-2.3-6.3c-1-3.1-2-6.1-3.4-9.1c-2-4.3-3.1-9-4.2-13.7c-0.6-2.4-1.3-4.9-1.4-7.4c-4.3,2.2-8.7,4.2-13.1,5.9
			c-3,17.8-3,36.7,3.9,53.4C101.1,412.9,112,434.9,112.1,434.7z"/>
		
			<linearGradient id="SVGID_00000065755203227137488630000015935480432915036347_" gradientUnits="userSpaceOnUse" x1="107.312" y1="389.5801" x2="183.5194" y2="389.5801">
			<stop  offset="0" style="stop-color:#ACCAEA"/>
			<stop  offset="0.2247" style="stop-color:#CFC2DF"/>
			<stop  offset="0.427" style="stop-color:#F9EABF"/>
			<stop  offset="0.5342" style="stop-color:#F8E8C0"/>
			<stop  offset="0.5925" style="stop-color:#F6E2C4"/>
			<stop  offset="0.639" style="stop-color:#F1D9C8"/>
			<stop  offset="0.6791" style="stop-color:#EBCCCE"/>
			<stop  offset="0.715" style="stop-color:#E4BBD4"/>
			<stop  offset="0.7191" style="stop-color:#E3B9D7"/>
			<stop  offset="0.7304" style="stop-color:#E1B9D7"/>
			<stop  offset="0.7345" style="stop-color:#DBBCDA"/>
			<stop  offset="0.7374" style="stop-color:#D1C0DE"/>
			<stop  offset="0.7397" style="stop-color:#C1C5E4"/>
			<stop  offset="0.7416" style="stop-color:#ACCAEA"/>
			<stop  offset="1" style="stop-color:#C9E6D1"/>
		</linearGradient>
		<path style="fill:url(#SVGID_00000065755203227137488630000015935480432915036347_);" d="M107.3,348.8c3-1.1,6.9-3.1,9.8-4.6
			c6.5,11.9,13.6,23.4,21.3,34.5c0.8,1.1,5.5,6,7.2,7.3c5.7,4.3,10.5,9.6,15.8,14.5c4.9,4.5,10.1,8.6,15.4,12.7
			c0.8,0.7,1.7,1.3,2.5,2c1.4,1.1,2.8,2.2,4.2,3.3c-3.5,4-7.7,7-12.3,9.7c-3.4,2-7.8,4.7-11.2,6.7l-23.9-24.4
			c0,0-10.5-14.6-13.8-19.4c-3.3-4.8-6.5-8.4-10.4-20.9S107.3,348.8,107.3,348.8z"/>
		
			<linearGradient id="SVGID_00000158749156768188443720000017028504397283546282_" gradientUnits="userSpaceOnUse" x1="136.103" y1="333.9688" x2="242.7795" y2="333.9688">
			<stop  offset="0" style="stop-color:#ACCAEA"/>
			<stop  offset="0.2247" style="stop-color:#CFC2DF"/>
			<stop  offset="0.427" style="stop-color:#F9EABF"/>
			<stop  offset="0.5342" style="stop-color:#F8E8C0"/>
			<stop  offset="0.5925" style="stop-color:#F6E2C4"/>
			<stop  offset="0.639" style="stop-color:#F1D9C8"/>
			<stop  offset="0.6791" style="stop-color:#EBCCCE"/>
			<stop  offset="0.715" style="stop-color:#E4BBD4"/>
			<stop  offset="0.7191" style="stop-color:#E3B9D7"/>
			<stop  offset="0.7304" style="stop-color:#E1B9D7"/>
			<stop  offset="0.7345" style="stop-color:#DBBCDA"/>
			<stop  offset="0.7374" style="stop-color:#D1C0DE"/>
			<stop  offset="0.7397" style="stop-color:#C1C5E4"/>
			<stop  offset="0.7416" style="stop-color:#ACCAEA"/>
			<stop  offset="1" style="stop-color:#C9E6D1"/>
		</linearGradient>
		<path style="fill:url(#SVGID_00000158749156768188443720000017028504397283546282_);" d="M138.3,323.5c3.6-0.5,5.4-5.4,5.5-9
			c0-1.4-0.2-3,0.8-4c0.9-0.9,2.3-0.9,3.5-1.1c3.1-0.5,5.9-2.6,7.2-5.4c1-2.1,1.6-5,3.9-5.6c0.9-0.2,1.9,0,2.9-0.1
			c2.2-0.4,3.3-2.9,4.1-4.9c0.8-2.1,2.3-4.5,4.5-4.3c1.2,0.1,2.3,1,3.5,0.9c3.1-0.2,3.3-5.5,6.3-6.4c1.2-0.4,2.6,0.2,3.8,0.5
			c3.2,0.9,6.8,0.6,9.7-1c1.2-0.6,2.4-1.4,3.7-1.2c0.9,0.2,1.6,0.8,2.4,1.4c2.8,2.1,6.6,2.6,9.9,1.3c2.1-0.8,4.6-2.2,6.2-0.7
			c1,1,1,2.6,1.3,3.9c0.7,3.3,4.1,5.6,7.4,6.2c1.6,0.3,3.6,0.6,4,2.2c0.1,0.6-0.1,1.3-0.2,1.9c-0.5,2-0.6,4.3,0.3,6.2
			c0.8,1.9,2.7,3.5,4.8,3.7c0.6,0,1.2,0,1.6,0.3c0.4,0.3,0.5,0.9,0.7,1.4c0.6,2.5,2.1,4.8,4.1,6.3c0.8,0.6,1.6,1.1,2.2,1.8
			c0.6,0.8,0.8,1.9,0.2,2.6c-3.6-0.9-7.5,1.9-8.7,5.4c-1.2,3.6-0.1,7.6,2,10.7c0.6,0.9,1.3,2.2,0.6,3.1c-0.4,0.5-1.1,0.6-1.7,0.7
			c-3.4,0.8-6.2,3.4-7.3,6.7c-1.1,3.3-0.3,7.1,1.9,9.7c1.4,1.6,3.4,3.7,2.1,5.4c-1.1,1.5-3.3,0.8-5.1,0.4c-4.6-0.9-9.7,2.3-10.8,6.9
			c-0.8,3.2-1.8,6.5-2.5,9.7c-0.2,0.9-0.5,1.9-1.3,2.3c-1.3,0.6-2.5-0.8-3.4-1.9c-2.4-2.8-6.2-4.1-9.9-4.3
			c-3.7-0.2-7.3,0.7-10.9,1.6c-6.6,1.7-11.2,9.4-14.3,8.8c-4-0.8-1.5-7.2-8.2-10.2c-4.6-2-9.2-5-14.1-4.3c-0.7,0.1-1.5,0.2-1.9-0.4
			c-0.2-0.3-0.2-0.6-0.2-0.9c-0.1-3.2,0.3-6.4-0.1-9.6c-0.4-3.2-1.9-6.5-4.7-8.1c-1.1-0.6-2.3-1-3.4-1.6c-1.1-0.7-2-1.8-1.8-3.1
			c0.1-1,0.9-1.8,1.6-2.6c3.8-4.7,3-12.5-1.7-16.3c-1-0.8-2.1-1.5-2.6-2.7C135.7,325.1,137.1,323.7,138.3,323.5z"/>
		<path class="st45" d="M179.6,293.5c-5.3,1.8-10.8,3.8-14.9,7.7c-2.2,2.2-3.9,4.8-5.3,7.6c-4.2,8.6-5.6,18.6-3.8,28
			c1.9,9.4,7,18.1,14.5,24.2c3.7,3,8.1,5.6,12.9,5.4c29.3-0.8,37.8-22.3,35.7-44.5c-0.8-8.2-3.2-16.1-7.1-23.3
			C205.4,287.3,184.4,291.9,179.6,293.5z"/>
		<path class="st46" d="M168.2,319.6c-0.5-0.1-1-0.4-1.2-0.9s-0.2-1.1,0.1-1.5"/>
		<path class="st47" d="M161.9,319.9c-0.5,0.5-0.6,1.2-0.3,1.9c0.2,0.6,0.8,1.1,1.4,1.4c0.4,0.2,0.7,0.2,1.1,0.3
			c0.7,0.1,0.9,0.2,1.5,0.1"/>
		<path class="st48" d="M165,317.4c-0.3,0-0.6,0.2-0.8,0.5c-0.6,0.8-0.4,2,0.2,2.7s1.2,1,2.1,0.9"/>
		<path class="st48" d="M210.9,315.2c0.3,0.1,0.5,0.5,0.6,0.8c0.1,0.6,0.2,1.3-0.1,1.8c-0.1,0.3-0.4,0.5-0.6,0.7
			c-1.1,0.9-2.6,1.3-4,1.3"/>
		<path class="st46" d="M213,317.3c0.3,1.2,0.7,2.5,0,3.6c-0.6,0.9-1.7,1.3-2.7,1.6c-0.8,0.3-1.6,0.5-2.4,0.8"/>
		<path class="st49" d="M211.5,297.3c2.6-2.9,5.4-5.6,8.2-8.3c2-1.9,4-3.7,6.3-5.1c2.1-1.3,4.3-2.2,6.6-3c5.8-1.9,12.1-2.9,18.1-1.4
			c0.5-1,1.3-2,2.3-2.4c1.1-0.4,2.4-0.2,3.1,0.7c0.3,0.4,0.5,1,0.6,1.5c0.3,1.5,0.3,3.2-0.4,4.5c-0.8,1.3-2.7,2.1-4,1.3
			c-0.9-0.6-1.3-1.7-2-2.5c-1.2-1.5-3.4-2.1-5.2-1.4c-2.9,1.2-6.4,0.8-9.5,1.4c-2,0.4-4.1,0.8-6,1.5c-1.7,0.7-3.2,1.7-4.7,2.8
			c-4.8,3.5-9.7,8.3-12.3,13.7C212.2,299.7,211.3,298.6,211.5,297.3z"/>
		
			<linearGradient id="SVGID_00000049184249581735915850000000259146837534460346_" gradientUnits="userSpaceOnUse" x1="158.0537" y1="301.93" x2="211.1489" y2="301.93">
			<stop  offset="0" style="stop-color:#ACCAEA"/>
			<stop  offset="0.2247" style="stop-color:#CFC2DF"/>
			<stop  offset="0.427" style="stop-color:#F9EABF"/>
			<stop  offset="0.5342" style="stop-color:#F8E8C0"/>
			<stop  offset="0.5925" style="stop-color:#F6E2C4"/>
			<stop  offset="0.639" style="stop-color:#F1D9C8"/>
			<stop  offset="0.6791" style="stop-color:#EBCCCE"/>
			<stop  offset="0.715" style="stop-color:#E4BBD4"/>
			<stop  offset="0.7191" style="stop-color:#E3B9D7"/>
			<stop  offset="0.7304" style="stop-color:#E1B9D7"/>
			<stop  offset="0.7345" style="stop-color:#DBBCDA"/>
			<stop  offset="0.7374" style="stop-color:#D1C0DE"/>
			<stop  offset="0.7397" style="stop-color:#C1C5E4"/>
			<stop  offset="0.7416" style="stop-color:#ACCAEA"/>
			<stop  offset="1" style="stop-color:#C9E6D1"/>
		</linearGradient>
		<path style="fill:url(#SVGID_00000049184249581735915850000000259146837534460346_);" d="M209.9,307.1c-2.3-0.3-11.6-3.6-13.1-4.2
			c-1.6-0.6-3.2-1.6-4.1-3c-4,2.4-6.2,7-10.2,9.3c-0.1,0-0.1,0.1-0.2,0.1c-0.1,0-0.2-0.1-0.2-0.2c-1.7-2.4-3.5-4.8-5.2-7.3
			c-0.7,0.4-1.5,0.9-2.2,1.3c-0.9,0.5-1.8,1-2.7,1.5c-0.9,0.4-1.7,0.7-2.6,1.2c-0.9,0.5-1.8,1.2-2.7,1.8c-2.7,1.9-5.7,3.4-8.7,4.9
			c1.7-3.2,3.5-6.5,6.1-9.1c1.3-1.3,2.8-2.4,4.3-3.5c1.7-1.1,3.4-2.2,5.2-3.2c8.2-4.4,17.8-6.2,27.1-5.1c2.6,0.3,5.3,0.9,7.3,2.7
			C210.1,296.1,212.7,301.7,209.9,307.1z"/>
		<path class="st49" d="M159.9,307.1c-0.5-4.6-7.6-12.6-7.5-13.1c-4.2-4.6-9.3-8.4-15-11c-3-1.4-6.7-2.4-9.4-0.5
			c-0.4,2-2.9,3.2-4.8,2.3c-1.8-0.9-2.4-3.6-1.2-5.2c1.3-1.6,4-1.6,5.3,0c3-1.1,6.4-0.8,9.4,0.3c3,1.1,5.7,2.9,8.4,4.7
			c3.4,2.3,6.8,4.6,9.6,7.5c3.3,3.3,4.8,8.3,6.8,12.5"/>
		<g>
			<path class="st51" d="M168.6,341.3c1.7,2.5,4.5,4.8,8.1,6.5c0.7,0.3,1.4,0.6,2.2,0.9c0.9,0.3,1.9,0.4,2.9,0.5
				c5,0.5,10.2,0,14.6-1.6c4.3-1.6,7.7-4.1,9.2-7"/>
		</g>
		<path class="st47" d="M205.1,318.2c1.2,0.1,2.4-1,2.5-2.2c0-0.3,0-0.5-0.2-0.7"/>
		<path class="st52" d="M169.6,318.9c-1.8,1-2.9,2.9-3.5,4.9c-0.3,1.2-0.5,2.6-0.1,3.8c0.6,2.3,3.1,4.1,5.5,3.9
			c0.6,0,1.1-0.2,1.7-0.4c1.9-0.6,3.8-1.6,4.5-3.4c0.3-0.7,0.4-1.5,0.4-2.2C178.3,320.9,174.6,316,169.6,318.9z"/>
		<path class="st53" d="M172.1,327c-0.4,0.6-1.3,0.9-2,0.8c-0.3,0-0.6-0.1-0.8-0.3c-0.4-0.3-0.5-0.9-0.4-1.4
			c0.1-0.7,0.4-1.3,0.9-1.7c0.5-0.4,1.4-0.4,1.9,0C171.7,324.3,173.2,325.4,172.1,327z"/>
		<path class="st52" d="M196,320.3c-0.8,1-1,2.4-1.2,3.7c-0.1,1.3-0.3,2.7,0.3,3.9c0.3,0.7,0.8,1.2,1.3,1.7c1.3,1.2,3,1.9,4.7,2.2
			c1,0.2,2.2,0.1,3-0.5c0.4-0.3,0.7-0.7,1-1.2c2.2-3.5,3.9-8,0.5-11.4C203.1,316.2,198,318,196,320.3z"/>
		<path class="st53" d="M196.6,324.6c0,0.3,0,0.5-0.1,0.8c-0.1,1.2,1.7,1.5,2.5,0.9c0.6-0.4,0.8-1.2,0.8-1.9
			C199.7,322,196.8,322.4,196.6,324.6z"/>
	</g>
	<path class="st49" d="M118.5,346c-0.2-7.7,1.8-16.2,8.2-20.5c1.3-0.9,3-1.9,3.1-3.5c0.1-2.3-3-3.3-5.3-3.1c1.4-0.9,1-3.6-0.7-4
		s-3.3,1.8-2.4,3.3c-1.2-0.7-2.8-0.4-3.7,0.6s-1,2.7-0.2,3.8c-0.7-0.7-1.9-0.7-2.7-0.1s-0.9,1.8-0.4,2.7c0.5,0.7,1.3,1,1.8,1.7
		c0.8,0.9,0.7,2.3,0.6,3.5c-0.5,7.4-1.7,14.7-1.6,22.1c0.1,7.4,1.7,15,6.1,20.9c0.8,1.1,1.9,2.3,3.3,2.3c4.5,0-2.3-10.3-2.9-12.1
		C119.8,357.9,118.6,352,118.5,346z"/>
	<path class="st49" d="M208.1,387.5c20.5-7.4,27.3-17.7,31.6-22.6c4.5-5.1,8.9-10.6,14.8-14c1-0.6,2.1-1.2,2.5-2.2
		c0.5-1-0.2-2.6-1.4-2.4c1.3-0.5,2.8-1.2,3.1-2.6c0.4-1.8-1.7-3.4-3.5-3.2c-1.8,0.2-3.3,1.5-4.7,2.8c0.5-2.2,0.3-5.3-1.9-5.6
		c-2.2-0.2-3.1,2.8-3.1,5c1-1.6-1.6-3.6-3.3-2.6c-1.7,0.9-2,3.2-1.6,5.1c0.4,1.9,1.4,3.6,1.6,5.5c0.4,3.3-1.6,6.4-3.6,9
		c-3.5,4.7-17,17.4-27.4,22.4L208.1,387.5z"/>
	<path class="st54" d="M255.1,355.7c2.5-1,4.5-3.2,5.1-5.8"/>
	<path class="st54" d="M237.1,342.7c0-2.8,2-5.4,4.6-6.3"/>
	<path class="st54" d="M260.1,356c1.1,0,2.1-0.8,2.4-1.8"/>
	<path class="st55" d="M111,328c-0.5-2.1-0.7-4.4-0.2-6.5s1.6-4.2,3.5-5.4"/>
	<path class="st54" d="M105.7,324c-0.2-2.4,0.8-4.8,2.5-6.4"/>
	<path class="st54" d="M131.7,327c2-2.5,2-6.3,0.1-8.8"/>
	<path class="st55" d="M135.7,323.7c1-1.2,1.3-3,0.6-4.5"/>
	<path class="st37" d="M58.1,405.2c-0.1,1.1-0.2,2.2-0.2,3.3c-0.2,2.2,0,5,2,5.9c1.4,0.6,3.1,0,4-1.2c3.3-4.5-0.9-6.3,4.7-10.3
		c2.2-1.5,7.4-2.5,5.8-6.3C72.9,392.8,58.4,401.7,58.1,405.2z"/>
</g>
</svg>
