<?xml version="1.0" encoding="utf-8"?>
<!-- Generator: Adobe Illustrator 27.2.0, SVG Export Plug-In . SVG Version: 6.00 Build 0)  -->
<svg version="1.1" id="Blonnopie_1" xmlns="http://www.w3.org/2000/svg" xmlns:xlink="http://www.w3.org/1999/xlink" x="0px"
	 y="0px" viewBox="0 0 300 450" style="enable-background:new 0 0 300 450;" xml:space="preserve">
<style type="text/css">
	.st0{fill:#84D0D3;}
	.st1{fill:#BFD857;}
	.st2{opacity:0.61;fill:#DB124B;}
	.st3{fill:#FFE100;stroke:#FFCF01;stroke-linecap:round;stroke-linejoin:round;stroke-miterlimit:10;}
	.st4{fill:#F9A01B;stroke:#F57E25;stroke-linecap:round;stroke-linejoin:round;stroke-miterlimit:10;}
	.st5{fill:#DB124B;stroke:#AB013E;stroke-linecap:round;stroke-linejoin:round;stroke-miterlimit:10;}
	.st6{fill:#AB013E;stroke:#92002D;stroke-linecap:round;stroke-linejoin:round;stroke-miterlimit:10;}
	.st7{fill:#F6B1CF;stroke:#F494BE;stroke-linecap:round;stroke-linejoin:round;stroke-miterlimit:10;}
	.st8{fill:#FCE5EF;stroke:#F6B1CF;stroke-linecap:round;stroke-linejoin:round;stroke-miterlimit:10;}
	.st9{fill:none;stroke:#8E0053;stroke-width:2;stroke-linecap:round;stroke-linejoin:round;stroke-miterlimit:10;}
	.st10{fill:none;stroke:#000000;stroke-linecap:round;stroke-linejoin:round;stroke-miterlimit:10;}
	.st11{opacity:0.49;fill:#FAF6DB;}
	.st12{opacity:0.24;fill:#FAF6DB;}
	.st13{fill:none;stroke:#000000;stroke-width:2;stroke-linecap:round;stroke-linejoin:round;stroke-miterlimit:10;}
	.st14{fill:none;stroke:#C40F3D;stroke-linecap:round;stroke-linejoin:round;stroke-miterlimit:10;}
	.st15{fill:none;stroke:#C40F3D;stroke-width:2;stroke-linecap:round;stroke-linejoin:round;stroke-miterlimit:10;}
	.st16{fill:#F57E25;stroke:#F15D2A;stroke-linecap:round;stroke-linejoin:round;stroke-miterlimit:10;}
	.st17{opacity:0.66;fill:#F6B1CF;stroke:#F494BE;stroke-linecap:round;stroke-linejoin:round;stroke-miterlimit:10;}
	.st18{fill:none;stroke:#F494BE;stroke-width:3;stroke-linecap:round;stroke-linejoin:round;stroke-miterlimit:10;}
	.st19{fill:none;stroke:#F494BE;stroke-linecap:round;stroke-linejoin:round;stroke-miterlimit:10;}
	.st20{fill:none;stroke:#F494BE;stroke-width:2;stroke-linecap:round;stroke-linejoin:round;stroke-miterlimit:10;}
</style>
<rect x="0.6" y="0.4" class="st0" width="299.7" height="148.7"/>
<path class="st1" d="M-0.2,132.1c0,16.2,32.5,1.4,48.6-0.5c13-1.5,25.7-4.6,38.6-6.5c47.6-7.1,96.2,1.8,143,13.3
	c22.8,5.6,47.1,12,70.4,9.1l0,304.7l-300.5,0.2C-0.2,452.5-0.2,131.9-0.2,132.1z"/>
<g>
	<path class="st2" d="M71.5,138.9c-3.9,0.3-7.9,0.1-11.3,1.9c-2.8,1.5-5.3,3.8-8.5,4.6c-2.2,0.6-4.5,0.3-6.8,0.3
		c-12.6,0.1-23.5,8.2-35.5,11.8c-3.5,1-7.5,2-9.5,5.1l0.5,170.4c7.4-6.9,16.5-12,26.3-14.7c4.2-1.1,8.8-2,12-4.9
		c1.8-1.7,3-3.9,4.5-5.8c3-3.8,7.1-6.5,11.2-9.1c3.8-2.4,7.7-4.9,12.1-5.4c4.6-0.6,9.2,1,13.8,1.4c8.7,0.7,17.7-3.1,23.2-10
		c2.4-3,4.4-6.7,8-8.2c3.9-1.6,8.4,0.2,12.6,0c5-0.3,9.5-3.4,12.8-7.3c3.3-3.9,5.6-8.4,8.3-12.7c1.1-1.7,2.4-3.5,4.3-4.4
		c2.4-1.1,5.2-0.4,7.8,0.2c4.9,1.1,10.6,1.6,14.7-1.4c2.1-1.5,3.5-3.6,5-5.7c5.3-7.9,10.7-15.8,16-23.7c6.8-10,13.7-20.2,23.6-27.1
		c4.4-3,9.3-5.4,12.9-9.3c5.9-6.3,7.4-15.3,8.8-23.8C238.2,161.3,181.5,131.6,71.5,138.9z"/>
	<path class="st3" d="M100.1,90c1.1-1.1,2-2.4,2.8-3.7c0.4-0.7,0.8-1.4,1.2-2c0.5-0.7,1.1-1.3,1.6-1.8c3.1-3.1,6.2-6.2,9.9-8.5
		c2.2-1.3,4.6-2.4,7.1-3.3c1.6-0.6,3.2-1.2,4.7-1.8c5-1.9,10.2-3.4,15.4-4.8c2.2-0.6,4.4-1.1,6.6-1.1c0.7,0,1.5,0.1,2.2-0.1
		c0.9-0.2,1.8-0.6,2.7-0.9c1.1-0.3,2.2-0.3,3.4-0.3c4.2,0.1,8.3,0.2,12.5,0.3c1.2,0.1,2.5,0.1,3.7,0.3c1.3,0.2,2.6,0.5,3.8,0.9
		c3,0.8,6,1.6,9,2.4c1.2,0.3,2,1.6,3.2,2.1c1.2,0.5,2.4,0.8,3.5,1.4c0.7,0.3,1.3,0.8,1.9,1.2c0.9,0.6,1.7,1.2,2.6,1.8
		c0.7,0.5,1.3,0.9,1.8,1.5c0.4,0.4,0.7,1,1,1.4c1.1,1.5,2.9,2.4,4.4,3.5c0.2,0.1,0.4,0.3,0.5,0.5c0.2,0.2,0.3,0.5,0.4,0.7
		c0.7,1.8,1.9,3.4,3,5c-1.9,0.7-3.1,2.2-4.8,3.3c-1,0.7-2.6,0.8-3.7,1.3c-1.2,0.6-2.4,0.9-3.7,1.2c-2.5,0.6-4.9,1.3-7.4,1.9
		c-3.2,0.8-6.4,1.6-9.6,1.5c-3,1.1-6.3,2-9.4,2.7c-1.5,0.3-3.1,0.6-4.6,0.8c-1.2,0.1-2.5,0.2-3.7,0.2c-4.8,0.2-9.7,0.4-14.5-0.1
		c-3.2-0.4-6.5-1.1-9.7-0.4c-2.4-0.1-5-0.2-7.4-0.1c-1,0-2,0.1-3,0.1c-1.9,0-3.7-0.3-5.5-0.6c-1.5-0.3-3.1-0.5-4.6-0.8
		c-1.1-0.2-2.1-0.4-3.1-0.9c-0.7-0.4-1.7-0.3-2.4-0.7c-1.5-0.8-3-1.4-4.7-1.7C104.9,91.9,102.3,90.9,100.1,90z"/>
	<path class="st4" d="M83.5,117.6c0.6-0.7,1.2-1.4,1.8-2.1c0.4-0.5,0.8-0.9,1.1-1.5c0.2-0.4,0.4-0.8,0.6-1.2
		c0.4-0.8,1.2-1.5,1.7-2.3c0.4-0.7,0.7-1.6,1-2.4c1-2.3,3.1-4.1,4-6.5c0.2-0.6,0.4-1.3,0.6-1.9c0.7-1.6,2.2-2.8,2.8-4.4
		c0.2-0.4,0.3-0.9,0.5-1.4c0.2-0.3,0.4-0.7,0.7-1c0.7-0.9,1.5-1.8,2.2-2.7c4.6,1.3,9.2,3,13.8,4.3c2.6,0.7,5.2,1.5,8,1.8
		c5.4,0.6,10.9-0.6,16.3-0.4c4.4,0.2,8.7,1.3,13.1,1.5c10.6,0.7,20.8-3.3,31.3-4.4c2.4-0.3,4.9-0.4,7.4-0.7c3-0.4,6-1.1,8.9-2.1
		c3.5-1.2,7-3,9.3-5.9c1.8,0.8,3.2,2.7,3.9,4.5s1.3,3.8,2.4,5.5c0.7,1,1.6,1.9,2.3,2.9c0.6,0.8,1,1.7,1.4,2.6
		c0.9,1.8,1.8,3.7,2.7,5.5c-2.5,1.1-4.6,2.7-7.1,3.7c-5.6,2.3-11.6,4.1-17.3,6c-2.6,0.9-5.3,1.8-8,2.4c-3.1,0.7-6.2,1.1-9.4,1.5
		c-3.1,0.4-6.2,1.5-9.3,1.8c-17.7,1.9-35.6,2.1-53.4,2.2c-2.9,0-5.4,0.7-8.3,0.4c-1.3-0.2-2.7-0.5-4-0.7c-1-0.2-1.9-0.4-2.9-0.6
		c-2.6-0.6-5.2-1.1-7.6-2.2c-0.8-0.4-1.6-0.8-2.5-1c-0.8-0.1-1.5-0.1-2.3-0.1C87.3,118.8,85.3,118.2,83.5,117.6z"/>
	<path class="st5" d="M85.8,118.2c-0.7,0-1.4,0-2.2-0.1c-3.5,6.1-7,12.2-10.5,18.3c-3.4,5.9-6.9,12.1-7.3,19
		c1.8-1.3,3.7-2.4,5.6-3.5c1.6-0.9,3.3-1.7,5-2.5c2-0.9,3.9-1.9,5.9-2.8c2.1-1,4.3-2,6.6-2.6c1.7-0.4,3.5-0.6,5.1-1.3
		c1.6-0.6,3-1.7,4.5-2.6c2.4-1.3,5-2.1,7.6-2.9c6.7-2,13.4-4.1,20.1-6.1c3.1-0.9,6.3-1.1,9.6-1.3c3.4-0.2,6.8-0.5,10.2-1.2
		c12.7-2.7,26.1,0,38.9,2.5c7.8,1.5,15.3,3.5,22.7,6.3c3.1,1.2,6.2,2.4,9.2,3.8c7.7,3.5,15.5,8.3,23.7,10.4
		c1.4-6.1-3.1-12.6-4.6-18.7c-0.2-0.8-0.3-1.6-0.7-2.3c-0.4-0.8-1-1.5-1.6-2.3c-1.6-2.1-2.7-4.6-3.9-7c-2.6-5.5-5.4-11-8.3-16.4
		c-3.6,3.8-8.9,5.3-13.9,6.6c-9.6,2.6-19.3,5.2-28.9,7.8c-8.5,2.3-17.9,2.4-26.7,2.1c-2-0.1-3.9-0.2-5.9,0c-1.8,0.2-3.5,0.6-5.3,0.9
		c-9.2,1.5-18.7-1.1-28-0.4c-2.1,0.1-4.2,0.4-6.3,0.3c-2.2-0.2-4.2-0.9-6.3-1.5C95.3,119.5,90.7,118.3,85.8,118.2z"/>
	<path class="st6" d="M76.9,178.4c14.2,12,32.8,17.9,51.4,19.5s37.2-0.7,55.5-3.6c7.4-1.2,15-2.5,21.8-5.6c7.9-3.6,14.5-9.4,21-15.2
		c4.1-3.6,8.3-7.3,11.6-11.7c2.4-3.2,2.7-6.8,2.2-10.1c-0.2-1.6-4.1-2-5.6-2.5c-5.8-1.6-10.7-5.5-16.1-8.2c-3.8-1.8-7.8-3-11.8-4.2
		c-19.8-5.7-40.2-10.7-60.7-9.1c-16.3,1.3-32,6.8-47.5,12.3c-4.3,1.5-8.6,3.1-12.9,4.6c-5.6,2-13.3,3.9-17.4,8.6
		c-0.7,0.8-2.1,1.5-2.5,2.4c-1.6,4.1,0.8,9.5,2.8,13.2C70.6,172.6,73.6,175.7,76.9,178.4z"/>
	<path d="M180.9,101.8c0.1,0.6,0.6,1.2,1.2,1.4c0.2,0.1,0.3,0.1,0.5,0.1c1.4,0.2,2.2-1.1,2-2c-0.1-0.6-0.4-1-0.9-1.3
		C182.5,99.5,180.6,100.2,180.9,101.8z"/>
	<path class="st7" d="M177.8,106.6c-0.7,0-1.4,0.1-2,0.4c-0.3,0.1-0.6,0.3-0.8,0.5c-0.6,0.4-1.2,0.8-1.5,1.5c-0.5,1-0.2,2.1,0.2,3.1
		c0.3,0.7,0.8,1.5,1.4,1.9c0.5,0.4,1.2,0.6,1.8,0.7c0.3,0.1,0.5,0.1,0.8,0.1c0.5,0,1-0.2,1.5-0.3c0.3-0.1,0.7-0.2,1-0.4
		c0.7-0.4,1.2-0.9,1.7-1.5c0.3-0.3,0.5-0.6,0.6-0.9c0.1-0.4-0.1-0.9-0.3-1.3c-0.4-0.8-1-1.4-1.6-2c-0.5-0.5-1.1-1.1-1.7-1.5
		C178.7,106.6,178.2,106.6,177.8,106.6z"/>
	<path class="st8" d="M155.5,71.7c-0.1-0.3-0.2-0.6-0.4-0.8s-0.6-0.3-0.8,0c-0.1,0.1-0.1,0.2-0.1,0.3c-0.2,0.7-0.3,1.4-0.5,2
		c-0.1,0.3-0.1,0.6-0.1,0.8s0.2,0.6,0.5,0.6c0.6,0.1,1.1-0.9,1.7-0.8c0.3,0,0.5,0.3,0.9,0.4c0.3,0-0.1-1.4-0.2-1.5
		C156.2,72.3,155.8,72.2,155.5,71.7z"/>
	<path class="st8" d="M148.6,88.4c-0.5-0.3-1.1-0.5-1.7-0.7c-0.4-0.1-1-0.1-1.1,0.3c-0.1,0.3,0,0.6,0.2,0.8c0.2,0.2,0.5,0.3,0.7,0.4
		c0.2,0.1,0.5,0.2,0.6,0.4c0,0.1,0,0.2,0,0.3c0,0.5,0.1,1.1,0.5,1.4c0.3,0.2,0.7,0.2,1.1,0s0.6-0.5,0.8-0.8c0.2-0.3,0.4-0.7,0.4-1.1
		S148.6,88.4,148.6,88.4z"/>
	<path class="st8" d="M181.1,70.8c-0.8,0.1-1.6,0.2-2.4,0.3c-0.2,0-0.5,0.1-0.7,0.2c-0.2,0.1-0.3,0.4-0.2,0.6
		c0.1,0.3,0.6,0.3,0.9,0.4c0.4,0.2,0.6,0.6,0.6,1.1c0,0.4-0.1,0.9-0.2,1.3c0,0.1,0,0.2,0,0.3c0.3,0.7,3.1-1.4,3.4-1.8
		c0.5-0.7,0-0.8-0.4-1.3C181.6,71.4,182,70.7,181.1,70.8z"/>
	<path class="st8" d="M194.3,84.9c-0.2,0-0.3,0-0.5,0.1c-0.2,0.2-0.2,0.6,0,0.8c0.2,0.2,0.5,0.3,0.8,0.3c0.1,0,0.3,0.1,0.4,0.2
		c0.1,0.1,0,0.2,0,0.3c0,1,0.9,1.2,1.5,0.7c0.5-0.4,1.3-1,1.5-1.6c0.3-0.6-0.1-1.2-0.8-1.1c-0.5,0.1-0.9,0.4-1.4,0.4
		C195.3,85,194.8,84.9,194.3,84.9z"/>
	<path class="st8" d="M202.4,104c0,0.1,0,0.1,0.1,0.1c0,0,0.1,0,0.2,0c0.3,0,0.6,0,0.9,0c1,0.2,0.3,2.1,1.7,1.5c0.7-0.4,1-1.3,0.7-2
		C205.2,101.8,201.7,101.4,202.4,104z"/>
	<path class="st8" d="M159.4,162c-0.4-0.2-0.9-0.2-1.1-0.6c0-0.1,0-0.2,0-0.3c-0.1-0.4-0.4-0.6-0.8-0.6c-0.4,0-0.7,0.2-0.9,0.4
		s-0.4,0.6-0.5,0.9c-0.1,0.2-0.1,0.5,0,0.7c0.1,0.1,0.2,0.2,0.3,0.2c0.3,0.2,0.5,0.5,0.5,0.9c-0.1,0.2-0.3,0.4-0.5,0.6
		c-0.2,0.2-0.4,0.4-0.3,0.6c0,0.2,0.2,0.3,0.3,0.4c0.2,0.1,0.3,0.3,0.6,0.3c0.3,0,0.6-0.2,0.7-0.5c0.2-0.3,0.3-0.5,0.6-0.7
		c0.5-0.3,1.5,0.1,1.7-0.7C160,163.2,159.7,162.2,159.4,162z"/>
	<path class="st8" d="M186.5,172.8c-0.3,0.1-0.7,0.2-0.9,0c-0.1-0.1-0.1-0.4-0.2-0.6c-0.2-0.7-0.9-0.9-1.6-1.1c-0.2,0-0.4-0.1-0.5,0
		c-0.3,0.1-0.5,0.5-0.6,0.8c-0.1,0.5-0.2,1.1,0,1.6s0.7,0.9,1.2,0.8c0.2,0,0.5-0.1,0.7-0.2s0.5,0,0.6,0.3c-0.3,0.4-0.5,0.9-0.6,1.4
		c-0.1,0.4-0.1,0.9,0.1,1.3c0.4,0.4,1.1,0.4,1.6,0.2c0.7-0.3,1.2-0.7,2-0.9c0.5-0.2,1.1-0.4,1.2-1.1c0-0.6-0.6-1.1-1-1.5
		C187.9,173.2,187.3,172.6,186.5,172.8z"/>
	<path class="st8" d="M215.7,162c-0.3,0-0.6,0.1-0.8,0.2c-0.4,0.2-0.9,0.3-1.1,0.7c-0.2,0.3-0.2,0.7-0.3,1.1c0,0,0,0.1,0,0.1
		c0,0.1,0.1,0.1,0.1,0.1c0.3,0.2,0.4,0.6,0.3,0.9c-0.1,0.1-0.2,0.3-0.1,0.5c0,0.1,0.2,0.2,0.3,0.3c1.2,0.6,4.6,0.4,4.3-1.6
		c-0.1-0.6-0.5-1.1-1.1-1.1c-0.5,0-0.6,0.2-0.8-0.4C216.3,162.4,216.3,162,215.7,162z"/>
	<path class="st8" d="M185.1,139c-0.2-0.1-0.5-0.1-0.8-0.1c-0.7-0.1-1.3-0.8-1.3-1.6c-0.1-0.4,0-0.9-0.4-1.2
		c-0.2-0.1-0.3-0.1-0.5-0.1c-0.9,0-1.8,0.8-1.9,1.7c0,0.2,0,0.4,0.1,0.5c0.2,0.3,0.7,0.3,1.1,0.3c0.4,0,0.9-0.1,1.1,0.3
		c0.3,0.5-0.2,1.1-0.1,1.7c0.1,0.5,0.8,0.8,1,1.3c0.1,0.1,0.1,0.2,0.2,0.3c0.1,0.2,0.4,0.2,0.6,0.1c0.2-0.1,0.3-0.2,0.5-0.4
		C185,141.2,185.9,139.5,185.1,139z"/>
	<path class="st8" d="M196.1,123.3c-0.5,0-1,0-1.5,0.2c-0.2,0.1-0.5,0.2-0.6,0.4c-0.2,0.2-0.2,0.5-0.1,0.7c0.2,0.3,0.6,0.4,1,0.4
		c0.2,0,0.5,0,0.7,0c0.1,0,0.2,0,0.2,0c0.1,0,0.1,0.1,0.1,0.2c0.1,0.2,0.1,0.5,0.2,0.7c0.4,1.1,2.5,1.2,2.2-0.1
		c-0.1-0.5-0.6-0.9-0.8-1.3C197.1,123.8,196.9,123.3,196.1,123.3z"/>
	<g>
		<path class="st9" d="M84.5,116.8c-1.1,0.4-2.3,0.1-3.2-0.6c-0.9-0.7-1.6-1.7-2.2-2.6c-1.8-2.6-3.6-5.3-5.4-7.9
			c-0.9-1.4-1.9-2.7-2.7-4.2c-1-1.8-1.9-3.7-2.8-5.6c-0.3-0.6-0.5-1.2-0.8-1.8c-0.6-1.2-1.1-2.5-1.7-3.7c-0.7-1.7-1.4-3.4-2.2-5.1
			c-0.6-1.3-1.2-2.6-1.7-4c-1.2-3.1-2-6.3-2.4-9.6"/>
		<path class="st9" d="M55.7,73.1c0.1,0.6,0.4,1.1,0.8,1.6c1.2,1.5,2.4,3.1,4,4.1c0.1,0,0.1,0.1,0.2,0.1c0.1,0,0.2-0.1,0.2-0.2
			c0.9-1.1,1.3-2.6,2-3.8c0.2-0.3,0.4-0.7,0.6-1c0.2-0.5,0.3-1,0.3-1.5c0.1-1.3,0.2-2.7,0.1-4"/>
	</g>
	<g>
		<path class="st9" d="M223.3,109.3c3.6-2,5.3-6.1,6.8-9.9c0.5-1.2,0.9-2.3,1.3-3.5c0.3-1,0.5-2.1,0.7-3.1c0.7-4,1.3-8.1,1.5-12.2
			c0.3-4.7,0.1-9.3,0.9-13.9c0.3-1.9,0.8-3.7,0.6-5.6"/>
		<path class="st9" d="M230.5,63c1,1.4,2.2,2.8,3.3,4.2c0.1,0.1,0.2,0.2,0.3,0.2c0.1,0,0.2,0,0.3-0.1c2.1-1.1,3.8-3,4.7-5.2"/>
	</g>
	<g>
		<path class="st4" d="M85.6,56.2c-0.4,0.7-0.9,1.3-1.5,1.9c-1,0.9-2.3,1.6-3.4,2.3c-1.1,0.8-2.2,1.7-2.8,3
			c-0.3,0.8-0.1,1.6,0.1,2.3c1.5,4.4,6.1,4,6.5,4.1c0.3,0,5.1-0.8,5.8-1.2c1.2-0.7,2.3-1.3,3.2-2.3c1-1.1,1.5-2.6,1.7-4.1
			c0.1-0.4,0.1-0.8,0-1.2c-0.1-0.9-0.7-1.7-1.3-2.4c-0.7-0.9-1.5-1.8-2.5-2.3c-0.3-0.2-0.7-0.3-1-0.5c-0.7-0.3-1.3-0.8-1.9-1.2
			c-0.5-0.4-1.5-1.8-2.1-2.1c-0.8-0.4-0.1,1.3-0.1,1.7C86.3,54.9,86,55.6,85.6,56.2z"/>
		<g>
			<path d="M91.6,60.8c0.8,0.1,0.9-1,0.2-1.2C91,59.4,90.8,60.7,91.6,60.8z"/>
			<path d="M83.1,61.8c0.1,0.1,0.2,0.2,0.3,0.2c0.2,0.1,0.4,0.1,0.6-0.1c0.5-0.3,0.2-1.1-0.2-1.2C83.3,60.5,82.8,61.2,83.1,61.8z"/>
			<path class="st10" d="M84.1,63.6c0.9,0.6,2,0.9,3.1,1.1c0.4,0,0.8,0,1.2-0.1c0.3-0.1,0.5-0.3,0.8-0.4c0.4-0.3,0.8-0.5,1.2-0.8"/>
		</g>
	</g>
	<g>
		<path class="st6" d="M266.9,135.3c-0.3,0.7-0.8,1.3-1.3,1.8c-1.9,2-3.7,4.1-5.6,6.1c-1.6,1.8-3.2,3.6-4.5,5.6
			c-1.1,1.8-2,3.7-2.1,5.8s0.5,4.3,1.9,5.7c1.7,1.7,4.2,2.2,6.5,2.6c2.1,0.4,4.2,0.8,6.3,1.1c5.1,0.9,10.8,1.8,15.4-0.7
			c1.7-0.9,3.1-2.3,4.4-3.7c1.3-1.4,2.6-2.9,3.5-4.6c2.3-4.8,0.4-11.2-4-14.2c-1.3-0.9-2.8-1.6-4.3-2.3c-4-1.9-7.7-4.5-11-7.4
			c-1.1-1-2.5-3-4.1-1.7C266.3,130.6,267.6,133.6,266.9,135.3z"/>
		<path d="M265,143.8c-0.1,0.1-0.2,0.1-0.3,0.2c-0.1,0.1-0.1,0.2-0.1,0.4c-0.1,0.2-0.1,0.4-0.1,0.7c0,0.2,0.1,0.5,0.2,0.7
			c0.3,0.6,0.9,1.1,1.6,1.2c1.3,0.2,2.3-1.3,1.9-2.5C267.8,143,266,143.3,265,143.8z"/>
		<path d="M277,145.1c0.1,0.3,0.2,0.6,0.5,0.7c0.1,0.1,0.3,0.2,0.4,0.2c0.4,0.1,0.8,0.1,1.1,0.1c1.3-0.4,1.4-2.6,0.2-3.2
			C277.9,142.1,276.6,143.8,277,145.1z"/>
		<path class="st10" d="M266.4,151.6c1.3,1.2,2.9,2.1,4.5,3c0.4,0.2,0.8,0.4,1.2,0.5c0.4,0.1,0.9,0.1,1.3,0.1c1.8,0,3.6-0.1,5-1.1"
			/>
	</g>
	<g>
		<path class="st5" d="M56.7,101.6c-1.2,0.7-2.5,1.3-3.8,1.7c-2,0.6-4.2,0.7-6.1,1.7c-2,1-3.5,2.9-4,5.1c-0.1,0.3-0.1,0.7-0.1,1
			c0,0.4,0.1,0.7,0.3,1.1c0.5,1.6,1,3.2,2.1,4.5c0.5,0.6,1.1,1.1,1.7,1.6c0.8,0.7,1.6,1.3,2.5,1.8c0.9,0.5,1.9,0.7,2.9,0.9
			c2.9,0.6,5.9,0.9,8.8,0.2c0.7-0.2,1.4-0.4,2-0.9c0.6-0.5,0.9-1.2,1.2-1.9c0.4-0.9,0.7-1.9,0.7-2.9c0-1.9-1.3-3.5-2.4-5.1
			c-1.4-2.1-2.6-4.4-3.1-6.9c-0.2-0.8,0.1-2.9-0.4-3.5c-0.5-0.5-0.5-0.1-0.8,0.3C57.6,100.9,57.4,101.2,56.7,101.6z"/>
		<path class="st10" d="M49.5,115.6c0.8,0.5,1.7,0.8,2.6,0.8c0.3,0,0.7,0,1-0.1c0.7-0.1,1.3-0.4,1.8-0.8"/>
		<path d="M49.4,109.5c0.4,1,1.8,0.1,1.3-0.8c-0.2-0.4-0.6-0.6-1-0.5C49.3,108.4,49.3,109.1,49.4,109.5z"/>
		<path d="M57,111.8c0.1,0.3,0.3,0.5,0.5,0.6c1,0.5,1.4-0.9,0.8-1.6C57.7,110,56.6,110.8,57,111.8z"/>
	</g>
	<path class="st5" d="M239.3,104.8c-1,0.8-2.2,1.3-3.1,2.2c-1.7,1.8-1.6,4.6-1.3,7.1c0,0.4,0.1,0.9,0.4,1.3c0.3,0.3,0.7,0.4,1,0.5
		c4.1,1.1,8.4,0.6,12.5,0c2.5-0.3,5.2-0.8,7-2.6c2.6-2.7,1.8-7.5-0.8-10.2c-1.8-1.7-3.9-2.9-5.5-4.8c-1.3-1.5-1.8-3.6-4.2-3.4
		C241.1,95.2,242.2,102.4,239.3,104.8z"/>
	<path d="M241,106.1c-0.3,0-0.4,0.4-0.5,0.7c-0.1,0.4-0.1,1,0.2,1.3c0.2,0.1,0.5,0.2,0.7,0.2c0.2,0,0.4,0,0.6-0.1
		c0.4-0.2,0.7-0.8,0.5-1.2C242.4,106.5,241.9,106,241,106.1z"/>
	<path d="M252.4,106.4c-0.1,0.1-0.2,0.3-0.2,0.4c0,0.6,0.4,1.1,1,1.4c0.2,0.1,0.4,0.1,0.6,0.1c0.2,0,0.4-0.1,0.6-0.3
		c0.2-0.2,0.2-0.5,0.2-0.7c0-0.6-0.2-1-0.8-1.2C253.4,106,252.7,106.1,252.4,106.4z"/>
	<path class="st10" d="M243.9,110.7c0.9,0.8,1.9,1.7,3.1,1.8c1.3,0.2,2.6-0.6,3.6-1.5"/>
	<path class="st11" d="M140.3,73.6c-7.4-4.3-17.3-1.5-23.6,4.2c-6.4,5.7-10.1,13.7-13.7,21.5c-6.2,13.7-12.5,27.4-18.7,41
		c-2.4,5.4-4.9,10.8-5.5,16.7c-0.6,5.9,1,12.3,5.5,16c5.5,4.5,13.3,4.1,20.4,5c17.1,2.3,33.2,13.8,50.2,10.6
		c1.3-0.2,2.6-0.6,3.3-1.7c0.4-0.7,0.5-1.5,0.5-2.3c0.9-19.4-15.9-35.2-19.4-54.3c-2.1-11.2-5-22.4-3.8-33.7
		C136.2,89.5,136,79.4,140.3,73.6z"/>
	<path class="st12" d="M125.8,182.6c0.2-5.1,2.3-10.3,6.5-13.1c4.6-3,10.6-2.5,15.8-4.1c8.4-2.6,14.1-10.8,16-19.3
		c2-8.5,0.8-17.5-1-26.1c-3-15.3-7.6-30.2-13.6-44.6c-7.5-0.1-13.5,5.8-18.7,11.2c-4.1,4.3-8.1,8.6-11.5,13.4
		c-7.7,11.1-11.4,24.9-20.5,35c-4.4,4.8-10,8.7-12.8,14.6c-2.3,4.7-2.4,10.2-2,15.4c0.3,3.4,0.8,6.9,2,10.1
		c2.9,7.6,9.6,13.4,17,16.8c4.2,2,16,7.4,20.7,5.4C129.8,194.7,125.6,187.7,125.8,182.6z"/>
	<path class="st12" d="M226.6,148.8c1.3-4.2-0.2-8.8-1.6-13c-2.3-6.7-4.6-13.4-8.6-19.2c-4-5.8-10.1-10.5-17.1-11.3
		c-6-0.7-13.1,2.9-13.5,9c-0.1,2.1,0.5,4.1,0.7,6.2c1,10.9-16.9,17.1-2.1,25.4C194.1,151.4,216.1,152.2,226.6,148.8z"/>
	<path class="st13" d="M138,115.2c1.4,0.7,2.9,1.4,4.3,2c0.7,0.3,1.4,0.7,2.2,0.9c0.8,0.2,1.6,0.3,2.4,0.3c3.3,0.2,6.5-0.1,9.7-0.9
		c0.7-0.2,1.3-0.3,2-0.6c2.7-1,5-2.9,7.2-4.8"/>
	<path class="st8" d="M86.9,130.5c-0.1,0.2-0.3,0.4-0.4,0.7c-0.1,0.2-0.1,0.6,0.2,0.7c0.3,0.2,0.7,0,0.9,0.2
		c0.3,0.3,0.1,0.7,0.5,0.9c0.5,0.2,0.9-0.4,1.2-0.8c0.4-0.6,0.8-1.5,0.7-2.3c0-0.7-0.5-1.3-1.3-1.4
		C87.6,128.4,87.4,129.8,86.9,130.5z"/>
	<path class="st8" d="M84.2,160.4c-0.1-0.1-0.3-0.2-0.4-0.2c-0.2,0-0.3,0.3-0.4,0.5c-0.1,0.4-0.2,0.8-0.3,1.2
		c-0.2-0.2-0.6,0-0.7,0.2c-0.1,0.2-0.1,0.5-0.1,0.8c0,0.2,0.1,0.4,0.3,0.6c0.2,0.2,0.5,0.2,0.8,0.3c0.2,0.1,0.3,0.3,0.4,0.4
		c0.9,0.6,2-0.6,1.7-1.5c-0.1-0.4-0.5-0.7-0.6-1.1C84.7,161.1,84.8,160.8,84.2,160.4z"/>
	<path d="M118.3,104.2c0,0.2,0,0.4,0.1,0.6c0.2,0.6,0.7,1.1,1.3,1.2c1.5,0.3,3.2-1.2,2.1-2.6c-0.5-0.5-1.2-0.8-1.9-0.8
		C118.6,102.5,118.3,103.1,118.3,104.2z"/>
	<path class="st7" d="M128.3,108.9c-1.4-0.1-2.9,0.3-3.8,1.4c-0.5,0.6-0.8,1.4-1,2.1c-0.1,0.4-0.2,0.9-0.2,1.4
		c0.1,1,0.9,1.7,1.7,2.2c1.2,0.7,2.7,0.9,4.1,0.6c1.4-0.3,2.6-1.2,3.4-2.3c0.7-1.1,1.1-2.9,0.1-3.9
		C131.5,109.5,129.6,109,128.3,108.9z"/>
	<path class="st8" d="M112.4,84.3c0,0.6,0.1,1.2,0,1.8c-0.1,0.6-0.3,1.2-0.9,1.4c-0.2,0.1-0.4,0.1-0.5,0.3c0,0.1,0.1,0.3,0.2,0.4
		c1.3,1.3,4.1-0.4,3.6-2.2c-0.2-0.7-0.7-1.4-1-2.1C113.4,82.8,112.5,83.1,112.4,84.3z"/>
	<path class="st8" d="M96.5,108.6c-0.2,0-0.4,0.1-0.5,0.3c-0.2,0.4,0.2,0.8-0.1,1.2c-0.2,0.2-0.5,0.2-0.7,0.4
		c-0.1,0.1-0.1,0.2-0.2,0.3c-0.1,0.2-0.2,0.5,0,0.7c0.2,0.3,0.6,0.3,1,0.1c0.3-0.1,0.7-0.3,1-0.2c0.5,0.2,0.8,0.5,1.3,0.2
		c0.4-0.3,0.3-0.6,0.1-1c-0.2-0.5-0.7-0.7-1-1.1C97.1,109.1,97.3,108.6,96.5,108.6z"/>
	<path class="st8" d="M132.4,72.6c-0.2,0.1-0.3,0.2-0.4,0.3c-0.3,0.2-0.7,0.3-1,0.2c-0.2,0.5-0.1,1.1,0.1,1.7
		c0.1,0.2,0.1,0.5,0.3,0.6c0.3,0.2,0.8,0,1-0.2s0.6-0.6,0.9-0.6c0.3,0,0.6,0.1,0.8-0.1c0.1-0.1,0.2-0.2,0.2-0.3
		C135.5,72.8,133.8,72,132.4,72.6z"/>
	<path class="st8" d="M217.9,122.9c-0.1-0.1-0.2-0.2-0.3-0.3c-0.1-0.1-0.3-0.1-0.5-0.2c-0.4-0.1-0.9-0.3-1.3-0.1
		c-0.5,0.2-0.6,0.9-0.3,1.3c0.2,0.2,0.4,0.3,0.5,0.4c0.2,0.3,0.2,0.7,0.1,1c-0.1,0.3-0.3,0.6-0.4,1c-0.1,0.3-0.1,0.7,0.2,1
		c0.3,0.3,0.7,0.2,1.1,0.1c0.5-0.1,0.9-0.1,1.4-0.1c0.7,0,1-0.3,1.3-0.9c0.2-0.6,0.6-1.7,0.1-2.3
		C219.3,123.2,218.4,123.4,217.9,122.9z"/>
	<path class="st8" d="M109.5,127.9c-0.2,0.1-1,0.9-1.2,1c-0.1,0.1-0.1,0.3-0.1,0.5c0.1,0.2,0.2,0.3,0.4,0.4c0.1,0.1,0.2,0.1,0.3,0.2
		c0.5,0.2,1,0.3,1.6,0.1c0.2,0,0.3-0.1,0.5-0.2C112.1,129,110.3,127.5,109.5,127.9z"/>
	<path class="st8" d="M110.4,147.2c-0.1-0.1-0.2-0.1-0.4-0.2c-0.8-0.1-1.6,0.4-2.2,1c-0.2,0.2-0.3,0.3-0.4,0.6
		c-0.1,0.2,0,0.5,0.2,0.6c0.1,0.1,0.3,0.1,0.4,0.1c0.3,0.1,0.6,0.4,0.7,0.7c0,0.2,0,0.5,0,0.7c-0.1,0.5-0.2,1-0.2,1.5
		c0,0.5,0.3,1,0.8,1.2c0.5,0.2,1,0,1.5-0.2c0.3-0.2,0.7-0.4,0.8-0.8c0.1-0.2,0.1-0.5,0.1-0.8c0-1.1,0.1-1.6-0.8-2.3
		c-0.4-0.3-0.7-0.6-0.8-1.1C110.2,148.1,110.7,147.5,110.4,147.2z"/>
	<path class="st8" d="M103.4,174.1c-0.1,0.3,0,0.7-0.1,1.1c0,0.1-0.1,0.2-0.1,0.3c-0.2,0.4,0,0.8,0.2,1.1c0.4,0.4,0.4,0.4,0.5,1
		c0.1,0.5,0.8,1,1.3,0.6c0.8-0.6,0.4-2.9,0.3-3.7c0-0.6-0.2-0.8-0.8-0.9C104.2,173.5,103.6,173.6,103.4,174.1z"/>
	<path class="st8" d="M125.6,163.6c-0.2,0.3-0.6,0.3-1,0.3c-0.1,0-0.1,0-0.2,0.1c-0.1,0-0.1,0.1-0.1,0.2c-0.5,1.9,2.4,0.9,2.9,0
		c0.3-0.5,0.2-1.2-0.3-1.6C126.1,162,126,163.2,125.6,163.6z"/>
	<path class="st8" d="M134.8,135.2c-0.1,0.5-0.7,0.8-1,1.3c-0.3,0.4-0.2,1.1,0.2,1.4c0.4,0.3,1.1,0.3,1.4-0.2
		c0.1-0.1,0.2-0.3,0.3-0.4c0.4-0.4,1.1,0,1.6-0.4c0.5-0.4,0.5-0.9,0.1-1.4C136.9,134.6,135.2,133.6,134.8,135.2z"/>
	<path class="st8" d="M147.5,143.5c-0.1-0.1-0.1-0.2-0.1-0.3c-0.2-0.4-0.7-0.5-1.1-0.4c-0.4,0.1-0.7,0.5-1,0.8
		c-0.3,0.4-0.7,0.9-0.5,1.3c0.2,0.5,1,0.6,1.2,1c0.2,0.4,0.1,0.9-0.1,1.3c-0.1,0.3-0.3,0.6-0.4,1c-0.1,0.1-0.1,0.3-0.1,0.4
		c0,0.1,0.1,0.1,0.1,0.1c0.4,0.3,1,0.4,1.6,0.4c0.4,0,0.9,0,1.3,0c0.4,0,0.8,0,1.1-0.1c0.3-0.1,0.7-0.4,0.7-0.8
		c0-0.5-0.5-0.9-0.8-1.3c-0.3-0.4-0.5-0.8-0.7-1.2c-0.2-0.4-0.2-0.8-0.3-1.2c-0.1-0.3-0.1-0.5-0.3-0.7
		C147.9,143.7,147.7,143.7,147.5,143.5z"/>
	<path class="st14" d="M61.9,192.9c-4.4-1.4-10.2-1.8-12.5,2.1c-1.4,2.3-0.9,5.2-1.4,7.8c-0.8,4.2-4.5,7.8-8.7,8.4
		c-4,0.7-8.6-0.9-11.9,1.5c-3.7,2.7-3.1,8.6-6.1,12.1c-2.7,3.1-7.4,3.5-10.7,5.8"/>
	<path class="st15" d="M58.7,155.5c-2.8-0.5-5,2.4-6.4,4.9c-2.3,3.9-5.1,8-9.5,9.2c-5.3,1.4-11.7-1.9-16.2,1.3
		c-3,2.1-3.7,6.3-6.4,8.9c-2.2,2.1-5.5,2.8-8.3,1.8"/>
	<path class="st4" d="M152.3,13.6c1.2,0.7,2.4,1.4,3.7,2.1c2.1,1.2,4.2,2.4,6.5,3.2c2,0.7,8.7,5,9.6,5.5
		c6.8,3.2,11.8,10.1,13.5,17.4c0.4,1.5,0.6,3.1,0.7,4.7c0.4,5.3-0.1,10.8-2.5,15.5c-0.8,1.4-1.8,2.9-3.2,3.5
		c-0.8,0.4-1.7,0.5-2.5,0.6c-1.9,0.3-3.8,0.5-5.7,0.4c-1.9-0.2-3.8-0.8-5.2-2.1c-1.5-1.5-2.2-3.6-2.9-5.6c-0.4-1.4-0.9-2.9-0.9-4.4
		c0-1.3,0.3-2.5,0.5-3.7c0.5-2.9,0.1-6-0.6-8.9c-0.4-1.4-0.8-2.8-0.9-4.3c-0.1-1.7,0.2-3.3-0.2-5c-0.3-1.5-1.3-2.9-1.6-4.4
		c-0.4-1.8-0.1-3.7-0.7-5.5c-0.5-1.4-1.4-2.5-2.4-3.6c-1.1-1.3-2.3-2.6-3.4-4C153.6,14.5,152.7,14.2,152.3,13.6z"/>
	<path class="st16" d="M152.1,13.9c2.8,1,4.4,4,4.5,7c0.1,2.9-1,5.8-2.3,8.4c-1.3,2.6-2.9,5.1-3.9,7.9c-0.7,2-1.1,4.2-1.4,6.3
		c-0.9,5.8-1.8,11.7-1.8,17.6c0,1.5,0,3.1,0.5,4.6s1.5,2.8,2.9,3.4c1,0.4,2.1,0.4,3.2,0.4c4-0.1,8-0.6,11.8-1.5
		c0.7-0.2,1.6-0.5,1.8-1.2c0.2-0.8-0.6-1.5-1.2-2.2c-1.1-1.3-1.3-3.1-1.4-4.8c-0.3-4.7-0.4-9.5-0.6-14.3c-0.1-2.9-0.3-5.8-0.7-8.7
		c-0.8-5.4-2.4-10.7-4.9-15.6c-0.7-1.5-2-2.6-2.8-4c-0.2-0.4-0.3-0.7-0.6-1.1c-0.2-0.3-0.5-0.5-0.8-0.8
		C153.8,14.6,153,14.4,152.1,13.9z"/>
	<path class="st5" d="M151.9,13.8c-0.2,5.5-1.4,11.4-4.7,15.8c-3.4,4.6-8.8,7.2-11.2,12.4c-0.5,1.1-0.9,2.3-1.4,3.4
		c-0.4,0.7-0.8,1.4-1,2.2c-0.1,0.6-0.2,1.1-0.2,1.7c-0.1,4.2-0.2,8.5,0.7,12.6c0.5,1.9,1.2,3.9,2.8,5.1c1.1,0.9,2.5,1.3,3.8,1.5
		c2.2,0.4,4.6,0.4,6.5-0.8c0.4-0.3,0.8-0.6,0.9-1.1c0.1-0.6-0.3-1.2-0.5-1.7c-1.4-2.7-0.3-6,0-9c0.1-1.8-0.1-3.6,0-5.5
		c0.1-3.5,1.1-6.9,2.2-10.2c0.3-1,0.6-2.1,1-3.1c0.3-1.1,0.7-2.3,1.3-3.3c0.4-0.7,0.9-1.4,1.3-2.1c1.9-2.9,3.2-6.3,3.6-9.7
		c0.2-1.5,0.2-3-0.3-4.5c-0.5-1.4-3.9-3.6-4.3-3.9C152.2,13.7,152.1,13.7,151.9,13.8z"/>
	<path class="st6" d="M152.1,13.9c-3.8,5.3-8.9,10.3-14.2,14.1c-0.9,0.7-1.8,1.3-2.7,2c-1.2,1-2.2,2.2-3.2,3.5
		c-1.2,1.5-2.4,2.9-3.6,4.4c-2,2.4-3.9,4.8-5.3,7.6c-1.7,3.5-2.4,7.4-2.8,11.2c-0.1,0.9-0.2,1.9,0.1,2.8c0.2,1,0.8,1.9,1.4,2.8
		c0.6,0.9,1.2,1.9,2,2.7c1.8,1.8,4.3,2.5,6.7,3.2c1.2,0.3,2.6,0.7,3.6-0.1c0.7-0.5,1-1.5,0.9-2.3c0-0.9-0.3-1.7-0.5-2.5
		c-0.8-3.1-1-6.4-1.1-9.6c0-1.2-0.1-2.4,0-3.6c0.3-3.2,1.7-6.3,3.6-9c1.9-2.7,4.2-5,6.4-7.3c0.8-0.9,1.7-1.8,2.5-2.7
		c3-3.6,5.1-7.9,6-12.4C152.2,17.2,151.9,15.3,152.1,13.9z"/>
	<path class="st14" d="M120.9,240.9c-3.2-1.5-7.1,0.3-9.3,3c-2.2,2.7-3,6.3-4,9.6c-1,3.4-2.2,6.8-4.8,9.2c-2.2,2-5.2,2.8-7.8,4.3
		c-5,2.7-8.8,7.6-10.2,13.1"/>
	<path class="st15" d="M97.5,206.7c-4.2-1.6-9.4,1.5-10.1,5.9c-0.4,2.4,0.4,4.9,0.5,7.3c0.1,4.8-2.7,9.4-6.8,12
		c-4,2.6-9,3.5-13.8,3.1c-4.3-0.3-9.5-1.3-12.3,2c-2.9,3.4-1,8.4-0.8,12.9c0.5,9.3-8.4,17.9-17.6,17.1c-2.6-0.2-5.2-1.1-7.8-1.2
		c-2.6-0.1-5.6,0.7-6.9,3"/>
</g>
<g>
	<path class="st17" d="M299.5,263c-15.5-1.5-31.8,1.5-44.8,10c-16,10.5-26.2,28.6-42.9,38.1c-16.1,9.2-35.7,8.9-53.8,13
		c-18.7,4.2-36.5,13.7-49,28.2c-6.9,8-12.1,17.5-19.6,25c-11.4,11.4-27.2,17.4-43,21s-31.9,5.3-47.5,9.8v44.4h205.8
		c-1.8-4.9,3.7-8.6,8.3-11.2c19.4-10.6,39.5-20.1,60-28.4c3.6-1.4,7.3-2.9,10-5.6c3.8-3.6,5.3-8.9,7.6-13.5c2.4-4.7,4.4-9,9.6-8.9
		C300.3,385,300.7,263.1,299.5,263z"/>
	<path class="st18" d="M262.2,293c-13.2-3.1-28.3,6.4-28.2,17.5c0.1,5.7,2.7,12.8-3,16c-2.4,1.4-5.6,1.4-8.6,1.6
		c-13.6,0.7-28,6.6-32.6,17.2c-3.7,8.5-0.5,18.6-6.1,26.4c-10.6,14.9-42.5,9.6-53.8,24.1c-2.3,3-3.4,6.5-5.2,9.8
		c-7.7,14.5-29.3,22.9-47.9,18.7"/>
	<path class="st19" d="M292.4,311c-4.2-1.6-9.4,1.5-10.1,5.9c-0.4,2.4,0.4,4.9,0.5,7.3c0.1,4.8-2.7,9.4-6.8,12
		c-4,2.6-9,3.5-13.8,3.1c-4.3-0.3-9.5-1.3-12.3,2c-2.9,3.4-1,8.4-0.8,12.9c0.5,9.3-8.4,17.9-17.6,17.1c-2.6-0.2-5.2-1.1-7.8-1.2
		c-2.6-0.1-5.6,0.7-6.9,3"/>
	<path class="st20" d="M216.4,402.5c-2.8-0.5-5,2.4-6.4,4.9c-2.3,3.9-5.1,8-9.5,9.2c-5.3,1.4-11.7-1.9-16.2,1.3
		c-3,2.1-3.7,6.3-6.4,8.9c-2.2,2.1-5.5,2.8-8.3,1.8"/>
</g>
</svg>
