<?xml version="1.0" encoding="utf-8"?>
<!-- Generator: Adobe Illustrator 27.2.0, SVG Export Plug-In . SVG Version: 6.00 Build 0)  -->
<svg version="1.1" id="Blonnopie_7" xmlns="http://www.w3.org/2000/svg" xmlns:xlink="http://www.w3.org/1999/xlink" x="0px"
	 y="0px" viewBox="0 0 300 450" style="enable-background:new 0 0 300 450;" xml:space="preserve">
<style type="text/css">
	.st0{fill:#84D0D3;}
	.st1{fill:#BFD857;}
	.st2{opacity:0.79;fill:#C9E6D3;stroke:#AAD9BD;stroke-linecap:round;stroke-linejoin:round;stroke-miterlimit:10;}
	.st3{opacity:0.79;fill:#C9E6D3;stroke:#4B9BA7;stroke-linecap:round;stroke-linejoin:round;stroke-miterlimit:10;}
	.st4{fill:none;stroke:#70AEB8;stroke-width:5;stroke-linecap:round;stroke-linejoin:round;stroke-miterlimit:10;}
	.st5{fill:none;stroke:#4B9BA7;stroke-width:3;stroke-linecap:round;stroke-linejoin:round;stroke-miterlimit:10;}
	.st6{fill:none;stroke:#088A97;stroke-width:4;stroke-linecap:round;stroke-linejoin:round;stroke-miterlimit:10;}
	.st7{fill:#D9E25A;}
	.st8{fill:#FFDD00;stroke:#F7941D;stroke-width:2;stroke-linecap:round;stroke-linejoin:round;stroke-miterlimit:10;}
	.st9{fill:none;stroke:#F57E25;stroke-width:2;stroke-linecap:round;stroke-linejoin:round;stroke-miterlimit:10;}
	.st10{fill:none;stroke:#F57E25;stroke-width:3;stroke-linecap:round;stroke-linejoin:round;stroke-miterlimit:10;}
	.st11{fill:#F7941D;stroke:#F57E25;stroke-width:3;stroke-linecap:round;stroke-linejoin:round;stroke-miterlimit:10;}
	.st12{fill:#EE283B;stroke:#9A1220;stroke-width:3;stroke-miterlimit:10;}
	.st13{fill:none;stroke:#9A002B;stroke-width:4;stroke-linecap:round;stroke-linejoin:round;stroke-miterlimit:10;}
	.st14{fill:#F7941D;stroke:#F57E25;stroke-width:2;stroke-linecap:round;stroke-linejoin:round;stroke-miterlimit:10;}
	.st15{fill:#FFDD00;stroke:#F7941D;stroke-width:3;stroke-linecap:round;stroke-linejoin:round;stroke-miterlimit:10;}
	.st16{fill:#EE283B;stroke:#9A1220;stroke-width:2;stroke-miterlimit:10;}
	.st17{fill:none;stroke:#9A002B;stroke-linecap:round;stroke-linejoin:round;stroke-miterlimit:10;}
	.st18{fill:#70AEB8;}
	.st19{opacity:0.79;fill:#C9E6D3;}
</style>
<rect x="-0.8" y="-1.5" class="st0" width="302.3" height="375.6"/>
<g id="Ground">
	<g>
		<path class="st1" d="M301.5,449.9c-29.2,0.9-230.9,2.2-301.8,2.2L-0.7,373c6.7,0.8,13.3-2.1,20-2.5c3.8-0.3,7.6,0.2,11.4,0.4
			c8.8,0.5,17.6-0.4,26.4-1.4c0,0,2.5-1.1,3.4-1.3c46-8.7,63.5,4.5,63.5,4.5c37.7-1.9,75.4-2.9,113.2-3.9
			c21.3-0.6,43.2-1.3,64.5-1.9L301.5,449.9z"/>
	</g>
</g>
<g id="Circules">
	<path class="st2" d="M132,135.7c-1.4,2.4,0.9,6,3.7,6.2c2.8,0.2,5.4-2.8,4.7-5.6c-0.7-2.7-4.7-4.5-6.8-2.6
		C133.2,134.2,132.3,135.2,132,135.7z"/>
	<path class="st2" d="M121.6,132.6c0.4-1.8,2.5-3.5,4.3-3c1.2,0.3,1.8,1.6,1.7,2.8s-0.9,2.3-1.8,3c-0.8,0.7-1.8,1.2-2.8,1
		S121.4,133.6,121.6,132.6z"/>
	<path class="st2" d="M113.6,135.3c1-0.8,2.9-0.3,3.6,0.8c0.9,1.4-0.8,3.7-2.5,3.6c-0.8-0.1-1.5-0.7-1.7-1.5
		C112.9,137.3,113.1,135.7,113.6,135.3z"/>
</g>
<g id="Hahaha">
	<path class="st3" d="M148,126.8c-0.7,2-0.1,4.1-0.1,6.2c0,4.9-3,9.1-4.4,13.8c-1.4,4.6,0,11.1,4.8,11.9c-3,4.6-6,10.8-2.8,15.2
		c3.3,4.6,10.6,3.5,15.5,0.6c-0.3,5.4-0.5,11.2,2.6,15.6c3.1,4.4,10.9,5.5,13.5,0.8c0.8,6,1.7,12.3,5.2,17.2
		c3.5,4.9,10.5,7.9,15.8,4.9c2.3-1.3,4.2-3.6,6.9-3.7c1.7,0,3.2,1,4.7,1.8c3.8,2.2,8.3,3.8,12.6,2.9c4.3-1,8.1-5.3,7.1-9.6
		c4.9,1.7,10,3.4,15.1,2.4s9.7-6.1,8.3-11c4.1,0.5,8.4,0.9,12.2-0.6c3.8-1.6,6.8-5.9,5.4-9.8c6-0.4,11-6.6,10.1-12.6
		s-7.5-10.4-13.4-9c3.2-5.8,11.4-10.9,9.7-17.3c-1.9-7.1-14.2-4.6-21.2-2.3c-3.3-6.4-4.8-15.2-11.7-17.6c-6.7-2.3-13.2,3.3-18.1,8.4
		c0-4,0-8.1-1.3-11.9c-1.3-3.8-4.4-7.2-8.3-7.9c-5.6-1-10.6,3.6-14.4,7.8c3.3-6.4-3.4-14.9-10.6-14.5c-8.2,0.4-8.3,13.6-12.6,8.5
		c-4.4-5.1-13.4,1.2-16.5,7.4C158,123.3,150,121.2,148,126.8z"/>
	<path class="st4" d="M157.1,141.2c2.4,1.7,5.9,0.9,7.9-1.1s4.6-7,1.4-8.5c-8.6-3.9-6.1,17.8-8.7,26.9c1-3,1.1-6.3,2.4-9.2
		s5.8-6.4,7.6-3.9c1.6,2.2-0.3,5.4,0.2,8s3.2,5.2,5.6,4.1c2.4-1.1,2.3-4.5,3.5-6.9c1.6-3.2,7.3-6.5,9.7-3.8
		c-2.7-2.7-8.3-0.3-10.9,2.4c-2.7,2.7-2.6,7.7,0.2,10.3c0.6,0.6,1.5,1.1,2.4,1.1c0.6,0,1.2-0.3,1.8-0.7c4.4-2.6,7.1-8,6.5-13.1
		c-0.9,2.3-1.5,4.9-1.1,7.4s2.2,4.8,4.7,5.4c2.1,0.4,4.2-0.4,5.8-1.8c1.6-1.4,2.7-3.2,3.8-5"/>
	<path class="st5" d="M190.7,173.1c3.6,0.8,7.5-0.1,10.4-2.4c2.9-2.2,6.2-6,5-9.5c-0.5-1.4-2.6,0.5-3.1,1.8
		c-3.5,8.4-5.9,17.1-7.3,26.1c1-1.8,1.2-3.9,1.6-5.9c0.4-2,1.1-4.1,2.7-5.3c1.6-1.2,4.4-1.1,5.3,0.7c1.1,2.1-0.5,5.3,1.3,6.7
		c1.2,0.9,3,0.2,4-0.9c1-1.1,1.6-2.6,2.6-3.8c2.3-2.6,5.2-4.6,7.6-2.1c-2.3-0.7-4.8-1.8-7.4-0.5c-1.2,0.6-2,1.7-2.5,2.9
		c-0.6,1.6-1.2,3.3-1.7,4.9c-0.4,1.2-0.7,2.5-0.1,3.6c0.8,1.5,2.9,1.8,4.4,1.2c1.5-0.7,2.6-2.1,3.5-3.5c1.7-2.7,3-5.6,3.9-8.6
		c-0.4,2.3-0.7,4.7-0.4,7c0.3,2.3,1.5,4.6,3.5,5.8c2,1.2,5,0.8,6.3-1.1"/>
	<path class="st6" d="M238.7,162.8c4.2,1,9-1.8,10.1-5.9c0.1-0.3,0.1-0.6,0.1-0.9c-0.2-0.8-1.3-1.1-2-0.7c-0.7,0.4-1.2,1.1-1.6,1.8
		c-3.5,6.4-6.8,13-9.8,19.7c0.3-2.3,1.2-4.5,2.6-6.4c0.7-1,1.6-1.8,2.7-2.2c1.1-0.4,2.5-0.2,3.3,0.7c1.7,1.9,0,5.8,2.2,7
		c1.1,0.6,2.5-0.1,3.4-1c0.9-0.9,1.5-2,2.5-2.8c1.8-1.4,5.6-1.4,7.1,0.3c-2-1.1-5.4-1.9-7.4-0.8c-1.7,0.9-2.3,3-2.7,4.9
		c-0.1,0.5-0.2,1,0,1.5c0.2,0.4,0.6,0.6,0.9,0.7c1.9,0.8,4.1,0.1,5.7-1.3c1.6-1.3,2.6-3.2,3.4-5c-0.2,2.3-2.4,4.6-1.2,6.6
		c0.4,0.6,1,1,1.7,1.2c1.5,0.7,3.3,0.9,5,0.8"/>
</g>
<path class="st7" d="M-0.6,384.1c49.5,6,99.2,7,148.8,3.1c51-4,102.3-13.3,153-4v14.6c-41.9-14.8-84.6,4-127.7,0.6
	c-7.5-0.6-14.9-1.8-22.4-1.3c-7.6,0.6-15,3-22.5,4.5c-43,8.6-87.3-12.5-130-1.3L-0.6,384.1z"/>
<path class="st7" d="M0.5,424.7c25.2-11.9,52.6,0.3,79.1-0.4c11.9-0.3,23.7-3.2,35.6-3.1c21.4,0.2,42.6,10.2,63.9,6.7
	c9.7-1.6,19.1-5.9,28.6-8.9c30.7-9.7,62.7-5.4,94-1.2l0.7,14.8c-29.3-4.4-58-5.3-87.4-2.9c-18.6,1.6-37,5.9-55.6,8
	c-7.7,0.9-15.5,1.4-23.1-0.8c-5.7-1.6-11.1-4.7-16.8-6.2c-6.4-1.7-13-1.2-19.5-0.8c-33.7,2.3-67.5,4.6-101.2,7L0.5,424.7z"/>
<g id="Character_00000011022156538224940290000013406753087425244566_">
	<path class="st8" d="M166,296.9c6.7-2.4,12.8-6.7,17.3-12.3c1.3-1.5,2.4-3.2,3-5.1c0.4-1.3,0.5-2.7,0.6-4.1
		c0.1-1.5,0.2-2.9,0.4-4.4c0.1-1.4,0.2-2.8,0-4.1c-0.3-1.6-1-3.2-1.2-4.8c-0.1-0.9-1-3.6-2.6-5.1c-2-2-4.9-2.9-7.7-3.6
		c-1.7-0.4-3.4-0.6-5.2-0.8c-3.3-0.3-6.6-0.6-9.8,0.1c-2.6,0.6-5,1.7-7.4,3c-3.4,1.8-7,3.8-9.1,7c0,0,16.9,22.9,20.2,31.4L166,296.9
		z"/>
	<path class="st8" d="M48.2,278.9c-1.5,1.7-3.9-2.1-5.2-3.9c-1-1.4-1.9-2.8-2.6-4.3c-1.9-3.8-2.6-8.1-2.1-12.3
		c0.4-3.2,1.5-6.3,2.8-9.2c1.1-2.5,2.4-5,4.2-7s4.3-3.7,7-4.1c1.1-0.2,2.2-0.2,3.2-0.1c2.9,0.2,5.7,1.1,8.4,1.9
		c1.4,0.4,7.9,2.7,10,4.5c3.2,2.7,5.4,6.5,5.8,10.7C79.7,255,57.6,268.4,48.2,278.9z"/>
	<path class="st9" d="M24.9,317.8c-1,5.2,0.2,10.7,3.4,15"/>
	<path class="st10" d="M25.3,339.6c-5.5-0.8-10.2-5.2-11.4-10.6c-1.2-5.4,1.2-11.4,5.8-14.5"/>
	<path class="st10" d="M171.5,367.5c4.6-3.9,7.1-10.2,6.4-16.2"/>
	<path class="st9" d="M168.1,377.3c5.6-1.1,10.6-4.6,13.5-9.5c2.9-4.9,3.6-11,1.9-16.4"/>
	<path class="st11" d="M154.9,276.2c0.6-1.4,1.8-2.5,3.2-3.2c1.3-0.7,2.8-1.2,4.2-0.9c2.2,0.4,3.9,2.6,3.8,4.8c-0.1,1.6-1,3-2.2,4
		c-1.2,1-2.6,1.7-4.1,2.3"/>
	<path class="st11" d="M61.1,266.7c-0.9-1-1.8-2-2.8-3c-1-1-1.9-2.1-2.4-3.4s-0.2-3,0.9-3.8c0.6-0.4,1.3-0.6,1.9-0.6
		c1.4,0,2.8,0.5,4,1.4c1.2,0.8,2.1,1.9,3,3c0.5,0.6,1,1.2,1,2"/>
	<path class="st12" d="M32,322.6c-0.2-15.4,5.6-30.6,15.2-42.6s22.8-20.9,37.2-26.3c6.1-2.3,12.6-4.1,19.1-4.3
		c4.1-0.1,8.2,0.3,12.4,0.8c6.9,0.8,14.1,1.6,20.1,5.3c4.8,2.9,8.4,7.5,11.9,11.9c5.1,6.5,10.3,13,14,20.4c2.4,4.8,4.2,10,6,15.1
		c1.6,4.4,3.1,8.9,4.2,13.5c3.1,13.8,1.4,28.5-4.2,41.5s-15,24.2-26.3,32.7c-2.1,1.6-4.3,3.1-6.8,4c-2.3,0.9-4.7,1.2-7.2,1.5
		c-11.7,1.4-23.6,1.1-35.2-0.9c-16.4-2.8-32.4-9.3-44.6-20.6C35.6,363.2,30.8,324.7,32,322.6z"/>
	<path class="st13" d="M54,314.1c2.3,0.7,4.7,1.3,6.9,0.4c0.7-0.3,1.4-0.8,2-1.3c1.3-1.2,2.2-2.7,2.8-4.3"/>
	<path class="st13" d="M61.6,314.4c-0.8,6.6,0.6,13.5,3.7,19.4c3.1,5.9,7.8,10.9,13.3,14.7c1.1,0.7,2.2,1.4,3.4,2
		c1.3,0.6,2.6,0.9,4,1.3c4.3,1.1,8.6,2.1,13,2.3c7.8,0.3,15.5-2,22.9-4.4c2.4-0.8,4.8-1.6,7.1-2.5c11-4.7,19.7-14.3,23.3-25.7"/>
	<path class="st13" d="M150.3,313.9c-0.1,0.9-0.2,1.9-0.2,2.8c0.1,2,1.1,4,2.7,5.2c1.6,1.3,3.7,1.8,5.7,1.4"/>
	<path class="st14" d="M118,399.9c0.7,2.1,2.8,3.3,4.8,4.1c1.8,0.7,3.8,1.5,4.3,3.3c0.1,0.5,0.1,0.9,0.1,1.4c-0.3,3-2.7,5.4-5.2,7.1
		c-3.8,2.6-8.2,4.3-12.7,5c-0.8,0.1-1.6,0.2-2.3,0.3c-4.2,0.5-8.5,0.6-12.8,0.5c-0.9,0-1.8-0.1-2.6-0.3c-1.6-0.4-3.7-2.3-5-3
		c-0.7-0.4-1.2-1-1.7-1.6c-0.9-1.1-1.9-2.3-2.3-3.8c-0.2-0.8-0.2-1.7-0.1-2.5c0.1-1.9,0.1-3.8,0.5-5.7c0.3-1.4,1.4-2.3,2.3-3.3
		c1-1.1,3.7-1.6,5.1-2.1c1.4-0.5,2.7-1.3,4-2c0.6-0.4,1.3-0.9,1.2-1.6c0,0,19.3,2.8,21.6,1.1C117.2,396.8,117.6,398.7,118,399.9z"/>
	<path class="st13" d="M72.1,289.2c1.3-1.3,3.1-2,4.9-2.2c1.8-0.2,3.7,0,5.5,0.2c0.8,0.1,1.5,0.2,2.3,0.4c2.1,0.6,3.9,2.2,4.7,4.3"
		/>
	<path class="st13" d="M127.4,295.3c2.2-1.7,4.7-3.5,7.5-3.3c1.1,0.1,2.2,0.5,3.3,0.9c1,0.4,1.9,0.7,2.7,1.4
		c0.6,0.5,1.2,1.1,1.7,1.7c0.7,0.9,1.3,1.8,1.8,2.8"/>
	<path class="st11" d="M82.8,352.3c1.3,0.6,2.8,1.1,4.3,0.8c1.4-0.3,2.7-1.6,2.6-3.1c-0.1-1.5-2-2.6-3.2-1.7
		c0.8-1.5,1.1-3.4,0.1-4.7c-1-1.3-3.5-1.4-4.2,0.1c0.8-1.3,1.7-2.6,2.5-3.9c0.2-0.4-0.9-3.4-3.3-1.7c-1.2,0.8-2.2,1.9-3,3
		c0.3-0.7,0-1.6-0.6-2.1c-0.6-0.5-1.5-0.4-2.1,0c-0.5,0.4-0.7,1-1,1.6c-0.4,1.4-0.8,2.7-1.1,4.1c-1.2-1.7-3.8-2.3-5.6-1.1
		c-1.7,1.2-2.1,4-0.6,5.4c1.2,1.2,3.1,1.2,4.7,1.2c-2.2,3.8-10.2,10.8-9.5,11.9c0.7,1.1,1.7,1.9,2.8,2.5c2.7,1.7,5.7,2.9,8.8,3.4
		c1.2,0.2,2.5,0.3,3.8,0.1S80.6,356,82.8,352.3z"/>
	<path class="st15" d="M143.3,340.4c-0.3-0.4-0.5-0.8-0.6-1.2c-0.2-0.7,0.1-1.5,0.3-2.3c0.2-0.8,0.1-1.7-0.5-2.1
		c-0.7-0.4-1.6-0.1-2.2,0.4c-0.6,0.5-1.1,1.2-1.9,1.5c-0.3-1.1-0.7-2.2-1-3.3c-0.2-0.7-0.5-1.5-1.2-1.8c-1.1-0.4-2.2,0.8-2.4,1.9
		c-0.2,1.2,0.2,2.4-0.1,3.5c-0.2-0.5-0.4-1.1-0.9-1.4c-0.4-0.4-1.1-0.5-1.6-0.1c-0.4,0.3-0.4,0.9-0.4,1.3c-0.1,1-0.1,2-0.2,3
		c-0.7-0.3-1.1-1-1.6-1.5c-0.6-0.5-1.5-0.7-2-0.2c-0.2,0.3-0.3,0.6-0.3,0.9c-0.2,2,0.5,4.1,1.8,5.6c-0.6-0.3-1.2-0.5-1.9-0.6
		c-0.6,0-1.3,0.3-1.7,0.8c-0.4,0.7,0,1.7,0.6,2.2c0.6,0.5,1.5,0.7,2.3,0.9c2.3,0.4,4.8,0.6,6.8,1.9c1.9,1.2,3.2,3.2,4,5.4
		c0.7,2.2,1.9,6.9,2.3,7c1.3,0.1,2.6,0.3,3.8,0.1c1.9-0.3,3.6-1.2,5.2-2.1c0.9-0.5,1.8-1,2.5-1.7
		C153.8,357.1,146.3,344.7,143.3,340.4z"/>
	<path class="st16" d="M85.4,397.2c-0.5,1-0.6,2.2-0.1,3.1c0.5,0.8,1.5,1.3,2.4,1.6c2.5,0.8,5.5,1,7.1,3.1c0.5,0.7,0.8,1.5,1,2.3
		c0.8,3.6-0.6,7.6-3.5,9.9c-1.5,1.2-3.3,1.9-5.2,2.4c-1.1,0.3-2.2,0.5-3.4,0.5c-1.3,0-2.5-0.2-3.7-0.5c-1.9-0.4-3.8-0.7-5.7-1.1
		c-2.2-0.4-4.4-0.9-6.4-1.7c-0.8-0.4-1.6-0.8-2.5-0.9c-0.6-0.1-1.2,0-1.8-0.2c-0.5-0.1-1-0.4-1.5-0.8c-1-0.6-2-1.3-2.9-1.9
		c-2.7-1.7-5.5-3.7-6.7-6.7c-0.5-1.3-0.7-2.6-0.8-4c-0.2-2.4-0.4-4.9,0.6-7c0.8-1.8,2.2-3.2,3.7-4.3c0.7-0.5,1.4-1,1.9-1.7
		c1.2-1.8,0.3-4.3,1-6.4c0,0,17.8,12,26.9,11.3C85.9,394.2,85.9,396.2,85.4,397.2z"/>
	<path class="st17" d="M66.6,286.9c-0.4,1.1-0.5,2.2-0.3,3.3"/>
	<path class="st17" d="M63.2,285.3c-1.3,1-1.8,2.8-1.4,4.3"/>
	<path class="st17" d="M148.1,293.9c0.8,0.2,1.6,0.8,1.8,1.6s0.1,1.8-0.4,2.4"/>
	<path class="st17" d="M152,292.5c1.1-0.4,2.3,0.6,2.5,1.7c0.3,1.1-0.1,2.3-0.5,3.4"/>
</g>
<path class="st2" d="M112.5,233.7c-1.9,0.2-4.1,1.4-3.9,3.2c0.2,1.6,2.6,2.3,3.8,1.2S113.5,234.9,112.5,233.7"/>
<path class="st2" d="M106.7,211.6c-1.1-0.2-1.8,1.5-1.1,2.3c0.7,0.9,2,0.9,3,0.4c0.2-0.8,0.4-1.6,0.1-2.3c-0.3-0.7-1.3-1.2-1.9-0.7"
	/>
<path class="st2" d="M104.7,174.9c-2.1-0.2-4.5,1-5,3.1c-0.5,2.1,1.5,4.5,3.6,3.9c0.6-0.2,1.2-0.6,1.6-1.1c0.9-0.9,1.6-2.3,1.4-3.6
	c-0.2-1.3-1.5-2.5-2.8-2.1"/>
<path class="st2" d="M106.8,151.7c-2.5-0.4-5.1,1.3-5.9,3.7c-0.1,0.4-0.2,0.7-0.1,1.1c0.1,0.3,0.3,0.6,0.5,0.8
	c1.2,1.3,3.5,1.5,4.9,0.5s1.8-3.3,0.9-4.8"/>
<path class="st18" d="M-0.8,90.9C4,87.1,10.7,86,16.4,88.1s10.1,7.3,11.3,13.3c6.9-2.6,14-5.3,21.3-5.6c7.4-0.3,15.3,2.3,19.6,8.3
	c3.7,5.1,4.4,12.2,9,16.5c2.6,2.5,6.2,3.7,8.7,6.3c3.7,3.9,4.1,10.1,1.7,14.9s-7.1,8.1-12.2,9.6c-1.2,0.4-2.6,0.7-3.6,1.4
	c-1.2,0.9-1.9,2.2-2.7,3.4c-7.5,11.5-25.2,14.7-36.2,6.5c-9.4,8.1-22.3,12-34.6,10.5L-0.8,90.9z"/>
<path class="st19" d="M301.5,19.5c0,27.2-56.6-10.9-72.9,10.9c-8-7.7-19.6-11.6-30.7-10.2s-21.3,8.1-27.1,17.7
	c-16.1-9.3-39-4.2-49.7,11c-3,4.4-5.2,9.6-4.5,14.9c0.8,6.6,6.1,12.1,12.4,14.5c6.3,2.3,13.3,1.8,19.7-0.2c2.6-0.8,5.4-1.9,8.1-1.4
	c2.1,0.3,3.9,1.5,5.7,2.5c15.1,8.1,35.5,4.5,47-8.1c11.7,9.3,29.1,10.6,42,3.3c12.7,11.9,33.2,7.4,49.4,1.1
	C301,75.4,301.5,16.9,301.5,19.5z"/>
</svg>
