<?xml version="1.0" encoding="utf-8"?>
<!-- Generator: Adobe Illustrator 27.2.0, SVG Export Plug-In . SVG Version: 6.00 Build 0)  -->
<svg version="1.1" id="Blonnopies_10" xmlns="http://www.w3.org/2000/svg" xmlns:xlink="http://www.w3.org/1999/xlink" x="0px"
	 y="0px" viewBox="0 0 300 450" style="enable-background:new 0 0 300 450;" xml:space="preserve">
<style type="text/css">
	.st0{fill:#AEDFE6;}
	.st1{opacity:0.9;fill:#B9E5FB;}
	.st2{opacity:0.9;fill:#D9F1FD;}
	.st3{opacity:0.9;fill:#F1FAFE;}
	.st4{fill:url(#SVGID_1_);stroke:#B4B4DA;stroke-miterlimit:10;}
	.st5{fill:none;stroke:#908FB5;stroke-linecap:round;stroke-linejoin:round;stroke-miterlimit:10;}
	.st6{fill:#FFFFFF;stroke:#B9C2DF;stroke-linecap:round;stroke-linejoin:round;stroke-miterlimit:10;}
	.st7{fill:#7272AA;stroke:#5C5E9C;stroke-miterlimit:10;}
	.st8{fill:none;stroke:#000000;stroke-linecap:round;stroke-linejoin:round;stroke-miterlimit:10;}
	
		.st9{fill:url(#SVGID_00000058574732811443831260000010074799388049017485_);stroke:#B9C2DF;stroke-linecap:round;stroke-linejoin:round;stroke-miterlimit:10;}
	.st10{fill:url(#SVGID_00000098899238276530363460000014850314754786107555_);stroke:#B9C2DF;stroke-miterlimit:10;}
	.st11{fill:none;stroke:#9BAAD1;stroke-width:2;stroke-linecap:round;stroke-linejoin:round;stroke-miterlimit:10;}
	.st12{fill:none;stroke:#B9C2DF;stroke-linecap:round;stroke-linejoin:round;stroke-miterlimit:10;}
	.st13{fill:none;stroke:#B9C2DF;stroke-width:3;stroke-linecap:round;stroke-linejoin:round;stroke-miterlimit:10;}
	.st14{fill:none;stroke:#B9C2DF;stroke-width:2;stroke-linecap:round;stroke-linejoin:round;stroke-miterlimit:10;}
	.st15{fill:url(#SVGID_00000018934188111194937750000004770919543181015703_);stroke:#B9C2DF;stroke-miterlimit:10;}
	.st16{fill:#D9F1FD;stroke:#B9E5FB;stroke-miterlimit:10;}
	.st17{fill:none;stroke:#B9E5FB;stroke-linecap:round;stroke-linejoin:round;stroke-miterlimit:10;}
	.st18{fill:none;stroke:#B9E5FB;stroke-width:2;stroke-linecap:round;stroke-linejoin:round;stroke-miterlimit:10;}
	.st19{fill:#FFE9A6;stroke:#FFDD77;stroke-linecap:round;stroke-linejoin:round;stroke-miterlimit:10;}
	.st20{fill:none;stroke:#FFD64B;stroke-linecap:round;stroke-linejoin:round;stroke-miterlimit:10;}
	.st21{fill:none;stroke:#FFD64B;stroke-width:2;stroke-linecap:round;stroke-linejoin:round;stroke-miterlimit:10;}
	.st22{fill:none;stroke:#FFD64B;stroke-width:3;stroke-linecap:round;stroke-linejoin:round;stroke-miterlimit:10;}
	.st23{fill:#B9C2DF;stroke:#9BAAD1;stroke-linecap:round;stroke-linejoin:round;stroke-miterlimit:10;}
	.st24{opacity:0.7;}
	.st25{opacity:0.81;}
	.st26{fill:#F9F6C1;}
	.st27{fill:#CBAED3;}
	.st28{fill:#EBC2DB;}
	.st29{fill:#C0E1C6;}
	.st30{fill:#B7D0ED;}
	.st31{fill:#FACEA1;}
	.st32{fill:#F8B2B3;}
	.st33{fill:url(#Moon_00000078732658130072544560000008794560217460588185_);}
	.st34{opacity:0.82;fill:#F7DFEC;}
	.st35{opacity:0.82;fill:#DEF2FB;}
	.st36{opacity:0.82;fill:#F9F7D1;}
	.st37{opacity:0.82;fill:#FDDFDD;}
	.st38{opacity:0.82;fill:#E2E2F2;}
	.st39{opacity:0.82;fill:#E4F0D1;}
	.st40{opacity:0.82;fill:#FEECE0;}
	.st41{opacity:0.66;}
	
		.st42{opacity:0.32;fill:url(#Pedo_colorido_00000173126653818334366090000015125990880284955529_);stroke:#B9C2DF;stroke-miterlimit:10;}
	.st43{opacity:0.9;fill:#F1FAFE;stroke:#D9F1FD;stroke-width:2;stroke-miterlimit:10;}
</style>
<rect x="0.3" y="0.2" class="st0" width="301.6" height="449.4"/>
<path id="Nube_00000089574489363793319380000011172798743021405833_" class="st1" d="M205.2,407.5c-2.8-7.6-0.8-16.8,4.9-22.5
	c5.7-5.7,14.9-7.8,22.5-5c2.2-12.8,15.5-22.5,28.4-20.8c-0.6-8.8,6.9-16.5,15.3-19.1c8.4-2.6,17.5-1.4,26.2-0.1V396v4.7
	c-2.6,7.2-11.7,10.5-18.9,12.8c-21.8,6.9-45,11.4-67.4,6.8c-3.1-0.6-6.3-1.5-8.8-3.5S204.3,410.5,205.2,407.5z"/>
<path id="Nube_00000137854584073563188570000018116177142018218400_" class="st2" d="M179.2,415c3.8-4.7,9.7-7.6,15.7-7.9
	c6-0.3,12.1,2,16.4,6.2c3.6-5.9,10.1-9.8,16.9-10.3c6.8-0.5,13.8,2.6,18.2,7.9c3.5-5.3,9.3-9,15.5-9.9c6.2-1,12.8,0.8,17.7,4.8
	c5.1-6.5,14.1-9.7,22.2-7.8v51.8h-73.1c-2.8-4.6-9.2-6.7-14.5-5.6c-1.3,0.3-2.7,0.8-4,0.4s-2.3-2.1-1.5-3.1c-4.1,2-8.6,3.3-13.1,3.7
	c-2,0.2-4.1,0.2-5.9-0.8c-2.2-1.2-3.5-3.6-4-6.1c-0.4-2.5-0.1-5,0.3-7.5C181.1,427.8,175.5,419.4,179.2,415z"/>
<path id="Nube_00000151504350076091550630000005893162980327525038_" class="st3" d="M115.9,448.6c0.4-6,3.3-11.7,7.8-15.7
	c2.1-1.8,4.5-3.2,7.2-3.6c2.7-0.3,5.7,0.6,7.3,2.8c4.3-12.8,18.5-21.3,31.9-19.8c13.5,1.5,25.2,12.2,28.6,25.3
	c6.7-3.7,15-7.4,21.7-3.7c5.3,3,7.2,9.5,8.3,15.4L115.9,448.6z"/>
<path id="Nube" class="st3" d="M231.1,447.1c1.6-6.6,6.8-12.2,13.2-14.4c6.4-2.2,13.9-0.8,19.2,3.4c7.5-7,19.2-9,28.5-4.9
	c0.6,0.3,1.3,0.6,2,0.6c0.8,0,1.4-0.5,2.1-0.9c1.7-1.2,3.4-2.3,5.1-3.5l0.6,20.9L231.1,447.1z"/>
<g id="Gracie_Mc_Unicorn">
	<g id="Gracie">
		<linearGradient id="SVGID_1_" gradientUnits="userSpaceOnUse" x1="7.8698" y1="278.6735" x2="191.8834" y2="278.6735">
			<stop  offset="0" style="stop-color:#FDECF4"/>
			<stop  offset="0.1124" style="stop-color:#F7EAF3"/>
			<stop  offset="0.2268" style="stop-color:#FAEFF1"/>
			<stop  offset="0.3539" style="stop-color:#FFFEF2"/>
			<stop  offset="0.4856" style="stop-color:#F9F9F1"/>
			<stop  offset="0.6098" style="stop-color:#ECEFF1"/>
			<stop  offset="0.7135" style="stop-color:#DBE4F4"/>
			<stop  offset="1" style="stop-color:#FEE9DF"/>
		</linearGradient>
		<path class="st4" d="M78.2,228.3c1.2,1.4,2.3,2.9,3.5,4.3c3.5,4.5,8.6,7.8,12.8,11.7c1.1,1,2.3,2.1,3.7,2.6
			c1.5,0.5,3.1,0.4,4.6,0.4c17.3-0.7,35.6,3.9,47.7,16.3c6.5,6.6,10.9,15,14.9,23.4c2,4.2,4.1,8.5,4.7,13.2c0.6,4.6-0.4,9.7-3.8,13
			c-0.6,0.5-1.2,1.1-1.4,1.9c-0.2,1,0.6,2,1.3,2.7c7,7.1,20.3,10.9,24.6,16.7c3.7,4.9-13.9-2.2-18.6-4c-3.8-1.4-7.3-4.6-10.4-7.3
			c-2.2-1.9-4.3-4-5.3-6.8l2.5,3.9c2.6,2.8,5.4,5.4,8.4,7.8c1.2,1,2.5,1.9,3.9,2.7c1.3,0.8,2.8,1.5,4.2,2.1c3.4,1.6,7,3.2,10.7,3.4
			c2,0.1,7.1,2.2,5.2,2.7c-4.2,1.1-16.8-1.2-24.8-3.7c-8-2.4-15.7-6.9-20.4-13.8c-14.7,4.3-29.8,8-45.1,9c-15.2,1-30.5-0.7-45.6-3.2
			c-6.4-1-13.3-2.2-19.2,0.4c-8.1,3.5-12,12.4-17,19.6c-0.8,1.2-2.5,3.3-3.5,2.2c-3.4-3.8,1.3-10.3,4.7-14.1l10.6-13
			c-6.5,7.4-12.9,14.8-19.4,22.2c-0.7,0.8-1.5,1.6-2.5,1.4c-1.7-0.3-1.6-2.7-0.9-4.3c3.3-7.6,10-13,15.2-19.4c0.5-0.6,1-1.3,1.3-2
			c0.6-1.8-0.3-3.8-1.1-5.5c-4.9-10-9.6-20.7-9.1-31.8c0.2-5,1.4-9.9,2.7-14.8c1.5-6,3.1-12.1,4.6-18.1c0.3-1.3,0.6-2.8-0.1-4
			c-0.4-0.7-1.1-1.1-1.7-1.6c-0.6-0.5-1-1-1.4-1.6c-0.7-1.2-2.3-3.1-1.2-3.9c0.7-0.5,1.7,0.5,2.6,0.8c1.6,0.5,3.2,0.9,4.8,1.4
			c4.8,1.4,10.4,1.3,14.8-1.1c1.1-0.6,2-1.4,2.8-2.3c2.6-2.8,4.2-6.4,4.3-10.2c-1.9,0.3-3.6,1.4-5.5,2.1c-2.1,0.7-4.3,0.8-6.4,0.9
			c-2.5,0.1-5.1,0.2-7.6,0.3c-1.8,0.1-3.7,0.2-5.5,0c-1.8-0.1-3.8-0.7-4.6-2.3c-0.4-0.9-0.4-1.9-0.4-2.8c0-1.5,0.1-3.1,0.9-4.4
			c0.9-1.5,2.6-2.3,4.3-3.1c4.4-1.9,8.7-3.9,13.1-5.8c1.7-0.8,3.5-1.6,5.2-2.3c1.4-0.6,2.9-1.3,4.3-1.7c1.6-0.5,3.3-0.8,4.9-1
			c3.3-0.3,6.7,0.1,9.6,1.7c1.5,0.8,2.8,2,4.1,3.1c1.8,1.6,3.5,3.2,5.2,4.9c2-1.1,4.1-2.2,6.3-2.3c2.2-0.2,4.7,0.8,5.7,2.8
			c0.5,1,0.6,2.2,0.5,3.4c0,0.8-0.1,1.6-0.3,2.4c-0.2,0.7-0.6,1.4-1,2C78.8,226.4,78.6,227.4,78.2,228.3z"/>
		<path class="st5" d="M72.4,221.9c1.1-0.6,2.2-1.3,3.1-2.2c0.1-0.1,0.2-0.2,0.1-0.3c-0.2,0.6,0,1.2,0.2,1.7c0.3,1.2,0,2.6-0.8,3.6"
			/>
		<path class="st5" d="M22.2,222.6c0.9,0.1,1.9,0.4,2.7,0.8c0.8,0.4,1.7,1.1,1.7,2c0,0.6-0.5,1.2-1,1.6"/>
		<path class="st6" d="M45.8,215.6c-1.9-1.4-4.5-1.4-6.6-0.4c-2.1,1.1-3.6,3.1-4.3,5.3c-0.5,1.6-0.6,3.4,0.3,4.8
			c0.8,1.3,2.5,2.1,4,2.1c1.6,0.1,3.1-0.4,4.6-1c1.6-0.7,3.2-1.6,4-3.2c0.7-1.4,0.6-3,0.5-4.5C48.2,217.5,46.7,216.3,45.8,215.6z"/>
		<path class="st7" d="M40.9,219.8c-0.6-0.5-1.5-0.4-2,0.1s-0.9,1.2-1,1.9c0,0.3,0,0.5,0,0.8c0.1,0.4,0.5,0.7,0.9,0.9
			c0.7,0.3,1.6,0.2,2.2-0.2c0.6-0.5,1-1.2,0.9-2C42,220.7,41.3,220,40.9,219.8z"/>
		<path class="st8" d="M47.8,208.9c2.2,0.3,4.4,0,6.4-0.9"/>
		
			<linearGradient id="SVGID_00000035494906083384806080000007924916407671238312_" gradientUnits="userSpaceOnUse" x1="42.835" y1="215.3265" x2="68.8868" y2="215.3265">
			<stop  offset="0" style="stop-color:#BEDEEB"/>
			<stop  offset="0.2" style="stop-color:#BCB7D5"/>
			<stop  offset="0.4" style="stop-color:#F1C9D8"/>
			<stop  offset="0.6" style="stop-color:#F4C7B4"/>
			<stop  offset="0.8" style="stop-color:#F5F2CA"/>
			<stop  offset="1" style="stop-color:#C1DEC8"/>
		</linearGradient>
		
			<path style="fill:url(#SVGID_00000035494906083384806080000007924916407671238312_);stroke:#B9C2DF;stroke-linecap:round;stroke-linejoin:round;stroke-miterlimit:10;" d="
			M68.9,216.9c-1.6,2.8-3.8,4.2-6.3,6.3c-0.2,0.1-0.5,0.3-0.6,0.1c0.5-2.4,1.1-4.8,1.6-7.3c-1.8,1.4-3.5,3-4.8,4.8
			c-0.4-2.2-0.5-4.6-0.3-6.8c0,3.1-1.7,6-3.3,8.6c-0.4,0.6-1.2,1.4-1.8,1c1.6-4,2.4-8.2,2.4-12.4c-1.2,1.7-3,2.9-5,3.5
			c0.1-1.1,0.4-2.3,1-3.3c-1.5,0.8-3.1,1.3-4.8,1.7c-0.3-0.4-0.2-1.1,0.1-1.4c-1.2,2.1-2.4,4.2-3.8,6.2c1-3.3,1.6-7.1-0.4-9.9
			c8.3-2.3,17.5,0,23.5,6.2C67,214.8,68,216.5,68.9,216.9z"/>
		
			<linearGradient id="SVGID_00000183243103655307564750000011212958514053829031_" gradientUnits="userSpaceOnUse" x1="65.0733" y1="248.4087" x2="109.6624" y2="248.4087">
			<stop  offset="0" style="stop-color:#BEDEEB"/>
			<stop  offset="0.2" style="stop-color:#BCB7D5"/>
			<stop  offset="0.4" style="stop-color:#F1C9D8"/>
			<stop  offset="0.6" style="stop-color:#F4C7B4"/>
			<stop  offset="0.8" style="stop-color:#F5F2CA"/>
			<stop  offset="1" style="stop-color:#C1DEC8"/>
		</linearGradient>
		<path style="fill:url(#SVGID_00000183243103655307564750000011212958514053829031_);stroke:#B9C2DF;stroke-miterlimit:10;" d="
			M68.5,233.9c-1.2,1.3-2.3,2.6-3.5,3.9c1.9-0.5,3.6-1.4,5.2-2.5c-2,6.8-3,13.9-3.1,21c0,0.8,0,1.7,0,2.5c0,0.2,0,0.4,0.1,0.6
			c0.3,0.4,0.9,0,1.2-0.4c2.5-3.2,5-6.4,7.5-9.6c0.1,1.1,0.2,2.2,0.3,3.3c0,0.2,0,0.5,0.2,0.7c0.3,0.4,1,0.3,1.4,0s0.9-0.6,1.4-0.6
			c0,1.5-0.6,2.9-1.1,4.3c-1.6,3.7-3.4,7.2-5.4,10.7c2.3-0.4,4-2.2,5.6-4c2.8-3.1,7.5-9.4,7.6-9.1c1.1,2.8,2.3,5.6,3.4,8.4
			c1.3-2.1,2.2-4.4,2.7-6.8c0.9,2.7,1.9,5.5,2.8,8.2c1.4-3.5,3-7,4.6-10.3c1.4,1.7,3,3.3,4.5,4.8c1.6,1.5,3.4,3.1,5.6,3.2
			c-4.2-3.3-7.4-7.9-9-13c-0.1-0.4-0.2-0.8-0.5-1.1c-0.2-0.3-0.6-0.5-0.9-0.8c-4.7-3.2-9.1-6.8-13.3-10.6c-2.8-2.6-2.4-2.7-6.9-6.9
			C76.8,227.6,70.6,231.6,68.5,233.9z"/>
		<path class="st11" d="M71.4,240.7c0.4-1.6,1.4-3,2.5-4.2s2.5-2.2,3.8-3.2c0.8-0.6,1.6-1.2,2.5-1.5"/>
		<path class="st12" d="M75.7,245.6c0.9-2.1,1.8-4.2,3.1-6.1s3.1-3.5,5.3-4.2"/>
		<path class="st13" d="M81.2,246.2c0.9-2.2,2.1-4.3,3.7-6.2c0.6-0.7,1.3-1.5,2.2-1.9"/>
		<path class="st14" d="M87.9,251.1c-0.1-1.8-0.2-3.6,0.1-5.4c0.3-1.8,0.9-3.4,2.3-4.5"/>
		<path class="st12" d="M95.1,255.1c-0.9-3.3-0.5-6.3,0.8-9.5"/>
		
			<linearGradient id="SVGID_00000170972929429126674060000018266906071045287824_" gradientUnits="userSpaceOnUse" x1="143.2979" y1="268.0944" x2="204.0081" y2="268.0944">
			<stop  offset="0" style="stop-color:#BEDEEB"/>
			<stop  offset="0.2" style="stop-color:#BCB7D5"/>
			<stop  offset="0.4" style="stop-color:#F1C9D8"/>
			<stop  offset="0.6" style="stop-color:#F4C7B4"/>
			<stop  offset="0.8" style="stop-color:#F5F2CA"/>
			<stop  offset="1" style="stop-color:#C1DEC8"/>
		</linearGradient>
		<path style="fill:url(#SVGID_00000170972929429126674060000018266906071045287824_);stroke:#B9C2DF;stroke-miterlimit:10;" d="
			M152.9,267c0.8-1.3,2.5-1.7,4-1.4c1.5,0.3,2.7,1.2,3.9,2.1c4.9,3.6,9.8,7.2,14.7,10.7c2.9,2.1,5.8,4.2,9.1,5.6
			c3.3,1.3,7.2,1.7,10.5,0.4c5.6-2.3,8.2-8.9,8.9-14.9c-3.8,4.2-10.8,5.1-15.5,1.8c-5.9-4-7.3-12.6-13.2-16.5c-2.1-1.4-4.6-2-7-2.6
			c-2-0.5-4-1-6-1.2c-3.3-0.4-6.6,0.1-9.8,0.9c-3.6,1-7.4,2.6-9.3,5.9c0.9,1,2,1.5,3.1,2.2c1.9,1.3,3.4,3,5,4.7
			C152,265.5,152.3,266.3,152.9,267z"/>
		<path class="st14" d="M151.9,260.4c1.1-0.5,2-1.2,3.1-1.6c4-1.8,8.9-0.4,12.4,2.2s6.1,6.4,8.7,9.9c1.2,1.6,2.5,3.2,4.1,4.2
			c1.3,0.9,2.9,1.3,4.4,1.8c1.7,0.5,3.4,0.9,5.1,1.3c1,0.2,2,0.4,3,0.3c1.3-0.2,2.5-0.9,3.6-1.6"/>
		<path class="st16" d="M165.1,314.3c6.6,4.7,15.5,4,23.5,3c-2-1.9-4.1-3.8-6.1-5.6c4.9,3.8,11.2,5.7,17.4,5.1
			c-2.9-2.1-5.8-4.3-8.7-6.4c5.7,1.9,11.9,2.4,17.8,1.4c-2.4-1.5-4.5-3.3-6.2-5.4c5.6,0.7,11.4-0.2,16.4-2.6
			c-23.1-8.1-44.4-20.5-64.3-34.8l6.3,10.1l4.2,8.1c0,0,3.6,6.8,3.6,8.8c0,0,2.1,6,0.9,9.3c0,0-1,6.6-3.7,8.1L165.1,314.3z"/>
		<path class="st17" d="M179.5,290.8c3.3,1.7,5.5,5.2,8.9,6.6c1.7,0.7,3.8,0.9,5.1,2.3c0.6,0.6,0.9,1.4,1.5,2
			c1.4,1.5,3.6,1.7,5.3,2.7"/>
		<path class="st18" d="M173,295.1c1.3,0.3,2.5,0.9,3.6,1.6c0.5,0.3,1,0.7,1.3,1.2c0.3,0.5,0.6,1,0.9,1.6c1.6,2.9,5,4.3,7.1,6.9
			c0.5,0.6,0.9,1.2,1.5,1.7c0.6,0.5,1.4,0.8,2.1,0.6"/>
		<path class="st18" d="M171.6,303.1c1.6,0.4,3.1,1.4,4.1,2.7c0.5,0.7,0.9,1.5,1.5,2.2c0.8,1,1.9,1.8,3.2,2.2"/>
		<path class="st18" d="M171,310.9c0.6,0.3,1.3,0.6,1.9,0.9c0.8,0.4,1.5,0.8,2.2,1.2c0.9,0.6,1.7,1.4,2.4,2.2"/>
		<g>
			<path class="st19" d="M46.1,207.8c-0.1-4.8-0.2-9.5-0.4-14.3c-0.1-2.2-0.1-4.5,0.3-6.7c0.4-2.2,1.3-4.4,2.9-6
				c1,2.3,1.2,4.9,1.5,7.5c0.6,5.6,1.8,11.1,3.6,16.4c0.6,1.7,1.2,3.8,0,5.2c-0.7,0.8-1.9,1.1-2.9,1.3c-1.5,0.3-3.2,0.5-4.3-0.5
				C46.2,210.2,46.2,208.7,46.1,207.8z"/>
			<path class="st20" d="M47.1,188.2c1,0.1,2,0,3-0.1"/>
			<path class="st21" d="M46.7,190.8c1.1,0.1,2.2,0,3.2-0.2"/>
			<path class="st20" d="M46.8,193.4c1.3,0.2,2.6,0.1,3.9-0.2"/>
			<path class="st22" d="M47.2,196c1.3,0.2,2.7,0.1,3.9-0.5"/>
			<path class="st20" d="M47.3,198.6c1.5,0.5,3.1,0.5,4.6,0"/>
			<path class="st21" d="M47.7,201.4c1.6,0.5,3.2,0.5,4.8,0.1"/>
			<path class="st20" d="M47.9,203.8c1.9,0.2,3.9,0.4,5.6-0.4"/>
			<path class="st21" d="M47.7,206.4c2.1-0.2,4.3,0.3,6.3-0.5"/>
		</g>
		<path class="st23" d="M34.5,224.8c3.9,0.5,7.8,0.7,11.7,0.4c-1.8,0.9-3.8,1.9-5.8,2.1c-2.1,0.2-4.3-0.4-5.5-2.1
			C34.8,225.1,34.6,225,34.5,224.8z"/>
		<path class="st8" d="M203.3,320.3"/>
	</g>
	<g id="Text_in_Unicorn">
		<g id="Im">
			<path class="st12" d="M21.2,263.3c2.7,1.4,5.8,1.9,8.8,1.3"/>
			<path class="st12" d="M24.3,264.5c-1.3,3.6-2.3,7.3-2.8,11.1"/>
			<path class="st12" d="M16.5,274c3.1,1.6,6.8,2.3,10.3,1.8"/>
			<path class="st12" d="M31.1,262.7c1.3,1.6,0.9,4.3-0.7,5.6"/>
			<path class="st12" d="M27.9,271.5c0.3-0.3,0.6-0.6,1-0.7c0.2,0,0.4-0.1,0.5,0c0.1,0.1,0.2,0.3,0.2,0.4c0.3,1.5-0.2,3.2-1.3,4.3
				c-0.2-1.4,0.7-2.6,1.6-3.7c0.2-0.2,0.3-0.4,0.6-0.5c0.2-0.1,0.5-0.1,0.7,0c0.2,0.2,0.2,0.4,0.2,0.7c0,0.8-0.1,1.6-0.4,2.4
				c0.3-1.3,1-2.5,2-3.3c0.2-0.1,0.4-0.3,0.6-0.2c0.4,0.1,0.5,0.6,0.5,1c0,0.9,0,1.7-0.1,2.6c0,0.6,0,1.3,0.5,1.5
				c0.3,0.1,0.7,0,0.9-0.3s0.3-0.6,0.4-0.9c0.1-0.3,0.1-0.7,0.1-1c-0.1,0-0.3,0-0.4,0"/>
		</g>
		<g id="Sassiest">
			<path class="st14" d="M14.9,289c1,1.3,3,1.6,4.5,0.9c1.5-0.7,2.6-2.1,3.4-3.6c1.3-2.5,1.9-5.3,1.8-8c3.7,2.4,5.8,6.9,5.8,11.4
				c0,1.1-0.1,2.3-0.7,3.3s-1.7,1.7-2.8,1.4c-1.1-0.3-1.8-1.7-1.1-2.6c0.7-1,2.3-0.6,3.3,0c1.1,0.6,2.2,1.4,3.4,1
				c-0.2-1.4,0.5-2.9,1.7-3.8c1.2-0.8,2.8-0.9,4.1-0.3c-1.6-0.5-3.7-0.2-4.7,1.1c-1.1,1.4-0.5,3.8,1.2,4.2c1.3,0.3,2.5-0.7,3-1.8
				c0.5-1.2,0.5-2.5,0.4-3.8c-0.5,1.1-1.1,2.4-0.8,3.6c0.3,1.2,1.8,2.1,2.8,1.4c0.3-0.3,0.5-0.7,0.7-1c1-2.3,1.6-4.9,1.6-7.5
				c1.3,2,2.2,4.2,2.6,6.5c0.1,0.8,0.2,1.6-0.2,2.3c-0.4,0.7-1.5,0.9-2,0.3c0.4-1,2.1-0.2,3-0.7c0.4-0.2,0.6-0.7,0.8-1.1
				c0.9-2.1,1.6-4.4,2-6.6c1.1,1.6,1.8,3.4,2.2,5.3c0.2,1.3,0.3,2.6-0.3,3.7c-0.6,1.1-2,1.9-3.2,1.5c-0.4-0.1-0.7-0.4-0.8-0.8
				c-0.1-0.7,0.6-1.2,1.3-1.2s1.3,0.3,1.9,0.4c1.5,0.2,3-1,3.6-2.4c0.6-1.4,0.7-3,0.7-4.5c-1.5,1.9-1.9,4.9-0.3,6.8s4.9,2.1,6.4,0.1
				c0.8-1.2,0.9-2.7,0.7-4.2c0-0.3-0.1-0.5-0.2-0.7c-0.2-0.2-0.4-0.2-0.6-0.3c-1.5-0.1-2.7,1.7-2.3,3.1s2.4,4.1,3.8,3.8
				c1.5-0.3,2.5-3.5,3-4.9s0.6-3,0.4-4.5c1.6,2.1,2.5,4.9,2.5,7.6c0,0.8-0.1,1.7-0.6,2.4c-0.5,0.7-1.4,1.2-2.2,0.9
				c-0.2-0.2-0.3-0.6-0.2-0.9c1-1.4,3.4,0.4,4.9-0.4c0.4-0.2,0.6-0.5,0.9-0.9c2.6-3.6,3.8-8.1,4.8-12.5c0.2-0.9,0.4-1.9,0-2.8
				c-0.3-0.9-1.4-1.6-2.3-1.1c-0.5,0.3-0.8,0.9-1,1.5c-1.6,4.8-1.3,10.2,0.8,14.8c0.2,0.5,0.5,1,1,1.3c0.7,0.4,1.6,0.2,2.3-0.4
				c0.6-0.5,1-1.3,1.3-2c0.3-0.7,0.6-1.4,0.5-2.2c-0.1-0.7-0.6-1.5-1.3-1.6c-0.7-0.1-1.5,0.9-1,1.5"/>
			<path class="st14" d="M54.9,285.7c-0.7,0.5-1.8-0.6-1.8-1.5c0-0.9,0.9-1.7,1.7-1.6C54.9,282.6,57.1,284.1,54.9,285.7z"/>
			<path class="st14" d="M68.3,285.4c-0.5,0.1-1,0.2-1.5,0.1c-0.5-0.1-1-0.4-1.1-0.8c-0.2-0.5,0.1-1.1,0.5-1.4
				c0.4-0.3,0.9-0.5,1.4-0.6c1.1-0.2,2.2-0.2,3.2,0.2c0.9,0.4,1.6,1,2.4,1.6c1,0.7,2.1,1.4,3.3,1.5c1.2,0.1,2.6-0.5,3-1.6
				c0.1-0.4,0.2-0.8-0.1-1.1c-0.1-0.1-0.3-0.2-0.5-0.2c-0.4-0.1-0.9-0.1-1.3,0"/>
		</g>
		<g id="The">
			<path class="st12" d="M41.4,279.8c3.4-2.7,5.5-7,5.4-11.3c0-0.3-0.1-0.8-0.4-0.8c-0.2,0-0.4,0.2-0.5,0.4
				c-1.7,2.9-2.5,6.3-2.1,9.6c0,0.4,0.1,0.7,0.3,1c0.4,0.4,1.1,0.5,1.6,0.2c0.5-0.3,0.9-0.7,1.2-1.2c2.1-3,3.6-6.3,4.5-9.8
				c-0.8,0.1-1.1,1-1.3,1.7c-1,3.5-1.7,7-2.2,10.5c0.2-1.6,1.1-3.2,2.5-4.1c0,0.7,0,1.5,0.3,2.1c0.3,0.7,0.8,1.3,1.6,1.4
				c1.2,0.1,2.1-1.2,2.3-2.5c0.1-0.5,0-1.1-0.5-1.2c-0.2-0.1-0.5,0-0.6,0.2c-0.9,0.6-1,1.9-0.5,2.8c0.6,0.9,1.8,1.2,2.8,1
				s1.8-1.1,2.2-2.1c0.2-0.6,0.3-1.4-0.2-1.9c-0.4-0.5-1.4-0.5-1.6,0"/>
			<path class="st12" d="M41.1,273.6c-0.1-0.5-0.3-1.2,0.1-1.6c0.3-0.4,1-0.4,1.5-0.4c0.3,0,0.6,0,0.9,0.2c0.3,0.1,0.5,0.4,0.8,0.6
				c0.5,0.4,1.1,0.7,1.7,0.9c0.5,0.1,1,0.1,1.5-0.1s0.7-0.8,0.6-1.3"/>
		</g>
		<g id="Unicorn_00000070084442348271139040000003140173776492628134_">
			<path class="st14" d="M20.3,300.9c-0.2-1.2,0.8-2.3,2-2.4c0.2,0,0.4,0,0.5,0.1c0.1,0.1,0.2,0.2,0.2,0.4c0.3,0.9-0.1,1.8-0.3,2.7
				c-0.3,1.2-0.6,2.5-0.6,3.8c0,0.5,0,1.1,0.2,1.6c0.4,0.9,5.2,4.1,6.3-7.4"/>
			<path class="st14" d="M29.8,301.9c-0.4-0.6,0.2-1.5,0.9-1.5c0.7,0,1.3,0.6,1.5,1.3c0.2,0.7,0.1,1.4,0,2.2
				c-0.3,1.9-0.9,4.1-2.7,4.6c0.6-3.1,2.7-5.8,5.5-7.2c0.1,1.6,0.2,3.2,0.3,4.8c0.1,1.2,0.6,2.8,1.8,2.7c0.6,0,1.1-0.6,1.5-1.1
				c0.8-1.2,1.4-2.6,1.7-4c0.1-0.7,0-1.7-0.7-1.8c-0.8-0.1-1.1,0.9-1.2,1.7c0,1.1,0,2.3,0.1,3.4c0.1,0.7,0.3,1.6,0.9,2
				c1,0.5,2.1-0.4,2.7-1.3c0.8-1.2,1.4-2.4,2.4-3.5c0.9-1.1,2.3-1.9,3.7-1.8c-1.9-0.3-4.1,0.6-5,2.4c-0.9,1.8-0.1,4.2,1.7,4.9
				c1.4,0.6,3.1-0.1,4.2-1.2c1.1-1.1,1.7-2.6,2.1-4.1c-0.5-0.3-0.9,0.5-1,1c-0.1,1.5,0.3,3.2,1.6,3.8c0.9,0.4,2.1,0,2.9-0.6
				c0.8-0.7,1.3-1.6,1.8-2.5c0.2-0.4,0.4-0.8,0.4-1.2c0-1.1-1.3-1.8-2.3-2.2c-0.6-0.2-1.2-0.4-1.8-0.3c-0.6,0.1-1.1,0.8-0.9,1.4
				c0.1,0.3,0.4,0.5,0.7,0.7c0.9,0.5,2,0.7,3,0.4c1-0.4,1.7-1.4,1.6-2.4c1.4,0.1,2.9,0,4.3-0.2c-0.6,1.5-1,3.1-1.3,4.8
				c-0.2,1-0.1,2.3,0.8,2.8c0.9,0.5,2-0.2,2.5-1.1c0.5-0.9,0.6-1.9,0.9-2.9s1-2,2-2.1c0.3,0,0.6,0,0.8,0.2c0.3,0.3,0.3,0.7,0.4,1.1
				c0.1,1.6,0.2,3.2,0.2,4.9c-0.5-1.5-0.2-3.2,0.8-4.4c0.9-1.2,2.5-2,4-1.9c0.3,0,0.6,0.1,0.9,0.2c0.2,0.2,0.4,0.4,0.5,0.7
				c1,1.8,1.3,3.9,1.9,5.9s1.7,4,3.6,4.8c2.6,1.1,6-0.7,6.4-3.5c0.1-0.7,0-1.6-0.5-2.1c-0.4-0.4-0.9-0.5-1.4-0.5
				c-1.6,0-3.1,1.6-2.8,3.3"/>
			<path class="st14" d="M40.3,298.1c-0.3-0.1-0.7-0.2-0.9,0c-0.1,0.1-0.2,0.2-0.2,0.3c-0.1,0.3-0.2,0.6-0.2,0.9c0,0.1,0,0.2,0,0.3
				c0.1,0.1,0.2,0.2,0.3,0.2c0.5,0.3,1.3,0.5,1.7,0.1c0.3-0.3,0.4-0.8,0.4-1.2C41.3,298.3,40.7,298,40.3,298.1z"/>
		</g>
		<g id="Ever">
			<path class="st12" d="M42.8,313.8c-1.7-0.4-3.4-0.5-5.2-0.4c-0.3,0-0.5,0.1-0.8,0.2c-0.3,0.2-0.4,0.4-0.5,0.7
				c-0.4,1-0.2,2.2,0.5,2.9c0.7,0.8,1.9,1.1,2.9,0.8c-0.9-0.3-2-0.1-2.7,0.5c-0.8,0.6-1.3,1.5-1.4,2.4c-0.1,0.5-0.1,1.1,0,1.6
				c0.3,1.2,1.5,2.1,2.8,2.2s2.5-0.4,3.5-1.2c1-0.8,1.7-1.9,2.3-3"/>
			<path class="st12" d="M44.4,317.6c0.9,1.3,1.7,2.7,2.3,4.2c0.2,0.4,0.4,0.9,0.7,1.2c0.3,0.3,0.9,0.4,1.3,0.1
				c0.2-0.1,0.3-0.4,0.4-0.6c0.7-1.6,0.9-3.3,0.8-5.1"/>
			<path class="st12" d="M51.2,320.1c1.1,0.4,2.4,0,3.2-0.9c0.2-0.2,0.3-0.4,0.3-0.6c0.1-0.5-0.4-1-0.9-1.1
				c-1.2-0.5-2.8,0.5-3.1,1.8c-0.3,1.3,0.6,2.7,1.8,3.2c1.2,0.4,2.7,0,3.6-1c0.9-1,1.1-2.5,0.8-3.7c1.2,0.1,2.4,0.3,3.6,0.4
				c-0.5,1.2-0.9,2.6-0.1,3.6c0.4,0.5,1.1,0.8,1.7,0.9c1.5,0.4,3.1,0.3,4.5-0.5c1.3-0.8,2.2-2.4,1.8-3.9c-0.1-0.5-0.5-1-1-1"/>
		</g>
		<path id="Arrow" class="st12" d="M25.2,312.9c0.4,1.4,1.5,2.5,2.8,3.1c1.3,0.7,2.7,0.9,4.2,1c-0.7,0.5-1.3,1.1-1.7,1.7
			c1.3-0.1,2.6-0.5,3.9-1c-0.4-1.3-1-2.6-2-3.6c-0.2,0.8-0.2,1.6-0.1,2.4"/>
		<path id="Arrow_right" class="st12" d="M80.4,322c0-0.4,0-0.8,0-1.1c0-0.1,0-0.2,0.1-0.3c0.1-0.1,0.3-0.2,0.5-0.2
			c1.2-0.1,3.2-0.3,3.3,0.9c0.7,8.4-7.9,3.6-9.2,2.6c-0.8-0.6-1.3-1.5-2.2-1.9c0.6-0.6,1.1-1.3,1.7-1.9c-1.3,0.3-2.6,0.7-3.9,1
			c0.6,1,1.1,2.1,1.5,3.2l0.7-2.2"/>
		<path id="Heart_1" class="st12" d="M153.7,298.8c1.3-0.2,2.7-0.4,3.7,0.5c-0.9-1-1.3-2.4-1.3-3.7c0-0.4,0-0.8,0.2-1.2
			c1.2-2.2,4-1.1,4.7,0.7c0.7,1.7,0.8,4.1-0.1,5.8c-0.9,1.7-2.4,2.2-4.2,1.8C155.6,302.4,150.9,299.3,153.7,298.8z"/>
		<g id="Yes_x2C_">
			<g>
				<path class="st14" d="M89.4,267.5c1.5,2.5,2.9,5,4.4,7.6"/>
				<path class="st14" d="M94.4,266.7c-0.3,5.2-0.6,10.4-0.9,15.6"/>
			</g>
			<g>
				<path class="st14" d="M102.6,264.5c-1.8,0.6-3.6,1.1-5.4,1.7c-0.1,1.8,0.4,3.8,0.8,5.6c0.8,3,1.6,5.9,2.3,8.9
					c1.9-0.6,3.7-1.1,5.6-1.7"/>
				<path class="st14" d="M98.3,272.4c1.5-0.4,3-0.8,4.5-1.2"/>
			</g>
			<path class="st14" d="M108.6,264c-0.5-0.4-1.1-0.9-1.8-1s-1.5,0.1-1.8,0.8c-0.1,0.3-0.1,0.5-0.1,0.8c0.2,1.6,1.2,3.1,2.3,4.2
				c1.2,1.2,2.5,2.1,3.7,3.2c0.8,0.8,1.6,1.7,1.7,2.8c0.1,1-0.5,2-1.3,2.5c-0.9,0.5-2,0.4-2.8-0.2"/>
			<path class="st14" d="M91.6,286.4c1.9,0.3,3.7-0.5,5.4-1.2c6.7-2.9,13.7-5.1,20.8-6.7"/>
			<path class="st14" d="M115.3,273.6c0.8,0.1,1.3,1,1.2,1.8s-0.5,1.5-1,2.1"/>
		</g>
		<g id="I_00000030476580726010083790000007559661130986819250_">
			<path class="st12" d="M117.2,260.8c2.3-1,4.6-1.9,6.9-2.9"/>
			<path class="st12" d="M120.7,259.5c1.2,4.5,2.5,9,3.8,13.5"/>
			<path class="st12" d="M121,274.1c1.9-0.5,3.9-1,5.9-1.4"/>
		</g>
		<g id="Woke">
			<path class="st12" d="M92.8,289.4c2.4,3.5,4.7,7.1,6.8,10.7c0.6-1.6,1.2-3.2,1.8-4.7c1.1,1.1,2.1,2.2,3.2,3.3
				c-0.5-4.1-0.8-8.3-0.9-12.5"/>
			<path class="st12" d="M109.9,286.3c-0.5-0.5-1.4-0.6-2-0.3s-1.2,0.8-1.6,1.4c-0.9,1.3-1.2,3.2-0.4,4.6c0.8,1.4,2.7,2.2,4.2,1.4
				c1.4-0.8,1.8-2.5,1.9-4.1C111.8,288.2,110.6,287,109.9,286.3z"/>
			<g id="K">
				<path class="st12" d="M111.7,285.1c1.2,3.5,2.4,7,3.5,10.6"/>
				<path class="st12" d="M113,289.4c1.8-1.5,3.1-3.5,3.9-5.7"/>
				<path class="st12" d="M113.2,289.5c2.9,0.4,5.7,1.8,7.8,3.8"/>
			</g>
			<g id="E">
				<path class="st12" d="M125.5,280.4c-1.9,1-4,1.7-6.1,2.3c0.6,3.2,0.8,6.6,1.9,9.7c0.1,0.2,0.2,0.5,0.4,0.7
					c0.4,0.3,0.9,0.2,1.4,0c1.5-0.5,3.1-1,4.6-1.5"/>
				<path class="st12" d="M120.2,287.9c1.2-0.4,2.5-0.7,3.7-1.1"/>
			</g>
		</g>
		<g id="Up">
			<path class="st12" d="M130.3,279.2c0.1,1.6,0.8,3.2,1.5,4.7c0.6,1.3,1.2,2.5,2.1,3.6c0.9,1,2.2,1.8,3.6,1.8c0.2,0,0.3,0,0.4-0.1
				c0.1-0.1,0.2-0.3,0.3-0.4c1.3-3.7,0.1-8.1-2.8-10.7"/>
			<path class="st12" d="M143,287.8c-1.8-3.3-3.2-6.8-3.9-10.5c1.1-1.4,3-2.1,4.8-1.8c0.6,1.1,1.3,2.3,1.1,3.5
				c-0.3,1.7-2.4,2.7-4.1,2.6"/>
		</g>
		<g id="This">
			<g id="T">
				<path class="st12" d="M98.5,304.5c2.2-0.2,4.3-0.6,6.4-1.1"/>
				<path class="st12" d="M101.6,304.2c0.1,3.2,0.6,6.4,1.6,9.4"/>
			</g>
			<path class="st12" d="M105.8,302.1c0.9,3.2,1.7,6.4,2.4,9.6c0.1-0.9,0.3-1.7,0.6-2.5c0.2-0.6,0.7-1.4,1.4-1.3
				c0.9,0.1,1.1,1.2,1.6,2c0.4,0.6,1.2,0.9,1.9,0.8s1.4-0.6,1.6-1.3"/>
			<g id="i">
				<path class="st12" d="M112.5,303.9c0.4,1.6,0.8,3.3,1.2,4.9"/>
				<path class="st12" d="M111.7,301.4c0,0-0.1,0-0.1,0c0,0,0,0.1,0,0.2c0.1,0.4,0.5,0.6,0.8,0.5c0.3-0.1,0.5-0.6,0.4-0.9
					c-0.1-0.3-0.5-0.5-0.9-0.5c-0.1,0-0.2,0.1-0.2,0.2"/>
			</g>
			<path class="st12" d="M118.5,301.8c-0.6-0.2-1.4-0.2-1.9,0.3c-0.5,0.4-0.6,1.3-0.2,1.8c0.6,0.7,1.9,0.5,2.5,1.2
				c0.3,0.3,0.3,0.8,0.3,1.3c0,0.8-0.3,1.7-1,2c-0.4,0.2-0.9,0.1-1.3,0c-0.4-0.2-0.8-0.5-1.1-0.9"/>
		</g>
		<path class="st12" d="M142.3,293.1c-6.1,1.5-12.2,3.1-18.3,4.9c0.6,1.7,1.1,3.9,1.7,5.6c-1.1,0.3-2.3,0.7-3.4,1
			c3.9,0.8,7.8,1.3,11.8,1.7c0.7,0.1,1.4,0.1,2-0.1c0.9-0.3,1.6-0.9,2.2-1.5c2-1.7,4.2-3.2,6.6-4.3c-0.9,0.1-1.8,0.2-2.7,0.3
			C142.5,298.3,142.1,295.6,142.3,293.1z"/>
		<g id="Magical">
			<path class="st14" d="M100.7,323.1c-0.8,1.7,0.7,4,2.6,3.9c2.1-0.1,3.3-2.3,3.6-4.4c0.3-2,0.1-4.2,1-6.1c0.3-0.6,1-1.2,1.6-1
				c0.4,0.2,0.6,0.6,0.8,1.1c0.4,1.1,0.9,2.3,1.3,3.4c0.4-1.5,0.9-2.9,1.5-4.3c0.3-0.7,0.7-1.3,1.4-1.6c0.8-0.2,1.7,0.4,2.2,1.1
				c0.8,1.1,1.2,2.5,1.6,3.8c0.4,1.3,0.9,2.7,1.9,3.6c1,1,2.6,1.4,3.8,0.7c1.2-0.7,1.4-2.8,0.1-3.4"/>
			<path class="st14" d="M122.8,313.5c-1,0.2-2,0.6-2.6,1.4c-0.6,0.8-0.9,1.9-0.4,2.8c0.5,0.9,1.7,1.4,2.6,0.8
				c0.7-1.1,1.2-2.3,1.2-3.6c0-0.4-0.1-0.8-0.4-0.9c-0.6-0.1-0.6,0.9-0.3,1.4c0.3,0.6,0.6,1.3,1.2,1.7c0.6,0.4,1.4,0.5,1.9,0
				c0.4-0.5,0.4-1.2,0.5-1.8c0.2-1.7,1.7-3.2,3.4-3.4c-1.9-0.3-3.6,2.1-2.8,3.8c0.1,0.3,0.3,0.6,0.6,0.8c1,0.7,2.4-0.1,2.8-1.2
				c0.3-1.1-0.2-2.3-1-3.2c1.3,2.3,2.3,4.8,2.7,7.4c0.2,1.1,0.3,2.3,0,3.4c-0.3,1.1-1.3,2.1-2.4,2.2c-0.5,0-1-0.1-1.3-0.5
				c-0.4-0.5-0.2-1.4,0.2-1.9c0.5-0.5,1.1-0.8,1.7-1.2c3.2-2,4.3-6.7,2.4-10c0.1,1.1,0.4,2.2,0.8,3.2c0.2,0.4,0.4,0.8,0.7,0.9
				c0.6,0.2,1.3-0.4,1.4-1c0.1-0.6,0-1.3,0-2c0-1.7,1.3-3.3,2.9-3.6c-0.8-0.3-1.8,0.1-2.3,0.8c-0.5,0.7-0.7,1.6-0.5,2.5
				c0.2,0.9,0.8,1.9,1.7,1.8c0.6,0,1-0.5,1.4-1c0.7-0.9,1.2-2,1.9-3c0.7-1,1.7-1.8,2.9-1.9c-2.1-0.1-3.9,2.4-3,4.3
				c0.1,0.3,0.3,0.5,0.5,0.7c0.6,0.4,1.5,0.1,2.1-0.5c1-1,1.5-2.6,1.2-4c-0.4-0.2-0.8-0.2-1.2-0.1c0,1,0.2,2.1,0.8,2.8
				c0.6,0.8,1.8,1.2,2.7,0.7c0.5-0.3,0.8-0.9,1.1-1.5c0.7-1.4,1.2-3,1.6-4.5c0.5-2.1,0.7-4.5-0.8-6c-0.3-0.3-0.9-0.6-1.3-0.3
				c-0.2,0.1-0.3,0.4-0.3,0.6c-0.6,2-0.7,4.1-0.5,6.2c0.1,1.1,0.3,2.3,1,3.1c0.7,0.9,2,1.4,3,0.9c0.5-0.2,0.9-0.7,1.2-1.1"/>
			<path class="st12" d="M132,309.1c-0.4-0.1-0.8,0.4-0.7,0.8c0.1,0.4,0.7,0.6,1.1,0.4s0.5-0.8,0.3-1.1
				C132.6,308.9,132.2,309,132,309.1z"/>
		</g>
		<path id="Heart_2" class="st12" d="M158.1,306.8c0.3-0.5,1-0.8,1.6-0.7c0.1,0,0.2,0,0.2,0.1c0.1,0.1,0.1,0.1,0.1,0.2
			c0.2,0.8,0.1,1.7-0.1,2.5c0.4-0.8,0.9-1.4,1.7-1.8c0.3-0.2,0.7-0.4,1.1-0.3c0.2,0.1,0.4,0.2,0.6,0.4c0.6,0.6,0.6,1.6,0.2,2.4
			c-0.6,1.3-3.3,2.9-4.7,2.1C157.4,311,157.3,307.8,158.1,306.8z"/>
		<g id="Balloon">
			<path class="st14" d="M85,274.1c0.5,1.1,1.4,2,1.8,3.1c1.9,5-5,10.4-3,15.4c1.3,3.3,5.9,4.6,6.7,8c0.4,1.6-0.1,3.5,1,4.6
				c0.8,0.8,2,0.9,2.9,1.5c1.6,1.1,1.8,3.5,1.1,5.2c-0.7,1.8-2.1,3.3-3,4.9s-1.4,3.9-0.3,5.5c0.8,1.1,2.1,1.7,3.2,2.5
				c1.1,0.8,2.1,2.2,1.5,3.5"/>
			<path class="st14" d="M83.4,272.3c0-0.1,0-0.2,0.1-0.2c0.1-0.1,0.2,0,0.3,0c0.6,0.1,1.2,0.2,1.8,0.4c0.2,0.1,0.5,0.2,0.5,0.4
				c0,0.2-0.1,0.3-0.2,0.4c-0.1,0.1-0.3,0.1-0.5,0.1c0.1,0.4-0.4,0.7-0.7,0.6c0,0.2-0.2,0.5-0.4,0.6c-0.4,0.2-1.2,0.4-1.4,0.1
				C82.6,274.1,83.3,272.8,83.4,272.3z"/>
			<path class="st14" d="M78.8,269.7c-0.9-1.2-1.3-3.1-0.3-4.3c0.2-0.3,0.5-0.6,0.9-0.8c1.2-0.8,2.9-0.9,3.9,0.1
				c0.4,0.4,0.6,0.9,0.8,1.5c0.4,1.3,0.8,4.5-0.7,5.3C81.8,272.3,79.6,270.8,78.8,269.7z"/>
		</g>
		<g id="I">
			<path class="st12" d="M24.6,247c1.2,0.4,2.3,0.9,3.5,1.3"/>
			<path class="st12" d="M26,247.8c-0.5,1.1-1,2.3-1.4,3.5"/>
			<path class="st12" d="M22.7,251.2c1.2,0.4,2.5,0.8,3.8,1"/>
		</g>
		<g id="Dont">
			<path class="st12" d="M32.3,251.5c-0.5-0.2-1.1-0.4-1.7-0.3c-0.6,0.1-1.1,0.5-1.2,1.1c-0.1,0.7,0.7,1.3,1.4,1.3
				c0.7,0,1.3-0.5,1.8-1.1c0.9-1.1,1.4-2.5,1.3-3.8c-0.3-0.3-0.7,0-0.9,0.3c-0.7,0.9-1,2.1-0.9,3.3c0,0.4,0.2,0.9,0.6,1.1
				c0.4,0.2,0.9-0.1,1.2-0.5c0.3-0.4,0.5-0.9,0.9-1.1c-0.2,0.4-0.3,0.9-0.3,1.3c0.1,0.4,0.4,0.9,0.9,0.9c0.3,0,0.6-0.2,0.8-0.4
				c0.4-0.4,0.7-0.9,0.7-1.4s-0.5-1.1-1-1s-0.8,0.9-0.4,1.2c0.2,0.1,0.3,0.1,0.5,0.1c0.8-0.1,1.4-0.8,2.2-1c0.1,0,0.3,0,0.4,0
				c0.1,0.1,0.1,0.2,0.1,0.3c0.1,0.9,0,1.9-0.3,2.8c0.3-0.8,0.7-1.6,1.3-2.3c0.2-0.2,0.4-0.4,0.6-0.4c0.4-0.1,0.8,0.4,0.9,0.8
				c0.1,0.4,0,0.9,0,1.3c0,0.3,0.2,0.7,0.5,0.7c0.1,0,0.2-0.1,0.3-0.2c1.1-1.4,1.8-3.1,1.9-4.9c-1,0.7-1.2,2-1.2,3.2
				c0,0.6,0,1.3,0.4,1.7s1.3,0.5,1.5-0.1"/>
			<path class="st12" d="M40.9,250.2c1.4,0.4,2.9,0.7,4.4,0.9"/>
			<path class="st12" d="M39.7,249.2c0,0.3,0.1,0.7,0.2,1"/>
		</g>
		<g id="Believe">
			<path class="st12" d="M47.6,254.9c0.9-1.9,1.5-3.9,1.8-6c-0.8,1.6-1.1,3.4-0.9,5.1c0,0.4,0.1,0.8,0.4,1c0.3,0.3,0.8,0.3,1,0
				c0.1-0.2,0.1-0.5,0-0.7c-0.2-0.5-0.7-0.9-1.2-1c0.6,0.1,1.3,0.3,2,0.1s1.2-0.8,1-1.5c-0.4,0.1-0.7,0.5-0.8,0.9
				c0,0.4,0.1,0.8,0.3,1.2c0.2,0.4,0.6,0.7,1.1,0.8c0.7,0.1,1.2-0.6,1.5-1.2c0.6-1.3,0.9-2.8,0.7-4.2c-0.3-0.1-0.6,0.3-0.6,0.7
				c-0.1,0.8-0.1,1.6,0,2.3c0.2,0.8,0.6,2,1.4,1.8c0.7-0.3,0.6-1.4,0.7-2.1c-0.3,0.7,0.1,1.6,0.8,1.8c0.7,0.3,1.6-0.2,1.7-1
				c0.1-0.4-0.3-1-0.7-0.9c-0.4,0.7,0.2,1.8,1,1.8c0.8,0,1.4-1.1,0.9-1.8c0.5,0.4,1.1,0.8,1.8,1.1c0.3-0.7,0.5-1.4,0.8-2.1"/>
			<path class="st12" d="M55.7,251.1c0.1,0.1,0.3,0.2,0.4,0.1c0.1-0.2,0-0.5-0.1-0.6s-0.5,0-0.5,0.2"/>
			<path class="st12" d="M62.7,252.3c0.2,0.1,0.4,0,0.6-0.2c0.1-0.2,0.2-0.4,0.2-0.6c0-0.1,0-0.1,0-0.2c0,0-0.1,0-0.1,0
				c-0.4,0-0.7,0.4-0.6,0.8c0,0.4,0.3,0.7,0.7,0.8s0.8,0,1.1-0.2"/>
		</g>
		<g id="Humans">
			<path class="st12" d="M22.6,253.7c0.2,1,0.1,2-0.2,3c-0.1,0.4-0.3,0.9-0.7,1.1c-0.1,0-0.2,0.1-0.2,0c0,0-0.1-0.1-0.1-0.1
				c-0.2-0.2-0.2-0.6-0.1-0.8c0.2-0.3,0.6-0.5,1-0.5c0.4,0,0.8,0.2,1.1,0.3c0.6,0.2,1.3,0.2,1.9,0c0.6-0.2,1.2-0.6,1.4-1.1
				c0.2-0.3,0.2-0.8-0.1-1c-0.2-0.1-0.5-0.1-0.8,0c-0.7,0.4-1.1,1.3-1.3,2.1c-0.2,0.8-0.3,1.6-0.2,2.4c0.1,0.3,0.2,0.6,0.4,0.8
				c0.2,0.2,0.6,0.3,0.8,0.1"/>
			<path class="st12" d="M26.8,256.9c-0.1,0.7,0.3,1.4,0.9,1.8c0.1,0.1,0.3,0.1,0.4,0.1c0.1,0,0.2-0.1,0.2-0.2
				c0.3-0.4,0.5-1,0.3-1.6"/>
			<path class="st12" d="M28.9,256.1c0.2-0.1,0.3,0.2,0.4,0.4c0.2,1,0.2,2.1,0,3.1c0.2-0.5,0.3-1,0.4-1.6c0.1-0.5,0.3-1.1,0.8-1.4
				c0.3,0.4,0.5,1,0.4,1.6c0.1-0.3,0.1-0.7,0.3-1c0.2-0.3,0.4-0.5,0.8-0.6c0.1,0,0.2,0,0.2,0c0.1,0,0.1,0.1,0.2,0.2
				c0.2,0.4,0.2,0.8,0.1,1.2c-0.1,0.4-0.3,0.8-0.2,1.2c0.1,0.3,0.5,0.6,0.9,0.5c0.4,0,0.7-0.2,1-0.4"/>
			<path class="st12" d="M34.6,257.5c-0.3-0.3-0.7-0.3-1.1-0.2s-0.6,0.6-0.5,0.9c0.5,0.4,1.4,0.1,1.6-0.5c-0.1,0.4,0,0.9,0.2,1.3
				c0,0.1,0.1,0.1,0.2,0.2c0.2,0.1,0.3-0.1,0.4-0.3c0.3-0.5,0.6-1,0.9-1.4c0.3,0.6,0.1,1.3,0,2c0-0.4,0.1-0.8,0.3-1.1
				c0.2-0.3,0.8-0.4,1,0c0.1,0.2,0.1,0.5,0.1,0.7s0.1,0.5,0.3,0.6c0.1,0,0.3,0,0.4-0.1c0.9-0.5,1.7-1.3,1.9-2.4
				c0,0.9,0.7,1.7,0.5,2.5c-0.1,0.4-0.5,0.8-0.9,0.8c-0.1,0-0.2,0-0.2,0c-0.2-0.1-0.2-0.4,0-0.5c0.2-0.1,0.4-0.1,0.6-0.1
				c0.2,0.1,0.4,0.2,0.6,0.3c0.8,0.4,2-0.1,2.3-1"/>
		</g>
		<path id="Espiral" class="st12" d="M66.6,272.5c0.6,0.2,1.3,0,1.7-0.5c0.4-0.5,0.5-1.2,0.1-1.7c-1.3-0.6-3,0.3-3.3,1.7
			c-0.3,1.4,1,2.8,2.4,2.8c0.7,0,1.3-0.3,1.8-0.7c0.8-0.5,1.6-1.2,2.1-2.1c0.9-1.8,0-4.2-1.9-5.1c-1.8-0.9-4.2-0.1-5.3,1.5
			c-0.6,0.9-0.9,2-1.1,3.1c-0.3,1.7-0.4,3.7,0.9,4.7c0.4,0.3,0.9,0.5,1.4,0.6c2.1,0.6,4.4,0.2,6.2-0.9c1-0.6,1.9-1.6,1.9-2.8"/>
		<g id="Balloon_2">
			<path class="st12" d="M127.6,265.3c-1.1,1.8-1,4.5,0.6,5.9c1.4,1.2,3.6,1.2,5.3,0.5c2.5-1,9.1-6.4,5.3-9
				C135.6,260.6,129.5,262.2,127.6,265.3z"/>
			<path class="st12" d="M139.9,263.8c0.3-0.4,0.6-0.9,0.9-1.3c0,0.4,0.1,0.8,0.1,1.2c0.4,0,0.9,0,1.3,0c-0.7,0.6-0.6,1.7,0.1,2.3
				c-0.8,0-1.5-0.2-2.2-0.6"/>
			<path class="st12" d="M141.9,263.9c1.8-0.5,3.8,0.7,4.8,2.3s1.2,3.6,1.4,5.5c0.1,1.2,0,2.7-1.2,3.1c-0.5,0.2-1,0-1.5-0.2
				c-0.8-0.3-1.5-0.7-1.9-1.4c-0.4-0.7-0.4-1.7,0.2-2.3c0.4-0.4,0.9-0.5,1.4-0.5c3.1-0.3,6.1,2.8,5.7,5.9c-0.2,1.2-0.7,2.3-1,3.5
				c-0.2,1.2,0,2.6,1,3.3c1.8,1.1,4.4-1.2,6.3-0.2c1.3,0.6,1.5,2.5,0.8,3.7s-2.2,1.9-3.6,2.1c-0.6,0.1-1.2,0.2-1.8,0.5
				s-1,0.9-0.8,1.5"/>
		</g>
		<g id="LOL">
			<path class="st12" d="M60.5,257.1c-0.1,1.2,0,2.3,0.2,3.5c0.4,0,0.8,0,1.3,0"/>
			<path class="st12" d="M62.9,256.9c-0.6,0.8-0.8,2-0.6,3c0.1,0.3,0.3,0.7,0.6,0.7c0.3,0,0.6-0.3,0.8-0.6c0.3-0.6,0.6-1.2,0.6-1.8
				c0-0.6-0.4-1.3-1-1.5C63.4,256.8,63.1,256.7,62.9,256.9z"/>
			<path class="st12" d="M65.3,256.7c0.1,1.3,0.1,2.7,0.2,4c0.6-0.1,1.1-0.2,1.7-0.1"/>
		</g>
		<g id="Exist">
			<g id="E_00000178173427918485083250000009882032149404099457_">
				<path class="st12" d="M47.8,257.4c-0.9,0.1-1.9,0.1-2.8,0.1c0,1.1,0,2.2,0,3.3c0.9-0.1,1.8-0.2,2.7-0.4"/>
				<path class="st12" d="M45,259.3c0.6,0,1.3,0,1.9,0"/>
			</g>
			<g id="X">
				<path class="st12" d="M48.7,257.8c0.5,0.8,1.1,1.7,1.6,2.5"/>
				<path class="st12" d="M48.4,260.4c0.7-0.8,1.4-1.5,2.2-2.1"/>
			</g>
			<path class="st12" d="M54.9,257.5c-0.5-0.2-1.2,0.3-1.2,0.9c0,0.1,0,0.2,0.1,0.2c0.1,0.1,0.2,0.1,0.3,0.1
				c0.4,0.1,0.9,0.1,1.3,0.2c0.3,0,0.6,0.1,0.8,0.2c0.4,0.3,0.4,0.9,0.1,1.3c-0.3,0.4-0.8,0.6-1.3,0.7c-0.3,0.1-0.5,0.1-0.8,0
				c-0.3-0.1-0.5-0.3-0.5-0.6"/>
			<g id="T_00000152259190972070821730000016677527199125854388_">
				<path class="st12" d="M56.3,257.3c0.8,0,1.5,0,2.3,0"/>
				<path class="st12" d="M57.4,257.4c0.1,1.2,0.1,2.3,0.2,3.5"/>
			</g>
			<g id="I_00000113327826589148918450000005917863325607566495_">
				<path class="st12" d="M52,257.5c0,0.9,0.1,2.8,0.1,3.7"/>
				<path class="st12" d="M51.3,261.3c0.6,0,1.2,0,1.8,0"/>
				<path class="st12" d="M51.1,257.5c0.5,0,1,0,1.6,0"/>
			</g>
		</g>
		<path id="Curved_line" class="st12" d="M20,260c2.4,1.3,5.1,1.8,7.8,1.5c1.4-0.2,2.8-0.6,4.1-0.5c2.9,0.2,5.3,2.7,8.2,3
			c2.6,0.3,5.2-1.3,7.8-1.3c2,0,3.8,0.8,5.7,1.5c1.9,0.7,3.9,1.2,5.8,0.6c1-0.3,1.9-0.9,2.9-1.3c1.3-0.6,2.7-0.8,4.2-0.7
			c0.9,0.1,1.8,0.3,2.8,0.3c0.9,0,1.9-0.4,2.3-1.3"/>
	</g>
</g>
<g id="Pedo_atomico" class="st24">
	<g id="Arcoiris" class="st25">
		<g>
			<polygon class="st26" points="277.6,448.3 302.1,448.2 302.5,444.5 214.1,351.8 186.2,323.9 174.1,312.5 173.8,312.9 
				189.2,334.1 198.3,345.6 			"/>
			<polygon class="st27" points="302.1,371.1 302.1,392.5 206.4,329.9 174.4,311.6 174.1,311.5 174.5,309.8 195.2,319.3 
				207.4,325.1 			"/>
			<polygon class="st28" points="174.8,307.2 237.2,331.3 302.2,357.1 302.2,371.1 174.5,309.8 			"/>
			<polyline class="st29" points="174.1,311.9 174.1,312.5 203.8,341.4 302.5,444.6 302.3,409.4 174,312.2 			"/>
			<polygon class="st30" points="174,312.2 207.8,337.3 302.5,411.7 302.6,400.3 301.5,386.4 174.4,310.6 			"/>
		</g>
		<polyline class="st31" points="202.5,350.5 173.8,312.9 172.9,315.3 194.4,349.3 263.2,448.2 278.6,448.3 202.5,350.5 		"/>
		<polygon class="st32" points="190,352.5 171.5,317.1 172.9,315.3 202.6,361.2 264.9,448.3 242.1,448.3 		"/>
	</g>
</g>
<path id="Nube_00000119804425446046566090000004789714295981300409_" class="st3" d="M286.3,339c-1.4-3.9-2-8.2-1-12.2
	c1-4,3.9-7.7,7.9-8.9c0.6-0.2,1.3-0.3,1.6-0.9c0.5-0.7,0.1-1.6-0.2-2.4c-2-4.5-2.6-9.7-1.3-14.4c1.3-4.8,4.6-9,9.1-11v50.7
	L286.3,339z"/>
<radialGradient id="Moon_00000114058725704671052610000000542964181362179494_" cx="233.9547" cy="56.8786" r="48.899" fx="269.21" fy="90.7633" gradientUnits="userSpaceOnUse">
	<stop  offset="0" style="stop-color:#FDECF4"/>
	<stop  offset="0.1124" style="stop-color:#F7EAF3"/>
	<stop  offset="0.2268" style="stop-color:#FAEFF1"/>
	<stop  offset="0.3539" style="stop-color:#FFFEF2"/>
	<stop  offset="0.6267" style="stop-color:#FFF9EE"/>
	<stop  offset="0.884" style="stop-color:#FFEFE5"/>
	<stop  offset="1" style="stop-color:#FEE9DF"/>
</radialGradient>
<circle id="Moon" style="fill:url(#Moon_00000114058725704671052610000000542964181362179494_);" cx="234" cy="56.9" r="48.9"/>
<g id="Rainbow_small">
	<path class="st34" d="M-0.9,81.4c18.6-10.8,33.3-27.3,51-39.5c6.4-4.4,13.1-8.2,19.3-12.9c12.3-9.2,26.8-23.7,40.8-30.1l-7,0.3
		c-28.8,17.6-55.4,38.4-82,59.2c-7.8,6.1-15.7,12.3-22,20L-0.9,81.4z"/>
	<path class="st35" d="M-1.1,74.4c3.5-3.8,7.1-7.5,10.8-11.1C34.4,39.2,65,17.9,94.2-0.6l-8.7,0.1C77.9,4.7,71.4,11,63.7,16.2
		c-10.6,7.2-21.2,14.4-31.4,22.1c-11.8,9-23,18.6-33.6,29L-1.1,74.4z"/>
	<path class="st36" d="M-1,62.1c8.6-7.4,17.2-14.9,25.7-22.3c2.8-2.4,5.5-4.8,8.5-7c2.3-1.7,4.6-3.2,7-4.8
		C52.6,19.7,65,8.8,76.5-0.6h-6.1c-8.6,7-18.5,16.2-27.8,22.4c-4.2,2.8-8.5,5.4-12.5,8.4c-11,8.3-19.8,19.4-31,27.5L-1,62.1z"/>
	<path class="st37" d="M-1.1,53.7c11-9.1,20.1-20.4,31.3-29.2c4.9-3.8,10.2-7.2,15.9-10c1.3-0.6,2.6-1.2,3.7-2
		c1.3-0.8,2.4-1.9,3.5-2.9c2.5-2.4,8.4-7.7,10.9-10.1L59-0.7c-8.3,7-19.6,16.4-28.9,22.1c-3.4,2-6.9,3.9-9.6,6.8c-0.9,1-1.8,2-2.6,3
		c-5.5,6.6-12.3,12-19,17.3L-1.1,53.7z"/>
	<path class="st38" d="M103.3-0.8c-28.8,17.6-55.4,38.4-82,59.2c-7.8,6.1-15.7,12.3-22,20l-0.5-3.9c3.5-3.8,7.1-7.5,10.8-11.1
		C34.4,39.2,65,17.9,94.2-0.6L103.3-0.8z"/>
	<path class="st39" d="M85.5-0.5C77.9,4.7,71.4,11,63.7,16.2c-10.6,7.2-21.2,14.4-31.4,22.1c-11.8,9-23,18.6-33.6,29l0.2-5.2
		c8.6-7.4,17.2-14.9,25.7-22.3c2.8-2.4,5.5-4.8,8.5-7c2.3-1.7,4.6-3.2,7-4.8C52.6,19.7,65,8.8,76.5-0.6L85.5-0.5z"/>
	<path class="st40" d="M70.4-0.6c-8.6,7-18.5,16.2-27.8,22.4c-4.2,2.8-8.5,5.4-12.5,8.4c-11,8.3-19.8,19.4-31,27.5l-0.2-4
		c11-9.1,20.1-20.4,31.3-29.2c4.9-3.8,10.2-7.2,15.9-10c1.3-0.6,2.6-1.2,3.7-2c1.3-0.8,2.4-1.9,3.5-2.9c2.5-2.4,8.4-7.7,10.9-10.1
		L70.4-0.6z"/>
</g>
<path id="Nube_00000042011654153586005140000018038762652371691420_" class="st3" d="M136.1,148.6c1.8-5.9,7.1-10.5,13.2-11.5
	c6.1-1,12.6,1.6,16.3,6.6c6.3-8.7,21.7-8.1,27.3,1.1c6.1-6.7,17-8.4,24.8-3.9c2.1,1.2,4.1,2.8,6.5,2.8c1.9,0,3.7-1,5.4-1.9
	c8.4-4.4,20.6-4.6,25.5,3.5c4.7-0.2,9.3-0.4,14-0.7c1.7-0.1,3.5-0.1,4.9,0.8c1.2,0.8,2,2.1,2.5,3.5c3,7.5,0.5,17.1-6.1,21.7
	c-6.7,4.6-17,3.1-21.6-3.6c-6,7.8-17.4,11-26.6,7.4c-1.4-0.5-2.8-1.2-4.3-1.2c-2.7,0.1-4.7,2.7-7.1,3.9c-7.1,3.6-14.7-4.5-22.6-4.7
	c-2.8-0.1-5.5,0.9-8.3,1.1c-7,0.7-14.2-3.1-17.5-9.2c-7.5,5.3-16.4,6.3-25.2,4.7c-6.5-1.1-15.6-0.3-20.6-5.4
	c-4.2-4.2-5.4-10.8-1.3-15.5C117.8,145.2,137.8,143.2,136.1,148.6z"/>
<path id="Nube_00000062157598538125482860000009134131373505839277_" class="st2" d="M166.8,106.3c1.7-6.2,8.1-11.1,14.9-11.3
	c6.8-0.3,13.5,4.1,15.8,10.1c0.1-8.1,7.4-15.5,15.9-16.1s16.8,5.7,18.1,13.7c4.6-5.4,10-11,17.1-12.5c7.2-1.4,16.1,3.6,15.3,10.5
	c4.3-6.7,14.2-9.5,21.7-6.1c7.5,3.4,11.3,12.6,8.4,19.9c-2.5,6.3-9,10.5-15.8,12.2c-7.5,1.9-17.3,0.1-20.1-6.8
	c-3.6,3.7-8,7.2-13.2,8.1c-5.3,0.9-11.5-1.9-12.5-6.9c-4.1,3.2-8.8,5.9-14.1,6.4c-5.3,0.4-11.1-1.9-13.2-6.5
	c1.9,4.1-18.1,3.5-19.9,2.9c-3.9-1.4-5.8-4.4-9.5-4c-4.3,0.4-8.7,4.1-13.3,4.8c-14.3,2.2-33.1-15.5-15.6-25.2
	C153.8,95.8,163.9,99.2,166.8,106.3z"/>
<g id="Arcoiris_grande" class="st41">
	<path class="st35" d="M-0.2,103.6c25.4,0.3,50.2,0.7,75.7,1c9.3,0.1,18.8,0.3,27.3,3.4c8.6,3.2,16.1,3.5,24.6,6.9
		c7.8,3.1,15.9,9.6,24.1,11.6c15.3,3.7,28.7,11.5,43.5,16.3c4.7,1.5,9.5,2.8,13.9,4.8c5.2,2.3,9.6,5.7,14.3,8.7
		c24,15.9,53.4,25.6,75.5,43.3l1.4,1.3l0.2,7.8l-1.3-0.7c-10.8-10.1-27.1-14.2-40.6-21.5c-6.1-3.4-11.7-7.4-17.5-11.2
		c-25.3-16.5-54.8-27.5-84-38.3c-7.3-2.7-14.6-5.4-22-8.2c-10.7-4-21.4-8-32.5-11.1c-32.9-9.3-68.4-10.7-102.8-7.4L-0.2,103.6z"/>
	<path class="st36" d="M-0.5,92.1c6.5,1.6,13.3,0.8,20,0.2c22-2,44.3-1.4,66.1,1.7c19.4,2.7,38.4,7.5,57.3,12.2
		c2.9,0.7,5.8,1.4,8.6,2.5c5.5,2.1,10.2,5.3,15.4,7.8c8.2,4,17.5,6,25.7,10.1c6.6,3.3,22.6,6.8,28.7,10.8
		c12.8,8.3,17.1,15.3,31.6,21.2c16.1,6.6,32.2,13.2,48.3,19.7l0.2,12.6c-23.3-12.7-46.5-25.3-69.8-38c-9.4-5.1-18.8-10.2-28.7-14.4
		c-7.9-3.3-16.2-6.1-23.9-9.8c-6.1-3-11.9-6.5-18-9.5c-7.9-3.8-16.4-6.7-25-9.1C92.7,97.4,45,93.6-0.5,98.7V92.1z"/>
	<path class="st34" d="M-0.8,127.2c19.6-4.7,41.6-10.3,61.4-6c19.3,4.2,36.8,14.3,56.6,16.2c4.1,0.4,18.9,3.9,22.2,5.3
		c17.5,7.5,31.6,12.9,47.3,23c7.7,4.9,68.7,32,72.8,34.8c2.9,2,5.4,4.4,7.9,6.8c10.1,9.3,20.7,16.5,33.4,23.1l0.1-8.9
		c-15.2-13.5-26-20.3-44.3-30.6c-9.3-5.2-18.9-9.9-28.5-14.6c-26.1-12.8-52.2-25.7-79.9-35.7c-15.4-5.6-31.2-10.2-47.1-14.9
		c-13.8-4.1-27.8-8.2-42.3-9.9c-19.4-2.4-40.4-0.3-59.7,2.9L-0.8,127.2z"/>
	<path class="st37" d="M-0.2,87.1c16.5-0.6,33.6-1.3,50.2-2c9.9-0.4,19.8-0.7,29.5,0.6c6.8,1,13.4,2.8,20.1,4.3
		c22.8,5,47.6,6.4,67.2,17.5c4,2.2,7.6,4.8,11.7,6.9c6.1,3.1,13.1,4.9,19.8,6.8c32.1,9.3,62.4,23.3,89,41.3c3.8,2.6,8.2,5.4,13.1,5
		l0.2-8.1c-28.7-17.2-58.3-31.2-90.8-42.4c-11-3.8-22.4-7.3-32.2-13c-4.4-2.6-8.6-5.6-13.4-7.6c-5.6-2.4-11.9-3.4-18-4.7
		c-17-3.8-33-10.8-50.4-12.9c-9.7-1.1-19.5-0.7-29.2-0.3C44.4,79.4,22,80.4-0.2,81.3V87.1z"/>
	<path class="st38" d="M300.4,208.8l-1.3-0.7c-10.8-10.1-27.1-14.2-40.6-21.5c-6.1-3.4-11.7-7.4-17.5-11.2
		c-25.3-16.5-54.8-27.5-84-38.3c-7.3-2.7-14.6-5.4-22-8.2c-10.7-4-21.4-8-32.5-11.1c-32.9-9.3-68.4-10.7-102.8-7.4l-0.5,8.2
		c19.2-3.2,40.3-5.3,59.7-2.9c14.5,1.8,28.4,5.9,42.3,9.9c15.8,4.7,31.7,9.3,47.1,14.9c27.7,10,53.9,22.9,79.9,35.7
		c9.6,4.7,19.2,9.5,28.5,14.6c18.4,10.3,29.2,17.1,44.3,30.6"/>
	<path class="st39" d="M301.5,190.8c-23.3-12.7-46.5-25.3-69.8-38c-9.4-5.1-18.8-10.2-28.7-14.4c-7.9-3.3-16.2-6.1-23.9-9.8
		c-6.1-3-11.9-6.5-18-9.5c-7.9-3.8-16.4-6.7-25-9.1C92.7,97.4,45,93.6-0.5,98.7l0.2,4.9c25.4,0.3,50.2,0.7,75.7,1
		c9.3,0.1,18.8,0.3,27.3,3.4c8.6,3.2,17.5,4.1,26,7.5c7.8,3.1,14.5,9,22.8,11c15.3,3.7,28.7,11.5,43.5,16.3
		c4.7,1.5,9.5,2.8,13.9,4.8c5.2,2.3,9.6,5.7,14.3,8.7c24,15.9,53.4,25.6,75.5,43.3l1.4,1.3"/>
	<path class="st40" d="M-0.2,87.1c16.5-0.6,33.6-1.3,50.2-2c9.9-0.4,19.8-0.7,29.5,0.6c6.8,1,13.4,2.8,20.1,4.3
		c22.8,5,47.6,6.4,67.2,17.5c4,2.2,7.6,4.8,11.7,6.9c6.1,3.1,13.1,4.9,19.8,6.8c32.1,9.3,62.4,23.3,89,41.3c3.8,2.6,8.2,5.4,13.1,5
		l0.9,10.7c-16.1-6.6-32.2-13.2-48.3-19.7c-14.5-5.9-18.8-12.9-31.6-21.2c-6.1-4-22.1-7.5-28.7-10.8c-8.2-4.1-17.5-6.1-25.7-10.1
		c-5.2-2.5-9.9-5.7-15.4-7.8c-2.8-1-5.7-1.8-8.6-2.5c-18.9-4.7-37.9-9.4-57.3-12.2c-21.8-3.1-44.1-3.6-66.1-1.7
		c-6.7,0.6-13.5,1.4-20-0.2L-0.2,87.1z"/>
</g>
<path class="st2" d="M-1.4,388.5c6-12.2,21.2-19.1,34.4-15.6c7.1-19,33.2-28,50.5-17.3c7.3-4.7,15.1-9.2,23.7-9.6
	c8.6-0.4,18.1,4.8,19.7,13.2c0.4,2.3,0.4,4.9,2.1,6.5c1.3,1.2,3.3,1.3,5.1,1.6c11.3,1.9,19.5,14.6,16.6,25.8
	c8.6,0.4,16.4,7.4,17.6,15.9s-4.3,17.5-12.5,20.2c-2.4,0.8-5.1,1.1-7.3,2.4c-3.7,2.1-5.7,6.2-9.1,8.7c-8.6,6.3-21.8-1.5-27.8,7.3
	H-1.1L-1.4,388.5z"/>
<linearGradient id="Pedo_colorido_00000129188179283467377950000010902540693779364255_" gradientUnits="userSpaceOnUse" x1="167.1236" y1="375.6198" x2="301.8814" y2="375.6198">
	<stop  offset="0" style="stop-color:#BEDEEB"/>
	<stop  offset="0.2" style="stop-color:#BCB7D5"/>
	<stop  offset="0.4" style="stop-color:#F1C9D8"/>
	<stop  offset="0.6" style="stop-color:#F4C7B4"/>
	<stop  offset="0.8" style="stop-color:#F5F2CA"/>
	<stop  offset="1" style="stop-color:#C1DEC8"/>
</linearGradient>
<path id="Pedo_colorido" style="opacity:0.32;fill:url(#Pedo_colorido_00000129188179283467377950000010902540693779364255_);stroke:#B9C2DF;stroke-miterlimit:10;" d="
	M170.5,302.6c0,0-0.2,3.2-0.8,5.4c-1.1,3.9-2.5,4.9-2.5,4.9l72.7,135.8h62l-0.3-94.6L170.5,302.6z"/>
<g id="Jimmie_Mc_Unicorn">
	<path class="st43" d="M27.2,96.3c-4.3-2.5-7.3-7-7.7-11.8s1.7-9.7,5.5-12.8c-2.1-3.1-4.2-6.2-5.1-9.7c-0.9-3.5-0.4-7.6,2.3-10.2
		c0.7-0.7,1.6-1.3,2-2.2c0.4-0.9,0.1-2-0.1-3c-0.8-3.9-0.7-8,1.1-11.5c1.8-3.5,5.6-6.3,9.8-6.5c1.7-0.1,3.4,0.3,5.1-0.1
		c1.5-0.3,2.8-1.1,4.1-1.7c5.8-2.5,13.2-1.1,17.4,3.3c5.2-3.3,11-6.2,17.2-7c6.3-0.8,13.2,0.9,17.2,5.4c4.7-3.9,10.1-7.2,16.3-8.4
		s13-0.3,17.8,3.5c0.9,0.7,1.7,1.5,2.8,1.8c1.3,0.4,2.6,0.2,4,0.1c6.1-0.5,13.2,2.8,13.9,8.5c6-1.4,13.2-2.6,17.6,1.4
		c3.2,2.9,3.6,7.5,3.2,11.7c4.2,0.9,8.5,3.3,9.9,7.1c1.1,3.1,0.1,6.6-1.8,9.4c-1.9,2.8-4.7,4.9-7.4,7c3.5,1.5,6.6,3.8,8.9,6.6
		c0.6,0.8,1.2,1.6,1.2,2.6c0,1.6-1.7,2.7-3,3.8c-3.1,2.7-4.3,6.8-5.9,10.4s-4.2,7.5-8.4,8.3c-1.6,0.3-3.4,0.1-4.9,0.6
		c-1.9,0.6-3.3,2-4.9,3c-5.8,3.9-14.7,3.1-19.6-1.9c-7.1,4-15.1,8.1-23.2,6.5c-0.9-0.2-1.8-0.4-2.7-0.2c-0.9,0.2-1.6,0.7-2.3,1.2
		c-5.6,4.2-11.8,9.6-18.8,8.2c-4.9-1-9.4-5.2-14.2-3.8c-1.9,0.5-3.3,1.9-5.1,2.7c-2.1,0.9-4.6,1-6.8,0.3c-2.1-0.7-3.5-2.8-5.6-3.1
		c-3.8-0.5-8.8,2.2-12.9,2.3c-7.3,0.1-12-4.4-16.1-9.6c-1.5-1.9-2.8-3.8-2.9-6.3C25,101.7,26.1,95.7,27.2,96.3z"/>
</g>
</svg>
