<?xml version="1.0" encoding="utf-8"?>
<!-- Generator: Adobe Illustrator 27.2.0, SVG Export Plug-In . SVG Version: 6.00 Build 0)  -->
<svg version="1.1" id="Blonnopies_11" xmlns="http://www.w3.org/2000/svg" xmlns:xlink="http://www.w3.org/1999/xlink" x="0px"
	 y="0px" viewBox="0 0 300 450" style="enable-background:new 0 0 300 450;" xml:space="preserve">
<style type="text/css">
	.st0{fill:none;}
	.st1{fill:#FAC6C2;}
	.st2{fill:#FFFFFF;}
	.st3{fill:#B0DDCE;}
	.st4{fill:#D1E6F7;}
	.st5{fill:#F58675;}
	.st6{opacity:0.64;fill:#EF435E;}
	.st7{fill:#5D463A;stroke:#523D33;stroke-miterlimit:10;}
	.st8{fill:#B4D9F3;stroke:#97CCEF;stroke-width:3;stroke-linecap:round;stroke-linejoin:round;stroke-miterlimit:10;}
	.st9{fill:none;stroke:#FDDBD1;stroke-linecap:round;stroke-linejoin:round;stroke-miterlimit:10;}
	.st10{fill:none;stroke:#C9E6D3;stroke-width:2;stroke-linecap:round;stroke-linejoin:round;stroke-miterlimit:10;}
	.st11{fill:none;stroke:#FCE5EF;stroke-linecap:round;stroke-linejoin:round;stroke-miterlimit:10;}
	.st12{fill:none;stroke:#ADDCCF;stroke-width:2;stroke-linecap:round;stroke-linejoin:round;stroke-miterlimit:10;}
	.st13{fill:none;stroke:#B3DDCA;stroke-width:2;stroke-linecap:round;stroke-linejoin:round;stroke-miterlimit:10;}
	.st14{fill:none;stroke:#ADDCCF;stroke-width:3;stroke-linecap:round;stroke-linejoin:round;stroke-miterlimit:10;}
	.st15{fill:none;stroke:#ADDCCF;stroke-linecap:round;stroke-linejoin:round;stroke-miterlimit:10;}
	.st16{fill:none;stroke:#F9CDE1;stroke-width:2;stroke-linecap:round;stroke-linejoin:round;stroke-miterlimit:10;}
	.st17{fill:#FAF6DB;stroke:#F5ECAD;stroke-width:3;stroke-linecap:round;stroke-linejoin:round;stroke-miterlimit:10;}
	.st18{fill:#AEDEDA;stroke:#91D3CE;stroke-width:2;stroke-miterlimit:10;}
	.st19{fill:#CC3E68;stroke:#C92C62;stroke-width:2;stroke-miterlimit:10;}
	.st20{fill:#F2728E;stroke:#EF4277;stroke-miterlimit:10;}
	.st21{fill:#FAC3C1;stroke:#F48B91;stroke-miterlimit:10;}
	.st22{fill:#CC3E68;stroke:#C92C62;stroke-miterlimit:10;}
	.st23{fill:#F2728E;stroke:#EF4277;stroke-width:2;stroke-miterlimit:10;}
	.st24{fill:#F2728E;stroke:#EF4277;stroke-width:0.75;stroke-miterlimit:10;}
	.st25{fill:#FAC3C1;stroke:#F48B91;stroke-width:2;stroke-miterlimit:10;}
	.st26{fill:#8F6D5D;stroke:#7E6052;stroke-linecap:round;stroke-linejoin:round;stroke-miterlimit:10;}
	.st27{fill:#AD6B51;stroke:#9E563C;stroke-width:2;stroke-linecap:round;stroke-linejoin:round;stroke-miterlimit:10;}
	.st28{fill:#9BCDAF;stroke:#7CBF9A;stroke-width:3;stroke-linecap:round;stroke-linejoin:round;stroke-miterlimit:10;}
	.st29{fill:#5D463A;stroke:#523D33;stroke-linecap:round;stroke-linejoin:round;stroke-miterlimit:10;}
	.st30{fill:#60A781;stroke:#409A70;stroke-width:2;stroke-linecap:round;stroke-linejoin:round;stroke-miterlimit:10;}
	.st31{fill:#9E563C;stroke:#8C3C1F;stroke-width:2;stroke-linecap:round;stroke-linejoin:round;stroke-miterlimit:10;}
	.st32{fill:#7E6052;stroke:#694F43;stroke-width:3;stroke-linecap:round;stroke-linejoin:round;stroke-miterlimit:10;}
	.st33{fill:#694F43;}
	.st34{fill:#9E563C;stroke:#8C3C1F;stroke-width:3;stroke-linecap:round;stroke-linejoin:round;stroke-miterlimit:10;}
	.st35{fill:#F2728E;stroke:#EF4277;stroke-linecap:round;stroke-linejoin:round;stroke-miterlimit:10;}
	.st36{fill:#FAF6DB;stroke:#F6F0C5;stroke-miterlimit:10;}
	.st37{fill:#93C1DF;stroke:#78B4D8;stroke-width:2;stroke-linecap:round;stroke-linejoin:round;stroke-miterlimit:10;}
	.st38{fill:#D1E6F7;stroke:#97CCEF;stroke-miterlimit:10;}
	.st39{fill:#FFFCD7;stroke:#ECE6BE;stroke-linecap:round;stroke-linejoin:round;stroke-miterlimit:10;}
	.st40{fill:#FAC3C1;stroke:#F48B91;stroke-width:2;stroke-linecap:round;stroke-linejoin:round;stroke-miterlimit:10;}
	.st41{fill:#B4D9F3;stroke:#97CCEF;stroke-linecap:round;stroke-linejoin:round;stroke-miterlimit:10;}
	.st42{fill:#F5ECAD;stroke:#EFE177;stroke-miterlimit:10;}
	.st43{fill:none;stroke:#FFF2BC;stroke-linecap:round;stroke-linejoin:round;stroke-miterlimit:10;}
	.st44{fill:none;stroke:#F598A4;stroke-width:2;stroke-linecap:round;stroke-linejoin:round;stroke-miterlimit:10;}
	.st45{fill:none;stroke:#FFF1D0;stroke-linecap:round;stroke-linejoin:round;stroke-miterlimit:10;}
	.st46{fill:#E4DDA8;stroke:#DED694;stroke-width:2;stroke-linecap:round;stroke-linejoin:round;stroke-miterlimit:10;}
	.st47{fill:url(#SVGID_1_);stroke:#91D3CE;stroke-width:2;stroke-miterlimit:10;}
	.st48{fill:#CEE7E6;}
	.st49{fill:#FAF6DB;stroke:#F6F0C5;stroke-linecap:round;stroke-linejoin:round;stroke-miterlimit:10;}
	.st50{fill:#CC3E68;stroke:#C92C62;stroke-width:2;stroke-linecap:round;stroke-linejoin:round;stroke-miterlimit:10;}
	.st51{fill:#F5ECAD;stroke:#EFE177;stroke-linecap:round;stroke-linejoin:round;stroke-miterlimit:10;}
	.st52{fill:#FAC3C1;}
	.st53{fill:#F9B7B3;stroke:#F59494;stroke-width:3;stroke-linecap:round;stroke-linejoin:round;stroke-miterlimit:10;}
	.st54{fill:#F2728E;}
	.st55{fill:url(#SVGID_00000047038108311207334840000010391758596609481882_);stroke:#F8B1B8;stroke-width:3;stroke-miterlimit:10;}
	.st56{fill:#F8B1B8;stroke:#F598A4;stroke-miterlimit:10;}
	.st57{fill:#F48B91;stroke:#F05B71;stroke-width:2;stroke-linecap:round;stroke-linejoin:round;stroke-miterlimit:10;}
	.st58{fill:#B9DAC5;stroke:#9BCDAF;stroke-width:2;stroke-linecap:round;stroke-linejoin:round;stroke-miterlimit:10;}
	.st59{fill:#C89881;stroke:#BB8068;stroke-width:2;stroke-linecap:round;stroke-linejoin:round;stroke-miterlimit:10;}
	.st60{fill:#694F43;stroke:#5D463A;stroke-miterlimit:10;}
	.st61{fill:#8F6D5D;stroke:#7E6052;stroke-miterlimit:10;}
	.st62{fill:#78B4D8;stroke:#58A6CF;stroke-width:2;stroke-linecap:round;stroke-linejoin:round;stroke-miterlimit:10;}
	.st63{fill:#F59494;stroke:#F48587;stroke-miterlimit:10;}
	.st64{fill:#F0C5C1;stroke:#E9ABA8;stroke-miterlimit:10;}
	.st65{fill:#F48587;stroke:#F27178;stroke-miterlimit:10;}
	.st66{fill:#7EB597;stroke:#60A781;stroke-width:2;stroke-linecap:round;stroke-linejoin:round;stroke-miterlimit:10;}
	.st67{fill:#FFF1D0;stroke:#FFE18B;stroke-width:3;stroke-miterlimit:10;}
	.st68{fill:none;stroke:#FFDD77;stroke-width:2;stroke-linecap:round;stroke-linejoin:round;stroke-miterlimit:10;}
	.st69{fill:none;stroke:#FFDD77;stroke-width:3;stroke-linecap:round;stroke-linejoin:round;stroke-miterlimit:10;}
	.st70{fill:none;stroke:#FFDD77;stroke-linecap:round;stroke-linejoin:round;stroke-miterlimit:10;}
	.st71{fill:#FFE9A6;stroke:#FFE18B;stroke-width:2;stroke-miterlimit:10;}
	.st72{fill:#19226D;}
	.st73{fill:#EF435E;stroke:#CA0E45;stroke-width:3;stroke-miterlimit:10;}
	.st74{fill:#F48587;stroke:#EF435E;stroke-width:2;stroke-miterlimit:10;}
	.st75{fill:#FFF1D0;stroke:#FFE18B;stroke-linecap:round;stroke-linejoin:round;stroke-miterlimit:10;}
	.st76{fill:#DAAF6A;stroke:#D3A24F;stroke-width:2;stroke-miterlimit:10;}
	.st77{fill:#D3A24F;stroke:#C28710;stroke-width:2;stroke-linecap:round;stroke-linejoin:round;stroke-miterlimit:10;}
	.st78{fill:#DAAF6A;stroke:#D3A24F;stroke-width:2;stroke-linecap:round;stroke-linejoin:round;stroke-miterlimit:10;}
	.st79{fill:#7E6052;stroke:#694F43;stroke-linecap:round;stroke-linejoin:round;stroke-miterlimit:10;}
	.st80{fill:#FFFEF9;stroke:#FFFDEB;stroke-linecap:round;stroke-linejoin:round;stroke-miterlimit:10;}
	.st81{fill:#FFF200;stroke:#FFE100;stroke-linecap:round;stroke-linejoin:round;stroke-miterlimit:10;}
	.st82{fill:#00AEEF;stroke:#0083CA;stroke-linecap:round;stroke-linejoin:round;stroke-miterlimit:10;}
</style>
<pattern  x="-1020.4" y="-513.6" width="1200" height="1200" patternUnits="userSpaceOnUse" id="New_Pattern_45" viewBox="85.8 -1200 1200 1200" style="overflow:visible;">
	<g>
		<rect x="85.8" y="-1200" class="st0" width="1200" height="1200"/>
		<g>
			<rect x="85.8" y="-1200" class="st1" width="1200" height="1200"/>
			<polygon id="XMLID_7377_" class="st2" points="198.3,-1050.1 325.1,-900 198.3,-749.8 325.1,-599.5 198.3,-449.2 325.1,-298.9 
				198.3,-149.4 325.1,0 375,0 248.1,-149.4 375,-299.3 248.1,-449.5 375,-599.7 248.1,-750 375,-900.3 248.1,-1050.2 375,-1200 
				325.1,-1200 			"/>
			<polygon id="XMLID_7376_" class="st2" points="428.8,-900.3 302,-749.9 428.8,-599.6 302,-449.2 428.8,-298.9 302,-149.4 
				428.8,0 478.7,0 351.8,-149.4 478.7,-299.3 351.8,-449.5 478.7,-599.7 351.8,-750 478.7,-900.3 351.8,-1050.2 478.7,-1200 
				428.8,-1200 302,-1050.1 			"/>
			<polygon id="XMLID_7375_" class="st2" points="531.6,-900.3 404.7,-749.9 531.6,-599.6 404.7,-449.2 531.6,-298.9 404.7,-149.4 
				531.6,0 581.4,0 454.6,-149.4 581.4,-299.3 454.6,-449.5 581.4,-599.7 454.6,-750 581.4,-900.3 454.6,-1050.2 581.4,-1200 
				531.6,-1200 404.7,-1050.1 			"/>
			<polygon id="XMLID_7374_" class="st2" points="631.6,-900.3 504.7,-749.9 631.6,-599.6 504.7,-449.2 631.6,-298.9 504.7,-149.4 
				631.6,0 681.4,0 554.6,-149.4 681.4,-299.3 554.6,-449.5 681.4,-599.7 554.6,-750 681.4,-900.3 554.6,-1050.2 681.4,-1200 
				631.6,-1200 504.7,-1050.1 			"/>
			<polygon id="XMLID_7373_" class="st2" points="731.7,-900.3 604.9,-749.9 731.7,-599.6 604.9,-449.2 731.7,-298.9 604.9,-149.4 
				731.7,0 781.6,0 654.8,-149.4 781.6,-299.3 654.8,-449.5 781.6,-599.7 654.8,-750 781.6,-900.3 654.8,-1050.2 781.6,-1200 
				731.7,-1200 604.9,-1050.1 			"/>
			<polygon id="XMLID_7372_" class="st2" points="269.8,-301.1 143,-450.7 269.8,-600.2 143,-749.8 269.8,-899.3 143,-1049.7 
				269.8,-1200 219.9,-1200 93.1,-1049.7 219.9,-899.7 93.1,-750 219.9,-600.3 93.1,-450.7 219.9,-301.1 93.1,-150.6 219.9,0 
				269.8,0 143,-150.6 			"/>
			<polygon id="XMLID_7371_" class="st2" points="800.4,-1050.1 927.2,-900 800.4,-749.8 927.2,-599.5 800.4,-449.2 927.2,-298.9 
				800.4,-149.4 927.2,0 977,0 850.2,-149.4 977,-299.3 850.2,-449.5 977,-599.7 850.2,-750 977,-900.3 850.2,-1050.2 977,-1200 
				927.2,-1200 			"/>
			<polygon id="XMLID_7370_" class="st2" points="1028.9,-900.3 902.1,-749.9 1028.9,-599.6 902.1,-449.2 1028.9,-298.9 
				902.1,-149.4 1028.9,0 1078.7,0 951.9,-149.4 1078.7,-299.3 951.9,-449.5 1078.7,-599.7 951.9,-750 1078.7,-900.3 951.9,-1050.2 
				1078.7,-1200 1028.9,-1200 902.1,-1050.1 			"/>
			<polygon id="XMLID_7369_" class="st2" points="1129.7,-900.3 1002.8,-749.9 1129.7,-599.6 1002.8,-449.2 1129.7,-298.9 
				1002.8,-149.4 1129.7,0 1179.5,0 1052.7,-149.4 1179.5,-299.3 1052.7,-449.5 1179.5,-599.7 1052.7,-750 1179.5,-900.3 
				1052.7,-1050.2 1179.5,-1200 1129.7,-1200 1002.8,-1050.1 			"/>
			<polygon id="XMLID_7368_" class="st2" points="1228.7,-900.3 1101.8,-749.9 1228.7,-599.6 1101.8,-449.2 1228.7,-298.9 
				1101.8,-149.4 1228.7,0 1278.5,0 1151.7,-149.4 1278.5,-299.3 1151.7,-449.5 1278.5,-599.7 1151.7,-750 1278.5,-900.3 
				1151.7,-1050.2 1278.5,-1200 1228.7,-1200 1101.8,-1050.1 			"/>
			<polygon id="XMLID_7367_" class="st2" points="1326.8,-900.3 1200,-749.9 1326.8,-599.6 1200,-449.2 1326.8,-298.9 1200,-149.4 
				1326.8,0 1376.7,0 1249.8,-149.4 1376.7,-299.3 1249.8,-449.5 1376.7,-599.7 1249.8,-750 1376.7,-900.3 1249.8,-1050.2 
				1376.7,-1200 1326.8,-1200 1200,-1050.1 			"/>
			<polygon id="XMLID_7366_" class="st2" points="876.9,-301.1 750.1,-450.7 876.9,-600.2 750.1,-749.8 876.9,-899.3 750.1,-1049.7 
				876.9,-1200 827.1,-1200 700.2,-1049.7 827.1,-899.7 700.2,-750 827.1,-600.3 700.2,-450.7 827.1,-301.1 700.2,-150.6 827.1,0 
				876.9,0 750.1,-150.6 			"/>
		</g>
		<g>
			<polygon id="XMLID_7365_" class="st2" points="126.8,-900.3 0,-749.9 126.8,-599.6 0,-449.2 126.8,-298.9 0,-149.4 126.8,0 
				176.7,0 49.8,-149.4 176.7,-299.3 49.8,-449.5 176.7,-599.7 49.8,-750 176.7,-900.3 49.8,-1050.2 176.7,-1200 126.8,-1200 
				0,-1050.1 			"/>
		</g>
	</g>
</pattern>
<pattern  x="-1020.4" y="-513.6" width="1200" height="1200" patternUnits="userSpaceOnUse" id="New_Pattern_49" viewBox="0 -1200 1200 1200" style="overflow:visible;">
	<g>
		<rect x="0" y="-1200" class="st0" width="1200" height="1200"/>
		<rect id="XMLID_7506_" y="-1200" class="st3" width="1200" height="1200"/>
		<g id="XMLID_7468_">
			<rect id="XMLID_7505_" y="-308" class="st0" width="1200" height="47"/>
			<rect id="XMLID_7504_" y="-1002" class="st0" width="1200" height="46"/>
			<rect id="XMLID_7503_" y="-181" class="st0" width="1200" height="46"/>
			<rect id="XMLID_7502_" y="-1129" class="st0" width="1200" height="47"/>
			<rect id="XMLID_7501_" y="-55" class="st0" width="1200" height="47"/>
			<rect id="XMLID_7500_" y="-939" class="st0" width="1200" height="47"/>
			<rect id="XMLID_7499_" y="-244" class="st0" width="1200" height="46"/>
			<rect id="XMLID_7498_" y="-118" class="st0" width="1200" height="47"/>
			<rect id="XMLID_7497_" y="-371" class="st0" width="1200" height="47"/>
			<rect id="XMLID_7496_" y="-813" class="st0" width="1200" height="47"/>
			<rect id="XMLID_7495_" y="-1192" class="st0" width="1200" height="47"/>
			<rect id="XMLID_7494_" y="-750" class="st0" width="1200" height="47"/>
			<rect id="XMLID_7493_" y="-686" class="st0" width="1200" height="46"/>
			<rect id="XMLID_7492_" y="-560" class="st0" width="1200" height="46"/>
			<rect id="XMLID_7491_" y="-1065" class="st0" width="1200" height="46"/>
			<rect id="XMLID_7490_" y="-623" class="st0" width="1200" height="46"/>
			<rect id="XMLID_7489_" y="-497" class="st0" width="1200" height="47"/>
			<rect id="XMLID_7488_" y="-8" class="st2" width="1200" height="8"/>
			<rect id="XMLID_7487_" y="-71" class="st2" width="1200" height="16"/>
			<rect id="XMLID_7486_" y="-135" class="st2" width="1200" height="17"/>
			<rect id="XMLID_7485_" y="-198" class="st2" width="1200" height="17"/>
			<rect id="XMLID_7484_" y="-261" class="st2" width="1200" height="17"/>
			<rect id="XMLID_7483_" y="-324" class="st2" width="1200" height="16"/>
			<rect id="XMLID_7482_" y="-387" class="st2" width="1200" height="16"/>
			<rect id="XMLID_7481_" y="-450" class="st2" width="1200" height="16"/>
			<rect id="XMLID_7480_" y="-514" class="st2" width="1200" height="17"/>
			<rect id="XMLID_7479_" y="-577" class="st2" width="1200" height="17"/>
			<rect id="XMLID_7478_" y="-640" class="st2" width="1200" height="17"/>
			<rect id="XMLID_7477_" y="-703" class="st2" width="1200" height="17"/>
			<rect id="XMLID_7476_" y="-766" class="st2" width="1200" height="16"/>
			<rect id="XMLID_7475_" y="-829" class="st2" width="1200" height="16"/>
			<rect id="XMLID_7474_" y="-892" class="st2" width="1200" height="16"/>
			<rect id="XMLID_7473_" y="-956" class="st2" width="1200" height="17"/>
			<rect id="XMLID_7472_" y="-1019" class="st2" width="1200" height="17"/>
			<rect id="XMLID_7471_" y="-1082" class="st2" width="1200" height="17"/>
			<rect id="XMLID_7470_" y="-1145" class="st2" width="1200" height="16"/>
			<rect id="XMLID_7469_" y="-1200" class="st2" width="1200" height="8"/>
		</g>
	</g>
</pattern>
<rect x="-1.8" y="-1.2" class="st4" width="304.9" height="367.6"/>
<path class="st5" d="M-1.9,359.5c100.8-0.8,203.9-1.3,304.7-2.1v94l-304.7-0.3L-1.9,359.5z"/>
<g id="Chocolate_1">
	<path class="st6" d="M133.1,425c-2,0-4-0.1-6-0.2c-4.4-0.2-8.8,0.1-13.1,0.5c-0.8,0.1-1.7,0.2-2,0.9c-0.3,0.7,0.1,1.5,0.8,1.9
		s1.5,0.3,2.3,0.3c3.9-0.1,7.9-0.2,11.8-0.4c2.6-0.1,5.3-0.2,7.9-0.2c2.9-0.1,5.7-0.2,8.5-0.8c0.8-0.2,2.6-0.8,2.2-1.9
		c-0.3-0.9-2.2-0.6-2.9-0.6C139.4,424.5,136.3,425,133.1,425z"/>
	<path class="st7" d="M114,424.1c-2.1-6.4-2.6-13.7,0.5-19.7c0.8-1.4,1.7-2.8,3.2-3.6c1.6-0.9,3.4-1,5.2-1c1.7,0,3.5,0,5.2,0.2
		c4.7,0.7,9,3.5,11.8,7.3s3.9,8.5,3.7,13.2c0,0.5-0.1,1-0.2,1.6c0,0.1,0,0.1-0.1,0.2c-0.1,0-0.2,0-0.1-0.1c-2.8,1.4-5.8,1.8-8.9,2
		c-4.7,0.4-9.5,0.5-14.2,0.5C118.1,424.7,115.9,424.7,114,424.1z"/>
	<path class="st8" d="M143.2,422.4c0.4,0.8-0.2,1.8-0.9,2.3c-0.8,0.5-1.7,0.6-2.6,0.7c-8,0.9-16,1.1-24.1,0.8c-1,0-1.6-1.3-1.8-2.2
		c0,0,15.3,2.6,28.5-1.5L143.2,422.4z"/>
	<path class="st9" d="M136.5,403.8c2.1,3.8,3.4,8,3.7,12.3"/>
	<path class="st10" d="M134.1,402.3c1.2,2,1.5,3.8,1.4,6.1"/>
	<path class="st11" d="M132.6,401.5c0.4,3.1,0.6,6.2,0.7,9.4"/>
	<path class="st12" d="M129,400.3c3.3,5.3,4,11.9,2,17.7"/>
	<path class="st11" d="M125.9,400c1.8,2.5,2.9,5.4,3.1,8.4"/>
	<path class="st13" d="M122.6,399.9c1.1,2.2,1.8,4.6,2.5,6.9c0.2,0.8,0.5,1.6,0.7,2.4c0.2,0.7,0.4,1.4,0.6,2.2
		c0.3,1.4,0.4,2.9,0.6,4.3"/>
	<path class="st11" d="M120.7,400c1,2.3,1.9,4.6,2.5,7c0.2,0.7,0.3,1.4,0.5,2.1c0.2,0.8,0.5,1.5,0.7,2.3c0.8,2.5,1.2,5.1,1.3,7.8"/>
	<path class="st14" d="M119,400.8c1.9,3.1,2.7,6.8,2.3,10.3"/>
	<path class="st15" d="M116.4,402.1c1.4,1.8,2,4,2.6,6.1c0.3,0.9,0.5,1.9,0.8,2.8"/>
	<path class="st16" d="M115,403.7c0.8,2,1.6,4.1,2,6.2c0.5,2.4,0.7,4.9,0.8,7.4c0.1,0.9,0.1,1.8,0.2,2.7"/>
</g>
<g>
	<path class="st6" d="M48.2,359.4c-8.3-0.1-16.8-0.1-24.8,1.6c-2.2,0.5-4.3,1.1-5.9,2.2s-2.5,2.8-1.8,4.3c0.8,1.6,3.1,2.5,5.3,3.1
		c9.3,2.7,19.4,3.5,29.4,4.2c15.4,1.1,31.7,2,45.7-2.6c3.8-1.3,7.6-3.1,8.8-5.9c3.9-8.6-13.7-6.4-19.8-6.5
		C72.9,359.6,60.6,359.5,48.2,359.4z"/>
	<g id="Chocolate_3">
		<path class="st17" d="M40.4,360.8c-1.2-5.5,0-11.3,1.4-16.8c0.4-1.6,0.8-3.2,1.5-4.6c1.7-3.5,4.8-6.1,8.3-7.7
			c5.3-2.5,11.6-2.9,17.2-1.1c2.7,0.9,5.2,2.2,7.1,4.3c1.6,1.7,2.7,3.7,3.6,5.8c2.9,6.3,4.5,13.1,4.7,20c-2.4,1.4-4.9,2.3-7.6,3
			c-4.1,1.1-8.2,2.3-12.4,2.5c-3.3,0.2-6.6-0.2-9.9-0.6c-3.4-0.4-6.9-0.8-10.1-2c-1-0.4-2-0.7-2.9-1.2
			C40.9,362.1,40.6,361.5,40.4,360.8z"/>
		<path class="st18" d="M84.1,361c-0.2,1.8,0.4,3.9-0.9,5.1c-0.5,0.5-1.2,0.7-1.8,0.9c-8.6,2.4-17.6,2.7-26.6,2.4
			c-2.8-0.1-5.7-0.2-8.4-1.3c-2.6-1.1-5-3.2-5.7-5.9c0,0,6.9,4.1,22.7,4.1c0,0,10-0.2,19.5-4.7L84.1,361z"/>
		<path class="st19" d="M54,342.5c0,0.3-0.1,0.6-0.2,0.8c-0.4,0.7-1.4,0.7-2.1,0.4c-1.8-0.5-3.3-1.7-4.6-3.1
			c-0.2-0.2-0.4-0.4-0.5-0.6c-0.3-0.5-0.3-1.1-0.2-1.7c0-0.4,0.1-0.8,0.4-1c0.3-0.2,0.7-0.2,1.1-0.1c1.6,0.4,3.4,0.8,4.5,2
			C52.7,339.8,54.1,340.6,54,342.5z"/>
		<path class="st20" d="M62.6,336.9c0.3-0.5,0.7-0.9,0.8-1.5s0.2-1.1,0-1.6c0-0.1-0.1-0.2-0.2-0.3c-0.2-0.1-0.4-0.1-0.6,0
			c-1.3,0.3-2.2,1.3-3.1,2.3c-0.3,0.4-0.7,0.8-0.9,1.3c-0.2,0.6-0.1,1.2,0.3,1.7s1,0.9,1.5,0.7C61.8,338.9,62.2,337.4,62.6,336.9z"
			/>
		<path class="st21" d="M67.8,344c0.2-0.4,0.2-0.9,0.2-1.3c0-0.2-0.1-0.4-0.2-0.5c-0.2-0.2-0.5-0.3-0.7-0.2s-0.5,0.2-0.7,0.3
			c-0.9,0.6-1.8,1.2-2.6,2c-0.3,0.3-0.6,0.6-0.8,1c-0.3,0.7-0.3,1.5,0.1,2.1s1.1,1,1.9,1c0.2,0,0.5,0,0.7-0.1
			c0.4-0.2,0.7-0.5,0.9-0.9c0.4-0.6,0.7-1.2,1-1.9C67.7,345.2,67.6,344.5,67.8,344z"/>
		<path class="st22" d="M70.8,335.1c-0.6,0.5-0.9,1.2-1,1.9c-0.2,1.2,0.1,2.5,0.7,3.6c0.2,0.4,0.5,0.7,0.8,0.9
			c0.5,0.2,1.1,0.1,1.5-0.2c0.4-0.3,0.7-0.8,0.8-1.3s0.2-1.1,0.2-1.6c0-0.6,0-1.2-0.2-1.7c-0.2-0.5-0.5-1.4-0.9-1.7
			C72.2,334.5,71.3,334.6,70.8,335.1z"/>
		<path class="st23" d="M75.3,343.5c-0.2,0-0.4,0.2-0.6,0.3c-0.7,0.6-1.3,1.3-1.8,2c-0.3,0.4-0.7,0.9-0.8,1.4
			c-0.1,0.5-0.1,1.2,0.3,1.5c0.2,0.2,0.5,0.3,0.8,0.2c0.2,0,0.3-0.1,0.4-0.2c1.1-0.8,2-2,2.6-3.2c0.2-0.4,0.3-0.9,0.1-1.3
			C76.2,343.9,75.8,343.5,75.3,343.5z"/>
		<path class="st24" d="M59.5,348.9c-0.3-0.2-0.8-0.3-1.1-0.2c-0.2,0.1-0.4,0.2-0.6,0.3c-1.4,0.9-2.5,2.3-3.1,3.9
			c-0.4,0.9-0.6,1.9-0.3,2.9c0.2,0.8,0.8,1.5,1.6,1.5c0.4,0,0.8-0.2,1.1-0.4c1.2-0.8,1.9-2.1,2.5-3.3c0.2-0.4,0.4-0.9,0.5-1.4
			c0.1-0.7,0-1.3,0-2C60,349.8,60,349.2,59.5,348.9z"/>
		<path class="st25" d="M45,345c-0.1,0-0.2,0-0.3,0c-0.1,0-0.2,0.1-0.3,0.2c-0.4,0.5-0.4,1.1-0.4,1.7c0,0.8,0.2,1.5,0.4,2.3
			c0.3,1.4,0.6,3,1.6,4.1c0.3,0.4,0.8,0.7,1.3,0.6c0.5-0.1,0.8-0.5,1-1c0.6-1.2,0.8-2.7,0.5-4c-0.2-1.1-0.7-2.3-1.6-3.1
			C46.6,345.2,45.9,345,45,345z"/>
		<path class="st22" d="M66.7,350.4c0.5-0.6,1.3-0.9,2-0.9c0.8,0,1.5,0.3,2.2,0.6c2.1,1,3.8,2.9,4.6,5c0.3,0.7,0.5,1.6-0.1,2.2
			c-0.3,0.3-0.8,0.5-1.2,0.5c-0.4,0-0.9-0.2-1.3-0.3c-1.8-0.7-3.7-1.7-5.3-2.9C66.6,353.7,65.8,351.7,66.7,350.4z"/>
	</g>
	<g id="Chocolate_8_00000012466736971294100550000014477489055920678838_">
		<g id="Chocolate_5_00000069392997510559786970000012561884128064777610_">
			<path class="st26" d="M66.1,317.4c0.2-2,0-4-0.6-5.9c0.8-0.4,2.2-1,3.1-1.4c8.2-3,16.2-7.1,23.6-10.8c1,3.4,2,7,2.3,10.5
				c-3.4,1.3-6.9,2.5-10.7,3.1C82,313.2,70.3,316.6,66.1,317.4z"/>
			<path class="st27" d="M96.1,313.9c0.3,1.7,0.4,3.5,0.3,5.2c-2.2,1.5-5.1,2.4-7.9,3.2c-2.1,0.6-4.3,1.3-6.4,1.9
				c-4.6,1.4-9.3,2.7-13.9,4.1c-0.2-1.8-0.4-3.7-0.6-5.5c0-0.3-0.1-0.6,0.2-0.8c0.2-0.2,0.6-0.3,0.9-0.4
				C76.8,319.7,95.1,314.3,96.1,313.9z"/>
			<path class="st28" d="M94.2,309.7c0.2,1.5,1,3.2,1.8,4.6l-28.5,8.6l-1.4-5.4L94.2,309.7z"/>
			<path class="st28" d="M96.7,319.6c0.6,0.8,0.7,2.5,0.5,3.4c-6.2,2.8-25.8,7.7-28,9.3c-0.7-1.1-1.1-2.3-1-3.6L96.7,319.6z"/>
			<path class="st26" d="M97.3,323.1c0.7,1.5,0.5,2,1.2,3.5c-3.5,2.3-7.8,3.1-12.1,4.6c-5.1,1.8-11.6,4.5-16.7,6.3
				c-0.9-1.6-0.4-3.1-0.5-4.9c0,0,0-0.1,0-0.1L97.3,323.1z"/>
			<path class="st29" d="M65.8,311.1c-10.3-6.2-22-11.2-33.6-16.2c0.1,2.5,0,5.1-0.2,7.6c11.2,5.4,22.5,10.7,34,15.7L65.8,311.1z"/>
			<path class="st30" d="M68.3,332.4c-12.2-4.3-23.5-8.4-34.7-13.9c0.1-1.7-0.2-3.9-0.4-5.6c3.5,1,14.9,6.2,17.8,7.9
				c7.7,4.5,8,2.8,16.4,7.7C68,329.7,67.9,331.2,68.3,332.4z"/>
			<path class="st30" d="M66.7,322.7c-7.2-2.4-14-5.3-20.4-8.6c-4.5-2.4-8.3-4.9-13.6-6.3c0.1-1.6,0.1-3.5-0.4-5.1
				c2.4,0.7,33.4,14,33.6,14.4C66.5,318.2,66.8,321.5,66.7,322.7z"/>
			<polygon class="st31" points="67.4,323.5 32,307.7 32.7,312.9 67.5,328 			"/>
			<path class="st29" d="M33.1,318.2c0.1,1.6,0.1,3.2,0.2,4.7c2.7,1.4,5.7,2.7,8.5,4.1c8.4,4.3,18.3,7.4,27.5,10.7l-0.2-5.1
				L33.1,318.2z"/>
			<path class="st32" d="M65.3,311.2c-6.6-5.1-30.9-15-33.8-17.1c5.3-1.5,10.9-2.5,16.4-3.8c5.4-1.3,10.9-3,15.1-5.8
				c10.1,4.3,18.7,10.3,29.3,14.1C89.5,301.8,70.4,309.2,65.3,311.2z"/>
		</g>
		<ellipse class="st33" cx="52.2" cy="291.4" rx="0.6" ry="0.4"/>
		<ellipse class="st33" cx="48" cy="294.9" rx="0.7" ry="0.4"/>
		<ellipse class="st33" cx="43.7" cy="293.7" rx="0.4" ry="0.2"/>
		<ellipse class="st33" cx="48.5" cy="298.2" rx="0.6" ry="0.3"/>
		<ellipse class="st33" cx="44.1" cy="295.9" rx="0.3" ry="0.3"/>
		<ellipse class="st33" cx="64.7" cy="288.1" rx="0.4" ry="0.2"/>
		<ellipse class="st33" cx="61.1" cy="289.2" rx="0.3" ry="0.3"/>
		<ellipse class="st33" cx="65.5" cy="290.7" rx="0.5" ry="0.5"/>
		<ellipse class="st33" cx="57.3" cy="290.5" rx="0.6" ry="0.2"/>
		<ellipse class="st33" cx="39.5" cy="294.7" rx="0.6" ry="0.2"/>
		<ellipse class="st33" cx="70.6" cy="291.1" rx="0.7" ry="0.3"/>
		<ellipse class="st33" cx="73.4" cy="293.6" rx="0.7" ry="0.3"/>
		<ellipse class="st33" cx="78.5" cy="294.7" rx="0.3" ry="0.2"/>
		<ellipse class="st33" cx="77.3" cy="296.9" rx="0.7" ry="0.3"/>
		<ellipse class="st33" cx="82.6" cy="297.6" rx="0.6" ry="0.3"/>
		<ellipse class="st33" cx="85.9" cy="299.4" rx="0.4" ry="0.3"/>
		<ellipse class="st33" cx="81.5" cy="301.1" rx="0.7" ry="0.5"/>
		<ellipse class="st33" cx="78.8" cy="299.3" rx="0.6" ry="0.3"/>
		<ellipse class="st33" cx="76.6" cy="301.2" rx="0.6" ry="0.3"/>
		<ellipse class="st33" cx="75.5" cy="303.3" rx="0.5" ry="0.3"/>
		<ellipse class="st33" cx="77.6" cy="303.4" rx="0.3" ry="0.3"/>
		<ellipse class="st33" cx="70.1" cy="305" rx="0.6" ry="0.4"/>
		<ellipse class="st33" cx="66.4" cy="307" rx="0.3" ry="0.3"/>
		<ellipse class="st33" cx="62.2" cy="304" rx="0.6" ry="0.3"/>
		<ellipse class="st33" cx="61" cy="305.7" rx="0.7" ry="0.4"/>
		<ellipse class="st33" cx="65.8" cy="304.9" rx="0.3" ry="0.2"/>
		<ellipse class="st33" cx="57.1" cy="303.2" rx="0.4" ry="0.3"/>
		<ellipse class="st33" cx="54.1" cy="301" rx="0.2" ry="0.2"/>
		<ellipse class="st33" cx="51.2" cy="300.7" rx="0.8" ry="0.5"/>
		<ellipse class="st33" cx="50.8" cy="296.2" rx="0.4" ry="0.3"/>
		<ellipse class="st33" cx="52.2" cy="293.7" rx="0.3" ry="0.2"/>
		<ellipse class="st33" cx="48.8" cy="292.6" rx="0.3" ry="0.2"/>
		<ellipse class="st33" cx="40.9" cy="296.8" rx="0.4" ry="0.3"/>
		<ellipse class="st33" cx="57.2" cy="293.3" rx="0.7" ry="0.5"/>
		<ellipse class="st33" cx="55.7" cy="295.6" rx="0.5" ry="0.4"/>
		<ellipse class="st33" cx="54.6" cy="297.5" rx="0.5" ry="0.3"/>
		<ellipse class="st33" cx="57.9" cy="299.5" rx="0.5" ry="0.4"/>
		<ellipse class="st33" cx="61" cy="292.5" rx="0.2" ry="0.1"/>
		<ellipse class="st33" cx="64.6" cy="295" rx="1" ry="0.6"/>
		<ellipse class="st33" cx="67.1" cy="293" rx="0.3" ry="0.2"/>
		<ellipse class="st33" cx="60" cy="295.7" rx="0.4" ry="0.1"/>
		<ellipse class="st33" cx="60.6" cy="298.3" rx="0.3" ry="0.3"/>
		<ellipse class="st33" cx="66.7" cy="298.7" rx="0.5" ry="0.4"/>
		<ellipse class="st33" cx="62.7" cy="300.9" rx="0.6" ry="0.5"/>
		<ellipse class="st33" cx="69.5" cy="295.2" rx="0.4" ry="0.3"/>
		<ellipse class="st33" cx="71" cy="296.6" rx="0.2" ry="0.1"/>
		<ellipse class="st33" cx="72.8" cy="298.8" rx="0.8" ry="0.5"/>
		<circle class="st33" cx="68.8" cy="301" r="0.3"/>
		<ellipse class="st33" cx="72.3" cy="301.8" rx="0.4" ry="0.3"/>
		<ellipse class="st33" cx="66.4" cy="303.1" rx="0.4" ry="0.2"/>
	</g>
	<g id="Chocolate_8">
		<path class="st34" d="M47.7,260.2c4.3,1.4,7.2,5.2,9.4,9.2c2.1,3.9,3.7,8.2,6.4,11.8c1.9,2.5,4.6,5,4.4,8.2c-0.1,1.6-1,3-1.5,4.6
			s-0.3,3.5,1.1,4.4c1.5,0.9,3.3-0.1,4.7-1c1.2-0.9,2.4-1.9,3.2-3.1c1.1-1.7,1.4-3.7,1.7-5.7c0.2-1.5,0.4-3,0-4.4
			c-0.3-1.1-1.1-2-1.8-2.9c-5.5-6.4-13.1-11.2-17-18.7c-1.6-3-2.4-6.3-3.8-9.4c-1.4-3.1-3.4-6.1-6.4-7.6c-1.3-0.6-2.7-1-4.1-0.7
			c-0.8,0.2-1.5,0.5-2.2,0.9c-3,1.7-7.8,5.3-5.7,9.3C38.3,259.3,43.8,258.9,47.7,260.2z"/>
		<path class="st35" d="M35.6,252.2c-2.9,3.7-3.8,8.7-3.4,13.4c0.4,4.7,2.1,9.2,4.1,13.4c1.3,2.8,2.7,5.6,4.5,8.1
			c3.4,4.7,8,8.6,13.3,11c4.2,1.9,9.4,2.9,13.3,0.4c-1.7-0.5-1.9-2.9-1.3-4.6c0.6-1.7,1.7-3.2,1.9-5c0.2-2.4-1.5-4.6-3.1-6.5
			c-2.3-2.9-4.4-5.9-6-9.3c-1.3-2.7-2.2-5.6-3.6-8.2c-1.5-2.6-3.7-5-6.6-5.8c-3.2-0.9-7.2,0.1-9.6-2.1
			C37.6,255.6,36.4,254.1,35.6,252.2z"/>
		<path class="st31" d="M38,260.7c0.1-0.4,0-0.8-0.2-1.2c-0.3-0.8-0.8-1.6-1.7-1.8c-0.4-0.1-0.8,0-0.9,0.3c-0.1,0.4,0.3,0.8,0.4,1.1
			c0.5,1-0.9,2.4-0.2,3.1C36.2,263,37.8,261.4,38,260.7z"/>
		<path class="st36" d="M37.3,268.6c-0.3-0.7-0.8-1.3-1.4-1.7c-0.4-0.3-0.9-0.6-0.9-1.1c0-0.4,0.3-0.8,0.7-0.9
			c0.8-0.3,1.7,0.1,2.3,0.6c0.9,0.7,1.5,1.7,1.5,2.8c0,1.1-0.6,2.2-1.7,2.6c-0.7,0.3-1.6,0.1-2.3,0c0.5-0.3,1-0.6,1.4-1
			c0.2-0.1,0.3-0.3,0.4-0.5S37.4,268.8,37.3,268.6z"/>
		<path class="st36" d="M43.9,267.7c0.9-0.3,1.9-0.8,2.5-1.5s1-1.8,0.7-2.8c-0.1-0.4-0.3-0.7-0.6-1c-0.3-0.4-0.6-0.8-1-1.1
			c-1.4-0.7-3,0.7-2.2,2c0.4,0.6,0.8,1.1,0.9,1.9C44.4,265.7,44.5,267.5,43.9,267.7z"/>
		<path class="st37" d="M41.3,282.5c0.5-0.1,1,0,1.5,0c1.1,0,2.2-0.6,2.9-1.6c0.6-0.9,0.7-2.2,0.2-3.2c-0.4-0.9-1.4-1.6-2.4-1.8
			c-1.3-0.2-1.2,0.8-0.8,1.7C43.4,279.3,42.9,281.4,41.3,282.5z"/>
		<path class="st38" d="M51.1,274.3c-0.3,1.3-1.2,2.4-2,3.5c0.6,0.1,1.3,0.1,1.9,0c0.8-0.1,1.6-0.4,2.1-1c0.5-0.5,0.8-1.3,0.9-2
			c0.4-2-0.2-4.2-1.9-5.3c-0.5-0.4-1.3-0.6-1.9-0.3c-0.6,0.3-0.7,0.8-0.4,1.3c0.4,0.5,0.9,0.8,1.1,1.4
			C51.3,272.7,51.3,273.5,51.1,274.3z"/>
		<path class="st39" d="M49,284.2c0.3,0.8,1,1.3,1.5,2c0.5,0.6,1,1.4,1.2,2.2s0.1,1.7-0.3,2.4c0.2-0.3,0.5-0.5,0.8-0.8
			c1.3-1.1,2.2-2.7,2.2-4.3s-0.8-3.4-2.3-4.2c-0.4-0.2-0.9-0.4-1.4-0.3C49.4,281.4,48.5,283,49,284.2z"/>
		<path class="st31" d="M56.6,297.5c1.8-0.1,3.4-1.6,4.1-3.3c0.4-1,0.6-2.2,0-3.1c-0.8-1.3-4.3-2.1-4.1,0.2c0.1,0.9,0.5,1.8,0.7,2.6
			C57.4,295.1,57,296.3,56.6,297.5z"/>
		<path class="st18" d="M59.3,283.9c0.1,1.2-0.1,2.3-0.6,3.4c0.9-0.5,1.8-1,2.4-1.8c0.6-0.8,0.8-1.8,1-2.7c0.1-0.4,0.1-0.9,0-1.3
			c-0.2-0.7-0.7-1.4-1.2-1.9c-0.4-0.4-0.9-0.7-1.5-0.8c-1.1-0.2-2.6,0.6-1.9,1.8c0.2,0.4,0.7,0.8,1,1.2
			C58.8,282.4,59.2,283.1,59.3,283.9z"/>
		<path class="st21" d="M41.3,292.9c0.9-0.3,1.9-0.8,2.5-1.5s1-1.8,0.7-2.8c-0.1-0.4-0.3-0.7-0.6-1c-0.3-0.4-0.6-0.8-1-1.1
			c-1.4-0.7-3,0.7-2.2,2c0.4,0.6,0.8,1.1,0.9,1.9C41.7,290.8,41.9,292.7,41.3,292.9z"/>
		<path class="st31" d="M30.1,277.3c0.5-1.8,2.3-2.9,4.1-3.3c1.1-0.2,2.3-0.1,3.1,0.7c1.1,1.1,1.2,4.6-1,3.9
			c-0.9-0.3-1.6-0.9-2.4-1.2C32.6,276.9,31.3,277.1,30.1,277.3z"/>
		<path class="st40" d="M48.4,300.1c0.5-0.1,1,0,1.5,0c1.1,0,2.2-0.6,2.9-1.6c0.6-0.9,0.7-2.2,0.2-3.2c-0.4-0.9-1.4-1.6-2.4-1.8
			c-1.3-0.2-1.2,0.8-0.8,1.7C50.4,296.9,50,299,48.4,300.1z"/>
		<path class="st41" d="M27.1,263.1c0.5-0.9,1.2-1.7,2-2.2c0.9-0.5,2-0.6,2.9-0.1c0.3,0.2,0.6,0.5,0.9,0.8c0.3,0.4,0.7,0.7,0.8,1.2
			c0.4,1.5-1.3,2.8-2.5,1.7c-0.5-0.5-0.9-1-1.6-1.3C29.3,263.1,27.5,262.6,27.1,263.1z"/>
		<path class="st42" d="M64,287.4c0.4,0,0.8,0.2,1.2,0.4c0.7,0.5,1.4,1.2,1.4,2c0,0.4-0.2,0.8-0.5,0.9c-0.4,0.1-0.7-0.4-1-0.7
			c-0.8-0.7-2.6,0.4-3.1-0.5C61.3,288.6,63.2,287.4,64,287.4z"/>
		<path class="st18" d="M60.7,300c0.3,0.8,1,1.3,1.5,2c0.5,0.6,1,1.4,1.2,2.2s0.1,1.7-0.3,2.4c0.2-0.3,0.5-0.5,0.8-0.8
			c1.3-1.1,2.2-2.7,2.2-4.3c0-1.7-0.8-3.4-2.3-4.2c-0.4-0.2-0.9-0.4-1.4-0.3C61,297.3,60.1,298.8,60.7,300z"/>
	</g>
	<g id="Chocolate_4">
		<path class="st33" d="M73,243.2c0.5-7.6-0.1-14.2-3.2-21.2c-1.4-3.2-4-5.3-6-6.6c-2.1-1.4-5.7-1.3-8.3-1.2c-3.2,0-6.6,0.2-9.5,1.8
			c-1.2,0.7-2.2,1.6-3.1,2.6c-5.1,5.4-7.2,14.6-5.4,21.7c4.7,1.9,9.7,2.4,14.8,2.7c2.4,0.2,4.8,0.3,7.2,0.5
			C64,243.9,68.6,243.9,73,243.2z"/>
		<path class="st5" d="M37.5,240.5c0.2,1.6,1.5,2.9,2.9,3.8c2.5,1.5,5.6,1.9,8.5,2.1c2.6,0.2,5.3,0.3,7.9,0.4
			c2.1,0.1,4.2,0.2,6.3,0.3c2.3,0.1,4.7,0.2,7-0.4c0.4-0.1,0.9-0.2,1.2-0.5c0.5-0.4,1-0.7,1.4-1.2s0.7-1.1,0.7-1.7
			c0,0-23.2,1.7-35.1-2.6L37.5,240.5z"/>
		<path class="st43" d="M39.3,224.4c0.4,1.3,2,1.9,3.4,1.8c1.4-0.1,2.7-0.7,4-0.9c0.3,0,0.7,0,1,0.1c0.9,0.3,1.3,1.4,1.2,2.3
			s-0.7,1.7-1.4,2.4s-1.4,1.2-2,2c-0.6,0.7-1,1.7-0.7,2.6c0.3,1.1,1.3,1.8,2.2,2.5c0.5,0.3,0.9,0.7,1.2,1.2c0.3,0.7,0,1.5-0.2,2.2
			c-0.2,0.7-0.3,1.6,0.2,2.1"/>
		<path class="st44" d="M44.4,217.7c-0.5,1-0.1,2.2,0.8,2.6c0.5,0.2,1.1,0.3,1.6,0.2c1.2-0.1,2.3-0.6,3.5-0.8
			c1.2-0.2,2.5-0.1,3.4,0.8c1,1,0.9,2.7,0,3.8c-0.5,0.7-1.2,1.2-1.6,1.9c-0.4,0.8-0.4,1.8-0.4,2.8c0,1.2,0.1,2.5,0.7,3.6
			c0.4,0.6,0.9,1.1,1.4,1.6c0.4,0.6,0.7,1.3,0.4,2c-0.3,0.7-1.1,1-1.4,1.7c-0.3,0.8,0.2,1.7,0.6,2.5c0.3,0.8,0.4,1.7,0.3,2.6"/>
		<path class="st14" d="M52.5,214.9c-0.1,0.7,0,1,0.4,1.6c0.4,0.6,1.1,0.9,1.8,1.1c1.2,0.3,2.4,0.5,3.6,0.7c0.7,0.1,1.6,0.3,1.9,1
			c0.4,0.8-0.2,1.7-0.7,2.4c-0.5,0.7-1,1.6-0.7,2.4c0.2,0.4,0.6,0.6,0.9,0.9c0.9,0.8,1.5,2,1.2,3.2c-0.2,0.6-0.6,1.2-1,1.7
			s-0.6,1.3-0.4,1.9c0.2,0.6,0.9,1,1.4,1.4c1.2,0.9,2,2.5,2,4c0,0.4-0.1,0.8-0.2,1.2c-0.3,0.6-0.9,1-1.4,1.6c-0.7,0.8-1.1,2-0.9,3.1
			"/>
		<path class="st45" d="M64.3,215.8c0.2,1.1,0.8,2,1.4,2.9c0.9,1.4,1.8,3,1.5,4.6c-0.2,0.8-0.6,1.4-1,2.1c-0.5,1-0.9,2.1-0.9,3.2
			c0,1.1,0.3,2.3,1,3.1c0.6,0.7,1.5,1.2,1.7,2.1c0.3,1-0.4,2.1-1,3c-0.6,0.9-1.2,2.1-0.7,3c0.3,0.6,1,0.9,1.4,1.4
			c0.5,0.5,0.7,1.3,0.6,2"/>
	</g>
	<g id="Chocolate_with_mint">
		<path class="st46" d="M23.2,178c8.7-3.1,17.5-6.2,26.2-9.3c1-0.4,2-0.7,3.1-0.8c1.2-0.1,2.4,0.2,3.6,0.5
			c13.6,3.4,26.5,9.2,38.1,17.2c-3.6,1.4-7.1,3.2-10.5,5.2c-13.9-0.8-27.9-1.6-41.9-2.1c-1,0-1.8-0.9-2.7-1.4
			C34.1,184,28.7,180.4,23.2,178z"/>
		<pattern  id="SVGID_1_" xlink:href="#New_Pattern_49" patternTransform="matrix(0 -0.24 0.24 0 -2636.8955 -9992.6436)">
		</pattern>
		<path class="st47" d="M39.5,171.1c0.9-0.7,2-1.1,2.9-1.7c1-0.6,1.8-1.4,2.2-2.5c0.1-0.5,0.2-1,0.2-1.5c0-1,0-2.1-0.1-3.1
			c0-0.8,0-1.8,0.7-2.2c0.8-0.4,1.6,0.2,2.2,0.9c2.2,2.6,3.1,5.9,3.6,9.2c0.3,2.1,0.4,4.4-0.7,6.2c-0.4,0.6-0.9,1.2-1.4,1.7
			c-1,1-2.2,1.8-3.5,1.9C41.6,180.3,34.6,174.6,39.5,171.1z"/>
		<path class="st39" d="M23,178.1c0,9.9,0,19.7-0.1,29.6c4.9,2.2,9.8,4,15.2,4.5c5.4,0.4,10.9,2,16.3,2.7c2.9,0.4,5.8,0.5,8.7,0.5
			c2.3,0.1,4.7,0.2,7,0.2c7.4,0,14.8-0.7,22.1-2.1c0.4-0.1,0.9-0.1,1.3-0.2c-0.2-2.3,0.2-24.3,1.1-27.5l-10.9,5l-41.7-2L23,178.1z"
			/>
		<g>
			<path class="st18" d="M41.3,189.2c-0.6,6.2-1.1,12.5-1.3,18.7c0,0.3,0,0.7,0.1,1c0.2,0.4,0.6,0.6,1,0.8c2.5,1.2,5.3,1.3,8,1.5
				c11.2,0.5,22.4,0.8,33.6,0.7c0.1-7,0.7-14.1,0.9-21.1L41.3,189.2z"/>
			<path class="st48" d="M49.2,192.1c-0.9-0.7-2.3-0.9-3.3-0.4s-1.8,1.6-1.9,2.8c0,0.5,0.1,1.1,0.5,1.5c0.4,0.3,0.9,0.4,1.3,0.3
				c1.1-0.1,2.3-0.6,3.1-1.4C49.6,194.1,50,192.7,49.2,192.1z"/>
			<path class="st48" d="M57.1,194.5c-1.4-0.4-3,0.5-3.4,1.8c-0.2,0.8-0.1,1.7,0.5,2.2c0.2,0.2,0.4,0.3,0.7,0.4
				c0.8,0.3,1.8,0.2,2.6-0.3s1.2-1.5,1-2.4C58.2,195.6,57.7,194.6,57.1,194.5z"/>
			<path class="st48" d="M49.4,201.1c-0.4-0.9-1-1.9-1.9-2.1c-0.8-0.2-1.7,0.2-2.1,0.8c-0.5,0.7-0.5,1.6-0.1,2.3
				c0.2,0.5,0.6,0.8,1,1.2c0.4,0.4,0.9,0.9,1.5,1.1c0.8,0.2,1.6-0.2,2.1-0.8C50.3,203,49.7,201.9,49.4,201.1z"/>
			<path class="st48" d="M64.2,194c0.1-0.3-0.1-0.7-0.3-0.9c-0.3-0.2-0.7-0.3-1-0.3c-0.4,0-0.8,0.1-1.1,0.3
				c-0.2,0.2-0.3,0.5-0.4,0.7c-0.6,1.5-0.9,3.1-0.3,4.6c0.2,0.6,0.7,1.2,1.3,1.2c0.5,0,1-0.3,1.3-0.7c0.5-0.6,0.9-1.4,0.8-2.2
				C64.4,195.9,64.4,194.7,64.2,194z"/>
			<path class="st48" d="M71.9,194.9c-0.4-0.5-1.2-0.4-1.8-0.1c-0.9,0.4-1.6,1.4-1.4,2.3c0.2,0.7,0.9,1.2,1.6,1.2
				c0.7,0,1.4-0.3,2-0.7C73.2,197.1,72.5,195.6,71.9,194.9z"/>
			<path class="st48" d="M79.5,195.1c-0.7-0.2-1.4-0.4-2,0c-0.2,0.1-0.3,0.3-0.4,0.5c-0.3,0.7-0.2,1.5,0.3,2.1
				c0.5,0.6,1.3,0.8,2,0.7c0.5-0.1,1-0.3,1.3-0.7c0.3-0.4,0.4-1,0.1-1.4C80.5,195.8,80,195.3,79.5,195.1z"/>
			<path class="st48" d="M66.8,199.8c-1.4,1-1.9,2.9-2.1,4.6c0,0.6-0.1,1.2,0.1,1.7c0.2,0.5,0.6,1,1.2,1.2c0.4,0.1,0.9-0.1,1.2-0.4
				c1-1,1-2.9,0.9-4.2C68.1,201.6,68.7,198.4,66.8,199.8z"/>
			<path class="st48" d="M76.7,201.2c0-0.8-0.7-1.5-1.5-1.6c-0.9-0.1-1.7,0.7-2.3,1.4c-0.4,0.6-0.8,1.3-1.1,2
				c-0.2,0.7-0.4,1.4-0.3,2.1c0.1,0.7,0.6,1.4,1.2,1.6c0.7,0.2,1.5-0.1,2-0.6s0.8-1.2,1.1-1.8C76.3,203.4,76.7,202.3,76.7,201.2z"/>
			<path class="st48" d="M58.3,203.1c-0.4-0.3-0.9-0.2-1.4-0.2c-0.1,0-0.3,0-0.4,0.1c-0.2,0.1-0.3,0.2-0.4,0.3
				c-0.5,0.6-0.6,1.5-0.2,2.1c0.4,0.7,1.1,1.1,1.9,1.1c0.5,0,1-0.2,1.2-0.7C59.3,205,59,203.5,58.3,203.1z"/>
			<path class="st48" d="M63.1,207.6c-0.5,0-0.9,0.4-1,0.9s0,0.9,0.3,1.3c0.2,0.3,0.5,0.5,0.8,0.5c0.4,0,0.7-0.3,0.8-0.6
				c0.1-0.3,0.1-0.7,0.1-1.1C64,208.1,63.5,207.5,63.1,207.6z"/>
			<path class="st48" d="M52.7,206.2c-0.1-0.1-0.2-0.2-0.3-0.3c-0.5-0.3-1.1,0.1-1.3,0.6c-0.3,0.6-0.1,1.4,0.3,1.9s1.2,0.7,1.8,0.5
				C54,208.5,53.2,206.8,52.7,206.2z"/>
			<path class="st48" d="M79.7,205.1c-0.6-0.1-1.3,0.2-1.7,0.7s-0.6,1.2-0.6,1.8c0,0.6,0,1.2,0.3,1.7c0.3,0.5,0.8,0.9,1.4,0.9
				c0.6,0,1.1-0.4,1.4-0.9c0.3-0.5,0.4-1.1,0.4-1.7C81,206.7,80.3,205.7,79.7,205.1z"/>
			<path class="st48" d="M44.9,205.8c-0.6-0.3-1.3,0.2-1.7,0.7c-0.4,0.6-0.5,1.4,0,1.9c0.3,0.3,0.7,0.3,1.1,0.2
				c0.4-0.1,0.7-0.4,0.8-0.8C45.7,207.5,45.5,206.1,44.9,205.8z"/>
		</g>
	</g>
	<g id="Chocolate_9">
		<g id="Chocolate_5">
			<path class="st26" d="M74.1,170.2c-0.1-1.7,0-3.4,0.4-5c-0.5-0.3-1.3-0.9-1.8-1.1c-4.8-2.5-9.6-5.9-14-9.1
				c-0.6,2.9-1.2,5.9-1.4,8.8c2,1.1,4.1,2.1,6.3,2.6C64.7,166.6,71.6,169.5,74.1,170.2z"/>
			<path class="st49" d="M56.4,167.3c-0.2,1.4-0.2,2.9-0.2,4.4c1.3,1.3,3,2,4.7,2.7c1.3,0.5,2.5,1.1,3.8,1.6
				c2.7,1.1,5.5,2.3,8.2,3.4c0.1-1.5,0.2-3.1,0.4-4.6c0-0.2,0-0.5-0.1-0.7c-0.1-0.2-0.3-0.3-0.6-0.3
				C67.8,172.1,56.9,167.6,56.4,167.3z"/>
			<path class="st35" d="M57,163.6c-0.1,1.3-0.4,2.5-0.8,3.7l17.1,7.5l0.8-4.5L57,163.6z"/>
			<path class="st35" d="M56,172c-0.4,0.7-0.8,1.8-0.7,2.5c3.6,2.4,15.6,6.8,16.9,8.1c0.4-0.9,0.6-2,0.6-3L56,172z"/>
			<path class="st26" d="M55.3,174.8c-0.1,0.8-0.2,1.6-0.3,2.4c2.1,1.9,4.6,3.4,7.1,4.7c3,1.5,6.9,3.8,9.9,5.3
				c-0.1-1.2-0.4-3.2,0.3-4.1L55.3,174.8z"/>
			<path class="st29" d="M74.3,164.9c6.1-5.2,13-9.4,19.9-13.6c-0.1,2.1,0,4.3,0.1,6.4c-6.6,4.6-13.3,9-20.1,13.3L74.3,164.9z"/>
			<path class="st50" d="M72.8,182.8c7.2-3.6,13.9-7.1,20.5-11.7c-0.1-1.4,0.1-3.3,0.2-4.7c-2.1,0.8-3.5,2.3-5.2,3.8
				c-4.6,3.8-9.6,7-15,9.4C73,180.5,73,181.8,72.8,182.8z"/>
			<path class="st50" d="M73.7,174.6c4.2-2,8.3-4.4,12.1-7.2c2.7-2,4.9-4.1,8-5.3c-0.1-1.3-0.1-3,0.2-4.3c-1.4,0.6-2.1,1.8-3.3,2.8
				c-4.8,4-10.1,7.4-15.8,10c-0.4,0-0.6,0.5-0.8,0.9C73.9,172.5,73.7,173.6,73.7,174.6z"/>
			<polygon class="st51" points="73.3,174.7 94.2,162 93.8,166.4 72.9,179.7 			"/>
			<path class="st29" d="M93.6,170.9c0,1.3-0.1,2.7-0.1,4c-1.6,1.2-3.4,2.2-5,3.4c-5,3.6-10.8,6.2-16.3,9l0.1-4.3L93.6,170.9z"/>
			<path class="st32" d="M74.5,165c3.9-4.3,18.3-12.6,20-14.4c-3.1-1.3-6.5-2.1-9.7-3.2c-3.2-1.1-6.5-2.5-8.9-4.9
				c-6,3.6-11.1,8.7-17.3,11.8C60.3,157.1,71.5,163.3,74.5,165z"/>
			<path class="st35" d="M71.1,151.1c-0.7,0.5-1.4,1.2-1.8,1.9s-0.6,1.7-0.4,2.6c0.3,1,1.1,1.7,2,2.1s2,0.4,2.9,0.4
				c2.1-0.1,4.1-0.7,6-1.8c1.8-1,2.1-2.1,1.6-4c-0.3-0.9-0.2-2.5-1.1-3.1c-1-0.9-3.3-0.4-4.5-0.2C74.1,149.4,72.5,150.1,71.1,151.1z
				"/>
			<path class="st52" d="M73.8,156.2c0.2,0,0.5,0,0.7-0.2c0.5-0.3,0.9-1.1,0.6-1.5c-0.9-1-2.3-2.7-3.7-0.9
				C70.2,155.2,72.4,156.3,73.8,156.2z"/>
		</g>
		<circle class="st33" cx="82.3" cy="148.3" r="0.3"/>
		<ellipse class="st33" cx="84.8" cy="151.2" rx="0.4" ry="0.3"/>
		<ellipse class="st33" cx="87.3" cy="150.3" rx="0.2" ry="0.2"/>
		<ellipse class="st33" cx="84.5" cy="154.1" rx="0.4" ry="0.2"/>
		<ellipse class="st33" cx="87.1" cy="152.1" rx="0.2" ry="0.2"/>
		<ellipse class="st33" cx="74.9" cy="145.5" rx="0.2" ry="0.2"/>
		<ellipse class="st33" cx="77" cy="146.4" rx="0.2" ry="0.3"/>
		<ellipse class="st33" cx="74.4" cy="147.7" rx="0.3" ry="0.4"/>
		<ellipse class="st33" cx="79.3" cy="147.6" rx="0.4" ry="0.2"/>
		<ellipse class="st33" cx="89.8" cy="151.1" rx="0.4" ry="0.2"/>
		<ellipse class="st33" cx="71.4" cy="148.1" rx="0.4" ry="0.3"/>
		<ellipse class="st33" cx="69.7" cy="150.2" rx="0.4" ry="0.3"/>
		<ellipse class="st33" cx="66.8" cy="151.1" rx="0.2" ry="0.2"/>
		<ellipse class="st33" cx="67.5" cy="153" rx="0.4" ry="0.3"/>
		<ellipse class="st33" cx="64.3" cy="153.5" rx="0.4" ry="0.2"/>
		<ellipse class="st33" cx="62.4" cy="155.1" rx="0.2" ry="0.3"/>
		<circle class="st33" cx="65" cy="156.5" r="0.4"/>
		<ellipse class="st33" cx="66.6" cy="155" rx="0.3" ry="0.2"/>
		<ellipse class="st33" cx="67.9" cy="156.5" rx="0.3" ry="0.2"/>
		<ellipse class="st33" cx="68.5" cy="158.3" rx="0.3" ry="0.3"/>
		<ellipse class="st33" cx="67.3" cy="158.4" rx="0.2" ry="0.3"/>
		<ellipse class="st33" cx="71.7" cy="159.8" rx="0.3" ry="0.4"/>
		<ellipse class="st33" cx="73.9" cy="161.4" rx="0.2" ry="0.2"/>
		<ellipse class="st33" cx="76.4" cy="158.9" rx="0.4" ry="0.2"/>
		<ellipse class="st33" cx="77.1" cy="160.4" rx="0.4" ry="0.3"/>
		<ellipse class="st33" cx="74.3" cy="159.6" rx="0.2" ry="0.2"/>
		<ellipse class="st33" cx="79.4" cy="158.3" rx="0.3" ry="0.2"/>
		<ellipse class="st33" cx="81.2" cy="156.4" rx="0.1" ry="0.2"/>
		<ellipse class="st33" cx="82.9" cy="156.1" rx="0.5" ry="0.4"/>
		<ellipse class="st33" cx="83.1" cy="152.4" rx="0.3" ry="0.2"/>
		<ellipse class="st33" cx="82.3" cy="150.2" rx="0.2" ry="0.2"/>
		<circle class="st33" cx="84.3" cy="149.3" r="0.2"/>
		<ellipse class="st33" cx="89" cy="152.9" rx="0.2" ry="0.2"/>
	</g>
	<g id="Chocolate_6">
		<path class="st17" d="M60.5,138.7c0.4,1.8,0.9,3.8,2.5,4.9c1.1,0.7,2.4,0.8,3.7,0.8c3.1,0,6.2-0.6,9.3-1.2c1.7-0.3,3.3-0.6,5-0.9
			c1.3-0.3,2.7-0.5,4-0.9c1.1-0.3,2.1-0.7,3.1-1.2c0.6-0.3,1.2-0.6,1.6-1.1c1.3-1.5,0.9-3.7,0.4-5.6c0,0-4.7,6.6-19.9,7.4
			c0,0-4.3,0.6-8.7-1.6L60.5,138.7z"/>
		<path class="st53" d="M90.6,132.1c1.8-5.8-0.1-15.4-4.7-19.4c-1.9-1.7-4.2-2.8-6.5-3.8c-2-0.9-4.2-1.7-6.4-1.7
			c-1.9,0.1-3.6,0.7-5.3,1.5c-2.2,1.1-4.3,2.4-6.2,3.9c-1.4,1.1-2.7,2.4-3.6,3.9c-0.8,1.3-1.3,2.7-1.7,4.1
			c-1.6,6.1-0.5,13.1,3.9,17.6c2.6,2.7,7.5,2.8,11.2,2.7c3.7-0.2,7.4-1.2,10.9-2.6C85.4,137,89.5,135.5,90.6,132.1z"/>
		<path class="st38" d="M70.4,109.8c0.9-0.3,1.7-0.6,2.6-0.6c0.9,0,1.9,0.3,2.4,1c0.7,0.9,0.6,2.1,0.1,3.1c-0.5,1-1.3,1.7-2.2,2.4
			c-0.3,0.2-0.6,0.4-0.9,0.2c-0.3-0.2-0.3-0.5-0.1-0.8c0.1-0.3,0.3-0.5,0.5-0.8c0.4-0.9-0.6-1.9-1.5-1.8c-0.9,0.1-1.7,0.9-1.9,1.9
			s0,1.9,0.2,2.8c0.1,0.4,0.2,0.7,0.4,1c0.3,0.4,0.7,0.6,1.2,0.8c2.3,0.8,5-0.1,6.6-1.9c1.6-1.8,2.1-4.4,1.6-6.8
			c-0.1-0.5-0.3-0.9-0.6-1.3c-0.3-0.3-0.7-0.4-1.1-0.6c-2.5-0.9-5.2-1.6-7.7-0.8c-1.6,0.5-3,1.5-4.3,2.4c-1.3,1-2.6,1.9-4,2.9
			c-0.7,0.5-1.5,1.1-1.9,1.8c-0.5,0.8-0.7,1.7-0.8,2.6c-0.4,2.4-0.6,4.9,0,7.3c0.6,2.4,2.1,4.6,4.3,5.6c2.1,1,4.6,0.7,6.9,0.3
			c1.7-0.2,3.4-0.5,5.1-1c1.1-0.4,2.2-0.9,3.2-1.4c3.7-1.9,7.3-4.4,9.7-7.8c0.5-0.6,0.9-1.3,1.1-2.1s0-1.6-0.5-2.2
			c-0.1-0.1-0.1-0.1-0.2-0.2c-0.3-0.1-0.5,0.2-0.7,0.4c-2,2.7-3.7,5.9-6.7,7.5c-1.1,0.6-2.4,1-3.6,1.4c-3,0.9-6.2,1.8-9.3,1.4
			c-0.7-0.1-1.5-0.3-2.1-0.7c-1-0.7-1.6-1.8-2-2.9c-0.7-1.7-1.3-3.5-1.3-5.3c0-1.8,0.7-3.7,2.2-4.8
			C66.7,111.8,68.5,110.4,70.4,109.8z"/>
		<ellipse class="st54" cx="65.5" cy="116.2" rx="0.6" ry="0.4"/>
		<ellipse class="st54" cx="57.4" cy="123" rx="0.4" ry="0.4"/>
		<circle class="st54" cx="57.8" cy="119" r="0.4"/>
		<ellipse class="st54" cx="65.1" cy="119" rx="0.4" ry="0.3"/>
		<ellipse class="st54" cx="68" cy="113" rx="0.4" ry="0.3"/>
		<ellipse class="st54" cx="72.5" cy="110.5" rx="0.7" ry="0.4"/>
		<ellipse class="st54" cx="73.9" cy="112.6" rx="0.4" ry="0.3"/>
		<ellipse class="st54" cx="68.1" cy="118.2" rx="0.4" ry="0.4"/>
		<ellipse class="st54" cx="65.8" cy="122.4" rx="0.5" ry="0.4"/>
		<circle class="st54" cx="69.9" cy="120.6" r="0.3"/>
		<ellipse class="st54" cx="72.3" cy="123.1" rx="0.6" ry="0.4"/>
		<ellipse class="st54" cx="78.8" cy="118.4" rx="0.5" ry="0.3"/>
		<circle class="st54" cx="78.1" cy="121" r="0.3"/>
		<ellipse class="st54" cx="76.8" cy="123.3" rx="0.4" ry="0.3"/>
		<circle class="st54" cx="80.9" cy="111.8" r="0.4"/>
		<ellipse class="st54" cx="83.3" cy="113.1" rx="0.5" ry="0.3"/>
		<ellipse class="st54" cx="81" cy="113.4" rx="0.2" ry="0.3"/>
		<circle class="st54" cx="80.4" cy="116" r="0.5"/>
		<ellipse class="st54" cx="83" cy="116.1" rx="0.5" ry="0.4"/>
		<ellipse class="st54" cx="85.4" cy="113.8" rx="0.5" ry="0.3"/>
		<circle class="st54" cx="74" cy="120.9" r="0.5"/>
		<ellipse class="st54" cx="82.1" cy="120.1" rx="0.6" ry="0.4"/>
		<circle class="st54" cx="85.9" cy="117" r="0.4"/>
		<ellipse class="st54" cx="82.2" cy="118.2" rx="0.3" ry="0.3"/>
		<ellipse class="st54" cx="68.7" cy="124.4" rx="0.3" ry="0.3"/>
		<circle class="st54" cx="55.9" cy="127" r="0.3"/>
		<ellipse class="st54" cx="59.5" cy="128.6" rx="0.4" ry="0.4"/>
		<ellipse class="st54" cx="71.8" cy="125.7" rx="0.3" ry="0.3"/>
		<ellipse class="st54" cx="80.5" cy="122.8" rx="0.3" ry="0.3"/>
		<ellipse class="st54" cx="86.5" cy="124.7" rx="0.5" ry="0.3"/>
		<ellipse class="st54" cx="89.5" cy="121.7" rx="0.3" ry="0.3"/>
		<ellipse class="st54" cx="62.4" cy="133.7" rx="0.4" ry="0.4"/>
		<circle class="st54" cx="77.6" cy="133.2" r="0.4"/>
		<circle class="st54" cx="84" cy="128.7" r="0.4"/>
		<circle class="st54" cx="70.1" cy="131.9" r="0.4"/>
		<ellipse class="st54" cx="88" cy="130.3" rx="0.3" ry="0.3"/>
		<ellipse class="st54" cx="63.9" cy="137.7" rx="0.3" ry="0.4"/>
		<ellipse class="st54" cx="73.9" cy="137" rx="0.4" ry="0.4"/>
	</g>
	<g id="Chocolate_8_00000118383158091806741790000007355154167640963770_">
		<path class="st17" d="M58.5,101.9c3.7,2.5,8.6,2.5,13,1.7s8.7-2.2,13.2-2.2c3.2,0,6.8,0.5,9.1-1.6c1.2-1.1,1.8-2.7,2.7-4
			s2.6-2.4,4.1-1.9c1.6,0.6,2,2.6,2.1,4.3c0.1,1.5,0,3.1-0.5,4.5c-0.7,1.9-2.1,3.4-3.5,4.8c-1,1.1-2.1,2.1-3.5,2.7
			c-1.1,0.4-2.2,0.4-3.4,0.4c-8.5-0.3-16.9-3.4-25.2-1.8c-3.3,0.6-6.5,2-9.7,2.8c-3.3,0.8-6.9,1.1-9.9-0.4c-1.3-0.6-2.5-1.6-3.1-2.8
			c-0.3-0.7-0.5-1.5-0.6-2.3c-0.5-3.4-0.6-9.4,3.8-10.2C52,95,55,99.6,58.5,101.9z"/>
		<path class="st32" d="M44.7,97.3c1.1-4.6,4.5-8.4,8.4-10.9s8.5-4,13.1-5.1c3-0.7,6.1-1.3,9.2-1.4c5.8-0.3,11.7,1,16.8,3.6
			c4.1,2.1,8.1,5.6,8.5,10.2c-1.5-1-3.5,0.4-4.4,1.8s-1.4,3.3-2.7,4.5c-1.8,1.7-4.5,1.6-7,1.6c-3.7,0-7.4,0.2-11,1
			c-2.9,0.7-5.7,1.7-8.7,2.2c-3,0.4-6.2,0.2-8.6-1.6c-2.7-2-4.3-5.7-7.6-6.2C48.6,96.8,46.7,96.8,44.7,97.3z"/>
		<path class="st31" d="M52.9,93.9c-0.3,0.3-0.7,0.5-1.1,0.6c-0.8,0.2-1.8,0.3-2.4-0.2c-0.3-0.2-0.5-0.6-0.3-0.9
			c0.2-0.4,0.8-0.3,1.2-0.4c1.1-0.2,1.3-2.2,2.4-2.1C53.6,91.1,53.4,93.3,52.9,93.9z"/>
		<path class="st36" d="M58.7,88.5c-0.7,0.2-1.5,0.2-2.2,0c-0.5-0.1-1.1-0.3-1.5,0c-0.3,0.2-0.4,0.7-0.3,1.1
			c0.3,0.8,1.1,1.3,1.9,1.5c1.1,0.3,2.3,0.1,3.1-0.6c0.9-0.7,1.4-1.9,1-2.9c-0.2-0.7-0.8-1.3-1.4-1.8c0.1,0.6,0.1,1.2,0.1,1.7
			c0,0.2,0,0.4-0.1,0.6C59.2,88.2,58.9,88.4,58.7,88.5z"/>
		<path class="st36" d="M62.1,94.3c0.3,0.9,0.5,2,0.3,2.9c-0.2,1-0.8,1.9-1.8,2.3c-0.4,0.1-0.8,0.2-1.1,0.2c-0.5,0-1,0.1-1.5-0.1
			c-1.4-0.6-1.3-2.8,0.2-3c0.7-0.1,1.4-0.1,2-0.4C60.8,95.9,62.3,94.9,62.1,94.3z"/>
		<path class="st37" d="M72,83.1c0.2,0.5,0.6,0.8,0.9,1.2c0.7,0.9,0.9,2.1,0.5,3.2c-0.4,1.1-1.3,1.9-2.4,2.2c-1,0.2-2.1-0.1-2.9-0.8
			c-1-0.9-0.1-1.5,0.8-1.7C70.8,86.7,72.2,85,72,83.1z"/>
		<path class="st38" d="M71.7,95.9c0.8-1.1,1.2-2.4,1.5-3.7c0.5,0.4,0.9,0.9,1.2,1.4c0.4,0.7,0.6,1.5,0.5,2.3
			c-0.1,0.7-0.5,1.4-1,1.9c-1.3,1.5-3.5,2.5-5.4,1.8c-0.6-0.2-1.3-0.6-1.4-1.3c-0.1-0.6,0.2-1.1,0.8-1.1c0.6,0,1.2,0.2,1.8,0
			C70.5,97,71.2,96.5,71.7,95.9z"/>
		<path class="st39" d="M78.2,88.1c0.8-0.2,1.6-0.1,2.5,0c0.8,0,1.7-0.1,2.5-0.4c0.8-0.3,1.4-1,1.7-1.7c-0.1,0.3-0.1,0.7-0.1,1.1
			c0,1.7-0.7,3.4-2,4.4c-1.3,1.1-3.2,1.4-4.7,0.8c-0.4-0.2-0.9-0.5-1.1-0.9C76.3,90.1,76.9,88.4,78.2,88.1z"/>
		<path class="st31" d="M93.3,85.8c1.1,1.5,0.8,3.7-0.1,5.3c-0.5,0.9-1.4,1.8-2.5,1.9c-1.5,0.1-4.3-2-2.4-3.3
			c0.8-0.5,1.7-0.7,2.5-1.1C91.9,88,92.6,86.9,93.3,85.8z"/>
		<path class="st18" d="M84.3,96.3c1-0.6,1.8-1.5,2.3-2.6c0.1,1,0.3,2,0,3c-0.3,0.9-0.9,1.8-1.6,2.4c-0.3,0.3-0.7,0.6-1.1,0.8
			c-0.7,0.3-1.5,0.3-2.2,0.2c-0.6-0.1-1.1-0.3-1.5-0.7c-0.8-0.7-1.1-2.4,0.3-2.7c0.5-0.1,1.1,0.1,1.6,0.1
			C82.8,96.9,83.6,96.7,84.3,96.3z"/>
		<path class="st28" d="M80.2,76.6c0.3,0.9,0.5,2,0.3,2.9c-0.2,1-0.8,1.9-1.8,2.3c-0.4,0.1-0.8,0.2-1.1,0.2c-0.5,0-1,0.1-1.5-0.1
			c-1.4-0.6-1.3-2.8,0.2-3c0.7-0.1,1.4-0.1,2-0.4C78.9,78.3,80.4,77.2,80.2,76.6z"/>
		<path class="st31" d="M61,77.5c-1.1,1.5-0.9,3.6,0,5.3c0.5,1,1.3,1.9,2.4,2c1.5,0.2,4.4-1.9,2.4-3.2c-0.7-0.5-1.7-0.7-2.5-1.2
			C62.3,79.7,61.6,78.5,61,77.5z"/>
		<path class="st30" d="M90.3,77.8c0.2,0.5,0.6,0.8,0.9,1.2c0.7,0.9,0.9,2.1,0.5,3.2c-0.4,1.1-1.3,1.9-2.4,2.2
			c-1,0.2-2.1-0.1-2.9-0.8c-1-0.9-0.1-1.5,0.8-1.7C89.1,81.4,90.4,79.7,90.3,77.8z"/>
		<path class="st41" d="M48.1,83.9c-0.4,0.9-0.6,1.9-0.4,2.9c0.2,1,0.8,1.9,1.7,2.3c0.4,0.1,0.7,0.2,1.1,0.2c0.5,0,1,0.1,1.5-0.1
			c1.5-0.6,1.4-2.7-0.2-3c-0.7-0.1-1.4-0.1-2-0.5C49.3,85.6,47.8,84.5,48.1,83.9z"/>
		<path class="st42" d="M89.9,97.9c0.3,0.3,0.7,0.5,1.1,0.6c0.8,0.3,1.8,0.4,2.5-0.1c0.3-0.2,0.5-0.6,0.4-0.9
			c-0.2-0.4-0.7-0.3-1.2-0.4c-1.1-0.2-1.3-2.3-2.3-2.1C89.3,95,89.4,97.3,89.9,97.9z"/>
		<path class="st28" d="M97.8,87.5c0.8-0.2,1.6-0.1,2.5,0c0.8,0,1.7-0.1,2.5-0.4c0.8-0.3,1.4-1,1.7-1.7c-0.1,0.3-0.1,0.7-0.1,1.1
			c0,1.7-0.7,3.4-2,4.4c-1.3,1.1-3.2,1.4-4.7,0.8c-0.4-0.2-0.9-0.5-1.1-0.9C95.9,89.5,96.5,87.8,97.8,87.5z"/>
	</g>
</g>
<g>
	<g>
		
			<pattern  id="SVGID_00000115483678444512801990000017454232672480522666_" xlink:href="#New_Pattern_45" patternTransform="matrix(0.2313 0 0 0.2313 -3412.4509 -5938.2534)">
		</pattern>
		
			<path style="fill:url(#SVGID_00000115483678444512801990000017454232672480522666_);stroke:#F8B1B8;stroke-width:3;stroke-miterlimit:10;" d="
			M169.1,260.8c1.1,30.9-5.3,61.6-5.1,92.6c0,0.7,0,1.4,0.3,2c0.4,0.8,1.2,1.2,2,1.6c3.9,1.7,8.3,1.8,12.6,1.8
			c26.9,0,53.8,0,80.7-0.1c0.3-30.6,1-61.2,2.2-91.7c-1.8-1.8-3.7-3.5-6-4.6c-2.1-1-4.4-1.5-6.7-1.8c-10.5-1.4-21.1-1-31.7-1.6
			c-14.2-0.8-28.5-3.4-42.7-2.2c-1.4,0.1-2.7,0.2-3.9,0.8C169.6,258.3,169.1,259.4,169.1,260.8z"/>
		<path class="st56" d="M277.8,263.6c0.6,9.6,0.5,61.2,0.2,77.5c0,2.4-0.1,5-1.3,7.1c-0.7,1.2-1.6,2.1-2.6,3
			c-4,3.6-8.9,6.1-14.2,7.4l1.8-91.7l15-3.3L277.8,263.6z"/>
		<path class="st57" d="M266.5,300.9c7-1.6,13.2-5.9,20.1-7.8c-0.1-0.4-0.3-0.9-0.4-1.3c-0.2-0.6-0.4-1.2-0.3-1.8
			c0.1-0.6,0.6-1.2,1.2-1.2c0.6,0,1.2,0.8,0.7,1.3c0.4-0.9,1.4-1.8,2.1-2.5c0.2-0.3,0.5-0.5,0.8-0.6c0.7-0.2,1.3,0.5,1.4,1.2
			c0.1,0.7-0.2,1.4-0.6,2c1-0.3,2-0.7,3-0.5c1,0.2,2,1.1,1.8,2.2c-0.1,0.7-0.8,1.3-1.6,1.4c-0.7,0.2-1.5,0.1-2.2-0.1
			c0.9-0.2,1.9,0.6,2,1.6c0.1,0.9-0.7,1.9-1.7,2c-0.9,0.1-1.9-0.5-2.2-1.4c-0.1,0.9-0.3,2.1-1.2,2.4c-0.7,0.3-1.5-0.1-1.9-0.7
			c-0.4-0.6-0.6-1.3-0.8-2c-0.5,0.1-1.1,0.3-1.7,0.5c-2,0.6-4,1.3-5.9,2.1c-0.7,0.3-1.3,0.6-1.9,0.9c-0.9,0.4-1.8,0.7-2.7,1.1
			c-2.7,1-5.4,2-8.1,3C266.6,302.2,266.4,300.9,266.5,300.9z"/>
		<path class="st57" d="M167.5,300.8c-0.7-0.9-1.7-1.5-2.7-2c-4.7-2.7-8.9-6.3-12.9-9.9c-0.4-0.3-0.7-0.6-1.2-0.8
			c-0.9-0.4-1.9-0.1-2.8,0c-1,0.1-1.9,0.1-2.9,0c-0.6-0.1-1.4-0.4-1.2-1c0.1-0.2,0.2-0.3,0.3-0.5c0.6-0.5,1.3-0.9,2-1.1
			c-0.9-0.5-1.6-1.2-2.2-2.1c-0.2-0.2-0.3-0.5-0.3-0.8c0-0.3,0.4-0.6,0.7-0.7c0.8-0.3,1.7,0.1,2.1,0.8c-0.2-0.8-0.4-1.7-0.1-2.5
			s1.2-1.5,2-1.1c0.9,0.4,0.9,1.7,0.7,2.7c0.1-0.6,0.3-1.2,0.7-1.7c0.4-0.5,1.1-0.8,1.7-0.5c0.8,0.4,0.8,1.5,0.6,2.4
			c0.3-0.5,1-0.7,1.5-0.6c0.5,0.2,1,0.7,1,1.3c0,0.7-0.5,1.3-1,1.8c-0.5,0.6-1.1,1.1-1.6,1.7c3.3,4,7.5,7,11.7,9.9
			c1.4,1,2.8,1.9,4.3,2.6C167.6,299.3,167.6,300,167.5,300.8z"/>
		<path class="st57" d="M187.2,358.7c0.3,4.7,0.3,9.4,0.1,14c-2,1.2-4.6,1.4-6.8,0.6c-0.6-0.2-1.4-0.7-1.4-1.4c0-0.4,0.2-0.7,0.4-1
			c1.4-1.6,3.8-2.3,5.8-1.6c-0.3-3.5-0.4-7.1-0.3-10.7C185.9,358.7,186.4,358.7,187.2,358.7z"/>
		<path class="st57" d="M245.1,358.6c-0.3,5.8-0.3,11.5-0.4,17.3c0,0.1,0,0.2,0,0.3c0.1,0.1,0.2,0.2,0.3,0.2
			c0.9,0.3,1.9,0.5,2.9,0.7c1.1,0.1,2.4,0.1,3-0.8c0.4-0.5,0.5-1.2,0.3-1.8s-0.6-1.1-1-1.5c-0.2-0.2-0.5-0.4-0.8-0.4
			c-0.6-0.2-1.2,0-1.8,0.3s-1,0.8-1.4,1.2c-0.2-1.9-0.4-3.7-0.4-5.6c0-1.2,0.1-2.4,0.2-3.6c0.1-2.1,0.3-4.2,0.4-6.3
			C246.1,358.6,245.6,358.6,245.1,358.6z"/>
	</g>
	<g>
		<path class="st58" d="M174.2,141.5c0,0,12.8-6.3,42-4.8l-6.4,7.8c-10.1,0.4-20.1,0.9-30.2,1.8
			C178.2,145.6,174.4,142.3,174.2,141.5z"/>
		<path class="st58" d="M211.1,161.9c1.1,0.9,2.1,1.8,3,2.9c0.2,0.2,0.4,0.4,0.6,0.6c0.2,0.1,0.4,0.2,0.6,0.3
			c0.6,0.3,1.1,0.8,1.5,1.3l-0.5-30.3l-6.4,7.8C210,150.1,211,156.3,211.1,161.9z"/>
		<path class="st28" d="M179.6,146.4c0.3,2.9,0.3,5.8,0.1,8.6c-0.1,0.9-0.2,1.8-0.2,2.7c-0.1,2.2-0.1,4.4,0,6.6
			c3.3,0.7,6.7-1.1,10.1-1.2c1,0,2.1,0.1,3.1,0c0.9,0,1.8-0.2,2.7-0.2c1,0,2.1,0.1,3.1,0.1c1.3,0,2.5-0.1,3.8-0.3c3-0.4,6-0.7,9-1.1
			c0.7-5.7-1.5-11.4-1-17.1c-7.8-0.2-15.5,0.5-23.3,1.2C184.3,145.8,182.1,146,179.6,146.4z"/>
		<path class="st27" d="M216.3,136.5c0.7,1,2,1.5,3.1,2.1c1.3,0.7,2.4,1.8,3.8,2.4c0.2,2-0.3,4.1-0.5,6.1c-0.2,1.6-0.1,3.2-0.1,4.8
			c0.1,2.8,0.1,5.6,0.2,8.3c0,0.3,0,0.7-0.1,1c-0.1,0.2-0.2,0.4-0.4,0.6c-1.6,1.9-3.3,3.7-5.1,5.3L216.3,136.5z"/>
		<path class="st27" d="M260.5,168l-43.3-0.9c1.8-1.3,3.4-2.9,4.7-4.6c0.2-0.2,0.3-0.4,0.6-0.6c0.2-0.1,0.4-0.1,0.6-0.2
			c3.3-0.3,6.7-0.4,10-0.4c1.2,0,2.4,0,3.6-0.1c6.2-0.1,12.4-0.2,18.6-0.1c0.3,0.5,0.7,0.8,1.1,1.2c2,1.6,3.5,3.9,5.7,5.3L260.5,168
			z"/>
		<path class="st59" d="M256.6,144.9c0,3.9-0.2,7.7-0.4,11.5c-0.1,1.6-0.2,3.3-0.5,4.9l6.5,6.5c-0.1-2.1,0.1-12.9,0-14
			c0-0.9,0.2-11.8,0.3-14.1c-0.7,0.9-1.6,1.8-2.4,2.5C259.1,143.3,257.9,144.2,256.6,144.9z"/>
		<path class="st59" d="M223.3,141.3c4.9,0.4,9.9,0.3,14.7,1.2c0.6,0.1,1.3,0.3,1.9,0.4c0.9,0.2,1.9,0.3,2.8,0.3
			c4.5,0.4,9.1,0.9,13.6,1.3c2.2-1.6,4.3-3.4,6.3-5.2c-3.1-0.3-6.1-0.6-9.2-0.9c-3.3-0.3-6.7-0.6-10-0.9c-5-0.4-10-0.6-15-0.6
			c-4.1,0-8.2,0.4-12.2-0.6L223.3,141.3z"/>
		<path class="st36" d="M173.9,169.8c2.3,1,4.4,2.6,6,4.6c0.2,0.2,0.4,0.5,0.7,0.6c0.3,0.1,0.6,0.1,0.9,0.1c3,0,6,0,9.1-0.1
			c5.8-0.2,11.6-0.4,17.4-0.7c0.3,0,0.6,0,0.9-0.2c0.3-0.1,0.5-0.4,0.8-0.6c2-2.2,4.4-4.5,7.1-5.8c0,0-17.2-1.3-42,1.6L173.9,169.8z
			"/>
		<path class="st42" d="M180.8,175.4c-0.2,6.7-0.3,13.5-0.5,20.2c0,0.1,0,0.3-0.1,0.4c0,0.1-0.1,0.2-0.2,0.3c-2,2-4.2,3.8-6.6,5.3
			c-0.2-1.7,0.1-3.3,0.2-5c0.1-1.3,0.1-2.6,0.1-3.9c0-1.1,0-2.1,0.1-3.2c0.1-4.3,0.1-8.5,0.1-12.8c0-2.2-0.1-4.4-0.2-6.6
			c0.5,0.3,1.1,0.6,1.6,0.9c0.7,0.5,1.5,1,2.2,1.5C178.8,173.3,180,174.2,180.8,175.4z"/>
		<path class="st36" d="M216.7,167.7c-0.5,3.2-0.5,6.5-0.5,9.7c0,1.8,0,3.6,0,5.4c0,4.7,0,9.3-0.6,13.9c-0.1,1-0.3,2-0.2,3
			c-1.4-1.9-3-3.7-4.7-5.4c-0.2-0.2-0.3-0.3-0.4-0.6c-0.1-0.3-0.1-0.6-0.1-0.9c-0.1-4.3-0.2-8.7-0.3-13c0-2-0.1-3.9-0.6-5.8
			c1.8-2.2,4-4.2,6.4-5.8C216,168,216.4,167.9,216.7,167.7z"/>
		<path class="st42" d="M180.6,195.8c1.8-0.1,3.6-0.1,5.3,0.1c1.1,0.1,2.2,0.2,3.3,0.2c1,0,1.9-0.2,2.9-0.3c2.9-0.4,5.9-0.7,8.8-0.8
			c3.2-0.1,6.6,0.2,9.6-0.8c1.6,1.9,3.3,3.7,5,5.4c-2.9,0.1-5.8,0.2-8.6,0.3c-2.9,0.1-5.9,0.1-8.8,0.2c-8.5,0.3-16.1,0.6-24.5,1.6
			C176.7,199.4,177.4,198.2,180.6,195.8z"/>
		<path class="st17" d="M181,175.3c-0.4,6.7-0.7,13.4-0.8,20.1c0,0.1,0,0.2,0.1,0.3c0.1,0.1,0.2,0.1,0.3,0.1c0.7,0,1.4,0,2.1,0
			c1.7,0,3.3,0,5,0.1c1.6,0,3.1,0,4.7,0c6,0,12-0.6,17.9-1.5c-0.1-3-0.1-6.1-0.1-9.1c-0.1-3.6-0.1-7.3-0.6-10.9
			C203.3,174.4,182.7,174.4,181,175.3z"/>
		<path class="st60" d="M217,167.4c0.9,0.5,1.5,1.2,2.2,1.9c1.1,1.2,2.4,2.3,3.7,3.2c0.5,6.5-0.8,13.1-1,19.7
			c-2.1,2.6-4.1,5.1-6.4,7.5L217,167.4z"/>
		<path class="st61" d="M223.3,172.6c6,0.3,11.9,0.6,17.9,0.2c0.6,0,1.2-0.1,1.8,0c0.7,0.1,1.4,0.2,2,0.3c1.7,0.3,3.4,0.2,5.2,0.1
			c2.7-0.2,5.4-0.3,8.1-0.5c1.5-1.4,2.9-2.9,4.2-4.4l-45.1-0.7L223.3,172.6z"/>
		<path class="st61" d="M258.1,172.9c-0.1,6.8-0.6,10.9-1.6,17.7c0,0.3,0.4,3.3,0.5,3.5c0.1,0.2,0.3,0.4,0.4,0.5
			c2,1.8,3.8,3.7,5.5,5.7c0.1-3.1,0.1-6.1,0.2-9.2c0.1-6.3,0.1-21.5-0.4-22.6L258.1,172.9z"/>
		<path class="st60" d="M221.9,192.5c2.2,0.3,4.5,0.1,6.8,0c9.4-0.4,18.8,0.1,28.2,0.7c0.4,1.3,1.4,2.2,2.3,3.2
			c1.2,1.2,2.3,2.4,3.5,3.5l-47.2-0.2L221.9,192.5z"/>
		<path class="st32" d="M222.8,172.5c0.6,6.3-0.2,12.7-1,18.9c0,0.2,0,0.5,0.1,0.7c0.1,0.1,0.4,0.2,0.6,0.2c3,0.1,5.9,0.2,8.9,0.3
			c0.6,0,1.2,0,1.8,0.1c2.9,0.1,5.8,0.2,8.7,0.3c1.5,0,2.9,0.1,4.4,0.1c3.5,0.1,7,0.2,10.5,0.3c0-1.3,0-2.6,0-4c0-1.5,0-3,0.2-4.5
			c0.2-1.5,0.6-3,0.8-4.6c0.3-2.4,0.2-4.9,0.2-7.3L222.8,172.5z"/>
		<path class="st31" d="M262.6,139.2c4.3,2,8.5,4,12.8,6.1c0,8.7-0.1,17.3-0.1,26c-4.3-0.9-8.5-1.8-12.8-2.9L262.6,139.2z"/>
		<path class="st7" d="M263.2,200.1c4,2.2,8.2,3.9,12.6,5.3c-0.8-7.7,0.5-15.6-0.4-23.3c-0.4-3.4-0.3-6.9-0.4-10.4l-12.4-3.3
			L263.2,200.1z"/>
		<path class="st59" d="M173.3,201.8c2.5,1.5,4.9,2.9,7.4,4.4c9.6-0.4,19.2-0.5,28.8-0.5c2.1-2.1,4.3-4.1,6.7-5.9
			c0,0-36.8,0.2-41.6,1.8L173.3,201.8z"/>
		<path class="st27" d="M173,202c0.6,3.6-0.6,7.2-0.8,10.9c-0.2,4.2,0.9,8.4,0.2,12.5c2.5-1.4,4.8-2.9,7-4.8c0.7-3,1.8-12.4,1.4-14
			L173,202z"/>
		<path class="st27" d="M172.4,225.2c3,0.1,6-0.2,8.9-0.4c11-0.9,22.1-1.1,33.2-1.3c-1.9-1.4-3.8-2.8-5.7-4.2
			c-9.8,0.2-19.6,0.6-29.5,1.2L172.4,225.2z"/>
		<path class="st59" d="M209.5,205.7c-0.3,2.3-0.8,4.5-1.1,6.8s-0.3,4.6,0.3,6.8c2.3,1.4,4.3,2.7,6.4,4.3
			c-0.6-5.1-0.5-10.1-0.1-15.2c0.1-1.9,0.2-3.8,0.7-5.7c0.2-0.9,0.5-1.8,0.3-2.7L209.5,205.7z"/>
		<path class="st34" d="M180.7,206.4c0.6,4.7-0.7,9.4-1.2,14.1c5.8-0.7,11.6-0.5,17.4-0.7c3.7-0.1,7.4-0.3,11.1-0.7
			c-0.1-1.7-0.2-3.5-0.2-5.2c0-0.9-0.1-1.8,0.1-2.7c0.1-0.8,0.4-1.5,0.6-2.3c0.3-1,0.4-2,0.5-3L180.7,206.4z"/>
		<path class="st37" d="M216.3,199.8c2.3,1.6,4.5,3.3,6.6,5.2c-0.2,3.6,0,7.1,0.1,10.7c0,0.6,0,1.1,0.1,1.7c0,0.3,0,0.6-0.1,0.8
			c-0.1,0.2-0.3,0.3-0.5,0.5c-2.3,1.6-4.7,3.2-7,4.8c0,0-0.9-10.6-0.6-13.3s0.8-8.9,1.1-9.3S216.3,199.8,216.3,199.8z"/>
		<path class="st37" d="M215.1,223.5l7.3-4.9c1,0,9.1,0.4,10.7,0.4c6.6,0,13.2,0,19.8,0.5c0.4,0,0.9,0.1,1.3,0.2
			c0.4,0.1,0.7,0.3,1.1,0.5c2.2,1.4,4.5,2.7,6.7,4.1c-5.6,0-11.3,0.1-17-0.1c-1.7,0-3.5-0.1-5.2-0.1c-5.3-0.1-10.6-0.2-16-0.6
			C222.7,223.5,216.8,223.5,215.1,223.5z"/>
		<path class="st38" d="M223.1,204.8c9.8-0.8,19.6,0.8,29.5,0.9c1.2,0,2.4,0,3.5-0.5c0.6-0.3,1.2-0.7,1.7-1.2c1.5-1.3,3-2.5,4.5-3.8
			l-46-0.5c2,1.4,4.1,2.9,6,4.6C222.5,204.6,222.9,204.8,223.1,204.8z"/>
		<path class="st38" d="M254.6,205.7c0.1,4.6-0.2,9.3-0.8,13.9c0.6,0.1,1.3,0.5,1.8,0.9c2,1.5,4.1,3.1,6.5,4l1.1-24.4L254.6,205.7z"
			/>
		<polygon class="st8" points="223.1,204.8 222.9,218.1 253.8,219.6 254.6,205.7 		"/>
		<polygon class="st34" points="223.3,141.3 256.3,144.6 255.7,161.3 223.1,161.8 		"/>
		<path class="st62" d="M263.2,200.1l12.6,5.3c0.1,3.7,0.2,7.7,0.2,11.4c0,0.8,0,1.5,0.2,2.3c0.1,0.7,0.3,1.4,0.5,2.1
			c0.5,2.5,0.2,5.1-0.1,7.6c-2.9-0.7-6-1.2-8.9-2c-0.9-0.3-5.4-1.6-5.6-1.9L263.2,200.1z"/>
		<path class="st60" d="M172.1,225.4c2.4,1,4.5,2.6,6.1,4.6c0.2,0.2,0.4,0.5,0.5,0.8c0,0.2,0,0.5,0,0.7c-0.4,3.2-0.5,6.5-0.2,9.7
			c-2-1.1-4.4-1.4-6.6-0.9C171.7,236.6,171.7,225.9,172.1,225.4z"/>
		<path class="st61" d="M178.7,231c9.9-0.1,19.7-0.9,29.5-0.2c0.1-0.4,0.4-0.9,0.7-1.3c1.9-2,3.9-4,5.9-5.8l-41.8,1.5
			c0,0,3.5,2.4,5.1,4.7L178.7,231z"/>
		<path class="st61" d="M208.3,231.3c0,2.5,0.1,5,0.1,7.4c0,0.2,0,0.4,0.1,0.6c0.2,0.3,0.5,0.4,0.8,0.4c1.8,0.4,3.8,0.3,5.6-0.2
			c-0.4-4.9,0.3-10.6,0-15.5c-0.8,0.6-2.5,1.8-3.1,2.6C210.4,228,209.3,229.6,208.3,231.3z"/>
		<path class="st32" d="M178.7,241.3c1.5,0.8,3.4,1,5,0.4c1.3-0.4,2.4-1.3,3.8-1.3c0.9,0,1.9,0.4,2.8,0.5c2.1,0.2,4-1,5.8-2.2
			c1.8-1.2,3.7-2.4,5.8-2.1c2.5,0.3,4.5,2.6,7,2.5c0-2.7,0-5.4,0.1-8.1c-2.2,0-4.5-0.3-6.7-0.6c-0.9-0.1-4.5-0.1-5.3,0
			c-3.9,0.6-7.8-0.1-11.7,0.4c-2.2,0.3-4.4,1-6.5,0.4C177.9,233.5,177.8,240.8,178.7,241.3z"/>
		<path class="st63" d="M214.9,224c1.4,1.8,3.2,3.4,5.1,4.8c0.5,0.4,1.1,0.8,1.3,1.3c0.1,0.4,0.1,0.7,0.1,1.1
			c-0.2,2.8-0.3,5.6-0.5,8.5c-1-0.2-1.9,0.7-2.9,1c-1.1,0.3-3.1,0.1-3-1.1C215.3,234.7,214.1,225.7,214.9,224z"/>
		<path class="st64" d="M261.9,224.9c-0.4,0.4-0.9,0.7-1.3,1.1c-0.5,0.4-0.9,0.8-1.4,1.2c-1.1,1.1-2.1,3-3.7,3.1
			c-1.5,0.1-3,0.1-4.6,0c-1-0.1-2-0.2-3-0.3c-0.9-0.1-1.8-0.1-2.8-0.1c-7.9-0.1-15.8-0.2-23.7,0.2l-7-6.6l46.7,0.9l0.7-0.1
			L261.9,224.9z"/>
		<path class="st64" d="M256.1,230.5c-0.8,4.6,0.3,9.3-0.1,13.9c0.7,0.1,1.5-0.2,2.2-0.1c0.6,0.1,1.1,0.6,1.7,1
			c0.5,0.4,1.2,0.7,1.8,0.4c0-1.1,0-2.3,0-3.4c0-3.9,0-7.8,0-11.7c0-1.8,0-3.6,0.3-5.4C260.3,226.1,256.2,229.7,256.1,230.5z"/>
		<path class="st53" d="M220.8,240c0.5-0.2,1.1-0.1,1.6,0.2c0.5,0.2,1,0.6,1.5,0.8c1.7,0.8,3.6,0.1,5.4-0.5c1.7-0.6,3.7-1.3,5.4-0.6
			c1,0.4,1.7,1.2,2.5,1.8c0.8,0.7,1.8,1.3,2.8,1.2c1.3-0.1,2.3-1.3,3.5-1.7c1.5-0.5,3.2,0.2,4.5,1.2c0.4,0.3,0.8,0.7,1.3,0.9
			c1.2,0.6,2.6,0.1,3.9,0.2c1,0,2.1,0.4,2.9,1.1c0.1-1.7,0.2-3.5,0.1-5.2c0-1-0.1-2.1-0.2-3.1c-0.1-2-0.1-4,0.1-6l-34.7-0.2
			L220.8,240z"/>
		<path class="st65" d="M261.9,245.7c0.9,0.2,1.6,0.7,2.2,1.4c0.3,0.3,0.6,0.7,1,0.9c0.4,0.2,0.8,0.1,1.2,0.1
			c2.2-0.2,4.3-0.9,6.4-1.6c1.4-0.5,3-1.1,3.6-2.4l0.1-15.4l-14.6-3.8L261.9,245.7z"/>
		<path class="st66" d="M174.2,141.5l-0.3,28c0,0,4-4.7,5.8-5.3l0-17.9c0,0-4.2-2.4-4.8-3.8C174.3,141.2,174.2,141.5,174.2,141.5z"
			/>
		<path class="st30" d="M179.2,164.1c3.2,0,7.2-0.6,10.3-1c7.3-0.9,14.8,0.2,22-1.4c1.8,1.8,2.8,3.6,4.9,5c-0.2,0.4,0,0.6-0.5,0.6
			c-11.5-0.2-39.7,1.2-42.2,2.2C176,167.6,177.1,166,179.2,164.1z"/>
	</g>
	<g>
		<path class="st67" d="M265.3,248.9c0.6,0.5,0.4,1.6-0.1,2.3c-0.5,0.7-1.1,1.3-1.3,2.1c-0.2,0.9,0.4,1.8,0.2,2.7
			c-0.3,1.2-1.7,1.7-2.3,2.8c-0.7,1.2-0.2,2.8,0.3,4.2c0.4,1.4,0.7,3.1-0.4,4c-1.4-1.5-3.6-2.3-5.7-2.1c-0.9,0.1-1.9,0.4-2.8,0.3
			c-2-0.1-3.9-1.6-5.8-1.1c-1.3,0.3-2.4,1.5-3.7,1.6c-2.2,0.1-3.9-2.7-6-2.1c-1.3,0.4-2,1.9-3.3,2.3c-1.9,0.5-3.4-1.8-5.3-2.4
			c-2.6-0.8-5.3,1.7-7.8,0.8c-0.8-0.3-1.4-0.8-2.2-1.1c-1.8-0.6-3.7,0.7-5.5,0.5c-1.1-0.2-2.1-0.9-3.2-1c-1.1-0.1-2.2,0.2-3.2-0.2
			c-0.6-0.3-0.9-0.8-1.5-1.1c-0.6-0.3-1.2-0.4-1.9-0.5c-2.9-0.3-5.7-0.7-8.6-1c-0.7-0.1-1.5-0.2-2.2,0.1c-1.2,0.5-1.7,2-2.8,2.8
			c-1.4,1.1-3.7,0.5-4.5-1.1c-0.2-0.5-0.4-1.2-0.9-1.5c-0.3-0.1-0.5-0.2-0.8-0.2c-2.4-0.2-4.8-0.3-7.2-0.5c-1.6-0.1-3.2-0.2-4.7,0.3
			c-1.1,0.4-2.2,1.2-3.4,1.3c-1.2,0.2-2.7-0.6-2.6-1.8c0.1-0.6,0.5-1.2,0.6-1.8c0.1-1.2-1.3-2.2-1.2-3.5c0.1-0.7,0.6-1.2,0.9-1.8
			c0.8-1.9-1.2-4.4,0.1-6c0.4-0.5,1-0.8,1.5-1.1c1.8-1.1,3.1-2.9,3.6-5c3.4-1.7,7.3,2.3,11.1,1.8c1.8-0.2,3.3-1.3,5.1-1.5
			c1.1-0.1,2.1,0.2,3.2,0.1c3.3-0.1,6-2.7,9.2-3.1c1.5-0.2,3,0.2,4.4,0.5c2.5,0.6,3.2,1.8,5.7,2.3c1,0.2,4-0.1,5,0.2
			c0.7,0.2,1.3,0.4,2,0.4c1.2,0,2.2-0.5,3.4-0.7c2.3-0.4,4.6,0.8,6.9,0.6c2.3-0.1,4.4-1.5,6.6-1c1.9,0.4,3.4,2.2,5.4,2.4
			c2,0.2,3.9-1.3,5.9-1.1c1.9,0.2,3.3,1.8,5.2,2c1,0.1,2-0.2,3-0.1c0.8,0,1.7,1.1,2.4,1.4c2.3,0.8,4.6,0.8,6.9,1.5
			c0.3,0.1,0.7,0.2,0.9,0.5c0.2,0.3,0.3,0.7,0.4,1C264.6,247.9,264.8,248.5,265.3,248.9z"/>
		<path class="st68" d="M171.3,253.3c0.4-0.7,0.8-1.4,1.3-2c0.6-1,1.3-2,2.4-2.2c1.6-0.4,3,1.1,4.5,1.6c1.9,0.6,4.1-0.6,4.7-2.5
			c0.1-0.4,0.2-0.8,0.4-1c0.3-0.4,0.8-0.4,1.3-0.4c0.9,0,1.9,0,2.8,0.2"/>
		<path class="st69" d="M214.6,249.9c1-1.5,3.4-1.1,4.9-0.1s3,2.3,4.8,2.3c1.3,0,2.4-0.7,3.6-1.2c2.3-1,5-1.4,7.5-0.9
			c0.6,0.1,1.2,0.3,1.8,0.1c0.5-0.1,0.9-0.4,1.4-0.7c2.3-1.5,5.1-2,7.8-1.6"/>
		<path class="st70" d="M252.2,252.7c0.5,1.2,0.7,2.6,0.5,3.9c0,0.2-0.1,0.5,0.1,0.7c0.1,0.2,0.4,0.2,0.6,0.2
			c1.1,0.1,2.3,0.1,3.2-0.5c0.8-0.6,1.3-1.5,2.2-2.1c0.7-0.4,1.4-0.5,2.2-0.7c0.7-0.2,1.5-0.6,1.8-1.3"/>
		<path class="st70" d="M196.8,246.9c1.5-0.1,2.9-0.1,4.4,0.1c0.4,0.1,0.8,0.1,1.1,0.4c1,0.9-0.1,2.7,0.7,3.8
			c0.7,0.9,2.1,0.5,3.2,0.8c0.8,0.3,1.4,1,1.5,1.8c0.1,0.5,0,0.9,0.1,1.4c0.4,1.1,1.8,1.1,3,1"/>
		<path class="st71" d="M265,267.7c0.8,0.8,1.9,1.6,2.9,1.1c0.3-1.5,1.7-2.6,3.2-2.6c0.7,0,1.4,0.2,2.2,0.3c0.7,0.1,1.5-0.1,2-0.6
			c0.3-0.4,0.4-0.9,0.7-1.3c0.4-0.5,1-0.8,1.7-0.7c0.5-0.8,1-1.9,0.5-2.7c-0.2-0.3-0.4-0.5-0.7-0.7c-0.9-1-0.9-2.7,0-3.7
			c0.2-0.2,0.3-0.3,0.4-0.5c0.5-0.8-0.5-1.7-0.8-2.5c-0.4-1,0.2-2.1,0.4-3.1c0.2-1.1,0.1-2.2,0-3.3c-0.1-1.1-0.3-2.2-1.1-2.9
			c-1,1.2-2.6,1.8-4.2,2.3c-2.4,0.7-4.7,1.3-7.2,1.8c0.3,1,0.2,2.1-0.2,3.1c-0.4,0.8-1.2,1.6-1.2,2.5c0,0.8,0.5,1.6,0.3,2.4
			c-0.3,0.9-1.3,1.2-2,1.9c-1,1.1-0.6,2.7-0.2,4.1c0.2,0.6,0.4,1.1,0.4,1.7c0.1,0.5-0.2,1.5-0.1,1.9
			C262.5,266.9,264.3,267.1,265,267.7z"/>
		<path class="st68" d="M273.8,250.5c-1.1,0.5-1.7,1.8-1.4,3c0.3,1,1.1,1.7,1.2,2.7c0.2,1.3-0.7,2.4-1.5,3.5
			c-0.7,1.1-1.3,2.6-0.4,3.6"/>
	</g>
	<g>
		<path class="st72" d="M188,288.6c-1.4-0.4-3,0.1-3.8,1.3c-0.8,1.2-0.5,3,0.7,3.8c0.4,0.2,0.8,0.4,1.2,0.4c0.8,0.1,1.7,0.1,2.4-0.3
			s1.3-1.2,1.2-2.1C189.6,290.5,189.1,288.9,188,288.6z"/>
		<path class="st72" d="M242.1,297.3c0.6,0.2,1.2,0.2,1.8,0.2c3.5-0.1,3.4-4.9,0.3-5.6c-1.4-0.3-3.3,0.2-3.7,1.7
			C240,295.1,240.7,296.8,242.1,297.3z"/>
		<path class="st73" d="M217,303.8c-0.6,1-1.8,2.3-2.7,3c-0.3,0.3-0.7,0.5-1.1,0.7c-0.6,0.2-1.1,0.2-1.7,0.2c-1,0-2.1,0-3.1-0.3
			c-1.7-0.5-3.2-1.9-3.8-3.7c-0.2-0.8-0.1-1.8,0.4-2.5s1.1-1.1,1.8-1.6c0.9-0.6,1.9-1.1,2.9-1.3c1.2-0.2,2.4,0.1,3.6,0.4
			c1.1,0.3,2.3,0.6,3,1.5C217,301.2,217.6,302.8,217,303.8z"/>
		<path class="st74" d="M190.8,303c-0.5-0.9-1.5-1.4-2.4-1.7c-1.7-0.5-3.6-0.6-5.4-0.2c-1.1,0.2-2.3,0.7-2.5,1.8
			c-0.2,0.9,0.3,1.9,1.1,2.4c0.8,0.5,1.7,0.7,2.7,0.7c2.1,0.2,4.4,0.1,6.2-0.9C191.2,304.7,191.2,303.7,190.8,303z"/>
		<path class="st74" d="M237.3,304c-0.9,0.4-1.8,1-2.1,1.9c-0.3,1,0.3,2.1,1.1,2.6c0.8,0.6,1.9,0.8,2.9,0.8c1.4,0.1,2.9,0,4.3-0.4
			c2.1-0.5,4.7-3,2-4.5C243,303.1,240,302.9,237.3,304z"/>
		<path class="st7" d="M207.6,302.2c-23.4,5.5-45.6,15.7-65,29.9c-2.6,1.9-7.6,5.8-4.9,7.5c1.7,1.1,3.7-1.4,5.5-2.4
			c1.6,1.4-2.6,3.5-1.9,5.5c0.5,1.4,2.7,0.9,3.7-0.2s1.6-2.8,3.1-3.2c1.6,1.1,1.4,3.7,0.3,5.2c-1.1,1.6-2.9,2.5-4.5,3.6
			c-1.6,1-4.4,2.4-3.7,4.3c1.5,4.1,9.2,1.3,11.2-2.6c0.9-1.6,1.1-3.5,1.7-5.2c0.6-1.7,1.8-3.4,3.5-3.9c1.8-0.4,3.9,1.3,3.3,3
			c-0.4,1.2-4.5,0.9-2,3.2c1.5,1.4,3.8-1.7,4.7-3.6c0.9-1.9,1.1-4,1.9-5.9c1.6-3.9,5.1-6.8,8.4-9.4c12.5-9.7,39.9-15.5,40.7-24
			C213.7,302.7,209.4,301.8,207.6,302.2z"/>
		<path class="st7" d="M134,343.6c-0.8,0.6-1.6,1.3-2,2.3c-0.1,0.4-0.2,0.9,0.1,1.2c0.2,0.2,0.5,0.3,0.8,0.3c0.3,0,0.6-0.1,0.9-0.3
			c1-0.5,2.3-1.5,2.6-2.6C136.8,343,134.8,343,134,343.6z"/>
		<path class="st7" d="M135.7,349.5c-0.4,0-0.7,0.1-1,0.4c-0.4,0.4-0.3,1.1,0.1,1.5c0.4,0.3,1.2,0.2,1.5-0.3
			c0.3-0.5,0.1-1.2-0.3-1.5L135.7,349.5z"/>
		<path class="st7" d="M151.5,353.3c-0.4,0.6-0.6,1.3-1,1.9c-0.8,1.2-2.2,1.8-3.3,2.6c-1,0.8-1.8,1.8-2.4,3c-0.1,0.3-0.3,0.7-0.2,1
			c0.1,0.6,0.8,0.9,1.4,0.9c0.6-0.1,1.1-0.4,1.6-0.8c1-0.8,1.9-1.6,2.7-2.6c0.6-0.7,1.1-1.5,1.7-2.1c1.2-1.2,2.7-2,3.8-3.3
			c0.3-0.3,0.5-0.7,0.4-1.1c-0.1-0.9-1.5-1.5-2.3-1.2C153.2,351.6,152.1,352.5,151.5,353.3z"/>
	</g>
	<path class="st75" d="M176.2,214.2c-0.2-0.3-0.5-0.6-0.5-0.9c-0.1-0.4,0-0.8,0.4-1c0.2-0.1,0.5-0.1,0.7-0.3c0.4-0.4,0-1.2,0.3-1.6
		c0.2-0.4,0.9-0.4,0.9-0.9c0-0.3-0.3-0.5-0.6-0.7c-1-0.5-2.1-0.7-3.2-0.7c-0.2,0-0.3,0-0.5,0.1c-0.2,0.1-0.3,0.2-0.4,0.4
		c-1,1.5-0.6,3.7,0.8,4.7C174.6,213.8,175.4,214.1,176.2,214.2z"/>
	<path class="st76" d="M205.1,215.7c-0.5,0.6-1.3,0.8-2.1,0.9c-1.5,0.1-2.9,0.4-3.4-1.2c-0.3-1.1,0.2-2.2,1.1-2.9
		C203.1,210.9,207.3,212.9,205.1,215.7z"/>
	<path class="st77" d="M184.2,214.2c0.3-0.4,0.5-0.9,0.5-1.4c0.8,0.2,1.8,0,2.4-0.6c0.3-0.3,0.6-0.8,1-0.9c0.4-0.1,0.8,0.1,1.1,0
		c0.6-0.1,0.9-0.8,1.5-1.1c0.5-0.3,1.2-0.2,1.8-0.2c-0.3-0.9-1.3-1.5-2.3-1.7c-1-0.2-2,0-2.9,0.3c-1.3,0.4-2.5,1-3.4,2
		C183,211.6,183.9,212.9,184.2,214.2z"/>
	<path class="st75" d="M204.2,203.8c0.3,0.2,0.5,0.5,0.8,0.4c0.2,0,0.3-0.2,0.5-0.3c0.8-0.7,2.2-0.6,3,0.1c0.7-0.5,0.6-1.6,0.1-2.2
		c-0.6-0.6-1.4-0.9-2.2-1c-1.7-0.3-3.5-0.3-5.3,0.1c-1.2,0.2-4.4,1.5-2.1,2.6C200.5,204.3,203,203,204.2,203.8z"/>
	<path class="st78" d="M182.5,223.7c0.1-0.5,0-1.1-0.1-1.6c0.8,0.3,1.6,0.6,2.5,0.9c0.1,0,0.2,0.1,0.4,0.1c0.2,0,0.3-0.2,0.4-0.4
		c0.5-0.7,1.7-0.6,2.1,0.1c0.1,0.1,0.1,0.3,0.3,0.4c0.2,0.2,0.6,0,0.8-0.1c0.5-0.3,1-0.7,1.6-0.7c0.6-0.1,1.2,0.3,1.3,0.9
		c0.1,0.8-0.1,1.7-0.3,2.4s-0.7,1.4-1.4,1.8c-0.5,0.3-1,0.3-1.5,0.4c-1.3,0.1-2.7-0.2-3.9-0.8C183.4,226.4,182.4,225,182.5,223.7z"
		/>
	<path class="st75" d="M210.8,218.4c0-0.6-0.4-1.3-1-1.5c0.4-0.1,0.6-0.5,0.6-0.9c0-0.4-0.3-0.8-0.6-0.9c0.4-0.1,0.8-0.3,1.1-0.5
		c-0.1-0.3-0.1-0.5-0.2-0.8c0.6-0.4,1.5-0.1,1.8,0.5c0.1,0.3,0.1,0.6,0.1,0.9c0,1.2-0.3,2.7-1.4,3.2"/>
	<path class="st7" d="M210.1,141.6c0.4-1.6-0.5-3.3-1.9-4.2s-3-1.3-4.6-1.5c-3-0.4-6.1-0.6-9.1,0.2c-1.8,0.5-4.7,1.7-5.3,3.7
		c-0.7,2.4,1.3,2.8,3.1,2.7c3-0.2,6-0.3,8.9-0.5C202.1,142,210,141.9,210.1,141.6z"/>
	<path class="st7" d="M185,150.9c0.6,0.8,1.6,1.2,2.6,1.3c0.4,0.4,0,1,0,1.6c0.1,1.4,2.7,1.5,2.8,2.9c0,0.3-0.1,0.6,0,0.9
		c0.1,0.6,0.8,0.9,1.3,1.2s1.2,0.7,1.1,1.4c-0.8,0.1-1.5,0.2-2.4,0.2c-1.1,0-2.3,0-3.3-0.4c-1.5-0.7-2.5-2.2-2.9-3.8
		S184.6,152.6,185,150.9z"/>
	<path class="st79" d="M200.2,164.8c0.5-0.4,0.9-0.7,1.4-1.1c0.1-0.1,0.3-0.2,0.4-0.2c0.5-0.1,0.8,0.4,1.3,0.6
		c0.7,0.4,1.6,0.1,2.5-0.1c0.8-0.2,2,0,2.1,0.8c1-0.3,1.7-1.3,2.7-1.4c0.5,0,1,0.2,1.3,0.6c0.1,1.6,0.2,3.2-0.9,4.4
		c-1.1,1.2-3,1.2-4.6,1c-1.3-0.2-2.7-0.5-3.8-1.1S200.7,166.1,200.2,164.8z"/>
	<path class="st80" d="M222.1,176.8c-2.7-0.1-5,2.1-5.1,4.8c-0.1,2.7,2.1,5,4.8,5.1c0-0.6-0.3-1.1-0.1-1.6c0.1-0.1,0.2-0.2,0.2-0.4
		c0.3-0.7-0.4-1.6,0-2.1c0.1-0.1,0.3-0.2,0.3-0.4c0.1-0.2-0.1-0.4-0.2-0.6c-0.3-0.5-0.3-1.2,0.1-1.6c0.1-0.1,0.2-0.2,0.2-0.3
		c0.1-0.4-0.4-0.7-0.4-1C222.3,178.1,222.1,177.5,222.1,176.8z"/>
	<path class="st80" d="M254.3,189.2c0-2.7-2.2-4.8-4.8-4.8c-2.7,0-4.8,2.2-4.8,4.8c0.2-0.4,0.9-0.2,1.2,0c0.4,0.2,0.6,0.6,1,0.8
		c0.1-0.2,0.3-0.5,0.5-0.6c0.2-0.2,0.5-0.2,0.8-0.1c0.1,0.1,0.2,0.2,0.3,0.3c0.3,0.4,0.5,0.9,0.8,1.3c0.7-0.6,1.7-0.7,2.5-0.2
		c0.1,0.1,0.3,0.2,0.4,0.2c0.1,0,0.2-0.1,0.3-0.2C253,190.2,253.8,189.6,254.3,189.2z"/>
	<path class="st60" d="M218.8,230.2c-2.3,0.1-4.1,2-4,4.3c0.1,2.3,2,4.1,4.3,4c-0.3-0.1-0.2-0.8,0-1.1c0.2-0.3,0.5-0.5,0.6-0.9
		c-0.2-0.1-0.4-0.2-0.6-0.4c-0.1-0.2-0.2-0.5-0.1-0.7c0.1-0.1,0.2-0.2,0.3-0.3c0.4-0.2,0.7-0.5,1.1-0.7c-0.5-0.5-0.7-1.4-0.3-2.1
		c0.1-0.1,0.1-0.2,0.1-0.4c0-0.1-0.1-0.2-0.2-0.2C219.8,231.3,219.2,230.6,218.8,230.2z"/>
	<path class="st80" d="M265.8,181.3c0.9,0.3,1.8,0.4,2.8,0.2c2.6-0.6,4.3-3.2,3.7-5.8s-3.2-4.3-5.8-3.7c-1,0.2-1.8,0.7-2.5,1.4
		c0.1,0.4,0.4,0.8,0.4,1.2c0,0.3-0.2,0.6-0.2,0.9c0,0.5,0.6,0.7,0.9,1.1c0,0.1,0.1,0.1,0.1,0.2c0,0.1-0.1,0.2-0.1,0.3
		c-0.2,0.2-0.3,0.4-0.5,0.7c0,0-0.1,0.1,0,0.1c0,0.1,0.1,0.1,0.1,0.1c0.3,0.3,0.7,0.5,1,0.8C265.3,179.5,265.4,180.6,265.8,181.3z"
		/>
	<path class="st81" d="M264.6,240.6c0.6,0.5,1.4,0.8,2.3,0.8c2.3,0.1,4.2-1.6,4.4-3.9c0.1-2.3-1.6-4.2-3.9-4.4
		c-0.9,0-1.7,0.2-2.4,0.6c0,0.3,0.1,0.7,0.1,1.1c0,0.3-0.3,0.4-0.4,0.7c-0.1,0.4,0.3,0.7,0.5,1.1c0,0.1,0,0.1,0,0.2
		c0,0.1-0.1,0.2-0.2,0.2c-0.2,0.1-0.4,0.3-0.5,0.4c0,0-0.1,0.1-0.1,0.1c0,0,0,0.1,0,0.1c0.2,0.3,0.4,0.6,0.7,0.9
		C264.6,239,264.5,240,264.6,240.6z"/>
	<path class="st80" d="M223.8,194.2c0.7,1,1.8,1.8,3.1,2c1.6,0.3,3.2-0.2,4.3-1.3c-0.9,0.3-1.8-0.4-2.2-1.2
		c-0.4,0.2-0.9,0.4-1.4,0.2c-0.2-0.1-0.3-0.3-0.5-0.4C226.6,193.1,224.3,193.8,223.8,194.2z"/>
	<path class="st80" d="M270.7,190.7c-0.9,0.9-1.4,2.1-1.3,3.5c0,1.6,0.9,3,2.1,3.9c-0.5-0.8,0-1.8,0.7-2.4c-0.3-0.4-0.6-0.8-0.5-1.3
		c0.1-0.2,0.2-0.4,0.3-0.5C272.3,193.3,271.2,191.2,270.7,190.7z"/>
	<path class="st80" d="M234.9,168.1c1.5-1.2,3.5-1.7,5.6-1.5c2.5,0.3,4.5,1.9,5.6,4c-1.1-0.9-2.8-0.4-3.8,0.6
		c-0.5-0.5-1.2-1.1-1.9-0.9c-0.3,0.1-0.6,0.2-0.9,0.3C238.5,171,235.5,168.9,234.9,168.1z"/>
	<path class="st82" d="M235.8,225.9c1.3-1,3-1.5,4.8-1.2c2.1,0.3,3.9,1.6,4.8,3.4c-0.9-0.8-2.4-0.3-3.3,0.6c-0.5-0.4-1-0.9-1.6-0.8
		c-0.3,0-0.5,0.2-0.7,0.3C238.9,228.4,236.4,226.5,235.8,225.9z"/>
</g>
<g id="Chocolate_7">
	<path class="st6" d="M46.7,408.4c-0.9,0-1.9,0-2.6,0.6c-0.5,0.5-0.5,1.3-0.3,2c0.4,1.4,1.5,2.6,2.8,3.2s2.8,0.8,4.2,0.9
		c3.5,0.1,6.9-0.8,10.3-0.7c1.4,0.1,2.8,0.3,4.3,0.2c1.9-0.1,5.3-1,5.2-3.5c-0.1-2.5-3.6-2.3-5.3-2.3
		C59.2,408.9,53,408.7,46.7,408.4z"/>
	<path class="st18" d="M68.7,408.7c0-3.4,0-6.7-0.1-10.1c0-2.5-0.1-5.1-1.1-7.3c-0.7-1.4-1.7-2.5-2.7-3.7c-0.8-0.9-1.6-1.8-2.6-2.5
		c-1-0.7-2.1-1.2-3.3-1.1c-1.1,0-2.1,0.5-3,1.1c-2.5,1.7-4.3,4.2-5.7,6.9c-0.5,1-1,2-1.4,3.1c-0.3,0.8-0.5,1.7-0.7,2.5
		c-0.4,1.6-0.7,3.1-1.1,4.7c-0.5,2.1-1,4.3-0.9,6.5c0.1,1.5,1.3,2.7,2.7,3.4s2.9,0.9,4.4,1c4.2,0.3,8.4-0.1,12.4-1.2
		c0.8-0.2,1.7-0.5,2.4-1S68.7,409.5,68.7,408.7z"/>
	<path class="st24" d="M50.1,396.9c0.2,1,1.2,1.8,2.2,1.9c2.1,0.2,5.8-3,3.2-4.7C53.6,393,49.6,394.4,50.1,396.9z"/>
	<path class="st26" d="M57.3,391.9c2.5-1,1.1-4.4-1.3-3.9C53.2,388.6,54.8,392.8,57.3,391.9z"/>
	<path class="st19" d="M60.1,385.4c-0.3-0.1-0.7-0.2-1,0c-0.3,0.2-0.4,0.5-0.4,0.8c0,0.4,0,0.8,0.2,1.1c0.3,0.4,0.8,0.5,1.3,0.4
		c0.4-0.2,0.7-0.6,0.8-1.1c0-0.3-0.1-0.8-0.4-0.9C60.5,385.7,60.3,385.4,60.1,385.4z"/>
	<path class="st21" d="M64.8,389.2c-0.2-0.1-0.4-0.2-0.6-0.2c-0.2,0-0.4,0-0.6,0.1c-0.1,0.1-0.1,0.2-0.2,0.3c0,0.2,0,0.3,0,0.5
		c0.1,0.2,0.2,0.3,0.3,0.4c0.3,0.2,0.6,0.5,0.9,0.4c0.2,0,0.4-0.2,0.6-0.4c0.1-0.2,0.1-0.4,0-0.7C65.2,389.6,65.1,389.3,64.8,389.2z
		"/>
	<path class="st17" d="M61.5,391.9c-0.4-0.2-0.8-0.3-1.2-0.2c-0.5,0.1-0.9,0.7-0.9,1.2c0,0.5,0.5,1,1,1.1c0.5,0.1,1.1-0.2,1.3-0.8
		c0.1-0.2,0.1-0.4,0.1-0.7C61.8,392.3,61.7,392,61.5,391.9z"/>
	<path class="st25" d="M65.8,394.9c-0.3-0.2-0.7-0.3-1.1-0.2c-0.4,0.1-0.7,0.3-1,0.6c-0.2,0.2-0.3,0.5-0.1,0.7
		c0.1,0.1,0.1,0.1,0.2,0.2c0.4,0.2,0.9,0.2,1.3,0.1s0.8-0.5,1-0.9C66.2,395.3,65.9,395.1,65.8,394.9z"/>
	<path class="st27" d="M60.4,396.9c-0.2-0.1-0.5-0.1-0.7-0.1c-0.1,0-0.2,0.1-0.3,0.2c-0.1,0.1-0.2,0.2-0.3,0.3
		c-0.1,0.1-0.1,0.2-0.1,0.4c0,0.1,0,0.3,0.1,0.4c0.1,0.1,0.3,0.2,0.5,0.2c0.4,0,0.8-0.3,1.1-0.7C60.8,397.4,60.6,397,60.4,396.9z"/>
	<path class="st22" d="M57.8,399.7c-0.4,0-0.8,0.2-1.2,0.4c-0.5,0.2-0.9,0.5-1.3,0.9c-0.4,0.4-0.6,0.9-0.6,1.4c0,0.2,0,0.3,0.1,0.5
		c0.1,0.1,0.2,0.3,0.3,0.4c0.4,0.4,0.8,0.7,1.3,0.7c0.4,0,0.7-0.3,1-0.5c0.2-0.1,0.4-0.3,0.5-0.4c0.4-0.4,0.9-0.7,1.2-1.2
		C59.8,400.8,58.9,399.6,57.8,399.7z"/>
	<path class="st17" d="M64.5,398.3c-0.1,0-0.2,0.1-0.3,0.2c-0.3,0.2-0.5,0.5-0.5,0.8c0,0.2,0.1,0.5,0.2,0.7s0.4,0.3,0.6,0.4
		c0.2,0.1,0.4,0.2,0.6,0.3c0.5,0.1,1,0,1.3-0.4C67.3,399.1,65.6,397.9,64.5,398.3z"/>
</g>
<path class="st7" d="M125.6,374.1c-0.9,1.9-2.5,3.5-3.4,5.4c-0.9,1.9-0.9,4.5,1,5.7c1.3,0.9,3.4,0.5,4.3-0.8c0.9-1.3,0.7-3,1-4.6
	c0.5-2.5,2.4-4.4,3.7-6.5c2.6-4.2,4.9-13.9-2.4-15.2c-3.2-0.6-3.5,1.6-3.4,4.2C126.3,366.3,127.3,370.4,125.6,374.1z"/>
<path class="st7" d="M148.3,365.5c-1.8,0.8-3.3,2.1-4.4,3.7c-0.4,0.6-0.8,1.3-0.9,2.1c-0.1,0.8,0.3,1.6,0.9,2c0.6,0.4,1.5,0.3,2.1,0
	c0.7-0.3,1.2-0.8,1.7-1.4c0.7-0.7,1.3-1.5,2-2.3c0.5-0.6,1-1.3,1.2-2.1c0.2-0.8-0.1-1.7-0.8-2.1
	C149.3,364.8,148.3,365.5,148.3,365.5z"/>
</svg>
