<?xml version="1.0" encoding="utf-8"?>
<!-- Generator: Adobe Illustrator 27.2.0, SVG Export Plug-In . SVG Version: 6.00 Build 0)  -->
<svg version="1.1" id="Blonnopies_9" xmlns="http://www.w3.org/2000/svg" xmlns:xlink="http://www.w3.org/1999/xlink" x="0px"
	 y="0px" viewBox="0 0 300 450" style="enable-background:new 0 0 300 450;" xml:space="preserve">
<style type="text/css">
	.st0{fill:#DCEFF3;}
	.st1{fill:#F8B1B8;}
	.st2{opacity:0.45;fill:#8A9618;enable-background:new    ;}
	.st3{fill:#FFCF01;stroke:#FBAD18;stroke-miterlimit:10;}
	.st4{fill:#608B28;}
	.st5{fill:#BFD857;stroke:#608B28;stroke-miterlimit:10;}
	.st6{fill:none;stroke:#4D5232;stroke-linecap:round;stroke-linejoin:round;stroke-miterlimit:10;}
	.st7{fill:#657008;}
	.st8{fill:#F8B1B8;stroke:#F38393;stroke-linecap:round;stroke-linejoin:round;stroke-miterlimit:10;}
	.st9{fill:none;stroke:#3B3D31;stroke-width:3;stroke-linecap:round;stroke-linejoin:round;stroke-miterlimit:10;}
	.st10{fill:#3B3D31;}
	.st11{fill:none;stroke:#3B3D31;stroke-linecap:round;stroke-linejoin:round;stroke-miterlimit:10;}
	.st12{fill:#BFC94A;}
	.st13{fill:#97A233;}
	.st14{fill:#233323;}
	.st15{fill:#7FB036;}
	
		.st16{opacity:0.62;fill:#CEDEEF;stroke:#8AB8D6;stroke-width:2;stroke-linecap:round;stroke-linejoin:round;stroke-miterlimit:10;enable-background:new    ;}
	
		.st17{opacity:0.48;fill:none;stroke:#8AB8D6;stroke-width:2;stroke-linecap:round;stroke-linejoin:round;stroke-miterlimit:10;enable-background:new    ;}
	.st18{opacity:0.39;fill:#7FB036;enable-background:new    ;}
	.st19{fill:none;stroke:#709D2F;stroke-linecap:round;stroke-linejoin:round;stroke-miterlimit:10;}
	.st20{fill:#F8B1B8;stroke:#F38393;stroke-width:4;stroke-linecap:round;stroke-linejoin:round;stroke-miterlimit:10;}
	.st21{fill:none;stroke:#2B621D;stroke-width:3;stroke-linecap:round;stroke-linejoin:round;stroke-miterlimit:10;}
	.st22{fill:none;stroke:#2B621D;stroke-linecap:round;stroke-linejoin:round;stroke-miterlimit:10;}
	.st23{fill:#2B621D;}
	.st24{fill:#D9D6D3;stroke:#CECAC5;stroke-linecap:round;stroke-linejoin:round;stroke-miterlimit:10;}
	.st25{fill:#E8E5E2;stroke:#C0BDBA;stroke-linecap:round;stroke-linejoin:round;stroke-miterlimit:10;}
	.st26{fill:none;stroke:#C0BDBA;stroke-linecap:round;stroke-linejoin:round;stroke-miterlimit:10;}
</style>
<rect x="0.3" y="-1.2" class="st0" width="299.6" height="182.5"/>
<path class="st1" d="M-0.6,169.7c30.1,5.2,60.2-8.6,90.7-9.7c13.9-0.5,27.7,1.7,41.6,1.4c15.9-0.4,31.7-4,47.6-3.6
	c12.1,0.3,24,3,36,3.7c27.9,1.6,57.9-7.2,85.2-0.9l1.5,290.2l-303,0.5L-3,240L-0.6,169.7z"/>
<path class="st2" d="M156.6,212.2c-6,0-13.2-1.6-16.9,3.1c-2.7,3.5-1.7,8.8-4.2,12.4c-1.3,2-3.6,3.2-5.3,4.9
	c-7.2,6.9-4.9,18.6-2.9,28.4c0.8,4,1.4,8.2-0.1,11.9c-1.5,3.6-4.6,6.2-7,9.3s-4.1,7.5-2.1,10.8c1.8,3,5.9,3.8,9.5,3.5
	c3.5-0.3,7.1-1.4,10.6-0.8s7,3.6,6.4,7.1c-0.5,2.5-2.8,4.2-5.1,5.4c-3.7,2-7.7,3.5-10.4,6.6c-2.8,3.1-3.8,8.3-0.9,11.2
	c2.7,2.7,8,2.7,9.4,6.3c0.9,2.3-0.4,4.9-1.9,6.8c-2.5,3.2-5.7,6-7.5,9.6c-1.9,3.6-2,8.6,1.1,11.2c1.5,1.2,3.5,1.7,5.2,2.6
	c4.3,2.3,6.7,7.2,11.1,9.1c8.6,3.7,17.7-6.2,26.9-5c6.1,0.8,10.4,6.1,15.4,9.8c4.9,3.7,13.1,5.2,16.4,0c0.8-1.3,1.2-2.9,1.8-4.4
	c3.4-7.9,14.2-9.3,22.6-7.4c8.4,1.9,16.7,5.9,25.2,4.6c8.8-1.4,16.2-9,17.3-17.9c0.2-1.4,0.2-2.8,0.9-4c1.5-2.3,4.9-2.3,7.4-3.4
	c3.5-1.5,5.5-5.3,6-9c0.4-3.8-0.5-7.5-1.3-11.2c-1.1-4.6-2.5-9.6-6.4-12.3c-2.7-1.9-6.2-2.3-8.9-4c-4.8-3-6.4-9.4-5.6-15
	s3.6-10.7,5.8-15.9c3.4-7.7,5.8-15.8,7.2-24.1c0.5-3.2,0.8-6.7-1.2-9.3c-2.1-2.7-5.9-3.2-9-4.6c-5.6-2.4-14.2-9.4-10.3-14
	c2.9-3.3,8.8,1.6,13.1,0.9c4.3-0.7,8.3-6.2,5.2-9.3c-1.1-1.1-2.6-1.5-4.1-1.7c-14.6-2.5-29.5,2.7-44.3,1.5c-7.7-0.6-15-3-22.4-5.3
	c-2.4-0.8-4.9-1.6-6.6-3.4c-4.2-4.3-1.9-11.7,1.9-16.4c9.6-11.8,25.4-15.8,39-22.5c1.6-0.8,3.4-1.9,3.9-3.7c0.9-3.6-4.2-5.8-7.8-5.1
	s-7.7,2.4-10.8,0.4c-2.9-1.9-3.8-6.4-7.2-7.2c-4.2-1-6.7,4.6-6.5,8.9c0.3,4.3,1.4,9.3-1.7,12.2c-2.5,2.4-6.5,2.2-9.3,4.2
	c-3.1,2.2-4.2,6.9-7.8,8.1c-4.3,1.4-6.9-1.2-9.8,2.7c-1.9,2.7-1.8,7.9-3.7,11.1C172.5,207.1,164.8,212.1,156.6,212.2z"/>
<g>
	<g id="Character_00000013906126229191918090000005616484061205384092_">
		<g id="Left_hand">
			<path class="st3" d="M39.2,323.9c-0.9-0.2-1.9-0.4-2.7-0.9c-0.8-0.4-1.5-1.1-2.1-1.7c-1.2-1.1-2.4-2.2-3.4-3.5
				c-1-1.4-1.8-2.9-2.2-4.5c-0.4-1.6-0.5-3.4-0.6-5.1c0-0.7-0.1-1.3,0-2c0.3,0.2,0.8,0.1,1.1,0c0.4-0.1,0.7-0.3,1.1-0.4
				c0.1,0,0.2,0,0.3,0c0.1,0.1,0.2,0.2,0.2,0.4c0.1,1.6,0.4,3.2,1,4.8c0.2,0.5,0.4,1,0.8,1.4c1,1.2,6.9,4.1,7.8,4L39.2,323.9z"/>
			<path class="st4" d="M28,306.9c-1.3-0.1-2.7-0.3-3.9-0.9c-0.3-0.2-0.6-0.3-0.8-0.5c-1.1-0.9-1.8-2.3-2.1-3.7
				c-0.3-1.4-0.4-2.9-0.4-4.3c0-0.5,0-0.9,0.1-1.4s0.4-0.9,0.7-1.3c0.3-0.4,0.7-0.8,1.1-1.1c0.8-0.6,1.8-1,2.8-1.1
				c0.8-0.1,1.7-0.1,2.5,0.2c0.8,0.3,1.5,0.9,1.8,1.7c0.4,1.2-0.1,2.6,0.4,3.7c0.2,0.3,0.4,0.6,0.8,0.7c0.5,0.1,0.9-0.3,1.2-0.7
				c0.3-0.4,0.7-0.8,1-1.2c0.3-0.4,0.7-0.8,1.2-0.9c0.4-0.1,0.9,0.1,1.2,0.4s0.5,0.7,0.6,1.2c0.3,1.1,0.2,2.3-0.3,3.4
				c-0.4,1.1-1.2,2-2,2.8c-1.4,1.5-3.2,2.7-5.2,2.9L28,306.9z"/>
		</g>
		<g id="Right_Hand">
			<path class="st3" d="M103.7,323.2c3.5-1.9,6.9-4.3,9.4-7.5c0.7-0.9,1.3-1.9,1.9-2.9c0.8-1.3,1.6-2.5,2.3-3.8
				c0.1-0.1,0.1-0.2,0.1-0.4c0-0.1-0.1-0.2-0.2-0.2c-0.6-0.4-1.1-0.7-1.7-1.1c-3,4.8-7.2,8.9-12.1,11.9L103.7,323.2z"/>
			<path class="st4" d="M123.8,297.8c-0.6-0.5-1.4-0.9-2.1-0.6c-0.9,0.3-1.3,1.4-1.9,2.2c-0.2,0.2-0.4,0.5-0.7,0.5s-0.7,0-0.9-0.2
				c-0.2-0.2-0.2-0.5-0.3-0.7c-0.1-0.3-0.2-0.5-0.5-0.6c-0.2,0-0.3,0-0.5,0.1c-1.2,0.6-2.1,1.8-2.5,3.1c-0.4,1.3-0.4,2.7-0.1,4
				c0.2,0.8,0.5,1.5,1.1,2.1c0.5,0.6,1.2,1.1,2,1.2c0.3,0,0.6,0,0.9,0c1.3-0.1,2.5-0.7,3.5-1.5s1.9-1.7,2.7-2.7
				c0.4-0.5,0.9-0.9,1.1-1.5C126.9,299.5,124.1,298,123.8,297.8z"/>
		</g>
		<path class="st5" d="M87,240.1c-9.2-2-19.6,0.3-25.9,7.3c-2.1,2.4-3.6,5.1-5.2,7.9c-1.7,3-3.3,6-4.6,9.1
			c-1.8,4.4-2.9,9.1-3.9,13.8c-5,22.9-8.8,46-11.4,69.3c-0.7,6.3-1.3,12.8,1,18.7c1.7,4.3,0.8,9.4,3.3,13.3c1.6,2.5,3.8,4.7,4.7,7.5
			c1,3.1,0.5,6.4,1.2,9.6c0.4,1.6,1,3,1.7,4.5c2.9,5.9,6.8,11.4,11.2,16.3c2.3,2.6,4.8,5,7.3,7.5c1.1,1.1,2.2,2.2,3.3,3.2
			c3.1,3.1,6.7,6.3,11,6.4c3.6,0,6.7-2.2,10-3.5c3.5-1.4,7.4-2,10.7-3.8c3.4-1.8,6-4.9,8.6-7.8c2.1-2.5,4.4-5.5,4-8.7
			c-0.3-2.1-1.6-3.9-2.7-5.7c-1.1-1.8-2-3.8-2.8-5.7c-1.6-3.5-3.2-7-4.7-10.5c-1.9-4.2-3.7-8.3-5.1-12.7
			c-3.5-11.5-3.1-24.3,1.3-35.5c2.1-5.5,3.5-12,3.7-17.9c0-2.1-0.3-4.3-0.3-6.4c0.1-2.9,1-5.6,1.7-8.4c3.8-14.9,1.7-30.6-0.6-45.8
			c-0.5-3.5-1.1-7.1-2.5-10.4c-1.4-3.3-3.8-6.3-7.1-7.8c-1.4-0.6-2.3-2.1-3.7-2.9C89.9,240,88.4,239.4,87,240.1z"/>
		<path class="st6" d="M73.4,246.8c-0.5,1-1.1,2-1.3,3.1s0,2.3,0.8,3.1c0.7,0.6,1.7,0.9,2.2,1.6c0.7,1,0.3,2.4-0.1,3.5
			c-0.4,1.2-0.7,2.6,0.1,3.5c0.7,0.7,1.8,0.8,2.5,1.5c0.9,1.1,0.1,2.8,0.4,4.2"/>
		<path class="st6" d="M101.1,289c-0.6-0.4-1.6-0.1-2.1,0.4c-0.5,0.6-0.7,1.4-0.8,2.1c-0.1,1.2-0.1,2.4,0.6,3.4c0.6,1,2,1.6,3,1.1"
			/>
		<path class="st6" d="M67.8,250.4c-0.6-0.1-1.3,0.2-1.8,0.6c-0.4,0.2-0.7,0.5-1,0.8c-0.5,0.5-0.7,1.2-0.7,1.9s0.1,1.4,0.2,2.1"/>
		<path class="st7" d="M85.4,250.8c-0.7-0.1-1.4-0.1-2,0.2c-0.6,0.2-1.2,0.7-1.4,1.3c-0.2,0.5-0.1,1.1,0,1.6s0.2,1,0.6,1.4
			c0.3,0.3,0.8,0.4,1.2,0.4c0.6,0.1,1.3,0.2,1.9,0c0.7-0.2,1.2-0.8,1.5-1.4c0.3-0.5,0.4-1.2,0.3-1.8s-0.4-1.2-1-1.5L85.4,250.8z"/>
		<g id="Face">
			<path class="st8" d="M63.2,282.8c-1.9-0.4-3.9,0.5-5,2c-0.2,0.3-0.4,0.7-0.5,1.1c-0.1,0.5,0,1.1,0.2,1.6c0.3,0.9,0.8,1.8,1.7,2.3
				c1,0.6,2.4,0.4,3.5,0c0.5-0.2,0.9-0.4,1.3-0.7c0.7-0.6,1.1-1.7,1-2.7s-0.5-1.9-1.1-2.7C64,283.3,63.6,282.9,63.2,282.8z"/>
			<path class="st8" d="M93.6,280.9c-0.4-0.8-1.5-0.9-2.4-1c-0.5,0-1.1,0-1.6,0.1c-0.4,0.1-0.7,0.3-1,0.5c-1.5,1.1-2.5,2.9-2.3,4.8
				c0,0.4,0.1,0.7,0.3,1c0.2,0.3,0.5,0.6,0.8,0.7c0.7,0.4,1.5,0.6,2.3,0.5c0.7-0.1,1.3-0.3,2-0.6c1-0.5,2-1,2.6-1.9s0.8-2.2,0.2-3
				C94.1,281.7,94,281.1,93.6,280.9z"/>
			<path class="st9" d="M71,280.4c0.2,0.9,0.3,1.9,0.5,2.8c0.1,0.8,0.3,1.6,0.7,2.2c0.4,0.6,1,0.9,1.6,1.2c0.5,0.2,1,0.4,1.6,0.4
				c0.9,0,1.7-0.6,2.2-1.3c0.5-0.7,0.8-1.5,1.1-2.4c0.3-0.9,0.6-1.9,1-2.8"/>
			<g>
				<path class="st10" d="M57.9,272.4c-0.9,1-1.3,2.4-1,3.7c0.3,1.3,1.3,2.4,2.6,2.7c1.2,0.3,2.5-0.2,3.7-0.7
					c0.5-0.2,1.1-0.5,1.5-0.8c1.6-1.2,2.2-4.6,0.4-5.9C62.9,269.9,59.4,270.5,57.9,272.4z"/>
				<path class="st11" d="M58.6,272c-0.4,0-0.7-0.3-0.9-0.7c-0.2-0.3-0.2-0.7-0.2-1.1c0.1-1.2,0.6-2.3,1.5-3"/>
				<path class="st11" d="M61.7,271c-0.1-0.2-0.1-0.3-0.2-0.5c-0.1-0.4-0.3-0.8-0.3-1.2c-0.1-0.8,0.1-1.6,0.7-2.2
					c0.1-0.1,0.2-0.2,0.4-0.3"/>
				<path class="st11" d="M64.1,271.3c-0.1-0.7,0.2-1.4,0.7-1.8s1.2-0.6,1.9-0.7c0.7-0.1,1.4,0,2.1-0.1"/>
			</g>
			<g>
				<path class="st10" d="M92.5,269.9c-1.1,0-2.3,0.4-3.1,1.1c-0.9,0.7-1.5,1.6-1.8,2.6c-0.2,0.5-0.3,1.1-0.2,1.6
					c0.1,0.7,0.6,1.4,1.3,1.8c0.7,0.4,1.6,0.5,2.3,0.3c0.5-0.1,0.9-0.4,1.3-0.7c0.6-0.4,1.2-0.9,1.6-1.5c0.7-1,0.7-2.3,0.7-3.5
					C94.5,270.7,93.4,269.9,92.5,269.9z"/>
				<path class="st11" d="M89.4,271.1c-0.5,0-1,0-1.4-0.1c-0.5-0.1-0.9-0.4-1.2-0.8c-0.2-0.3-0.2-0.7-0.2-1c0-0.6-0.1-1.1,0.2-1.7
					c0.2-0.4,0.4-0.7,0.7-1c0.3-0.4,0.6-0.7,0.9-1.1"/>
				<path class="st11" d="M91.7,270.2c-0.3,0-0.4-0.2-0.6-0.5c-0.4-0.6-0.8-1.3-0.9-2c-0.1-0.8,0.3-1.5,0.6-2.1
					c0.2-0.3,0.4-0.7,0.7-0.7"/>
				<path class="st11" d="M93.7,270.6c-0.3-1.1,0.2-2.4,1.1-3.2c0.9-0.8,2.1-1.1,3.2-1.1"/>
			</g>
		</g>
		<path class="st6" d="M53.7,295.6c-1.2,0.4-1.6,1.8-1.4,3c0.2,1.2,0.7,2.3,0.9,3.5c0.1,0.3,0.1,0.7,0,1c-0.1,0.4-0.4,0.7-0.7,1
			c-0.9,1-1.6,2-2.2,3.2c-0.5,1-0.8,2.2-0.1,3c0.2,0.3,0.6,0.4,0.9,0.7c1.4,1,1.9,3,1.1,4.5"/>
		<path class="st6" d="M75.8,301.2c2.2,2.4,2.3,6.3,0.4,8.9c-0.8,1-1.8,1.9-2.5,3s-0.9,2.7,0.1,3.6c0.5,0.5,1.3,0.7,1.8,1.2
			c0.5,0.6,0.7,1.5,0.3,2.1c-0.3,0.6-1,1-1.1,1.7c-0.2,1.2,1.5,2,1.8,3.2c0.5,1.9-2.3,3.8-1.2,5.3c0.2,0.2,0.4,0.4,0.6,0.6
			c0.8,1-0.1,2.5-1.1,3.3s-2.2,1.7-2.1,3c0.1,1.4,1.8,2,2.6,3.2c1,1.6,0.1,3.7-0.8,5.3"/>
		<path class="st12" d="M93.1,311.4c-0.4,0.5-0.5,1.2-0.5,1.9c0,0.6,0.2,1.2,0.7,1.5c0.2,0.1,0.5,0.2,0.8,0.2c0.7,0.1,1.3,0.1,2-0.1
			s1.6-1,1.5-1.7c-0.1-0.8,0.2-1.7-0.4-2.2C96.5,310.3,93.8,310.3,93.1,311.4z"/>
		<path class="st6" d="M91.4,325.1c-1.5-0.3-3,1-3.1,2.5s0.9,3,2.3,3.7c0.4,0.2,1,0.3,1.2-0.1"/>
		<path class="st6" d="M49,319.2c-1,0.3-1.8,1.1-2.2,2.1s-0.5,2-0.5,3.1c0,1.3,0.4,2.8,1.6,3.2"/>
		<path class="st7" d="M61.1,309.8c-0.9-0.7-2.3-0.4-3.1,0.3s-1,2.2,0,2.8c0.4,0.3,0.9,0.3,1.4,0.3c0.7,0,1.4-0.1,2-0.4
			c0.6-0.4,0.9-1.2,0.6-1.8C62,311,61.4,310,61.1,309.8z"/>
		<path class="st6" d="M59.3,343.5c-1.3,0.4-2.4,1.2-3.2,2.3c-0.3,0.3-0.5,0.7-0.6,1.2c-0.1,0.6,0,1.3,0.3,1.9
			c0.9,1.7,2.7,3,4.7,3.1"/>
		<path class="st13" d="M88.2,351.8c-0.5,0-1.1,0-1.6,0.2s-1,0.6-1.2,1.1c-0.1,0.2-0.1,0.4-0.1,0.7c0,0.9,0.5,1.8,1.2,2.3
			s1.8,0.6,2.5,0.1c0.8-0.5,1.2-1.4,0.9-2.3c0.1-0.5,0-1.1-0.3-1.4C89.3,352,88.7,351.8,88.2,351.8z"/>
		<path class="st4" d="M44.9,385.9c-1.7,1.3-3.9,1.9-6.1,1.7c-0.7-0.1-1.4-0.2-1.9-0.7c-0.2-0.2-0.4-0.6-0.5-0.9
			c-0.5-1.4-0.3-3,0.7-4.2s2.5-1.7,4-1.4L44.9,385.9z"/>
		<path class="st7" d="M43.2,370.3c-0.1,0.2-0.1,0.4-0.1,0.5c0,0.3,0,0.6,0.1,0.9s0.3,0.6,0.6,0.8c0.3,0.3,0.5,0.6,0.9,0.7
			c0.5,0.2,1.1,0.1,1.5-0.3c0.7-0.6,0.7-1.9,0.4-2.7c-0.3-0.8-1-1-1.8-1C44.2,369.3,43.4,369.7,43.2,370.3z"/>
		<path class="st6" d="M68.3,366.5c-1.1,0.5-1.8,1.6-2.1,2.7c-0.3,1.1-0.1,2.4,0.4,3.5c0.3,0.6,0.7,1.2,1.4,1.4
			c0.4,0.1,0.9,0,1.2-0.3"/>
		<path class="st13" d="M92.4,383.9c-1.1-0.5-2.6-0.2-3.4,0.8c-0.1,0.2-0.3,0.4-0.3,0.6c-0.1,0.3,0,0.6,0,0.9
			c0.3,1.2,1.3,2.3,2.6,2.4c0.2,0,0.4,0,0.6-0.1c0.1-0.1,0.3-0.2,0.4-0.4c0.6-0.9,0.9-2.1,0.8-3.2C93,384.4,92.8,384,92.4,383.9z"/>
		<path class="st6" d="M88.1,404.6c-0.3,0-0.6,0.2-0.8,0.4c-0.9,1-1.7,2.2-1.5,3.5s1.2,2.2,2.2,3"/>
		<path class="st13" d="M105,412c-0.6-0.1-1.2-0.3-1.7,0c-0.2,0.1-0.4,0.3-0.5,0.5c-0.4,0.6-0.5,1.3-0.3,2s0.7,1.2,1.3,1.5
			c0.2,0.1,0.5,0.2,0.7,0.2s0.4,0,0.6-0.1c0.6-0.2,1-0.7,1.2-1.3c0.2-0.6,0-1.3-0.4-1.7C105.8,412.6,105.4,412.1,105,412z"/>
		<path class="st12" d="M71.6,400.5c-0.4-0.4-1-0.5-1.6-0.5c-0.3,0-0.5,0-0.8,0.1s-0.5,0.3-0.7,0.5c-0.4,0.4-0.7,0.9-0.8,1.5
			s0,1.1,0.3,1.6c0.2,0.3,0.5,0.5,0.7,0.8c0.2,0.2,0.4,0.4,0.7,0.6c0.4,0.2,0.9,0.1,1.4,0c0.6-0.3,1.1-0.8,1.4-1.4s0.3-1.3,0.1-2
			C72.1,401.2,71.9,400.8,71.6,400.5z"/>
		<path class="st6" d="M76.9,387.6c1,2.4,4.6,2.9,5.4,5.4c0.1,0.4,0.2,0.9,0.3,1.3c0.4,1.1,1.5,1.9,2.5,2.4c0.8,0.4,1.6,0.7,2,1.5
			c0.3,0.6,0.2,1.4,0.4,2.1c0.4,1.4,2,1.9,3.2,2.7c1,0.7,1.8,1.7,2.3,2.9c0.8,2,0.5,4.3,0.5,6.4c0,2.2,0.6,4.6,2.4,5.7"/>
		<path class="st6" d="M80.1,361c0.8,1.6,2.7,2.6,3,4.3c0.2,1.1-0.3,2.4,0.1,3.5c0.4,1.2,1.9,1.8,3.1,2.2c1.2,0.5,2.6,1.2,2.7,2.5
			c0.1,0.9-0.4,2,0.2,2.7c0.3,0.3,0.6,0.4,1,0.5c1.6,0.5,3.3,1.5,3.5,3.2c0.1,0.8-0.2,1.8,0.2,2.4c0.3,0.4,0.8,0.6,1.3,0.9
			c1.9,1,3.3,2.9,3.5,5c0.1,1.3-0.1,2.6,0.4,3.8c0.5,1.3,1.8,2.2,2.8,3.2s1.7,2.7,0.9,3.8"/>
		<path class="st6" d="M50.5,343.5c-0.6,1.2-0.4,2.6,0,3.9c0.5,1.2,1.2,2.3,1.8,3.5c1.1,2.3,1.5,4.8,1.3,7.3
			c-0.1,0.6-0.2,1.2-0.1,1.8c0.2,1.3,1.2,2.3,2.2,3.2c1.1,1,2.2,2.2,2.5,3.6c0.2,1.1-0.1,2.3,0.3,3.3c0.5,1.2,1.8,1.9,2.9,2.7
			c2,1.5,5.1,4.6,3.5,6.5c-0.5,0.6-1.4,0.6-1.6,1.4c-0.2,0.7,0.2,1.5,0.9,1.9c0.3,0.2,0.7,0.2,0.9,0.5c0.4,0.4,0.4,1,0.2,1.6
			c-0.2,0.5-0.5,1-0.7,1.5c-0.5,1.5,0.6,3.3,2.2,3.6"/>
		<path class="st4" d="M104.1,361.2c-0.8,1-1.1,2.4-0.8,3.7c0.1,0.5,0.3,0.9,0.6,1.3c0.8,0.9,2.1,1.1,3.3,1.2
			c0.6,0.1,1.3,0.1,1.9-0.1c0.4-0.1,0.7-0.3,1-0.5c1.8-1.4,3.1-5.1,0.9-6.8C109,358.5,105.4,359.4,104.1,361.2z"/>
		<path class="st6" d="M100.6,364.8c-0.6-2.7,0.5-5.7,2.7-7.3"/>
		<path class="st7" d="M73.5,240.1c-0.5-1.8-0.4-3.7,0-5.6c0.4-1.8,1.1-3.6,1.8-5.3c0.4-1,0.9-2,1.6-2.8s1.9-1.3,3-1
			c0.6,0.2,1.1,0.7,1.1,1.3c0,0.3-0.2,0.5-0.4,0.8c-0.4,0.6-1,1.1-1.4,1.7c-1.1,1.4-1.8,3.2-2.2,5c-0.4,1.8-0.4,3.6-0.5,5.5"/>
		<g id="Circle_2">
			<path class="st4" d="M36.7,425.6c-1.2,1.8-1.3,4.4,0.2,6c1.2,1.2,3.1,1.6,4.7,1.1s3.1-1.4,4.3-2.6c0.6-0.6,1.2-1.3,1.6-2.1
				c1-2.5,1-6.8-2.6-6.8C41.9,421.2,38.2,423.2,36.7,425.6z"/>
			<path class="st14" d="M40.4,425.6c-0.2,0.2-0.3,0.4-0.3,0.6s0,0.5,0.2,0.7c0.1,0.1,0.3,0.2,0.5,0.2c0.3,0,0.6-0.1,0.8-0.3
				c0.3-0.3,0.8-1.2,0.3-1.4C41.4,425.1,40.7,425.2,40.4,425.6z"/>
			<path class="st14" d="M43.9,424.6c-0.3,0.3-0.6,0.7-0.5,1.1c0,0.1,0.1,0.2,0.1,0.2c0.1,0.1,0.2,0.3,0.3,0.4
				c0.3,0.2,0.8,0.2,1.1-0.1c0.4-0.3,0.7-1.1,0.4-1.6C45,424,44.2,424.3,43.9,424.6z"/>
		</g>
		<g id="Circle_3">
			<path class="st4" d="M127.7,416.9c-0.3,0.8-0.2,1.6-0.2,2.5c0,0.7,0.1,1.5,0.4,2.2c0.6,1,1.9,1.4,3,1.2c3.3-0.5,7.8-4.7,5.8-8.3
				C134.6,410.7,128.8,413.7,127.7,416.9z"/>
			<path class="st14" d="M130.8,417.4c-0.1,0.1-0.1,0.3-0.1,0.4c0,0.2,0,0.5,0.2,0.6c0.1,0.1,0.2,0.2,0.3,0.2c0.3,0.1,0.7,0.2,1,0
				c0.4-0.3,0.5-1.1,0.1-1.4C131.9,416.9,131,416.9,130.8,417.4z"/>
			<path class="st14" d="M133,416.5c0,0.1,0,0.2,0,0.3c0,0.1,0.1,0.1,0.1,0.2c0.2,0.2,0.4,0.4,0.7,0.4c0.2,0,0.5-0.1,0.7-0.2
				c0.4-0.3,0.8-1,0.5-1.5s-1.1-0.3-1.5,0C133.2,415.9,133.1,416.2,133,416.5z"/>
		</g>
		<g id="Circle_4">
			<path class="st15" d="M170.1,424.2c-0.6,1.7-0.3,3.6,0.2,5.3c0.1,0.3,0.2,0.6,0.4,0.8c0.2,0.2,0.4,0.4,0.7,0.5
				c1.4,0.8,3,1.1,4.5,0.8c3.6-0.7,5-4.4,4.1-7.6c-0.7-2.5-3.5-3.6-5.9-3.3C172.1,421,170.7,422.5,170.1,424.2z"/>
			<path class="st14" d="M173.4,424.1c-0.1,0-0.2,0-0.2,0.1c-0.2,0.1-0.3,0.3-0.3,0.5s0.1,0.4,0.2,0.6c0.1,0.2,0.2,0.3,0.4,0.4
				c0.1,0,0.2,0,0.3,0c0.6,0,1.1-0.6,1-1.2C174.6,423.9,173.9,424,173.4,424.1z"/>
			<path class="st14" d="M175.9,424.6c-0.2,0.3-0.1,0.7,0.1,1c0.1,0.1,0.2,0.2,0.3,0.3c0.1,0.1,0.3,0.1,0.4,0.1c0.1,0,0.3,0,0.4,0
				c0.9-0.3,0.8-2.2-0.4-1.9C176.5,424.1,176.1,424.4,175.9,424.6z"/>
		</g>
		<path class="st4" d="M44.5,291.7c-0.6-0.9-1.5-2.4-1.7-3.5c-0.3-1.4,0.2-2.8,1-3.9s1.6-2,2.8-2.6L44.5,291.7z"/>
		<g>
			<g>
				<g>
					<defs>
						<path id="SVGID_1_" d="M101.7,250.6c0.5-2.2,0.6-4.9-0.9-6.5c-0.9-0.9-2.1-1.4-3.4-1.5s-2.5,0-3.8,0.2l1.4,0.9l1.2,0.6l1.5,1
							l1.3,1.3l1.7,2.3L101.7,250.6z"/>
					</defs>
					<use xlink:href="#SVGID_1_"  style="overflow:visible;fill:#BFD857;"/>
					<clipPath id="SVGID_00000075146717309237050570000003472752228396489619_">
						<use xlink:href="#SVGID_1_"  style="overflow:visible;"/>
					</clipPath>
					<use xlink:href="#SVGID_1_"  style="overflow:visible;fill:none;stroke:#608B28;stroke-miterlimit:10;"/>
				</g>
			</g>
			<path class="st5" d="M101.7,250.6c0.5-2.2,0.6-4.9-0.9-6.5c-0.9-0.9-2.1-1.4-3.4-1.5s-2.5,0-3.8,0.2l1.4,0.9l1.2,0.6l1.5,1
				l1.3,1.3l1.7,2.3L101.7,250.6z"/>
		</g>
		<path class="st4" d="M107.7,291c1.1-0.4,1.9-1.5,2.2-2.7c0.3-1.2,0.3-2.4,0.2-3.6c-0.1-1-0.1-2-0.6-2.8s-1.6-1.4-2.5-0.9l0.2,10
			H107.7z"/>
		<path class="st4" d="M36.2,344.4c-0.7-0.6-1.4-1.2-2.1-1.8c-0.6-0.5-1.2-1-1.5-1.7c-0.5-1-0.4-2.1-0.3-3.2
			c0.1-0.8,0.1-1.6,0.5-2.3c0.3-0.7,1-1.4,1.8-1.5c1.1-0.1,2.1,0.7,3.2,0.6L36.2,344.4z"/>
		<path class="st4" d="M111.3,404.8c2.1-1.8,2.9-4.1,2.3-6.8c-0.3-1.2-1-2.5-2.1-3c-1.4-0.7-3-0.4-4.5,0L111.3,404.8z"/>
		<path class="st4" d="M102.7,331.5c0.8,2.7,1.5,5.5,1.2,8.3s-1.8,5.6-4.3,6.9c-0.9,0.4-0.9,0.4-1.8,0.7L102.7,331.5z"/>
		<path class="st4" d="M67.9,426.3c-4.5,1.5-10.3,0.3-12.5-3.8c-1.5-2.8-0.8-6.7-0.4-9.9L67.9,426.3z"/>
		<g>
			<g>
				<g>
					<defs>
						<path id="SVGID_00000027562983373932629600000014235747289299077258_" d="M50.2,267.5c0.1-3.7-0.3-7.5,1.1-11s4.3-6.5,7.9-7.2
							l-1,2l-2.3,4l-1.2,2.3l-1.4,2.7l-1,2.1l-0.9,2L50.2,267.5z"/>
					</defs>
					<use xlink:href="#SVGID_00000027562983373932629600000014235747289299077258_"  style="overflow:visible;fill:#BFD857;"/>
					<clipPath id="SVGID_00000001647008178514248930000002625395380134954665_">
						<use xlink:href="#SVGID_00000027562983373932629600000014235747289299077258_"  style="overflow:visible;"/>
					</clipPath>
					
						<use xlink:href="#SVGID_00000027562983373932629600000014235747289299077258_"  style="overflow:visible;fill:none;stroke:#608B28;stroke-miterlimit:10;"/>
				</g>
			</g>
			<path class="st5" d="M50.2,267.5c0.1-3.7-0.3-7.5,1.1-11s4.3-6.5,7.9-7.2l-1,2l-2.3,4l-1.2,2.3l-1.4,2.7l-1,2.1l-0.9,2
				L50.2,267.5z"/>
		</g>
		<circle class="st14" cx="106.7" cy="362.5" r="0.6"/>
		<ellipse class="st14" cx="109.4" cy="362.8" rx="0.7" ry="0.9"/>
		<g id="Circle_1">
			<path class="st15" d="M258.4,428.7c-0.5,1.8-0.7,3.8-0.1,5.6c0.6,1.8,2.2,3.3,4.1,3.3c1.5,0,2.8-0.9,4-1.8
				c2.2-1.9,3.8-6.5,0.6-8.4c-1.2-0.7-2.8-0.9-4.2-1.1C260.5,425.8,259,426.2,258.4,428.7z"/>
			<path class="st14" d="M260.8,431.2c0,0.2,0.1,0.5,0.3,0.6c0.1,0.1,0.2,0.1,0.3,0.1c0.5,0.1,1,0,1.3-0.4c0.3-0.3,0.3-0.7,0-1.1
				C262,429.7,260.7,430.2,260.8,431.2z"/>
			<path class="st14" d="M264.3,431.7c0,0.1,0.1,0.2,0.1,0.3c0.2,0.3,0.5,0.5,0.8,0.5c0.8,0.1,1.7-1.2,1-1.8
				C265.4,430.1,264.1,430.8,264.3,431.7z"/>
		</g>
		<g id="Circle_3_00000050650853021358156950000000069084495221260980_">
			<path class="st4" d="M229.2,414c-0.8-0.1-1.7,0.1-2.5,0.3c-0.7,0.2-1.5,0.4-2,0.9c-0.8,0.8-1,2.1-0.6,3.2c1.2,3.1,6.2,6.7,9.3,4
				C236.6,419.5,232.5,414.4,229.2,414z"/>
			<path class="st14" d="M229.3,417.1c-0.1,0-0.3,0-0.4,0c-0.2,0-0.4,0.1-0.6,0.3c-0.1,0.1-0.1,0.2-0.1,0.3c-0.1,0.3,0,0.7,0.2,1
				c0.4,0.4,1.1,0.3,1.4-0.2C230,418.1,229.8,417.3,229.3,417.1z"/>
			<path class="st14" d="M230.6,419.2c-0.1,0-0.2,0-0.3,0.1c-0.1,0-0.1,0.1-0.2,0.2c-0.2,0.2-0.3,0.5-0.3,0.7s0.2,0.5,0.4,0.6
				c0.4,0.3,1.2,0.6,1.6,0.2c0.4-0.4,0.1-1.2-0.3-1.5C231.3,419.2,230.9,419.1,230.6,419.2z"/>
		</g>
		<g id="Circle_4_00000153697791500815479680000015740482395980792501_">
			<path class="st15" d="M13.1,397c-0.6,1.7-0.3,3.6,0.2,5.3c0.1,0.3,0.2,0.6,0.4,0.8c0.2,0.2,0.4,0.4,0.7,0.5
				c1.4,0.8,3,1.1,4.5,0.8c3.6-0.7,5-4.4,4.1-7.6c-0.7-2.5-3.5-3.6-5.9-3.3C15.2,393.8,13.7,395.3,13.1,397z"/>
			<path class="st14" d="M16.4,396.9c-0.1,0-0.2,0-0.2,0.1c-0.2,0.1-0.3,0.3-0.3,0.5s0.1,0.4,0.2,0.6c0.1,0.2,0.2,0.3,0.4,0.4
				c0.1,0,0.2,0,0.3,0c0.6,0,1.1-0.6,1-1.2C17.6,396.7,16.9,396.7,16.4,396.9z"/>
			<path class="st14" d="M19,397.4c-0.2,0.3-0.1,0.7,0.1,1c0.1,0.1,0.2,0.2,0.3,0.3c0.1,0.1,0.3,0.1,0.4,0.1s0.3,0,0.4,0
				c0.9-0.3,0.8-2.2-0.4-1.9C19.5,396.9,19.1,397.1,19,397.4z"/>
		</g>
		<g id="Circle_2_00000010297954443341525080000003314348157209007506_">
			<path class="st4" d="M123.8,259.4c-2.2,0.1-4.3,1.6-4.7,3.7c-0.3,1.7,0.6,3.4,1.9,4.5s3,1.6,4.6,1.9c0.9,0.1,1.8,0.2,2.6,0
				c2.6-0.7,6-3.3,4-6.1C130.5,261,126.7,259.3,123.8,259.4z"/>
			<path class="st14" d="M126,262.5c-0.2,0-0.5,0-0.7,0.1s-0.4,0.3-0.4,0.5s0,0.4,0.1,0.5c0.2,0.2,0.4,0.4,0.7,0.5
				c0.4,0,1.4-0.1,1.3-0.6C127.1,263,126.5,262.5,126,262.5z"/>
			<path class="st14" d="M128.9,264.6c-0.4-0.1-0.9-0.1-1.1,0.2c-0.1,0.1-0.1,0.1-0.1,0.2c-0.1,0.1-0.1,0.3-0.1,0.4
				c0,0.4,0.3,0.7,0.7,0.8c0.5,0.1,1.3-0.2,1.5-0.6S129.3,264.7,128.9,264.6z"/>
		</g>
		<path class="st6" d="M114.3,265.1c-0.5-2.5,0.7-5.3,2.9-6.6"/>
	</g>
</g>
<g>
	<g id="Bottle">
		<path class="st16" d="M99,45.6c-1,0.5-1.1,7.2-0.7,8.7c0.2,1.1,0.7,2.1,1,3.1c1.1,4.6-1.9,9.3-5.9,11.8s-8.7,3.3-13.3,4.5
			c-3.9,1-7.8,2.3-10.5,5.2c-3.4,3.6-4.1,8.9-4.6,13.8c-0.5,4.5-1.2,8.9-1.4,13.5c-0.2,7.1-0.3,14.2-0.3,21.3c0,3.8,0,7.7,0,11.5
			c0,10.4,0,20.8,0,31.3c0,3.4,0.2,7.3,2.9,9.4c1.6,1.2,3.7,1.5,5.6,1.7c10.8,1.3,21.6,2.6,32.5,3.3c25.2,1.6,50.5-0.1,75.3-5
			c1.2-0.2,2.5-0.5,3.6-1.1c4.6-2.4,5.2-8.6,5.2-13.7c0-7,0-13.9,0-20.9c0-6.2-0.1-12.1-0.2-18.3c-0.1-7.2-0.3-14.3-1-21.5
			c-0.5-5.5-1.3-11.1-3.1-16.4c-0.6-1.7-1.3-3.4-2-5c-2.1-4.4-5.2-8.7-9.8-10.2c-1.9-0.6-3.8-0.7-5.7-1.2s-5.4-1.5-6.2-3.3
			c-0.5-1-1.4-7.7-0.3-9.1c3.2-4,1.4-6.4,1.6-11.1c0.1-1.6,0.6-3.5-0.8-4.4c-1.2-0.8-8.8,0.2-12.8-0.1c-1.8-0.1-3.5-0.5-5.3-0.6
			c-2.3-0.2-4.7-0.1-7,0.1c-3.1,0.2-6.2,0.5-9.3,0.5c-2.5,0-5-0.1-7.5-0.1C113.3,43.5,103.6,43.6,99,45.6z"/>
		<path class="st17" d="M99.6,58.5c4.6,1.3,9.5,0.8,14.3,0.5c5.6-0.4,11.1-0.5,16.7-0.6c10.1-0.2,19.3,1,29.4,0.7"/>
		<path class="st17" d="M64.6,177.8c17.3-8.4,36.8-11,55.9-12.9c13.5-1.3,27.2-2.4,40.5,0.3c4,0.8,8,1.9,11.9,3.3
			c5,1.7,9.9,3.8,14.7,6.1"/>
		<path class="st17" d="M156.5,48.6c-1.6-0.3-3.3-0.3-5-0.3c-4.4,0-8.7,0.1-13.1,0.1c-1.4,0-2.7,0-4,0.2c-1.4,0.1-2.8,0.4-4.2,0.4
			c-1.6-0.1-3.2-0.5-4.8-0.6c-1.2,0-2.3,0.2-3.5,0.3c-4,0.3-8.1-1-12-0.2c-2.3,0.5-4.7,1.6-6.9,0.9"/>
		<path class="st17" d="M103.4,53c7.3-0.9,14.8-0.9,22.2-0.8c1.9,0,3.8,0,5.7,0.3c1.3,0.2,2.6,0.4,3.9,0.4c1.5,0,3-0.3,4.5-0.5
			c2.9-0.3,5.8,0,8.7,0s5.9-0.2,8.5-1.6"/>
		<path class="st17" d="M103.1,55.9c9.3-0.1,18.5,0,27.8,0.1c1.6,0,3.3,0.1,4.9-0.1c1.4-0.1,2.7-0.4,4.1-0.6c1.6-0.2,3.3-0.2,5-0.3
			c4-0.1,8-0.1,12.1-0.2"/>
		<path class="st18" d="M63.3,172.5v-43.1c0-32.6,2.6-40.9,2.6-40.9c4.8-2.3,10.5-2.8,15.6-1.3c4.3,1.2,8.4,3.7,12.8,3.1
			c3.2-0.4,5.9-2.5,8.9-3.7c3.6-1.5,7.5-1.8,11.4-2.2c2.8-0.2,5.6-0.5,8.4,0.1c3.3,0.7,6.2,2.7,9.5,3.5c9.7,2.4,19-5.4,29-5.7
			c3.3-0.1,6.6,0.7,9.9,0.9c3.3,0.3,6.8,0,9.6-1.9c0,0,4.4,7.8,5.3,15.1c0,0,1.5,8.8,1.3,12l0.7,23.4v11V158v9c0,0,0.2,9.4-5.2,11.7
			c0,0-9.6,3.1-20.8,4c0,0-23.8,3.1-31.7,2.6c0,0-27.4,0.3-42-1.8c0,0-20.8-1.8-22.4-3.7C66.2,179.7,63.4,178,63.3,172.5z"/>
		<path class="st19" d="M77.9,99.3c2.6,0,5.2-0.8,7.8-1.3c2.6-0.5,5.3-0.8,7.8,0.1c0.8,0.3,1.5,0.7,2.3,1c2,0.7,4.1,0.5,6.2,0.4"/>
		<path class="st19" d="M159.8,98.7c3.9-2.4,8.9-1.9,13.6-1.6c0.7,0.1,1.4,0.1,2.1-0.1c1.6-0.4,3.1-2.1,4.7-1.5"/>
		<path class="st19" d="M180.9,142.4c-1.4-0.2-2.8-0.3-4.1-0.3c-1.8,0-3.7,0.1-4.9,1.4c-0.6,0.6-0.9,1.3-1.4,1.9
			c-1.8,2-4.8,2.1-7.5,1.9c-2.7-0.1-5.7-0.2-7.6,1.6"/>
		<path class="st19" d="M71,162.7c2.7-3.2,7.5-4.2,11.3-2.4c1.1,0.5,2.1,1.3,3.2,1.7c3.6,1.5,7.6-0.1,11.2-1.6"/>
		<path class="st20" d="M141.6,104.6c-2.6-0.2-5.1-0.5-7.7-0.7c-2.4-0.2-4.7-0.4-7.1-0.5c-5.1-0.1-10.1,0.8-15.1,1.8
			c-7.7,1.6-15.4,3.5-22.6,6.7c-3.4,1.5-6.7,3.3-9.1,6s-3.8,6.7-2.7,10.2c0.6,1.9,1.8,3.5,3,5.1c1.8,2.4,3.6,4.7,5.8,6.6
			c4.5,3.9,10.5,5.6,16.4,6.1c4.5,0.4,9,0.2,13.5,0c14.2-0.7,28.5-1.3,42.1-5.4c4.8-1.4,9.5-3.4,12.9-7c3.1-3.3,4.8-8,4.6-12.6
			c-0.2-4.3-2.4-10.2-6.3-12.6c-4.1-2.5-10.8-2.1-15.4-2.5C149.8,105.4,145.7,105,141.6,104.6z"/>
		<path class="st21" d="M92.2,116.5c-0.3-0.9,1.1-1.7,2-1.2c0.9,0.4,1.3,1.5,1.6,2.4c0.8,2.3,5.7,14,7.2,15.4c0.6,0.5,1.2,1.1,2,1.2
			c1.5,0.1,2.4-1.7,2.8-3.1c1.6-6.1,1.5-12.6,1.4-18.9"/>
		<path class="st21" d="M118,116.3c-1.8-0.4-3.7,0.2-5.1,1.4c-1.3,1.2-2.1,3.1-1.9,4.9c0,0.4,0.1,0.8,0.3,1.1
			c0.5,0.7,1.4,0.9,2.2,0.7s1.5-0.8,2-1.5c1.2-1.6,1.8-3.7,1.5-5.8c0.4,1.2,0.9,2.4,1.9,3.1c1,0.8,2.5,1,3.3,0
			c0.8-0.9,0.5-2.3,0.3-3.5s0-2.8,1.2-3.1c1.4-0.4,2.4,1.3,2.8,2.7c0.5,1.9,0.8,3.8,0.9,5.8c-1.1-2.4-0.9-5.2,0.3-7.5
			c0.6-1.1,1.7-2.2,3-1.9c1.5,0.4,1.8,2.3,2.4,3.8c0.6,1.4,1.8,2.6,3.3,2.9s3.2-0.5,3.8-1.9s-0.3-3.3-1.8-3.6"/>
		<path class="st22" d="M116.6,128.3c-0.1,1,1,1.9,2.1,1.8s1.9-0.8,2.6-1.6c0.6-0.8,1.1-1.8,1.8-2.6c0.5,4.7,0.6,9.4,0.3,14.1"/>
		<path class="st22" d="M123.1,125.8c0.6-0.7,1.5-0.9,2.4-1c1.5-0.2,3.3-0.2,4.3,1c0.8,1,0.7,2.4,0.3,3.6c-1,2.7-4.2,5-9.1,5"/>
		<path class="st22" d="M130.3,137.1c0.8-0.6,1.2-1.5,1.5-2.5c0.6-1.7,0.8-3.6,0.8-5.4c-0.1,2,0,4.1,0.4,6.1
			c0.1,0.3,0.3,0.8,0.6,0.7c0.1,0,0.2-0.1,0.3-0.2c0.4-0.6,0.5-1.4,0.7-2.1c0.6-2.6,2.4-4.9,4.8-6c-2.3,1.3-4.4,3.4-4.4,6
			c0,1,0.5,2.1,1.5,2.3c0.4,0.1,0.7,0,1.1-0.2c1.7-0.7,2.5-2.6,3-4.3c0.8-2.7,1.2-5.5,1.2-8.3c0.3,4.5,0.5,9.1,0.5,13.6"/>
		<path class="st23" d="M132,125.8c-0.3,0-0.4,0.3-0.5,0.5c-0.1,0.3-0.1,0.6-0.1,0.9c0,0.2,0.1,0.4,0.3,0.5c0.1,0.1,0.2,0.2,0.4,0.2
			c0.1,0,0.2,0.1,0.4,0.1c0.6,0.1,1.2-0.4,1.3-1c0.1-0.5-0.2-0.7-0.6-0.9C132.8,126,132.4,125.7,132,125.8z"/>
		<path class="st22" d="M147.4,122.9c-1.4,1.7-2.8,3.4-4,5.2c-0.4,0.6-0.8,1.1-1,1.8c-0.1,0.1-0.1,0.3-0.1,0.4
			c0,0.2,0.2,0.3,0.4,0.4c1.6,0.9,3.7,0.8,5.4,0.1c1.7-0.8,3.1-2.1,4.4-3.5c1.8-2,3.5-4.3,4.3-6.9c0.1-0.5,0.2-1.1-0.2-1.4
			c-0.1-0.1-0.3-0.1-0.5-0.1c-0.7,0-1.4,0.5-2,0.9c-1.3,1.1-2.3,2.5-2.8,4.2c-0.4,1.5-0.4,3-0.3,4.5c0,0.9,0.1,2,0.9,2.5
			c0.5,0.3,3,1.9,6.3-0.4c0.6-0.4,1.3-0.9,1.9-1.4c0.9-1,1.5-2.2,1.8-3.5c0.1-0.5,0.2-1.1,0.1-1.6c-0.1-0.5-0.4-1-0.8-1.3
			c-0.6-0.4-1.4-0.3-2,0.2c-0.6,0.4-0.9,1.2-0.9,1.9c0,0.7,0.2,1.4,0.5,2.1c0.5,1,1.3,1.9,2.4,2.3c1,0.4,4.1,1.1,6.7-2.1"/>
	</g>
	<g id="Top">
		<path class="st24" d="M267.2,142.2c3,0.6,6.1,1.4,8.4,3.1c0.9,0.7,1.8,1.5,1.9,2.6c0.4,2.4-2.8,4-5.5,4.8
			c-18.9,5.9-39.7,6.6-59.6,4.1c-2.9-0.4-12-0.5-12.1-3.8c0-2.9,9.8-5.6,12.4-6.7c7.7-3.3,16.2-5.2,24.8-5.9
			C247.5,139.5,257.6,140.2,267.2,142.2z"/>
		<path class="st25" d="M277.7,148.9c1.3,2.6,2.1,5.3,2.5,8.1c0.1,0.9,0.2,1.9-0.2,2.7c-0.4,0.8-1.2,1.4-2,1.9
			c-6.6,4.6-14.8,7.7-23.4,9.3c-8.5,1.7-17.3,2-26.1,1.7c-2.4-0.1-4.8-0.2-7.2-0.3c-3.3-0.2-6.7-0.4-10-0.5c-2.1-0.1-4.3-0.3-6-1.2
			c-1.6-0.9-2.5-2.3-3.1-3.8c-1.8-4.1-1.6-8.5-1.3-12.9c0,0-0.3,2.4,15.6,3.3c0,0,20.9,1.6,34.3-0.4c0,0,14.6-1.3,23.6-5.1
			c0,0,2.3-1,3-2.6L277.7,148.9z"/>
		<path class="st26" d="M204.2,153.2c2.4-2.4,6.2-3.6,9.8-4.6c3-0.8,6-1.6,9-2.3c11.7-2.4,24-2.2,36.1-2c2,0,4.1,0.1,6.1,0.3
			c3.4,0.4,6.8,1.2,9.2,3.2"/>
		<path class="st26" d="M218,156.9c6.1-4.9,14.9-7.2,23.5-7.6c1.4-0.1,2.7-0.1,4.1-0.3c1.5-0.2,3-0.5,4.5-0.7
			c7.6-1.1,15.7,0.4,22,4.1"/>
		<path class="st26" d="M211.1,155.5c6.5-4.1,14.1-7,22.2-8.3c4.7-0.8,9.6-1,14.4-1.3c6.4-0.3,13.2-0.6,18.8,2
			c1.2,0.5,2.2,1.2,3.5,1.5c1.9,0.5,4.3,0.3,5.7,1.4"/>
		<path class="st26" d="M202.8,157.9c3.1,0.7,6.2,1.3,9.4,1.8"/>
		<path class="st26" d="M202.3,160.9c1.6,0.5,3.2,1,4.9,1.3s3.5,0.3,5.1-0.1"/>
		<path class="st26" d="M202.8,164.6c2.4,0.3,4.7,0.4,7.1,0.4c1.5,0,3-0.1,4.2-0.8"/>
		<path class="st26" d="M204.6,167.8c3.4,0.1,6.9,0.2,9.8-1.2"/>
		<path class="st26" d="M207.8,170.2c2.9,0.2,5.9-0.3,8.6-1.4"/>
		<path class="st26" d="M278.6,151.4c-1.6,1.8-4,3-6.6,3.6"/>
		<path class="st26" d="M279.1,154.4c-2.1,1.2-4.4,2.2-6.8,2.9"/>
		<path class="st26" d="M279.5,156.3c-1.8,1.6-4.3,2.6-6.9,2.9"/>
		<path class="st26" d="M279.8,158.9c-2.2,1.1-4.6,2-7.2,2.6"/>
	</g>
</g>
<g id="Circle_4_00000022522372343186384610000002960530977480198545_">
	<path class="st4" d="M47.5,211.6c-0.6,1.7-0.3,3.6,0.2,5.3c0.1,0.3,0.2,0.6,0.4,0.8s0.4,0.4,0.7,0.5c1.4,0.8,3,1.1,4.5,0.8
		c3.6-0.7,5-4.4,4.1-7.6c-0.7-2.5-3.5-3.6-5.9-3.3C49.5,208.3,48,209.9,47.5,211.6z"/>
	<path class="st14" d="M50.8,211.5c-0.1,0-0.2,0-0.2,0.1c-0.2,0.1-0.3,0.3-0.3,0.5s0.1,0.4,0.2,0.6c0.1,0.2,0.2,0.3,0.4,0.4
		c0.1,0,0.2,0,0.3,0c0.6,0,1.1-0.6,1-1.2C52,211.2,51.3,211.3,50.8,211.5z"/>
	<path class="st14" d="M53.3,212c-0.2,0.3-0.1,0.7,0.1,1c0.1,0.1,0.2,0.2,0.3,0.3s0.3,0.1,0.4,0.1c0.1,0,0.3,0,0.4,0
		c0.9-0.3,0.8-2.2-0.4-1.9C53.9,211.5,53.5,211.7,53.3,212z"/>
</g>
<path class="st6" d="M51.2,223c3.1,1.4,7.2-0.7,7.9-4.1"/>
</svg>
