<?xml version="1.0" encoding="utf-8"?>
<!-- Generator: Adobe Illustrator 27.2.0, SVG Export Plug-In . SVG Version: 6.00 Build 0)  -->
<svg version="1.1" id="Blonnopies_8" xmlns="http://www.w3.org/2000/svg" xmlns:xlink="http://www.w3.org/1999/xlink" x="0px"
	 y="0px" viewBox="0 0 300 450" style="enable-background:new 0 0 300 450;" xml:space="preserve">
<style type="text/css">
	.st0{fill:#84D0D3;}
	.st1{fill:#BFD857;}
	.st2{fill:#009395;}
	.st3{fill:#0095A4;}
	.st4{fill:#59C5C7;}
	.st5{fill:#00B1B3;}
	.st6{fill:#3C9BBD;}
	.st7{fill:#007DA4;}
	.st8{fill:none;stroke:#7FB036;stroke-width:3;stroke-linecap:round;stroke-linejoin:round;stroke-miterlimit:10;}
	.st9{fill:none;stroke:#7FB036;stroke-width:6;stroke-linecap:round;stroke-linejoin:round;stroke-miterlimit:10;}
	.st10{fill:none;stroke:#7FB036;stroke-width:2;stroke-linecap:round;stroke-linejoin:round;stroke-miterlimit:10;}
	.st11{fill:none;stroke:#608B28;stroke-width:4;stroke-linecap:round;stroke-linejoin:round;stroke-miterlimit:10;}
	.st12{fill:#F6B1CF;stroke:#F494BE;stroke-linecap:round;stroke-linejoin:round;stroke-miterlimit:10;}
	.st13{fill:#7A1502;}
	.st14{fill:none;stroke:#7A1502;stroke-linecap:round;stroke-linejoin:round;stroke-miterlimit:10;}
	.st15{fill:#BE0071;}
	.st16{fill:#8E0053;stroke:#7B0046;stroke-miterlimit:10;}
	.st17{fill:#FFCF01;stroke:#FBAD18;stroke-width:2;stroke-miterlimit:10;}
	.st18{fill:#D51C29;}
	.st19{fill:#F57E25;}
	.st20{fill:#FFFEF9;stroke:#D6CAB9;stroke-miterlimit:10;}
	.st21{fill:#B11A29;stroke:#790016;stroke-linecap:round;stroke-linejoin:round;stroke-miterlimit:10;}
	.st22{fill:none;stroke:#000000;stroke-linecap:round;stroke-linejoin:round;stroke-miterlimit:10;}
	.st23{fill:#BE0071;stroke:#7B0046;stroke-miterlimit:10;}
	.st24{fill:#790002;stroke:#D51C29;stroke-miterlimit:10;}
</style>
<rect x="-0.5" y="-0.5" class="st0" width="300.9" height="356.7"/>
<path class="st1" d="M0.2,353.1c22.9-9.8,49-6.2,74-5.4c27.3,0.9,54.7-1.8,81.8-4.8c48.2-5.3,96.8-11.6,144.9-5.3v114.2H-2.2
	L0.2,353.1z"/>
<path class="st2" d="M196.2,59.2c-2.5,1.2-4.1,3.9-4.1,6.6c0,0.7,0.1,1.5,0.5,2.1c0.3,0.6,0.8,1.2,1.4,1.6c1.7,1.4,3.9,2.2,6.1,2
	c2.2-0.1,4.3-1.2,5.6-3c1-1.4,1.5-3.1,1.9-4.7c2.1-7.6,4.2-15.2,6.3-22.8c4.6,0.6,9.3,0.6,13.9,0c2.5-0.3,5-0.8,7.5-0.4
	c-1.4,6.5-3.1,12.9-4.9,19.3c0,0.1-0.1,0.3-0.2,0.4c-0.3,0.4-1.1,0.2-1.4-0.2c-0.4-0.4-0.5-1-0.9-1.4c-0.7-0.8-1.8-0.9-2.8-0.9
	c-2.3,0-4.6,0.6-6.4,2c-1.8,1.4-2.9,3.8-2.4,6c0.6,2.9,3.7,4.6,6.6,5c2,0.3,4.1,0,5.7-1.1c1.5-1.1,2.3-2.8,3-4.4
	c1.7-4,2.7-8.2,3.7-12.4c0.8-3.1,1.5-6.3,2.3-9.4c0.7-2.9,1.4-5.8,1.6-8.7c0-0.4,0-0.7-0.2-1c-0.4-0.6-1.3-0.5-2-0.3
	c-7.3,1.5-14.9-0.6-22.2,0.7c-0.7,0.1-1.5,0.3-2.1,0.8c-0.8,0.7-1,1.7-1.2,2.7c-1.4,6.3-2.8,12.6-4.2,18.8c-0.6,2.6-1.3,4.3-4.2,3.1
	C200.6,58.5,199.1,58.4,196.2,59.2z"/>
<path class="st3" d="M203,94.3c13.7-6.2,27.4-12.5,41.1-18.7c1.1-0.5,2.2-1,3.5-1.1c2.7-0.1,5.1,2.1,6,4.7c0.9,2.6,0.8,5.4,0.7,8.1
	c-0.4,17.9,3.4,35.6,6.3,53.3c0.6,3.4,1.1,6.9,0,10.1c-1.6,4.9-6.6,8-11.5,9.6c-3.8,1.2-7.9,1.7-11.7,0.4c-3.6-1.3-6.6-4.2-7.9-7.9
	c-1.2-3.6-0.7-7.8,1.4-11c2.3-3.5,6.3-5.7,10.4-6.7s8.4-0.9,12.6-0.8c0.4-8.2-0.9-16.4-2.2-24.6c-1-6.6-2-13.1-3.1-19.7
	c-3.1,0.7-6,2.2-8.9,3.6c-11,5.4-22.2,10.3-33.6,14.7c-0.4,0.2-0.8,0.3-1.2,0.6c-1.1,0.9-0.8,2.7-0.5,4.1c1.6,6.5,2.9,13.2,3.9,19.8
	c0.5,3.3,0.9,6.7,1.3,10c0.7,5.8,1.4,11.6,2.1,17.4c0.7,5.6,1.2,11.8-2.2,16.2c-1.2,1.6-2.8,2.7-4.5,3.8c-3.8,2.5-8.1,4.6-12.6,4.8
	s-9.4-1.7-11.7-5.7c-2.2-3.8-1.7-8.6-0.9-12.9c0.2-1.2,0.4-2.4,1.1-3.3c0.6-0.9,1.5-1.5,2.3-2c6.4-4,14.4-5.3,21.8-3.7
	c-0.5-0.1-1.1-13.2-1.3-14.5c-0.5-5-1.2-10-1.9-15c-1.1-7.3-3.5-14.7-3.9-22C197.8,100.9,198,96.6,203,94.3z"/>
<path class="st4" d="M182.5,95.1c0.5,0.1,0.9,0.2,1.3,0.5c1,0.7,1,2.2,0.8,3.4c-0.4,2.5-1.4,4.8-2.4,7.1c-1.5,3.5-2.9,7-4.4,10.5
	c-1.8,4.2-3.6,8.5-6.2,12.3c-0.9,1.3-1.8,2.5-3.1,3.4c-3.8,2.9-9.7,2.2-12.7-1.4c-0.3-0.4-0.6-0.8-0.8-1.3c-0.3-0.6-0.4-1.3-0.4-2
	c0-2.4,1.3-4.9,3.3-6.2c2-1.3,4.8-1.6,7-0.6c1.9,0.8,3.7,2.5,5.7,2c1.8-0.4,2.7-2.3,3.3-4c1.2-3.1,2.5-6.2,3.7-9.3
	c0.8-2.1,1.7-4.1,1.9-6.3c-7.3-1.5-14.6-2.9-22-4.2c-0.5-0.1-1.1-0.2-1.6,0c-0.7,0.2-1.1,0.9-1.4,1.5c-3.9,6.8-7.2,14-9.9,21.3
	c-1,2.8-2.1,5.8-4.5,7.6c-2.6,2-6.6,1.9-9.2-0.2c-2.1-1.8-3.2-4.8-2.4-7.5s3.3-4.8,6-4.9c1.6-0.1,3.2,0.4,4.4,1.4
	c0.9,0.8,1.7,1.8,2.9,2.1c1.5,0.3,9.7-20.7,11.1-22.8c3.3-5.2,8.9-4.3,14.3-3.9C172.4,94,177.5,94.2,182.5,95.1z"/>
<path class="st5" d="M246.5,32.7c-0.2-0.2-0.3-0.4-0.6-0.5c-0.2-0.1-0.5-0.1-0.7,0c-0.2,0.1-0.3,0.4-0.3,0.6c0,0.1,0,0.3,0,0.4
	c0,0.2,0.2,0.3,0.3,0.5c0.4,0.4,0.8,0.8,1.3,1.2c0.2,0.2,0.4,0.3,0.7,0.4c0.2,0.1,0.5,0,0.7-0.1c0.2-0.2,0.2-0.5,0.2-0.7
	C247.7,33.8,246.9,33.1,246.5,32.7z"/>
<path class="st5" d="M251.8,33.9c-0.1,0.1-0.1,0.1-0.2,0.2c0,0.1,0,0.2,0,0.4c0,0.1-0.1,0.3-0.1,0.4c0,0.3,0.2,0.5,0.5,0.6
	c0.3,0.1,0.5,0,0.8-0.1c0.9-0.4,2.3-1.5,1.5-2.5C253.4,31.8,252.5,33.3,251.8,33.9z"/>
<path class="st5" d="M252.3,41.1c0.1,0.1,0.3,0.3,0.4,0.4c0.3,0.3,0.6,0.6,1,0.7c0.4,0.1,0.9,0,1.1-0.3c0.4-0.7-0.3-1.3-0.7-1.7
	c-0.4-0.4-0.8-1.1-1.3-1.3c-0.5-0.2-1.1,0.1-1.2,0.6C251.4,40.2,251.9,40.7,252.3,41.1z"/>
<path class="st5" d="M244.8,41.8c0.5,1.5,3.8-1.1,3.2-2.3C247.1,37.9,244.3,40.6,244.8,41.8z"/>
<path class="st5" d="M152.3,65.4c-0.3,0.3-0.6,0.7-1,1c-0.5,0.5-1,1.1-1.1,1.8c0,0.3,0,0.6,0.2,0.9c0.3,0.4,0.8,0.5,1.2,0.3
	c0.4-0.1,0.8-0.4,1.1-0.8c0.6-0.7,1.7-1.5,1.8-2.5C154.6,64.7,153.2,64.5,152.3,65.4z"/>
<path class="st5" d="M152.3,74.9c-0.4-0.3-0.8-0.6-1.3-0.5c-0.5,0.1-0.7,0.6-0.8,1.1c0,0.2,0,0.5,0.1,0.7c0.1,0.2,0.3,0.3,0.4,0.4
	c0.6,0.4,1.1,0.8,1.6,1.3c0.2,0.2,0.5,0.5,0.8,0.6c0.3,0.2,0.7,0.2,1,0c0.2-0.1,0.4-0.4,0.5-0.6c0.1-0.2,0.1-0.3,0.1-0.5
	c0-0.3-0.2-0.5-0.4-0.7C153.6,76,153,75.4,152.3,74.9z"/>
<path class="st5" d="M144.2,74.3c-0.2,0-0.4,0.1-0.6,0.2c-1,0.5-1.9,1.4-2.5,2.4c-0.1,0.2-0.3,0.5-0.3,0.7c0,0.4,0.1,0.7,0.4,0.9
	c0.3,0.2,0.7,0.3,1,0.1c0.2-0.1,0.4-0.3,0.5-0.4c0.6-0.6,1.2-1.2,1.8-1.8c0.3-0.4,0.7-0.8,0.6-1.4C145,74.7,144.6,74.3,144.2,74.3z"
	/>
<path class="st5" d="M140.5,66.2c0-0.3,0.1-0.5,0.2-0.8c0.2-0.3,0.5-0.6,0.8-0.7c0.1-0.1,0.2-0.1,0.3-0.1c0.2,0,0.4,0.1,0.5,0.2
	c0.4,0.4,1.8,1.8,2.2,2.2c0.4,0.4,0.6,1.1,0.3,1.6s-1,0.8-1.5,0.4c-0.1-0.1-0.2-0.2-0.3-0.4C142.7,68.2,140.5,66.7,140.5,66.2z"/>
<path class="st6" d="M184.8,91.9c1.6,0.9,4.7-0.2,2.5-1.9c-0.7-0.5-1.7-0.9-2.6-0.5C183.5,90,183.8,91.3,184.8,91.9z"/>
<path class="st6" d="M177.8,90c0,0.3,0.1,0.6,0.3,0.8c0.2,0.3,0.6,0.5,1,0.6c1.4,0.4,3.6-0.3,2.7-1.7
	C181.1,88.7,177.9,88.2,177.8,90z"/>
<path class="st6" d="M172.6,88.4c-0.4,0.2-0.9,0.6-0.9,1.1c0,0.5,0.5,0.8,0.9,1c1,0.3,3.7,0.8,3.4-1
	C175.9,87.9,173.8,87.9,172.6,88.4z"/>
<path class="st6" d="M166.2,88.9c0,0.2,0,0.5,0.2,0.7c0.2,0.2,0.5,0.3,0.8,0.3c1.2,0.1,4.4,0.1,3-1.7C169.2,87,166.2,87,166.2,88.9z
	"/>
<path class="st6" d="M160.2,87.7c-0.4,0.5-0.5,1.3,0,1.7c0.5,0.5,2.1,0.7,2.7,0.5c0.6-0.2,0.9-0.7,0.9-1.3
	C163.9,86.6,161.2,86.5,160.2,87.7z"/>
<path class="st6" d="M153.8,88c0,0.3,0.1,0.6,0.3,0.8c0.4,0.4,2.3,0.8,2.9,0.4c0.5-0.3,1.1-1.3,0.9-1.8
	C157.2,85.8,153.8,85.8,153.8,88z"/>
<path class="st5" d="M183.2,192.4c0.1,1.1,1.5,0.3,1.9-0.1c0.3-0.4,1.2-1.7,1-2.1C185.6,188.6,183.1,191.5,183.2,192.4z"/>
<path class="st5" d="M183.3,197.6c0.1,0.2,0.3,0.4,0.5,0.6c0.5,0.5,1.5,1.7,2.2,1.3c0.5-0.3,0.7-1.1,0.3-1.6c-0.4-0.5-1.1-0.7-1.6-1
	c-0.4-0.2-0.6-0.4-1-0.2C183.4,196.9,183.2,197.3,183.3,197.6z"/>
<path class="st5" d="M176.9,189.9c-0.3,0.1-0.4,0.5-0.3,0.8c0,0.2,0.2,0.4,0.3,0.6c0,0.1,0.1,0.1,0.1,0.2
	C180.2,195.9,178.7,189,176.9,189.9z"/>
<path class="st5" d="M176.9,197.9c-0.2,0.3-0.4,0.7-0.5,1c0,0.1,0,0.1,0,0.2c0,0.1,0.1,0.2,0.1,0.2c0.2,0.2,0.4,0.4,0.6,0.5
	c0.6,0.1,1.5-1,1.8-1.4c0.2-0.4,0.8-0.9,0.7-1.4C179.2,195.5,177.4,197.4,176.9,197.9z"/>
<path class="st7" d="M270.4,143.5c-0.1,0.3-0.2,0.7-0.1,1c0.1,0.2,0.2,0.3,0.4,0.5c0.1,0.1,0.2,0.2,0.3,0.2c0.3,0.2,0.7,0,1.1-0.2
	c0.9-0.5,1.7-2.2,0.9-3.1C271.8,140.7,270.7,142.6,270.4,143.5z"/>
<path class="st7" d="M269.2,148c-0.2,0.4-0.5,0.9-0.5,1.4c0,0.5,0.2,1.1,0.6,1.3c0.3,0.2,0.7,0.1,1-0.1c0.7-0.5,1.5-2,1.1-2.9
	C270.8,146.5,269.6,147.2,269.2,148z"/>
<path class="st7" d="M265.5,154.3c0,0.2,0,0.4,0.1,0.5c0.1,0.1,0.2,0.2,0.3,0.3c0.6,0.3,1.3,0.1,1.8-0.3c1.1-0.7,1.7-2.3,0.3-3
	C266.6,151.1,265.5,153.2,265.5,154.3z"/>
<path class="st7" d="M263.1,156.6c-0.1,0.2-0.2,0.3-0.3,0.5c-0.2,0.3-0.4,0.5-0.4,0.8c-0.1,0.3,0,0.7,0.2,0.9
	c0.1,0.1,0.2,0.1,0.4,0.2c0.2,0.1,0.3,0.1,0.5,0.2c0.1,0,0.2,0.1,0.4,0.1c1.1,0.1,2.1-2,1.9-2.9
	C265.3,154.7,263.7,155.7,263.1,156.6z"/>
<path class="st7" d="M259.1,161.6c-0.1,0.6,0.3,1.3,1,1.4c0.5,0.1,1-0.2,1.4-0.6c0.7-0.7,1.3-2.1,0.1-2.6
	C260.5,159.3,259.2,160.5,259.1,161.6z"/>
<path class="st7" d="M254.6,165.3c0,0.1,0,0.2,0,0.2c0,0.1,0.1,0.2,0.2,0.2c0.9,0.6,1.7,0.2,2.4-0.6c0.4-0.4,0.4-1,0.1-1.5
	c-0.3-0.5-0.8-0.7-1.4-0.5C255,163.6,254.5,164.3,254.6,165.3z"/>
<path class="st7" d="M185.8,207c-1.6-0.3-3.4,0.8-3.8,2.3c-0.4,1.6,0.5,3.4,2,3.9c1.8,0.6,3.8-0.5,5.4-1.6c4.2-2.9,8.3-5.9,12.3-9.1
	c0.2-0.1,0.3-0.3,0.4-0.5c0.2-0.4-0.3-0.9-0.8-0.9s-0.9,0.3-1.2,0.6c-2.9,2.1-5.7,4.5-8.8,6.3C188.1,210,188.8,207.6,185.8,207z"/>
<path class="st8" d="M214,236.6c6.3,23.4,4,41.6,4.2,63.1c0.1,6-0.2,12.1-2.4,17.7c-2.9,7.2-8.9,12.8-14.9,17.8
	c-17.3,14.5-36.6,27.1-58,34.3c-6.1,2-12.3,3.6-18.6,5.1c-30.5,6.9-83.2,10.1-114.4,8.5"/>
<path class="st9" d="M228.6,236c5.6,11,13.8,59,10.4,70.9c-3,10.5-9.4,19.7-15.8,28.5c-8.6,11.8-18,23.6-30.7,30.6
	c-9.7,5.4-20.8,7.6-30.8,12.3c-8.5,4-16.3,9.6-25,13.1c-6.3,2.5-13.1,3.9-19.8,5.2c-27.5,5.4-55.5,10.9-83.5,8.8"/>
<path class="st10" d="M241.9,230.9c13.3,15.6,19.4,36.4,21,56.9c0.9,11.9,0.4,24.2-4.1,35.3c-4.6,11.4-12.9,20.8-21.4,29.6
	c-11,11.5-22.6,22.7-36.4,30.7c-6.7,3.8-13.7,6.9-20.8,9.9c-9.7,4.2-19.5,8.4-29.7,11.3c-8.7,2.5-17.6,4.1-26,7.4
	c-6.4,2.5-12.5,6.1-19.1,8c-5.6,1.6-11.4,2-17.2,2.4c-18.6,1.2-56.4,2.5-75,3.7"/>
<path class="st8" d="M255.1,226.9c12,9.2,25.6,23.6,28.7,38.4c3.1,14.8,2.5,30.1,1.5,45.1c-0.8,12.1-2,24.7-8.4,35.1
	c-3.4,5.6-8.2,10.2-12.9,14.7c-15.9,15.3-32.1,30.8-51.9,40.4c-24.8,11.9-54.7,14.2-75.3,32.4"/>
<path class="st11" d="M227.7,216.8c-0.4-2.5,1.5-5.1,4-5.7s5.2,0.5,6.9,2.4c0.8,1,1.5,2.2,1.4,3.4c-0.1,1.8-1.4,3.3-2.8,4.4
	c-2.4,2-5.4,3.9-8.5,3.1c-1.6-0.4-3-1.5-4-2.8c-2.3-2.9-2.9-7-1.5-10.5c1.3-3.4,4.6-6,8.2-6.6c2.4-0.4,4.8,0.1,7.1,0.6
	c2.2,0.5,4.3,1.1,6.3,2c2.6,1.2,5.1,2.9,7.8,4c4.4,1.7,9.4,1.7,13.8-0.1c0.7-0.3,1.3-0.6,1.7-1.2c1-1.4,0.1-3.5-1.4-4.3
	s-3.3-0.6-5-0.4c-13.6,2.3-25.1,10.8-37.1,17.5c-2.3,1.3-4.6,2.5-7.1,3c-1.6,0.3-3.4,0.4-4.7-0.5c-0.8-0.5-1.5-1.3-2-2.2
	c-0.9-1.6-1.4-3.5-0.9-5.2c0.5-1.7,2.2-3.2,4-2.9c1.8,0.2,3.1,2.5,2.1,4"/>
<g>
	<path class="st12" d="M47,193.2c7.9-4,16.6-6.3,25.4-6.6c2.2-0.1,4.5,0,6.7,0.4c3.1,0.6,6.1,1.8,9,3.1c1.7,0.8,3.3,1.5,4.8,2.6
		c4.1,3,6.2,8.1,6.8,13.2c0.6,5.1-0.1,10.2-0.7,15.2c-0.4,3.5-0.8,7-1.1,10.5c-0.2,2.3-0.5,4.6-0.7,6.9c-0.7,6.8-1.4,13.5-2.1,20.3
		c-0.2,1.5-0.3,3-0.9,4.3c-0.5,1.1-1.2,2-2,2.8c-3.4,3.5-8.2,5.5-13,6.2c-4.8,0.7-9.8,0.3-14.6-0.3c-4.6-0.5-9.4-1.3-12.9-4.3
		c-4.6-4-5.7-10.6-6.3-16.7c-1-9.7-0.6-19.4-2.1-29.1c-1-6-2.1-12-2.9-18.1C39.7,198.7,42.8,195.3,47,193.2z"/>
	<g>
		<path class="st13" d="M54,212c-0.3,0.7-0.6,1.5-0.3,2.3c0.2,0.5,0.7,0.8,1.1,1.1c0.5,0.3,1,0.7,1.6,0.7c1.9,0.2,2.8-1.8,2.4-3.4
			c-0.4-1.3-1.2-1.8-2.5-1.9C55.2,210.7,54.5,210.9,54,212z"/>
		<path class="st14" d="M53.8,213.2c-0.6,0-1.1-0.3-1.6-0.8c-0.4-0.4-0.7-1-1-1.5c-0.3-0.5-0.6-1.1-0.9-1.6c-0.4-0.7-0.7-1.3-0.9-2
			c-0.2-0.7-0.1-1.6,0.5-2"/>
		<path class="st14" d="M54.5,211.5c-0.2-0.5-0.4-1-0.4-1.5c-0.1-1-0.1-2,0.3-2.9c0.4-0.9,1.1-1.7,2-2.1"/>
		<path class="st14" d="M57,211.1c0-0.6,0.3-1.2,0.6-1.7c0.7-1.2,1.4-2.5,2.5-3.4c1.1-0.9,2.5-1.5,3.9-1.3"/>
		<path class="st14" d="M58.4,212.9c-0.1-1.1,0.5-2.1,1.4-2.8c0.9-0.6,2-0.9,3-1"/>
	</g>
	<g>
		<path class="st13" d="M85.3,210.5c-0.7,0.2-1.4,0.4-1.8,1c-0.2,0.2-0.3,0.5-0.3,0.7c-0.2,0.9-0.1,1.8,0.3,2.6s1.3,1.3,2.2,1.4
			c0.5,0,1.1-0.1,1.6-0.3c1.5-0.6,2.2-2.6,1.6-4.1C88.4,210.6,86.5,210.2,85.3,210.5z"/>
		<path class="st14" d="M83.1,213.7c-1-0.3-1.8-1-2.5-1.8c-0.3-0.4-0.7-0.8-0.9-1.2c-0.4-0.9-0.4-1.9-0.4-2.9c0-0.5,0-1,0.3-1.4
			c0.3-0.6,1-0.8,1.7-1"/>
		<path class="st14" d="M84.9,210.7c-0.3-0.1-0.5-0.4-0.6-0.7c-0.1-0.3-0.1-0.6-0.2-1c-0.1-1.1-0.1-2.2,0.6-3c0.5-0.6,1.2-0.8,2-1.1
			"/>
		<path class="st14" d="M87.8,210.8c0-1.4,0.7-2.7,1.8-3.6c1.3-0.9,2.9-1.2,4.5-1.3"/>
		<path class="st14" d="M88.6,213.4c0-1.3,0.8-2.4,1.9-3.1c1.1-0.7,2.4-0.9,3.6-0.8"/>
	</g>
	<g>
		<path class="st15" d="M91.1,242.2c-0.1-4.6-1.7-9.1-4.3-12.9c-0.4-0.5-0.8-0.8-1.3-1.1c-3.9,0.5-7.8,1.1-11.4,2.5
			c-0.6,0.2-1.1,0.5-1.6,0.8c-1.4,1-2.3,2.7-4,2.9c-0.4,0.1-0.8,0-1.2,0c-1.3,0-2.7,0.3-3.9,0.9c-1,0.5-1.9,1.2-2.8,1.9
			c-1.7,1.3-3.5,2.7-5.2,4c0,1.2,0.7,3.8,0.8,4.3c0.1,0.3,1.5,3,2.2,4c1,1.4,2.1,2.8,3.5,3.8c0.5,0.4,2.5,2.1,3.2,2.5
			c3.2,1.4,6.4,1.6,6.9,1.7c1.4,0.3,5.2-0.5,5.7-0.6c1.7-0.4,3.3-0.9,4.9-1.6c2.1-1,4-2.6,5.7-4.2c0.9-0.8,1.8-1.6,2.3-2.7
			c0.5-1,0.5-2.2,0.6-3.3C91.1,244.1,91.1,243.2,91.1,242.2z M89.1,243.2c-0.3,1-1,1.9-1.6,2.7c-1.2,1.5-2.5,3-4,4.2
			c-1.3,1-2.9,1.7-4.4,2.5c-1,0.5-2.1,1-3.2,1.2c-0.8,0.1-1.6,0.2-2.3,0.1c-2.1,0-4.3-0.2-6.3-1.1c-2.4-1.1-4.2-3.2-5.8-5.2
			c-1.1-1.4-2.3-2.8-2.6-4.5c5.8-2.6,11.7-5.2,17.5-7.8c0.5-0.2,1-0.4,1.5-0.7c0.5-0.3,1-0.6,1.6-0.9c1.6-0.9,3.4-1.4,5.2-2
			c0.4-0.1,1.3,0.1,1.4,0.5c0.8,2,1.5,4,2.3,6C89,239.7,89.6,241.5,89.1,243.2z"/>
		<path class="st16" d="M86.1,232.1c-0.2-0.4-1-0.7-1.4-0.5c-1.8,0.5-3.6,1.1-5.2,2c-0.5,0.3-1,0.6-1.6,0.9c-0.5,0.3-1,0.5-1.5,0.7
			c-5.8,2.6-11.7,5.2-17.5,7.8c0.3,1.7,1.4,3.2,2.6,4.5c1.7,2,3.4,4.1,5.8,5.2c1.9,0.9,4.1,1.1,6.3,1.1c0.8,0,1.6,0,2.3-0.1
			c1.1-0.2,2.2-0.7,3.2-1.2c1.5-0.7,3-1.5,4.4-2.5c1.6-1.2,2.8-2.7,4-4.2c0.7-0.8,1.3-1.7,1.6-2.7c0.5-1.7-0.1-3.4-0.8-5
			C87.6,236.1,86.8,234.1,86.1,232.1z"/>
	</g>
	<path class="st17" d="M98.7,283.8c1,2.6,2.1,5.3,3.6,7.7c3,4.8,7.8,8.2,12.4,11.5c3,2.1,6.1,4.2,9.6,4.9c6.1,1,11.9-2.5,17.1-6
		c0.9-0.6,1.9-1.3,2.2-2.3c0.6-1.8-1.1-3.5-2.5-4.8c-10.9-10.3-13.8-26.3-16.1-41.2c-0.8-5-1.6-10.1-2.3-15.1
		c-0.9-5.9-1.8-11.7-3.2-17.5c-1.8-7.4-4.3-14.7-6.9-21.9c-1.5-4.4-3.1-8.7-4.6-13.1c-1-2.9-2-5.8-3.9-8.2c-2.2-2.9-5.5-4.9-8.6-6.8
		c-4.7-2.8-10-5.8-15.5-4.8c-4.3,0.8-8.7,3.6-11.1,7.2c-0.5,0.8-1.7,0.9-2.6,0.5c-0.9-0.4-1.6-1.1-2.5-1.6c-0.8-0.5-1.8-0.7-2.7-0.9
		c-13.1-2.8-27.4,5-32.8,17.3c-0.7,1.7-1.3,3.5-1.7,5.3c-0.4,2.1-0.4,4.2-0.5,6.3c-0.4,15.9-0.7,31.7-1.1,47.6
		c-0.1,5.2-0.2,10.4-1.1,15.6c-0.8,5-2.3,9.8-4.1,14.5c-2.4,6.4-5.2,12.7-9.5,18c-3,3.7-6.8,7.4-6.6,12.1c5.1,2.6,10.5,5.3,16.3,5.1
		c4.6-0.2,9-2.3,12.8-5c2.4-1.6,4.7-3.5,6.7-5.6c1.5-1.6,2.9-3.4,4.3-5.2c4.5-6,9.5-20.4,10.6-27.8l-0.4-0.2c-0.9-0.5-1.7-1-2.5-1.7
		c-4.6-4-5.7-10.6-6.3-16.7c-1-9.7-0.6-19.4-2.1-29.1c-1-6-2.1-12-2.9-18.1c-0.6-5.1,2.5-8.5,6.7-10.6c7.9-4,16.6-6.3,25.4-6.6
		c2.2-0.1,4.5,0,6.7,0.4c3.1,0.6,6.1,1.8,9,3.1c1.7,0.8,3.3,1.5,4.8,2.6c4.1,3,6.2,8.1,6.8,13.2c0.6,5.1-0.1,10.2-0.7,15.2
		c-0.4,3.5-0.8,7-1.1,10.5c-0.2,2.3-0.5,4.6-0.7,6.9c-0.7,6.8-1.4,13.5-2.1,20.3c-0.2,1.5-0.3,3-0.9,4.3c-0.5,1.1-1.2,2-2,2.8
		c-0.2,0.3-0.5,0.5-0.7,0.7C91.6,266.8,96.5,278.3,98.7,283.8z"/>
	<path class="st18" d="M48.8,264c1.6,0.7,3.2,1.1,4.9,1.3c0.8,0.1,1.5,0.1,2.3-0.1c0.7-0.2,1.4-0.5,2.1-0.8c2.5-1,5.3-1.1,8-1.1
		c2.4-0.1,5.1,0,6.9,1.5c0.5,0.4,1.1,1.1,1.8,1c0.8-0.1,1.1-1,1.7-1.6c0.6-0.7,1.6-1,2.5-1.1c5-0.8,15.2,0.6,15.2,0.6
		c-0.5,0.9-1.1,1.7-1.8,2.5c-3.4,3.5-8.2,5.5-13,6.2c-4.8,0.7-9.8,0.3-14.6-0.3c-4.6-0.5-9.4-1.3-12.9-4.3c-1.3-1.1-2.3-2.4-3.1-3.9
		"/>
	<path class="st18" d="M65.1,272.2c-3,14.4,0.8,29.2,1.5,43.9c0.4,6.9,0,13.7-0.3,20.6c-2.4,0.2-4.7,0.5-7,1.2
		c-0.6-4.6,0.7-9.2,0.9-13.9c0.2-5-0.7-10-1.1-14.9c-0.4-6.4,0.2-12.9,0.5-19.3c0.3-6.1,0.3-12.3-0.2-18.4L65.1,272.2z"/>
	<path class="st18" d="M87.1,270.1c0,6-0.1,14.3,0.5,20.3c0.2,1.9,0.4,3.8,0.6,5.8c0.3,4.5,0.2,9,0.3,13.5
		c0.3,8.2,1.4,16.3,3.4,24.2c0.1,0.4,0.2,0.9-0.1,1.2c-0.2,0.2-0.4,0.2-0.7,0.3c-1.5,0.3-2.9,0.5-4.4,0.8c-0.2,0-0.5,0.1-0.7-0.1
		c-0.2-0.1-0.2-0.3-0.3-0.5c-1.9-4.8-2.3-10.1-2.3-15.3s0.4-10.4,0.1-15.6c-0.2-3.8-0.9-7.5-1.3-11.2c-0.7-6.9-0.7-14.7-0.4-21.6
		L87.1,270.1z"/>
	<path class="st19" d="M59.3,338c-0.1,2.5-0.2,5-0.4,7.5c2.9-0.3,5.8-0.5,8.7-0.6c0-2.2,0.1-4.5,0.1-6.7c0-0.4,0-0.7-0.2-1
		c-0.2-0.3-0.5-0.6-0.9-0.4"/>
	<path class="st19" d="M85.9,336.3c0.1,2,0.4,4,1.1,5.9c0,0.1,0.1,0.2,0.2,0.3c0.2,0.2,0.4,0.1,0.7,0.1c1.4-0.3,2.9-0.4,4.4-0.2
		c0.2,0,0.3,0,0.5-0.1c0.1-0.1,0.1-0.3,0.1-0.5c-0.2-2.2-0.4-4.4-0.5-6.6"/>
	<path class="st20" d="M49.2,364.1c-0.1,3.1,0.1,6.2,0.5,9.2c0,0.1,0,0.1,0.1,0.2c0.1,0.1,0.2,0.1,0.3,0.1c2.2,0,4.5-0.2,6.7-0.3
		c1.8-0.1,3.5-0.3,5.3-0.4c2.1-0.2,4.2-0.3,6.3-0.5c0.4,0,0.9-0.1,1.2-0.4c0.2-0.3,0.2-0.7,0.3-1c0.1-3.8-0.2-7.6-1-11.4"/>
	<path class="st20" d="M77.1,360.9c0.3,2.8,0.5,5.6,0.8,8.4c0.1,0.6,0.1,1.3,0.2,1.9c0,0.1,0,0.3,0.1,0.4c0.1,0.1,0.3,0.1,0.4,0.1
		c2.4,0.2,4.7-0.4,7.1-0.9c1.1-0.3,2.3-0.5,3.4-0.7c2.2-0.4,4.5-0.8,6.8-0.9c0.2,0,0.4,0,0.5-0.1c0.1-0.1,0.2-0.2,0.3-0.3
		c0.3-0.4,0.3-1,0.3-1.5c-0.1-3.1-0.3-6.2-0.6-9.2"/>
	<path class="st12" d="M48.8,263.4c-1.4,0.3-3.4,2.1-3.5,3.5c-0.4,4.6-0.5,9.2,0,13.8c0.6,5.7,2.3,11.3,3.2,17
		c0.5,2.7,0.8,5.4,1.1,8c0.2,1.7,0.4,3.3,0.6,5c0.8,6.4,1.5,12.8,2.3,19.3c0.1,0.6,0.1,1.3-0.3,1.7c-0.4,0.4-1.4,0.2-1.3-0.4
		c0.2,0.8-0.5,1.6-1.2,1.6c-0.8,0-1.4-0.9-1.1-1.7c0.1,1-0.3,2.3-1.4,2.5c-1,0.2-2-1.3-1.2-1.9c-0.5,0.7-1.2,1.2-2,1.3
		c-0.8-1.3-0.4-3.1,0.7-4c-1,0.7-2.5,1.2-3.2,0.3c-0.6-0.9,0.2-2,1-2.6s2-0.9,2.4-1.9c0.3-0.6,0.3-1.2,0.2-1.8
		c-0.1-3.4-0.2-6.8-0.8-10.1c-0.4-2.4-1-4.8-1.3-7.2c-0.3-2.2-0.3-4.5-0.3-6.7c-0.1-10.2-1.8-20.4-1.9-30.6c0-1.7,0-3.5,0.6-5.1
		c0.6-1.6,4-3.3,5.7-3.5L48.8,263.4z"/>
	<path class="st21" d="M97,247.4c3.1,5.9,7.4,11,11.7,16.1c1.1,1.3,2.5,2.7,4.1,2.2c0.2-0.1,0.4-0.2,0.5-0.3
		c0.2-0.2,0.2-0.4,0.3-0.7c0.1-0.8-0.3-1.5-0.7-2.2c-3.2-5.7-6.4-11.5-11-16.1"/>
	<path class="st7" d="M136,155.2c0,0-0.1,0.1-0.1,0.2c-0.5,1.1,0.9,1.1,1.4,0.6c0.5-0.5,1.5-1,1.6-1.6c0.1-0.3-0.4-1.1-0.9-1.1
		C137.6,153.2,136.4,154.9,136,155.2z"/>
	<path class="st7" d="M129,162.3c-0.2,1.3,1.3,0.9,1.9,0.3c0.5-0.5,1-1.2,1.1-1.9C132.3,159,129.2,161.3,129,162.3z"/>
	<path class="st7" d="M132.2,156.4c-0.3,0.4-0.9,0.3-1.3,0c-0.6-0.4-2.7-2.4-0.9-2.5C130.9,153.8,133.2,155.2,132.2,156.4z"/>
	<path class="st7" d="M135.9,160.6c0,0.6,0.4,1.1,0.8,1.5c0.2,0.2,0.3,0.4,0.5,0.6c0.2,0.2,0.4,0.4,0.7,0.5c0.3,0.1,0.6-0.1,0.9-0.4
		c0.1-0.1,0.2-0.2,0.2-0.3c0-0.1,0-0.2-0.1-0.3c-0.2-0.6-0.7-1.4-1.3-1.8C137.1,159.9,135.9,159.6,135.9,160.6z"/>
	<path class="st3" d="M94.4,231.1c0,2.1,3.6,2.5,4.2,1.2c0.4-0.9,1.6-2.6,2.1-3.5c0.7-1.3,3.3-6.8,1.5-5c-1,1.1-2.9,7.7-3.9,6
		C97.1,227.7,94.4,228.2,94.4,231.1z"/>
	<path class="st4" d="M122,245.6c-0.7,0.2-1.2,0.8-1.3,1.5c-0.2,1.1,0.6,2.3,1.7,2.5c1.4,0.3,2.6-0.9,3.3-2.1c1-1.7,1.3-3.6,1.9-5.4
		c0.1-0.2,0.2-0.5,0.4-0.6c0.1,0,0.2,0,0.4,0c1,0,2,0.2,3,0.5c0.4-0.1,0.4-0.6,0.2-0.9c-0.2-0.3-0.6-0.3-1-0.4
		c-0.8-0.1-1.5-0.2-2.3-0.3c-0.2,0-0.5-0.1-0.7,0c-0.4,0.1-0.6,0.5-0.7,0.9c-0.8,1.8-1.4,4.6-2.7,6
		C123.6,246.6,123.3,245.3,122,245.6z"/>
	<path class="st7" d="M117.9,186.7c-0.2,0-0.4,0.1-0.5,0.2c-0.2,0.1-0.4,0.4-0.5,0.6c-0.4,1,0,2.2,0.8,2.9c0.8,0.7,2,0.9,3,0.8
		c0.8-0.1,1.6-0.3,2.2-0.9c1-1,1-2.6,0.9-4c-0.2-2.6-0.6-5.3-1.2-7.9c2.4-0.8,4.8-1.8,7-3c0.9,3.3,1.6,6.6,2.1,9.9
		c-0.9,0.1-1.8,0.3-2.5,0.8c-0.7,0.5-1.1,1.5-0.7,2.3c0.2,0.4,0.5,0.6,0.8,0.8c1.4,0.7,3.3,0.2,4.1-1.2c0.8-1.4,0.4-3.2,0-4.7
		c-0.7-2.6-1.5-5.2-2.2-7.7c-0.1-0.2-0.1-0.5-0.3-0.7c-0.3-0.4-0.9-0.5-1.5-0.5c-1.6,0-3.1,0.6-4.6,1.2c-1.3,0.5-2.6,1.2-3.2,2.5
		c-0.5,1.2-0.2,2.5,0.1,3.8c0.2,1,1.1,4,0.3,4.9C121.2,187.9,119.3,186.5,117.9,186.7z"/>
	<path class="st5" d="M113.5,236.1c-0.5-0.4-1.1-0.9-1.8-1.1s-1.5,0-1.9,0.5c-0.6,0.8-0.1,2,0.8,2.4s2,0.1,2.7-0.5
		c0.7-0.6,1.2-1.5,1.7-2.4c1.3-2.7,2.4-5.6,3.1-8.6c0.4,0,0.6,0.3,0.9,0.6c1.1,1.3,2.3,2.6,3.4,3.9c0.2,0.3,0.5,0.5,0.6,0.9
		c0.1,0.5-0.7,1-1.2,0.8s-0.9-0.6-1.3-1c-0.5,0.6-0.1,1.5,0.5,1.9c0.7,0.3,1.5,0.1,2.1-0.4c0.2-0.2,0.4-0.4,0.5-0.7
		c0.1-0.4-0.2-0.9-0.4-1.2c-1.1-1.5-2.2-3-3.3-4.5c-0.6-0.8-1.4-1.7-2.4-1.8c-0.6,2.1-1.2,4.2-1.7,6.2c-0.3,1.1-0.6,2.2-1.1,3.2
		C114.1,235,114,235.6,113.5,236.1z"/>
	<path class="st22" d="M94,263.8"/>
	<path class="st22" d="M94.1,263.7"/>
	<path class="st23" d="M73.9,253.5c-0.4-0.9-0.4-1.9,0-2.8c0.4-0.9,1.2-1.6,2.2-1.8c1.1-0.3,2.4-0.1,3-1c0.2-0.3,0.3-0.7,0.4-1
		c0.5-1.3,2-2.1,3.4-2.1c1.4,0,2.7,0.7,3.7,1.7C83.5,250.2,78.8,252.8,73.9,253.5z"/>
	<path class="st12" d="M109.2,253.7c-1.3,0.1-2.6-0.3-3.5-1.2c-0.3-0.3-0.7-0.7-1.1-0.6c-0.5,0.1-0.7,0.7-0.6,1.1s0.5,0.8,0.9,1.1
		c-0.6-0.5-1.8-1.1-2.3-0.5c-0.5,0.7,0.7,1.6,1.5,1.7c-0.4-0.3-0.9-0.4-1.4-0.3c-0.5,0.3,0.2,0.9,0.8,1c8.1,1.2,16.1,2.4,24.2,3.7
		c4.3,0.6,8.8,1.4,12.2,4c0.3,0.2,0.6,0.5,0.8,0.9c0.2,0.5,0.2,1,0.2,1.5c0,1.6,0,3.2,0,4.9c0,0.8,0,1.6-0.3,2.4
		c-0.5,1.2-1.8,1.9-3,2.2c-1.3,0.3-2.6,0.1-3.9,0c-5.1-0.6-10.3-1.1-15.4-1.7c-1.3-0.1-2.6-0.3-3.8-0.6c-4.3-1-16.4-9.5-20-12
		l-0.9,1.9c2,1.6,12.8,9.5,14.8,11.1c0.6,0.5,1.2,1,1.8,1.3c1.4,0.8,3.1,0.9,4.6,1.3c1.7,0.5,3.2,1.4,4.9,1.7
		c1.3,0.3,2.7,0.3,4.1,0.4c2.2,0.1,4.4,0.5,6.5,1.2c1.7,0.5,3.5,1.2,5.2,0.9c1-0.2,1.9-0.7,2.8-1.1c1.5-0.6,3.2-1,4.5-1.9
		c2.3-1.6,3.2-4.7,3-7.4c-0.2-2.8-1.4-5.4-2.6-7.9c-0.4-0.9-0.8-1.8-1.6-2.4c-0.5-0.4-1.1-0.6-1.7-0.8c-2.7-0.9-5.4-1.9-8.1-2.6
		c-5.1-1.4-10.4-2.2-15.7-2.9C113.8,253.6,109.2,253.7,109.2,253.7z"/>
	<path id="XMLID_00000179631109541781265000000013086199962780180874_" class="st24" d="M95.8,240.8c-0.8,0.4-1.2,1.3-1.4,2.1
		c-0.3,1.1-0.5,2.3,0.3,3.1c0.3,0.4,0.8,0.6,1.3,0.7c1.7,0.5,3.5,0.5,5.2-0.1c2.2-0.8,2.8-4,1-5.5C100.8,240,97.2,240.1,95.8,240.8z
		"/>
	<path class="st20" d="M58.7,345.5c-0.7,2-0.7,4.3-1.4,6.3c-0.8,2.5-2.7,4.5-4.4,6.4c-0.9,1-1.7,1.9-2.6,2.9c-0.5,0.5-1,1.1-1.2,1.8
		c-0.2,0.7,0,1.6,0.6,2c0.3,0.2,0.7,0.2,1.1,0.2c1.2,0,2.3,0,3.5-0.1c0.5-0.1,1-0.1,1.5-0.3c0.8-0.3,1.4-0.8,2.1-1.2
		c2.6-1.4,5.9-0.7,8.7-1.8c0.4-0.2,0.9-0.4,1.2-0.8c0.6-0.6,0.8-1.5,0.9-2.4c0.2-1.6,0.1-3.2,0.1-4.7c0-0.6,0-1.2-0.2-1.8
		c-0.1-0.6-0.3-1.3-0.5-1.9c-0.1-0.7-0.1-1.3-0.1-2c0-1,0-2-0.1-3"/>
	<path class="st20" d="M87.1,342.8c-0.9,3.9-2.8,7.6-5.6,10.5c-1.2,1.3-2.6,2.4-3.8,3.6c-0.6,0.5-1.1,1.2-1.2,1.9
		c-0.2,1,0.5,2.1,1.4,2.5c0.9,0.5,2,0.6,3,0.5c1.4,0,2.9-0.3,4.2-0.9c0.7-0.3,1.3-0.8,2-1.1c1.9-0.9,4-0.7,6.1-0.6
		c0.9,0,1.9,0,2.6-0.7c0.7-0.8,0.5-2,0.3-3.1c-0.2-0.7-0.3-1.3-0.6-1.9c-0.2-0.4-0.4-0.8-0.6-1.1c-0.3-0.7-0.5-1.5-0.7-2.3
		c-0.5-2.6-1-5.2-1.4-7.8"/>
</g>
</svg>
