<?xml version="1.0" encoding="utf-8"?>
<!-- Generator: Adobe Illustrator 27.2.0, SVG Export Plug-In . SVG Version: 6.00 Build 0)  -->
<svg version="1.1" id="Blonnopies_5" xmlns="http://www.w3.org/2000/svg" xmlns:xlink="http://www.w3.org/1999/xlink" x="0px"
	 y="0px" viewBox="0 0 300 450" style="enable-background:new 0 0 300 450;" xml:space="preserve">
<style type="text/css">
	.st0{fill:#AEDFE6;}
	.st1{fill:#BFD857;}
	.st2{fill:#C6DD7F;}
	.st3{fill:#008F3D;}
	.st4{fill:#DFD5C8;}
	.st5{fill:#CBBDA9;}
	.st6{fill:#F2DFC3;}
	.st7{fill:#BAA88D;}
	.st8{fill:#8F6D5D;}
	.st9{fill:#74584B;}
	.st10{fill:#453C38;}
	.st11{fill:#523D33;}
	.st12{fill:#978466;}
	.st13{fill:#F9EED3;}
	.st14{fill:#837359;}
	.st15{fill:#7A6C53;}
	.st16{fill:#A4906F;}
	.st17{fill:#AA9678;}
	.st18{fill:#D6CAB9;}
	.st19{fill:#6DAD48;}
	.st20{fill:#C6DD7F;stroke:#008F3D;stroke-width:2;stroke-linecap:round;stroke-linejoin:round;stroke-miterlimit:10;}
	.st21{fill:#DCEFF3;}
</style>
<rect x="-0.1" y="-0.5" class="st0" width="300.7" height="403.6"/>
<path class="st1" d="M0.1,396.6c5-2.4,17.9,2.7,27.2,1.9c6.8-0.6,13.5-2.2,20.4-2.7c16.9-1.2,33.9,4.4,50.7,2.8
	c16.6-1.7,32-10.3,48.7-11.7c17.5-1.4,34.9,5.4,52.4,4.6c7-0.3,13.9-1.8,20.9-2.1c13.5-0.7,27.1,2.6,40.6,1.7
	c13.3-0.8,26.3-5.7,39.6-4.4v63.6H-0.7C-0.7,450.4-0.7,397,0.1,396.6z"/>
<g>
	<g>
		<path class="st2" d="M250.3,266c0.2,0.9-0.1,1.8-0.3,2.7c1,0.4,1.7,1.5,1.7,2.6c0,1.1-0.7,2.2-1.7,2.6c1,1.3,1.3,3.3,0.3,4.6
			c-1,1.3-3.5,1.1-3.9-0.5c-0.7,0.7-1.1,1.8-1.7,2.6c-0.6,0.8-1.8,1.4-2.7,0.9c-0.8-0.5-0.8-1.7-0.7-2.7c-1.5,0.9-3.5,2.6-4.9,1.5
			c-0.7-0.5-0.3-1.8-0.2-2.7c-1.1,0.2-2.2,0.3-3.3,0.5c-0.6,0.1-1.3,0.2-1.9-0.1c-0.6-0.3-0.8-1.3-0.2-1.6c-0.8-0.7-1.8-1.1-2.7-1.8
			c-0.8-0.7-1.5-1.7-1.3-2.8c0.2-1.1,1.7-1.8,2.4-1c-0.9-0.9-0.4-3.3,0.1-4.2c1-1.4,3-3.9,4.5-3.8c2.3,0.1,2.9,2.5,4.9,1.3
			c1.2-0.7,2.9-2.4,4.4-2.4c1.7,0,2.8,1.9,2.2,3.5C247.1,265.1,249.7,262.8,250.3,266z"/>
	</g>
	<g>
		<path class="st3" d="M242.7,282.2c-0.4,0-0.7-0.1-1-0.3c-0.8-0.5-1-1.3-1-2.2c-1.4,0.9-3.2,2-4.6,1c-0.8-0.6-0.7-1.7-0.5-2.5
			l-2.6,0.4c-0.6,0.1-1.5,0.2-2.2-0.2c-0.5-0.3-0.8-0.8-0.8-1.4c0-0.2,0-0.4,0.1-0.6c-0.3-0.2-0.6-0.4-0.9-0.6
			c-0.5-0.3-0.9-0.6-1.4-0.9c-1.1-0.9-1.7-2.2-1.5-3.3c0.1-0.7,0.8-1.4,1.5-1.7c0.1,0,0.3-0.1,0.4-0.1c-0.3-1.3,0.1-2.9,0.7-3.7
			c0.3-0.4,2.9-4.2,5-4.1c1.1,0.1,1.9,0.6,2.5,1c0.8,0.5,1.2,0.9,2.1,0.4c0.4-0.2,0.8-0.5,1.2-0.8c1.1-0.8,2.3-1.7,3.4-1.7
			c0.9,0,1.8,0.4,2.3,1.2c0.5,0.7,0.6,1.5,0.5,2.3c0.3-0.1,0.6-0.2,0.9-0.3c1-0.3,2-0.6,2.8-0.1c0.5,0.3,0.9,0.9,1,1.9v0
			c0.1,0.9,0,1.7-0.2,2.5c1,0.6,1.6,1.7,1.6,2.9c0,1.1-0.6,2.2-1.5,2.8c0.8,1.4,1.1,3.3,0,4.7c-0.6,0.8-1.8,1.2-3,1
			c-0.6-0.1-1.1-0.4-1.5-0.9c-0.2,0.3-0.3,0.5-0.5,0.8c-0.2,0.4-0.4,0.8-0.7,1.2C244.5,281.6,243.6,282.2,242.7,282.2z M241.9,277.7
			l-0.1,1c-0.1,1.2,0,1.9,0.5,2.2c0.6,0.4,1.5-0.1,2-0.8c0.2-0.3,0.4-0.7,0.6-1c0.3-0.6,0.6-1.1,1.1-1.6l0.6-0.6l0.2,0.9
			c0.2,0.7,0.8,0.9,1.1,0.9c0.7,0.2,1.6-0.1,2-0.6c0.9-1.1,0.5-2.9-0.3-3.9l-0.4-0.5l0.6-0.3c0.8-0.4,1.4-1.3,1.4-2.2
			c0-0.9-0.6-1.8-1.4-2.1l-0.4-0.2l0.1-0.4c0.2-0.8,0.5-1.6,0.3-2.4c-0.1-0.6-0.3-1-0.6-1.2c-0.4-0.3-1.2,0-1.9,0.2
			c-0.6,0.2-1.3,0.4-1.9,0.4l-0.7,0l0.3-0.7c0.3-0.7,0.2-1.5-0.2-2.1c-0.2-0.3-0.7-0.8-1.5-0.8c-0.9,0-1.9,0.8-2.9,1.5
			c-0.5,0.3-0.9,0.7-1.3,0.9c-1.4,0.8-2.4,0.2-3.2-0.4c-0.6-0.4-1.2-0.8-2-0.8c0,0,0,0,0,0c-1.1,0-2.9,1.8-4,3.6
			c-0.5,0.8-0.8,2.9-0.2,3.6l0,0l-0.7,0.7l0,0c-0.2-0.2-0.6-0.2-0.7-0.1c-0.4,0.1-0.8,0.5-0.9,0.9c-0.2,0.9,0.5,1.8,1.1,2.3
			c0.4,0.3,0.8,0.6,1.3,0.9c0.5,0.3,1,0.6,1.4,0.9l0.6,0.5l-0.6,0.4c-0.1,0-0.1,0.1-0.1,0.2c0,0.2,0.1,0.4,0.3,0.5
			c0.4,0.2,0.9,0.2,1.6,0.1l3.9-0.6l-0.1,0.7c0,0.2-0.1,0.4-0.1,0.7c-0.1,0.6-0.2,1.4,0.1,1.6c0.9,0.7,2.3-0.3,3.6-1.1
			c0.2-0.2,0.5-0.3,0.7-0.4L241.9,277.7z"/>
	</g>
</g>
<g>
	<path class="st2" d="M246.6,237.1c-0.9,0.7-1.1,2.2-0.3,3c-0.7-0.3-1.4-0.3-2.1-0.1c-0.7,0.3-1.2,1-1.1,1.7s0.8,1.3,1.5,1.2
		c-0.7,0.5-1.4,0.9-2,1.6c-0.5,0.6-0.9,1.5-0.7,2.3s0.9,1.5,1.8,1.4c0.6-0.1,1-0.5,1.4-0.9c-0.3,1.2,0.5,2.5,1.6,2.9
		c1.1,0.4,2.5-0.3,3-1.4c0.1-0.2,0.1-0.4,0.3-0.5c0.2-0.1,0.4,0,0.5,0c0.7,0.3,1.4,0.8,2.2,0.7c0.7-0.1,1.3-0.6,1.4-1.3
		c0.1-0.7-0.3-1.4-0.9-1.6c1-0.4,2.4,0.3,3.1-0.5c0.3-0.4,0.3-1.1-0.1-1.5c-0.4-0.4-0.9-0.6-1.5-0.5c0.5-0.4,1.1-0.8,1.6-1.2
		c0.2-0.2,0.4-0.3,0.5-0.5c0.3-0.6-0.2-1.3-0.8-1.5c-0.6-0.2-1.2-0.1-1.9,0c0-0.9,1.4-1.4,1.4-2.3c0-0.8-1.1-1-1.9-0.9
		c-0.7,0.1-1.4,0.4-2.1,0.5C249.9,238,248.4,235.8,246.6,237.1z"/>
	<path class="st3" d="M247.5,250.5c-0.3,0-0.5,0-0.8-0.1c-1-0.3-1.8-1.4-1.8-2.4c-0.3,0.3-0.7,0.5-1.1,0.5c-1,0.1-1.9-0.8-2.1-1.6
		c-0.2-0.8,0.1-1.8,0.8-2.5c0.4-0.5,0.9-0.9,1.4-1.2c-0.1,0-0.2-0.1-0.3-0.2c-0.4-0.3-0.6-0.7-0.7-1.1c-0.1-0.8,0.4-1.6,1.2-1.9
		c0.5-0.2,1-0.3,1.6-0.2c-0.1-0.3-0.2-0.6-0.2-1c0-0.7,0.4-1.4,0.9-1.8c1.2-0.8,2.2-0.3,3.2,0.1c0.7,0.3,1.3,0.6,1.9,0.5
		c0.4,0,0.8-0.1,1.2-0.3c0.3-0.1,0.6-0.2,0.8-0.2c0.5-0.1,1.3-0.1,1.8,0.3c0.3,0.2,0.4,0.5,0.4,0.8c0,0.6-0.4,1-0.7,1.3
		c-0.2,0.2-0.4,0.4-0.5,0.6c0.5-0.1,1.1-0.1,1.6,0.1c0.4,0.2,0.8,0.5,0.9,0.9c0.1,0.3,0.1,0.7,0,0.9c-0.1,0.3-0.4,0.5-0.6,0.6
		l-1.1,0.8c0.4,0.1,0.7,0.3,1,0.5c0.5,0.5,0.5,1.3,0.1,1.8c-0.5,0.6-1.2,0.5-1.9,0.5c-0.2,0-0.5,0-0.7,0c0.4,0.4,0.6,1,0.5,1.5
		c-0.1,0.8-0.8,1.4-1.6,1.5c-0.6,0.1-1.2-0.2-1.7-0.5c-0.2-0.1-0.4-0.2-0.6-0.3c-0.1,0-0.2-0.1-0.3,0c-0.1,0-0.1,0.2-0.2,0.3l0,0.1
		C249.6,249.9,248.5,250.5,247.5,250.5z M245.2,247c0,0,0.1,0,0.1,0c0.1,0.1,0.2,0.2,0.1,0.3c-0.3,1,0.4,2.2,1.4,2.6
		c1,0.3,2.3-0.2,2.7-1.2l0-0.1c0.1-0.2,0.2-0.4,0.4-0.6c0.3-0.1,0.5,0,0.7,0c0.2,0.1,0.4,0.2,0.6,0.3c0.5,0.2,1,0.5,1.5,0.4
		c0.5-0.1,1-0.5,1.1-1.1c0.1-0.5-0.3-1.1-0.8-1.3c-0.1,0-0.2-0.1-0.2-0.2c0-0.1,0.1-0.2,0.2-0.2c0.5-0.2,1-0.1,1.5-0.1
		c0.6,0,1.2,0.1,1.5-0.3c0.2-0.3,0.2-0.8-0.1-1.2c-0.3-0.3-0.8-0.5-1.3-0.4c-0.1,0-0.2-0.1-0.3-0.2c0-0.1,0-0.2,0.1-0.3l1.6-1.2
		c0.2-0.1,0.4-0.3,0.5-0.5c0.1-0.2,0.1-0.4,0-0.5c-0.1-0.3-0.3-0.5-0.6-0.6c-0.5-0.2-1.2-0.1-1.7,0c-0.1,0-0.2,0-0.2-0.1
		c-0.1,0-0.1-0.1-0.1-0.2c0-0.5,0.4-0.9,0.8-1.3c0.3-0.3,0.6-0.6,0.6-0.9c0-0.2-0.1-0.3-0.2-0.4c-0.3-0.2-0.9-0.3-1.4-0.2
		c-0.3,0.1-0.5,0.1-0.8,0.2c-0.4,0.1-0.9,0.2-1.3,0.3c-0.8,0.1-1.5-0.3-2.2-0.6c-0.9-0.4-1.8-0.8-2.7-0.2l0,0
		c-0.4,0.3-0.7,0.8-0.7,1.4c0,0.5,0.1,0.9,0.5,1.2c0.1,0.1,0.1,0.2,0,0.3c-0.1,0.1-0.2,0.1-0.3,0.1c-0.7-0.3-1.4-0.3-1.9-0.1
		c-0.6,0.3-1,0.9-0.9,1.4c0,0.3,0.2,0.6,0.5,0.8c0.2,0.2,0.5,0.2,0.7,0.2c0.1,0,0.2,0,0.3,0.1c0,0.1,0,0.2-0.1,0.3
		c-0.7,0.4-1.4,0.9-1.9,1.5c-0.6,0.7-0.8,1.4-0.7,2.1c0.1,0.7,0.8,1.3,1.5,1.2c0.4,0,0.8-0.3,1.2-0.8C245,247.1,245.1,247,245.2,247
		z M246.6,237.1L246.6,237.1L246.6,237.1z"/>
</g>
<g id="Horse-seal">
	<g id="Tail">
		<g>
			<path class="st4" d="M187.2,317.8l2.8-68.4l0.7-0.2c6.5-2.4,13.4-2.7,19.3,0.8c5.2,3.1,8.3,9,9.5,15s0.5,12.2-0.1,18.2
				c-0.7,6.7-1.3,13.4-2,20.1c-0.4,3.8-0.8,7.6-0.7,11.5c0,3.4,0.4,6.9,0.6,10.3c0.5,11.4-1.3,22.7-3.1,33.9c-0.6,4-1.3,8-1.9,12
				c-0.5-1.9-0.9-3.8-1.4-5.6c-0.9,2.8-1.4,5.7-1.6,8.6c-0.2-1.7-1-3.4-2.1-4.7c-0.6,1.8-1.6,3.6-2.8,5.1c0.4-2.4,0-5-1.1-7.2
				c-1.7,3.1-3.2,6.2-4.7,9.4c-1.8-3.4-3.5-6.9-5.3-10.3c-1.1,2.6-2.7,5-4.6,7.2C188.7,354.9,188.2,336.3,187.2,317.8"/>
			<path class="st5" d="M198.5,377.2l-5.3-10.3c-1.1,2.4-2.6,4.7-4.4,6.8l-0.5,0.5l0-0.7c0.1-18.5-0.4-37.2-1.5-55.7l0,0l0,0
				l2.8-68.6l0.9-0.3c7.4-2.7,14.1-2.4,19.5,0.8c4.8,2.9,8.3,8.4,9.6,15.2c1.1,6.1,0.5,12.3-0.1,18.3l-2,20.1
				c-0.4,3.8-0.8,7.6-0.7,11.4c0,2.1,0.2,4.2,0.3,6.3c0.1,1.3,0.2,2.7,0.2,4c0.5,11.4-1.3,22.9-3.1,33.9l-2.1,13.3l-1.5-5.9
				c-0.7,2.5-1.1,5.1-1.3,7.7l-0.5,0c-0.2-1.5-0.8-3-1.8-4.3c-0.6,1.7-1.5,3.3-2.6,4.8l-0.6,0.8l0.1-1c0.3-2.2,0-4.5-0.8-6.6
				c-1.6,2.9-3.1,5.9-4.4,8.9L198.5,377.2z M193.2,365.7l5.3,10.3c1.4-3,2.9-6,4.4-8.9l0.2-0.4l0.2,0.5c0.9,2,1.3,4.2,1.2,6.4
				c0.9-1.3,1.6-2.7,2.2-4.3l0.1-0.4l0.3,0.3c0.8,0.9,1.5,2,1.8,3.2c0.3-2.4,0.8-4.7,1.5-7l0.3-0.9l1.3,5.3l1.7-10.8
				c1.8-11,3.6-22.5,3.1-33.8c-0.1-1.3-0.2-2.7-0.2-4c-0.1-2.1-0.3-4.2-0.3-6.3c0-3.8,0.4-7.7,0.7-11.5l2-20.1
				c0.6-6,1.2-12.2,0.1-18.2c-1.2-6.7-4.6-12.1-9.3-14.9c-5.3-3.1-11.9-3.4-19.1-0.8l-0.5,0.2l-2.8,68.2c1,18.2,1.5,36.8,1.5,55
				c1.7-2,3-4.2,4.1-6.6L193.2,365.7z"/>
		</g>
		<g>
			<path class="st5" d="M206.7,355.8c-1.3-1.6-0.2-3.9,0.2-4.6c0.2-0.4,0.4-0.7,0.6-1c0.6-1,1.2-1.9,1.3-3c0.2-1.1-0.2-2.2-0.6-3.4
				l-0.3-0.9c-1.5-4.4-3.1-9-2.7-13.6c0.4-3.9,2.1-7.6,3.9-11l0.1-0.2c1.6-3.1,3.3-6.3,3.1-9.7c-0.1-1.1-0.3-2.2-0.6-3.2
				c-0.3-1.4-0.7-2.9-0.6-4.4c0.1-1.5,0.6-2.8,1.2-4.1c0.3-0.8,0.6-1.6,0.9-2.4c0.9-3.4,0.2-7-0.5-10.5c-0.6-3.2-1.3-6.6-0.7-9.9
				c0.2-1.4,0.7-2.7,1.2-4c0.7-2,1.4-3.9,1.3-5.9c-0.1-3-1.9-6-4.8-7.9c-2.4-1.6-5.5-2.4-9.2-2.5l0-0.5c3.8,0.1,7,0.9,9.5,2.6
				c3,2,4.9,5.1,5.1,8.3c0.1,2.1-0.6,4.2-1.3,6.1c-0.4,1.3-0.9,2.6-1.1,3.9c-0.6,3.2,0.1,6.5,0.7,9.7c0.7,3.6,1.4,7.2,0.5,10.8
				c-0.2,0.9-0.6,1.7-0.9,2.5c-0.5,1.3-1,2.6-1.1,4c-0.1,1.4,0.2,2.8,0.6,4.3c0.3,1.1,0.5,2.2,0.6,3.3c0.2,3.6-1.5,6.8-3.1,10
				l-0.1,0.2c-1.8,3.4-3.5,7-3.8,10.8c-0.4,4.6,1.1,9.1,2.6,13.4l0.3,0.9c0.4,1.3,0.8,2.5,0.6,3.7c-0.2,1.2-0.8,2.2-1.4,3.2
				c-0.2,0.3-0.4,0.7-0.6,1c-0.7,1.2-1.1,2.9-0.2,4L206.7,355.8z"/>
		</g>
		<g>
			<path class="st5" d="M209.3,363.8c-0.7-2.1,0.2-4.1,1.1-6.1c0.4-0.9,0.8-1.7,1-2.6c0.7-2.3,0.4-4.7,0.2-7.1
				c-0.2-2.3-0.4-4.7,0.1-6.9c0.2-0.6,0.4-1.2,0.6-1.7c0.2-0.7,0.5-1.3,0.6-2c0.4-2,0.1-4.1-0.3-6.1c-0.2-1-0.3-2-0.4-3
				c-0.3-3.2,0.3-6.3,0.9-9.4c0.6-3.3,1.2-6.7,0.8-10c0-0.2-0.1-0.4-0.1-0.7c-0.2-1.2-0.4-2.5,0.1-3.7c0.3-0.6,0.7-1.2,1.1-1.7
				c0.2-0.3,0.5-0.6,0.7-0.9c1.3-2.1,1-4.7,0.7-7.2c0-0.3-0.1-0.6-0.1-0.8c-0.6-4.6-0.3-9.4,0-13.9c0.4-5.9,0.8-12.1-0.8-17.9
				c-0.6-2.1-1.3-3.8-2.3-5.2c-2.9-4.1-8.8-6.3-15.7-5.7l0-0.5c7.1-0.6,13.2,1.6,16.2,5.9c1,1.4,1.8,3.2,2.3,5.4
				c1.5,5.9,1.2,12.1,0.8,18.1c-0.3,4.6-0.6,9.3,0,13.8c0,0.3,0.1,0.6,0.1,0.8c0.3,2.6,0.7,5.4-0.7,7.6c-0.2,0.3-0.5,0.7-0.7,1
				c-0.4,0.5-0.8,1-1,1.5c-0.4,1-0.2,2.2-0.1,3.4c0,0.2,0.1,0.5,0.1,0.7c0.5,3.4-0.2,6.8-0.8,10.2c-0.6,3-1.2,6.2-0.9,9.3
				c0.1,1,0.3,2,0.4,3c0.4,2.1,0.7,4.2,0.3,6.3c-0.2,0.7-0.4,1.4-0.6,2.1c-0.2,0.5-0.4,1.1-0.5,1.7c-0.6,2.2-0.3,4.5-0.1,6.7
				c0.2,2.4,0.5,4.9-0.2,7.3c-0.3,0.9-0.7,1.8-1.1,2.7c-0.9,2-1.7,3.8-1.1,5.7L209.3,363.8z"/>
		</g>
		<g>
			<path class="st5" d="M203.4,363.9l-0.5-0.1c0.5-1.9,0.1-3.9-0.3-5.9c-0.5-2.4-0.9-4.8,0.1-7.1c0.2-0.5,0.5-1,0.8-1.5
				c0.7-1.2,1.4-2.2,1-3.4c-0.3-0.9-1.1-1.6-2.1-2.2c-1-0.8-2.1-1.5-2.2-2.8c-0.1-1.2,0.7-2.2,1.5-3.1c0.6-0.7,1.3-1.4,1.5-2.3
				c0.1-0.6,0-1.2-0.1-1.9l-1.3-7.1c-0.1-0.7-0.3-1.4-0.2-2.1c0.1-1.5,1.1-2.8,2.2-4l0.3-0.4c1.3-1.4,2.6-2.9,2.9-4.7
				c0.1-1-0.1-2-0.3-3.1c-0.1-0.6-0.3-1.3-0.3-2c-0.1-1.2,0.3-2.5,1-3.3c0.4-0.5,0.9-0.8,1.4-0.9c-0.4-3.9-0.9-8.4,0.3-12.5
				c0.2-0.5,0.3-1.1,0.5-1.6c0.3-0.9,0.6-1.8,0.8-2.7c0.4-2.1,0-4.3-1-6.2c-0.1-0.2-0.2-0.3-0.3-0.5c-0.3-0.6-0.6-1.1-0.8-1.8
				c-0.2-0.8,0-1.6,0.1-2.3l1.4-9c0.3-2.1,0.7-4.5-0.1-6.7c-1.5-3.9-6.3-5.2-10.8-6.1l0.1-0.5c4.6,0.8,9.5,2.3,11.1,6.4
				c0.9,2.3,0.5,4.9,0.2,6.9l-1.4,9c-0.1,0.7-0.2,1.4-0.1,2.1c0.1,0.6,0.4,1.1,0.7,1.6c0.1,0.2,0.2,0.3,0.3,0.5c1.1,2,1.4,4.3,1,6.5
				c-0.2,0.9-0.5,1.8-0.8,2.7c-0.2,0.5-0.3,1-0.5,1.6c-1.1,4.1-0.6,8.6-0.2,12.5l0,0.3l-0.3,0c-0.5,0-1,0.3-1.4,0.7
				c-0.6,0.7-0.9,1.9-0.9,3c0.1,0.6,0.2,1.3,0.3,1.9c0.2,1.1,0.5,2.1,0.3,3.3c-0.3,2-1.7,3.5-3,5l-0.3,0.4c-1,1.1-1.9,2.3-2.1,3.7
				c-0.1,0.7,0.1,1.3,0.2,2l1.3,7.1c0.1,0.6,0.2,1.4,0.1,2.1c-0.2,1-0.9,1.8-1.6,2.5c-0.8,0.9-1.5,1.7-1.4,2.7c0.1,1.1,1,1.7,2,2.5
				c0.9,0.7,1.9,1.4,2.2,2.5c0.4,1.4-0.4,2.6-1.1,3.8c-0.3,0.5-0.6,0.9-0.8,1.4c-0.9,2.1-0.5,4.4,0,6.8
				C203.5,359.8,203.9,361.9,203.4,363.9z"/>
		</g>
		<g>
			<path class="st5" d="M198.9,367l-0.4-0.3c1.3-1.8,1.7-3.3,1.3-4.5c-0.3-0.7-0.8-1.4-1.4-2c-0.8-0.9-1.6-1.8-1.6-3
				c0.1-1.2,0.9-2.1,1.8-2.9c0.1-0.1,0.3-0.3,0.4-0.4c0.9-0.9,1.5-2.2,0.9-3.1c-0.2-0.2-0.4-0.4-0.7-0.6l-0.1-0.1
				c-3.2-2.4-4.4-7.1-2.8-10.7c0.2-0.5,0.5-1,0.8-1.5c0.3-0.5,0.5-1,0.8-1.5c1.2-2.7,0.8-5.9,0.4-9c-0.4-3.4-0.9-6.9,0.8-9.9
				c0.5-0.8,1.1-1.5,1.6-2.2c0.4-0.4,0.7-0.9,1.1-1.3c1.7-2.4,2.5-5.4,2.1-8.3c-0.1-0.4-0.1-0.8-0.2-1.2c-0.3-1.4-0.5-2.8,0-4.1
				c0.2-0.5,0.5-1,0.8-1.4c0.3-0.4,0.5-0.8,0.7-1.2c0.6-1.5,0.3-3.1-0.1-4.8c-0.3-1.3-0.6-2.7-0.4-4.1c0.1-0.9,0.5-1.8,0.9-2.6
				c0.3-0.6,0.6-1.2,0.7-1.9c0.5-1.9,0.2-3.9-0.2-5.9c-0.3-1.4-0.5-2.9-0.5-4.3c0-0.7,0.1-1.4,0.2-2.1c0.1-0.8,0.2-1.7,0.2-2.5
				c-0.1-3.8-2.7-6.9-5.6-10l0.4-0.3c3,3.2,5.7,6.4,5.7,10.4c0,0.9-0.1,1.7-0.2,2.6c-0.1,0.7-0.2,1.4-0.2,2c0,1.4,0.2,2.8,0.5,4.2
				c0.4,2,0.7,4.1,0.2,6.2c-0.2,0.7-0.5,1.3-0.8,2c-0.4,0.8-0.7,1.6-0.9,2.5c-0.2,1.3,0.1,2.6,0.4,3.9c0.4,1.7,0.7,3.4,0,5.1
				c-0.2,0.4-0.5,0.8-0.7,1.2c-0.3,0.4-0.6,0.8-0.7,1.3c-0.4,1.2-0.2,2.5,0,3.8c0.1,0.4,0.2,0.8,0.2,1.2c0.4,3-0.4,6.2-2.2,8.7
				c-0.3,0.5-0.7,0.9-1.1,1.4c-0.6,0.7-1.1,1.3-1.6,2.1c-1.6,2.8-1.2,6.1-0.8,9.6c0.4,3.2,0.8,6.4-0.5,9.3c-0.2,0.5-0.5,1-0.8,1.5
				c-0.3,0.5-0.5,0.9-0.7,1.4c-1.5,3.4-0.4,7.8,2.6,10.1l0.1,0.1c0.3,0.2,0.6,0.4,0.8,0.7c0.8,1.1,0.1,2.7-0.9,3.7
				c-0.1,0.1-0.3,0.3-0.4,0.4c-0.8,0.8-1.6,1.5-1.6,2.5c-0.1,1,0.7,1.8,1.4,2.7c0.6,0.7,1.2,1.3,1.5,2.2
				C200.7,363.4,200.2,365,198.9,367z"/>
		</g>
		<g>
			<path class="st5" d="M192.2,363.3c-1-1-0.6-2.6,0.2-3.8c0.1-0.2,0.3-0.4,0.4-0.6c0.6-0.8,1.2-1.6,1.2-2.6c0-0.9-0.5-1.7-1-2.5
				c-0.5-0.8-1.1-1.7-1.1-2.7c0-0.8,0.3-1.6,0.7-2.4c0.4-0.8,0.8-1.6,0.6-2.4c-0.1-0.5-0.4-0.9-0.7-1.4c-0.4-0.6-0.8-1.2-0.8-1.9
				c0-0.9,0.5-1.6,1-2.2c0.4-0.5,0.8-1,0.9-1.6c0.2-0.8-0.2-1.6-0.6-2.5c-0.4-0.9-0.8-1.8-0.6-2.8c0.2-1.1,1.1-1.8,2-2.6
				c0.9-0.8,1.8-1.5,1.8-2.5c-0.1-0.8-0.7-1.4-1.4-2c-0.6-0.5-1.2-1.1-1.5-1.8c-0.6-1.5,0.3-2.9,1.2-4.3c0.8-1.3,1.6-2.6,1.2-3.8
				c-0.1-0.3-0.3-0.6-0.5-0.9c-0.2-0.3-0.3-0.5-0.5-0.8c-1-2.3,0.9-4.8,2.1-6.3c0.9-1.1,2.7-3.9,1.2-5.8c-0.3-0.4-0.7-0.7-1.1-0.9
				c-0.6-0.4-1.2-0.8-1.5-1.5c-0.5-1.1-0.1-2.4,0.5-3.2c0.7-0.8,1.6-1.4,2.5-1.8c0.4-1.3-0.3-2.6-1-4c-0.8-1.6-1.5-3.2-0.7-4.7
				c0.3-0.5,0.6-0.8,1-1.2c0.4-0.3,0.7-0.7,0.9-1.1c0.6-1.1,0.1-2.4-0.4-3.8c-0.6-1.5-1.1-3-0.4-4.3c0.2-0.4,0.6-0.7,0.9-1.1
				c0.3-0.3,0.6-0.6,0.8-1c0.6-1,0.2-2.4-1-4l-0.1-0.1c-0.9-1.3-2-2.7-1.6-4.3c0.1-0.3,0.2-0.5,0.3-0.8c0.1-0.3,0.2-0.5,0.2-0.8
				c0.1-0.6-0.1-1.2-0.5-1.8c-0.4-0.5-1-0.8-1.6-0.9l0-0.5c0.7,0,1.5,0.4,2,1.1s0.7,1.4,0.6,2.2c-0.1,0.3-0.2,0.6-0.3,0.8
				c-0.1,0.2-0.2,0.5-0.2,0.7c-0.3,1.4,0.7,2.7,1.5,3.9l0.1,0.1c1.3,1.8,1.7,3.4,1,4.6c-0.2,0.4-0.6,0.8-0.9,1.1
				c-0.3,0.3-0.6,0.6-0.8,0.9c-0.7,1.1-0.1,2.4,0.4,3.9c0.6,1.4,1.1,2.9,0.4,4.3c-0.3,0.5-0.7,0.9-1,1.2c-0.4,0.3-0.7,0.6-0.9,1
				c-0.7,1.3,0,2.7,0.7,4.2c0.7,1.5,1.4,3,1,4.5l0,0.1l-0.1,0c-0.9,0.5-1.8,1-2.4,1.8c-0.6,0.7-0.9,1.8-0.5,2.6
				c0.3,0.5,0.8,0.9,1.3,1.3c0.4,0.3,0.9,0.6,1.2,1c1.7,2.2-0.3,5.2-1.2,6.4c-1.5,1.9-2.9,3.9-2,5.8c0.1,0.3,0.3,0.5,0.4,0.7
				c0.2,0.3,0.4,0.7,0.5,1c0.5,1.5-0.4,2.9-1.2,4.3c-0.8,1.3-1.6,2.6-1.1,3.9c0.3,0.6,0.8,1.2,1.4,1.7c0.7,0.7,1.5,1.4,1.6,2.4
				c0.1,1.3-0.9,2.1-1.9,3c-0.8,0.7-1.7,1.4-1.9,2.3c-0.2,0.8,0.2,1.6,0.6,2.5c0.4,0.9,0.8,1.8,0.6,2.8c-0.1,0.7-0.6,1.3-1,1.8
				c-0.5,0.6-0.9,1.2-0.9,1.9c0,0.6,0.4,1.1,0.7,1.7c0.3,0.5,0.7,1,0.8,1.6c0.2,1-0.2,1.9-0.6,2.7c-0.3,0.7-0.7,1.4-0.6,2.1
				c0,0.9,0.5,1.6,1,2.4c0.6,0.8,1.1,1.7,1.1,2.8c0,1.1-0.6,2-1.3,2.9c-0.1,0.2-0.3,0.4-0.4,0.6c-0.7,1-1,2.4-0.3,3.2L192.2,363.3z"
				/>
		</g>
		<g>
			<path class="st5" d="M190.8,362c-1-0.9-0.6-2.4-0.4-2.9c0.1-0.2,0.2-0.4,0.3-0.6c0.3-0.7,0.5-1.3,0.5-1.9c0-0.5-0.3-1-0.5-1.5
				c-0.1-0.2-0.2-0.4-0.2-0.6c-0.6-1.4-0.7-3.1-0.2-4.6c0-0.1,0.1-0.3,0.1-0.4c0.2-0.5,0.3-0.9,0.3-1.3c0-0.4-0.1-0.7-0.3-1.1
				l-0.1-0.2c-0.9-2.6-0.9-5.4,0-8l0-0.1c0.1-0.4,0.3-0.8,0.2-1.2c0-0.3-0.2-0.7-0.4-1c-0.2-0.3-0.4-0.7-0.5-1.1
				c-0.1-0.7,0.2-1.4,0.5-2.1c0.3-0.6,0.5-1.2,0.4-1.8c0-0.2-0.1-0.3-0.2-0.5c-0.1-0.2-0.2-0.5-0.2-0.8c-0.1-0.6,0.2-1.1,0.5-1.6
				c0.2-0.4,0.4-0.7,0.5-1.1c0-0.6-0.4-1.2-0.9-1.8c-0.5-0.5-1-1.1-1.1-1.8c-0.1-1,0.5-1.8,1.1-2.6c0.6-0.8,1.1-1.6,0.9-2.4
				c-0.1-0.2-0.2-0.4-0.3-0.6c-0.2-0.3-0.3-0.5-0.4-0.8c-0.2-0.7,0.2-1.4,0.6-2c0.2-0.3,0.4-0.7,0.5-1c0.3-1-0.2-2.2-1.2-3.3
				l-0.1-0.1c-0.2-0.2-0.5-0.5-0.6-0.9c-0.3-0.9,0.5-1.7,1.1-2.3l0.2-0.2c1.6-1.6,1.8-4.3,0.6-6.1c-0.1-0.1-0.1-0.2-0.2-0.3
				c-0.3-0.3-0.5-0.7-0.6-1.1c-0.3-1.2,0.4-2.1,1.2-3.1c0.7-0.8,1.3-1.6,1.2-2.6c-0.1-0.5-0.3-0.9-0.6-1.3c-0.2-0.3-0.4-0.6-0.5-0.9
				c-0.6-1.6,0-3.2,0.7-4.7c0.7-1.6,1.3-3,0.6-4.4c-0.1-0.3-0.3-0.5-0.5-0.8c-0.2-0.4-0.5-0.7-0.6-1.1c-0.4-1.2,0.2-2.3,0.7-3.5
				c0.5-1.1,1.1-2.2,0.6-3.2c-0.1-0.3-0.3-0.5-0.5-0.7c-0.2-0.2-0.3-0.4-0.5-0.7c-0.6-1.2-0.2-2.5,0.2-3.8c0.1-0.2,0.1-0.5,0.2-0.7
				c0.3-1.1,0.3-3.1-1-3.5l0.1-0.5c1.5,0.5,1.8,2.5,1.4,4.1c-0.1,0.2-0.1,0.5-0.2,0.7c-0.4,1.2-0.7,2.4-0.2,3.4
				c0.1,0.2,0.3,0.4,0.4,0.6c0.2,0.3,0.4,0.5,0.5,0.8c0.5,1.2-0.1,2.4-0.6,3.6c-0.5,1.1-1,2.1-0.7,3.1c0.1,0.4,0.3,0.7,0.6,1
				c0.2,0.3,0.4,0.5,0.5,0.9c0.7,1.6,0,3.2-0.6,4.8c-0.6,1.5-1.3,3-0.7,4.4c0.1,0.3,0.3,0.5,0.5,0.8c0.3,0.5,0.6,0.9,0.7,1.5
				c0.2,1.1-0.6,2-1.3,2.9c-0.7,0.9-1.3,1.7-1.1,2.6c0.1,0.3,0.3,0.6,0.6,1c0.1,0.1,0.2,0.2,0.2,0.3c1.4,2,1.1,5-0.6,6.8l-0.2,0.2
				c-0.6,0.6-1.1,1.1-0.9,1.7c0.1,0.2,0.3,0.4,0.5,0.6l0.1,0.1c0.6,0.6,1.9,2.1,1.4,3.8c-0.1,0.4-0.3,0.7-0.5,1.1
				c-0.3,0.6-0.7,1.1-0.5,1.6c0.1,0.2,0.2,0.4,0.3,0.7c0.1,0.2,0.3,0.4,0.4,0.7c0.4,1-0.3,2-0.9,2.8c-0.6,0.8-1.1,1.5-1,2.3
				c0.1,0.6,0.5,1.1,0.9,1.6c0.5,0.6,1.1,1.3,1,2.1c0,0.5-0.3,0.9-0.5,1.3c-0.3,0.4-0.5,0.8-0.5,1.3c0,0.2,0.1,0.4,0.2,0.6
				c0.1,0.2,0.2,0.4,0.2,0.6c0.2,0.7-0.1,1.4-0.4,2.1c-0.3,0.6-0.5,1.2-0.4,1.8c0.1,0.3,0.2,0.6,0.4,0.9c0.2,0.4,0.4,0.7,0.5,1.2
				c0.1,0.5-0.1,1-0.2,1.4l0,0.1c-0.8,2.5-0.8,5.2,0,7.7l0.1,0.2c0.1,0.4,0.3,0.8,0.3,1.3c0,0.5-0.2,1-0.3,1.5
				c0,0.1-0.1,0.3-0.1,0.4c-0.4,1.4-0.4,2.9,0.2,4.2c0.1,0.2,0.2,0.4,0.2,0.5c0.2,0.5,0.5,1.1,0.5,1.7c0.1,0.8-0.2,1.5-0.5,2.2
				c-0.1,0.2-0.2,0.4-0.3,0.6c-0.3,0.8-0.4,1.8,0.2,2.3L190.8,362z"/>
		</g>
	</g>
	<g>
		<path class="st6" d="M175.6,293.3c0,0-4.9,0.8-9.8,2.8c-4.9,2-10.2,6.7-10.2,6.7c1.7,7,4.5,14.1,7.9,20.5
			c2.1,3.8,4.5,8.1,3.1,12.2c-0.4,1-0.9,2-0.8,3.1c0.1,0.8,0.5,1.5,0.9,2.2c2.3,4,3.2,8.7,3.8,13.3c2.2,16.1,1.4,33.2-6.5,47.3
			c3.9-0.5,7.7-1,11.6-1.5c1.1-0.1,2.3-0.3,3.2-0.9c1.7-1.1,2.4-3.3,2.2-5.4c-0.1-2-0.8-4-1.1-6c-0.6-3.9,0.3-7.8,0.7-11.7
			c0.6-5.7,0.2-11.4-0.8-17.1c-0.8-4.6-2.1-9.2-2.6-13.8c-1.1-10.5,1.7-20.8,8.1-29.1l0.4-0.5C178.9,309.1,175.6,293.3,175.6,293.3"
			/>
		<path class="st7" d="M164,401.6c-0.1,0-0.2,0-0.2-0.1c-0.1-0.1-0.1-0.2,0-0.3c6.9-12.3,9.1-28.2,6.5-47.2
			c-0.6-4.5-1.5-9.2-3.7-13.2l-0.1-0.2c-0.4-0.6-0.7-1.3-0.8-2.1c-0.1-0.9,0.2-1.7,0.6-2.4c0.1-0.3,0.2-0.5,0.3-0.8
			c1.3-3.9-0.9-8-2.9-11.7l-0.2-0.3c-3.5-6.5-6.3-13.6-8-20.5c0-0.1,0-0.2,0.1-0.3c0.1,0,5.4-4.7,10.3-6.8c4.9-2,9.8-2.8,9.9-2.8
			c0.1,0,0.3,0.1,0.3,0.2c0,0.2,3.3,15.8,10,22c0.1,0.1,0.1,0.2,0,0.3l-0.4,0.5c-6.3,8.1-9.1,18.4-8.1,29c0.3,3,1,6,1.6,9
			c0.3,1.6,0.7,3.2,1,4.8c1.1,6.1,1.4,11.8,0.8,17.1c-0.1,1-0.2,1.9-0.4,2.9c-0.4,2.9-0.8,5.9-0.4,8.8c0.1,0.8,0.3,1.6,0.5,2.4
			c0.3,1.2,0.6,2.4,0.6,3.6c0.1,1.9-0.5,4.4-2.4,5.6c-1,0.6-2.2,0.8-3.3,0.9L164,401.6C164,401.6,164,401.6,164,401.6z M155.9,302.9
			c1.7,6.8,4.4,13.8,7.9,20.3l0.2,0.3c2,3.8,4.4,8,2.9,12.1c-0.1,0.3-0.2,0.5-0.3,0.8c-0.3,0.8-0.6,1.5-0.5,2.2
			c0.1,0.7,0.4,1.3,0.7,1.9l0.1,0.2c2.3,4.1,3.2,8.8,3.8,13.4c2.6,18.9,0.5,34.7-6.3,47l11.1-1.4c1-0.1,2.2-0.3,3.1-0.9
			c1.7-1.1,2.2-3.3,2.1-5.1c-0.1-1.2-0.3-2.4-0.6-3.5c-0.2-0.8-0.4-1.6-0.5-2.4c-0.4-3,0-6,0.4-8.9c0.1-0.9,0.3-1.9,0.4-2.8
			c0.6-5.2,0.3-11-0.8-17c-0.3-1.6-0.6-3.2-1-4.8c-0.6-2.9-1.3-6-1.6-9c-1.1-10.7,1.8-21.1,8.2-29.3l0.2-0.3
			c-6.2-5.9-9.5-19.9-9.9-21.9c-1,0.2-5.3,1-9.5,2.7C161.5,298.2,156.7,302.2,155.9,302.9z"/>
	</g>
	<g>
		<path class="st8" d="M180.1,390.9c-3.9,1.3-7.9,1.7-11.9,0.9l-0.9,2.5l-0.9,2.2l-2.1,4.3l-0.3,0.6l12.7-1.7c0,0,3.1-0.2,4-3.4
			c0,0,0.7-2.4-0.1-5.1l-0.1-0.4L180.1,390.9z"/>
		<path class="st9" d="M164,401.6c-0.1,0-0.2,0-0.2-0.1c-0.1-0.1-0.1-0.2,0-0.3l0.3-0.6l2.1-4.3l0.9-2.2l0.9-2.5
			c0-0.1,0.2-0.2,0.3-0.2c3.9,0.8,7.8,0.4,11.8-0.9l0.5-0.2c0.1,0,0.1,0,0.2,0c0.1,0,0.1,0.1,0.1,0.2l0.1,0.4
			c0.8,2.8,0.1,5.2,0.1,5.3c-1,3.4-4.2,3.6-4.3,3.6L164,401.6C164,401.6,164,401.6,164,401.6z M168.3,392.1l-0.8,2.3l-0.9,2.2
			l-2.2,4.5l12.2-1.6c0.1,0,2.9-0.2,3.8-3.2c0,0,0.7-2.4-0.1-5l0-0.2l-0.2,0.1c0,0,0,0,0,0C176.2,392.5,172.2,392.8,168.3,392.1z
			 M180.1,390.9L180.1,390.9L180.1,390.9z"/>
	</g>
	<g>
		<path class="st6" d="M71.7,307l1.7-4.7l0.7-1.4l1.3-2.3l0.8-1.1l1.9-2.3l0-0.1c-7.8,8.4-8.7,20.8-9.2,32.3
			c-0.1,2.2-0.2,4.4,0.2,6.6c0.3,1.6,0.8,3.1,1.3,4.7c2.3,6.6,4.5,13.4,4.5,20.4c0,3.5-0.6,7-1.2,10.4c-0.6,3.4-1.1,6.8-1.7,10.2
			c-0.5,3.3-1.1,6.6-2.6,9.6c-1.5,3-3.9,5.8-3.6,9.1c0.2,2.1,1.5,4.7-0.1,6.2c-0.5,0.5-1.1,0.7-1.7,0.9c-4.4,1.3-9,1.7-13.5,1.1
			c4.6-10.9,7.6-22.5,9.7-34.1c0.7-3.6,1.3-7.3,1.4-11c0.4-16.7-9.3-32.3-9.3-49c0-4.1,0.6-8.3-0.2-12.3c-0.9-4.3-3.2-8-4.7-12.1
			c-3.2-8.6,1-21.6,0.6-28.9c-0.5-12.5-5.4-24.4-6-36.8c-0.3-6,1-11.7,4.9-16.3c4.5-5.3,11.3-6.9,18.3-7.2
			c6.1-0.3,11.5,2.4,16.6,5.8c2.7,1.8,4.1,4.3,5.6,7.1c1.3,2.4,1.8,5.1,2.5,7.8c0.9,3.3,2.3,6.2,2.7,9.7c1,8.4,6.1,16.3,13.9,19.6
			s16.6,2.5,24.9,1.3c7.1-1,14.1-2.3,21-3.9c7.3-1.7,14.8-3.7,22.3-3c14.4,1.4,26.7,14.3,27.5,28.8c0.3,5.7-1,11.4-0.7,17.1
			c0.4,10.5,6,20.2,13.2,27.8c2,2.1,4.1,4.2,5.6,6.7c1.5,2.5,2.2,5.7,1.2,8.4c1.2,6.4,2.7,13.5,5,19.6c1.3,3.4,2.7,6.8,3.1,10.4
			c0.2,2.5-0.1,5,0.6,7.5c0.8,3.1,3.1,5.9,3,9.1c0,1.6-0.7,3.1-0.7,4.7c0.1,3.8,3.8,7.1,3,10.8c-0.5,2.3-2.5,3.9-4.8,4.5
			s-4.6,0.4-6.9,0.2c1.5-3.3,1.6-7,1.4-10.6c-0.6-12.4-4.2-24.7-10.5-35.5c-2.2-3.8-4.8-7.5-6-11.7c-0.8-2.7-1.2-5.7-2.5-8.2
			c-2.3-4.2-6.9-6.4-10.9-9c-10.8-7.1-18.2-17.5-19.7-30.4c-7.7,1.3-15.3,6.5-22.6,11.2c-9.4,6.1-20.7,9.1-31.7,11.5
			c-7.1,1.6-14.2,1.7-21.3,3.2c0,0-0.5,0.8-0.5,0.9c-3.8,9.9-6,20.3-7.9,30.7c-0.1,0.8-0.3,1.6-0.1,2.4c0.3,1.2,1.3,2.2,2,3.2
			c1.6,2.7,0.7,6.2,0.8,9.4c0,2.1,0.5,4.2,1,6.2c1.2,5,2.4,9.9,3.6,14.9c0.5,2,1,4.1,2.3,5.6c0.7,0.8,1.7,1.5,2.1,2.5
			c0.4,0.9,0.3,1.9,0.1,2.8c-0.4,2.6-1.4,5.1-2.8,7.3c-6.3,1-12.9,1.9-19,0.1c3.6-2.9,5.8-7.4,6.8-11.9s1-9.3,0.9-13.9
			c0-3-0.1-6.1-1.4-8.8c-1.4-2.8-4.1-5-5-8c-0.5-1.7-0.3-3.6-0.1-5.3c1.3-12.9,2.5-25.8,3.8-38.7C77.2,315.1,76.9,316.9,71.7,307"/>
		<path class="st7" d="M54.9,407c-1.5,0-3-0.1-4.4-0.3c-0.1,0-0.1-0.1-0.2-0.1c0-0.1,0-0.2,0-0.2c4.1-9.8,7.3-21,9.7-34.1
			c0.7-4,1.3-7.4,1.4-10.9c0.2-8.5-2.2-16.9-4.6-24.9c-2.3-7.8-4.6-15.8-4.7-24c0-1.2,0-2.5,0.1-3.7c0.1-2.8,0.2-5.8-0.3-8.6
			c-0.5-2.7-1.7-5.2-2.8-7.7c-0.6-1.4-1.3-2.9-1.8-4.4c-2.1-5.6-1.1-13-0.2-19.6c0.5-3.5,0.9-6.8,0.8-9.3c-0.3-6.3-1.7-12.5-3-18.6
			c-1.3-5.9-2.7-12.1-3-18.2c-0.3-6.7,1.3-12.2,4.9-16.5c5.1-6,13-7.1,18.5-7.3c6.5-0.3,12.1,2.8,16.7,5.9c2.6,1.7,4.1,4.2,5.7,7.2
			c1.1,2.1,1.7,4.3,2.2,6.6c0.1,0.4,0.2,0.9,0.3,1.3c0.3,1.2,0.7,2.5,1.1,3.6c0.7,1.9,1.3,3.9,1.6,6.1c1.1,8.7,6.4,16.3,13.7,19.4
			c8,3.4,17,2.4,24.8,1.3c7-1,14.1-2.3,21-3.9c0.7-0.2,1.5-0.3,2.2-0.5c6.6-1.5,13.4-3.1,20.2-2.5c14.5,1.5,26.9,14.5,27.7,29
			c0.2,2.9-0.1,5.9-0.4,8.8c-0.2,2.7-0.5,5.5-0.4,8.3c0.5,11.8,7.4,21.5,13.1,27.7c0.4,0.4,0.7,0.7,1.1,1.1c1.7,1.7,3.4,3.5,4.6,5.6
			c1.7,2.9,2.2,6,1.2,8.5c1,5.2,2.5,12.9,5,19.5c0.2,0.4,0.3,0.9,0.5,1.3c1.1,2.9,2.3,5.9,2.6,9.1c0.1,0.9,0.1,1.9,0.1,2.8
			c0,1.5,0.1,3.1,0.4,4.7c0.3,1.2,0.9,2.4,1.4,3.5c0.8,1.8,1.7,3.6,1.7,5.7c0,0.8-0.2,1.6-0.3,2.3c-0.2,0.8-0.3,1.6-0.3,2.4
			c0,1.7,0.8,3.3,1.6,4.8c0.9,1.9,1.9,3.9,1.5,6c-0.4,2.1-2.4,4-4.9,4.7c-2.3,0.6-4.8,0.4-6.9,0.2c-0.1,0-0.2-0.1-0.2-0.1
			c0-0.1,0-0.2,0-0.2c1.5-3.3,1.5-7.2,1.4-10.5c-0.6-12.4-4.2-24.6-10.4-35.3c-0.5-0.8-1-1.6-1.4-2.4c-1.8-2.9-3.6-6-4.6-9.3
			c-0.3-0.9-0.5-1.9-0.7-2.8c-0.4-1.8-0.9-3.7-1.8-5.3c-1.8-3.3-5.2-5.4-8.4-7.4c-0.8-0.5-1.6-1-2.3-1.5
			c-11.3-7.4-18.3-18.1-19.8-30.3c-7,1.3-13.8,5.7-20.5,10c-0.6,0.4-1.2,0.8-1.7,1.1c-9.5,6.1-20.9,9.2-31.7,11.6
			c-3.7,0.8-7.4,1.2-10.9,1.6c-3.4,0.4-6.9,0.8-10.3,1.5c-0.2,0.3-0.4,0.7-0.5,0.7c-3.8,10-6.1,20.6-7.9,30.6
			c-0.1,0.7-0.3,1.5-0.1,2.3c0.2,0.8,0.7,1.4,1.2,2.1c0.3,0.4,0.5,0.7,0.8,1.1c1.2,2,1.1,4.5,0.9,6.8c-0.1,0.9-0.1,1.8-0.1,2.7
			c0,2.1,0.5,4.2,1,6.2l3.6,14.9c0.5,1.9,1,4,2.3,5.5c0.2,0.3,0.5,0.5,0.7,0.7c0.5,0.6,1.1,1.1,1.4,1.9c0.4,1,0.3,2,0.2,2.9
			c-0.4,2.6-1.4,5.2-2.8,7.4c0,0.1-0.1,0.1-0.2,0.1c-6,0.9-12.8,2-19.1,0.1c-0.1,0-0.2-0.1-0.2-0.2c0-0.1,0-0.2,0.1-0.2
			c4.1-3.3,5.9-8.2,6.7-11.8c1-4.5,1-9.3,0.9-13.9c0-2.8,0-6-1.4-8.7c-0.6-1.2-1.4-2.2-2.2-3.3c-1.1-1.5-2.3-3-2.8-4.8
			c-0.5-1.8-0.3-3.7-0.1-5.4l3.8-38.5c-1.7-0.6-3.1-1-4.3-1.4c-5.2-1.6-6.4-1.9-10.5-9.8c-1.8,6.1-2.2,12.9-2.5,20
			c-0.1,2.2-0.2,4.4,0.2,6.6c0.3,1.6,0.8,3.1,1.3,4.6c2.2,6.6,4.6,13.4,4.5,20.5c0,3.5-0.6,7.1-1.2,10.5l-1.7,10.2
			c-0.5,3.3-1.1,6.6-2.6,9.7c-0.4,0.8-0.8,1.5-1.3,2.3c-1.2,2.1-2.5,4.3-2.3,6.7c0.1,0.6,0.2,1.2,0.3,1.8c0.4,1.7,0.8,3.4-0.5,4.6
			c-0.5,0.5-1.2,0.7-1.8,0.9C61.2,406.6,58,407,54.9,407z M50.9,406.2c4.4,0.6,8.9,0.2,13.1-1.1c0.6-0.2,1.2-0.4,1.6-0.8
			c1-1,0.7-2.5,0.3-4.1c-0.1-0.6-0.3-1.2-0.3-1.8c-0.3-2.5,1.1-4.8,2.4-7c0.4-0.7,0.9-1.5,1.2-2.2c1.5-3,2-6.3,2.6-9.5l1.7-10.2
			c0.6-3.4,1.2-6.9,1.2-10.4c0-7-2.3-13.8-4.5-20.3c-0.5-1.5-1-3.1-1.3-4.7c-0.4-2.2-0.3-4.5-0.2-6.7c0.5-12.4,1.6-24.2,9.2-32.4
			c0.1-0.1,0.2-0.1,0.3-0.1c0.1,0,0.2,0.1,0.2,0.2l0,0.1c0,0.1,0,0.2-0.1,0.2l-1.9,2.3l-0.7,1.1l-1.3,2.2l-0.7,1.4l-1.7,4.6
			c4.1,7.9,5,8.2,10.3,9.8c1.2,0.4,2.7,0.8,4.5,1.5c0.1,0,0.2,0.1,0.2,0.3l-3.8,38.7c-0.2,1.7-0.3,3.5,0.1,5.2
			c0.5,1.7,1.6,3.1,2.7,4.6c0.8,1.1,1.7,2.2,2.2,3.4c1.4,2.8,1.4,6.1,1.4,9c0,4.6,0.1,9.4-0.9,14c-0.8,3.5-2.5,8.4-6.5,11.8
			c6,1.7,12.5,0.7,18.3-0.2c1.4-2.1,2.3-4.6,2.7-7.1c0.1-0.8,0.2-1.8-0.1-2.7c-0.3-0.7-0.8-1.2-1.3-1.7c-0.2-0.2-0.5-0.5-0.7-0.8
			c-1.4-1.6-1.9-3.8-2.4-5.7L95,372.1c-0.5-2-1-4.1-1.1-6.3c0-0.9,0-1.8,0.1-2.7c0.2-2.4,0.3-4.6-0.8-6.6c-0.2-0.4-0.5-0.7-0.7-1.1
			c-0.5-0.7-1.1-1.4-1.3-2.3c-0.2-0.8,0-1.7,0.1-2.5c1.9-10,4.1-20.6,8-30.7c0-0.1,0.4-0.6,0.6-0.9c0-0.1,0.1-0.1,0.2-0.1
			c3.5-0.7,7-1.1,10.4-1.5c3.6-0.4,7.3-0.8,10.9-1.6c10.8-2.4,22.2-5.4,31.6-11.5c0.6-0.4,1.2-0.7,1.7-1.1
			c6.8-4.4,13.8-8.9,20.9-10.1c0.1,0,0.1,0,0.2,0c0.1,0,0.1,0.1,0.1,0.2c1.4,12.1,8.3,22.8,19.6,30.2c0.8,0.5,1.6,1,2.3,1.5
			c3.3,2,6.8,4.2,8.6,7.6c0.9,1.7,1.4,3.6,1.8,5.5c0.2,0.9,0.4,1.9,0.7,2.8c1,3.3,2.8,6.3,4.6,9.2c0.5,0.8,1,1.6,1.4,2.4
			c6.2,10.8,9.9,23.1,10.5,35.6c0.2,3.3,0.1,7-1.3,10.4c2.1,0.2,4.3,0.4,6.4-0.2c2.4-0.7,4.2-2.4,4.6-4.3c0.4-1.9-0.5-3.7-1.4-5.7
			c-0.8-1.6-1.6-3.3-1.6-5c0-0.9,0.2-1.7,0.3-2.5c0.1-0.7,0.3-1.5,0.3-2.2c0-1.9-0.8-3.6-1.6-5.4c-0.5-1.1-1.1-2.3-1.4-3.6
			c-0.4-1.6-0.4-3.2-0.5-4.8c0-0.9,0-1.8-0.1-2.7c-0.3-3.1-1.4-6.1-2.5-9c-0.2-0.4-0.3-0.9-0.5-1.3c-2.5-6.7-4.1-14.4-5-19.6
			c0,0,0-0.1,0-0.1c0.9-2.4,0.5-5.3-1.1-8.2c-1.2-2-2.9-3.8-4.5-5.5c-0.4-0.4-0.7-0.7-1.1-1.1c-5.8-6.2-12.8-16-13.3-28
			c-0.1-2.8,0.1-5.6,0.4-8.4c0.3-2.9,0.5-5.8,0.4-8.7c-0.8-14.3-13-27.1-27.2-28.5c-6.7-0.7-13.5,0.9-20,2.4
			c-0.7,0.2-1.5,0.3-2.2,0.5c-6.9,1.6-14,2.9-21,3.9c-7.9,1.1-17,2.1-25-1.3c-7.4-3.1-12.9-10.9-14-19.8c-0.3-2.1-0.9-4-1.6-6
			c-0.4-1.2-0.8-2.4-1.2-3.7c-0.1-0.4-0.2-0.9-0.3-1.3c-0.6-2.3-1.1-4.4-2.2-6.4c-1.6-3.1-3-5.3-5.5-7c-4.6-3-10.1-6.1-16.4-5.8
			c-8.6,0.4-14.3,2.7-18.1,7.1c-3.5,4.2-5.1,9.6-4.8,16.1c0.3,6.1,1.7,12.2,3,18.2c1.4,6.1,2.7,12.4,3,18.7c0.1,2.6-0.3,5.9-0.8,9.4
			c-0.9,6.5-1.9,13.9,0.2,19.4c0.5,1.5,1.2,2.9,1.8,4.3c1.1,2.5,2.3,5.1,2.9,7.8c0.6,2.9,0.5,5.8,0.3,8.7c0,1.2-0.1,2.5-0.1,3.7
			c0,8.1,2.4,16.1,4.6,23.9c2.4,8.1,4.9,16.5,4.6,25.1c-0.1,3.5-0.6,6.9-1.4,11C58.1,385.4,55,396.4,50.9,406.2z"/>
	</g>
	<g>
		<path class="st8" d="M53.9,398.4c1.3,0.3,2.1-0.7,3.1-1.6c1-0.9,2.2-1.9,3.6-1.7c1,0.1,1.7,0.8,2.5,1.4c0.8,0.6,1.8,1.1,2.7,0.8
			c0,0-0.1,2.1,0.3,2.9c0,0,0.4,1.7,0.4,2.3c0,0-0.2,1.9-1.3,2.4c0,0-4.3,1.4-6.6,1.6c0,0-4.5,0.4-6.5,0.1l-1.6-0.2l3.1-8.2
			L53.9,398.4z"/>
		<path class="st9" d="M54.2,407c-0.8,0-1.6,0-2.1-0.1l-1.6-0.2c-0.1,0-0.1-0.1-0.2-0.1c0-0.1,0-0.1,0-0.2l3.1-8.2
			c0-0.1,0.1-0.1,0.2-0.2c0.1,0,0.2,0,0.2,0l0.2,0.1c1,0.2,1.6-0.4,2.4-1.1c0.1-0.1,0.3-0.3,0.4-0.4c1.1-1,2.4-2,3.8-1.8
			c0.9,0.1,1.6,0.7,2.3,1.2c0.1,0.1,0.2,0.2,0.3,0.3c1,0.7,1.8,1,2.5,0.8c0.1,0,0.2,0,0.2,0c0.1,0.1,0.1,0.1,0.1,0.2
			c0,0.6,0,2.2,0.3,2.7c0,0,0,0,0,0.1c0,0.1,0.4,1.7,0.4,2.4c0,0.1-0.2,2.1-1.5,2.6c-0.2,0.1-4.4,1.4-6.7,1.6
			C58.5,406.8,56.2,407,54.2,407z M50.9,406.2l1.3,0.1c1.9,0.3,6.4-0.1,6.4-0.1c2.2-0.2,6.5-1.6,6.5-1.6c1-0.4,1.2-2.1,1.2-2.2
			c0-0.5-0.2-1.7-0.3-2.2c-0.3-0.6-0.4-2-0.4-2.7c-0.8,0.1-1.6-0.2-2.6-0.9c-0.1-0.1-0.2-0.2-0.3-0.3c-0.6-0.5-1.3-1-2.1-1.1
			c-1.2-0.2-2.4,0.7-3.4,1.6c-0.1,0.1-0.3,0.3-0.4,0.4c-0.8,0.8-1.6,1.5-2.9,1.2c0,0-0.1,0-0.1,0l0,0L50.9,406.2z"/>
	</g>
	<g>
		<path class="st8" d="M87.3,396.8c3.9-0.7,8-0.7,11.9,0c1.6,0.3,2.6-0.1,4.3-0.1c0,0-0.4,3.5-1.3,5.4l-1.6,3c0,0-6.2,1.1-8,1
			c0,0-5.7,0.2-6.7-0.1l-4.3-0.9c0,0,3.8-3,5.6-7.9L87.3,396.8z"/>
		<path class="st9" d="M88.7,406.5c-1.2,0-2.3,0-2.8-0.2l-4.3-0.9c-0.1,0-0.2-0.1-0.2-0.2c0-0.1,0-0.2,0.1-0.3c0,0,3.7-3,5.5-7.8
			l0-0.4c0-0.1,0.1-0.2,0.2-0.2c4-0.7,8-0.7,12,0c1,0.2,1.8,0.1,2.8,0c0.5-0.1,0.9-0.1,1.5-0.1c0.1,0,0.1,0,0.2,0.1
			c0.1,0.1,0.1,0.1,0.1,0.2c0,0.1-0.4,3.6-1.3,5.5l-1.6,3c0,0.1-0.1,0.1-0.2,0.1c-0.3,0-6.2,1.1-8.1,1
			C92.5,406.4,90.5,406.5,88.7,406.5z M82.2,405.1l3.8,0.8c0.8,0.2,5.1,0.1,6.6,0.1c1.7,0.1,7-0.8,7.9-1l1.5-2.9
			c0.7-1.5,1.1-4.2,1.2-5c-0.4,0-0.8,0.1-1.1,0.1c-0.9,0.1-1.8,0.2-2.9,0c-3.9-0.7-7.8-0.7-11.6-0.1l0,0.3c0,0,0,0,0,0.1
			C86,401.3,83.3,404.1,82.2,405.1z M87.3,397.3L87.3,397.3L87.3,397.3z"/>
	</g>
	<g>
		<path class="st10" d="M73.9,209.3c-0.7-0.3-1.5,0.2-2,0.7c-0.5,0.5-0.8,1.3-0.6,2c0.1,0.2,0.2,0.5,0.4,0.6
			c0.1,0.1,0.3,0.1,0.4,0.2c0.7,0.1,1.4,0.2,2,0c0.7-0.2,1.3-0.7,1.5-1.3C75.9,210.8,74.6,209.5,73.9,209.3z"/>
	</g>
	<g>
		<path class="st10" d="M50.3,219.8c0.8,0.9,3,1,3.5-0.1c0.4-0.8-0.2-2-0.7-2.6C51.5,214.9,49.1,218.4,50.3,219.8z"/>
	</g>
	<g>
		<path d="M53.4,236.5c-0.1,0-0.3-0.1-0.3-0.3c0-5.8,1.7-11.6,5-16.4c0.4-0.6,0.9-1.2,1.5-1.8c2.1-1.8,5.2-1.5,8-1.2
			c1.8,0.3,4.1,0.6,5.9,1.8c0.8,0.6,1.5,1.4,2.2,2.1c2.1,2.5,3.9,5.2,5.3,8.1c0.1,0.1,0,0.3-0.1,0.3c-0.1,0.1-0.3,0-0.3-0.1
			c-1.4-2.9-3.2-5.6-5.2-8c-0.6-0.7-1.3-1.5-2.1-2c-1.7-1.2-3.9-1.5-5.7-1.7c-2.6-0.4-5.6-0.6-7.6,1c-0.6,0.5-1,1.1-1.4,1.7
			c-3.2,4.7-5,10.4-4.9,16.1C53.6,236.4,53.5,236.5,53.4,236.5C53.4,236.5,53.4,236.5,53.4,236.5z"/>
	</g>
	<g>
		<path class="st11" d="M61.2,225c-0.5-0.5-1-1-1.4-1.6c-0.4-0.5-0.7-1.1-0.5-1.6c0.2-0.6,0.8-0.9,1.3-1.2c0.4-0.3,0.9-0.6,1.3-0.9
			c1-0.5,2.2-0.5,3.3-0.5c0.4,0,0.7,0,1,0.2c0.4,0.2,0.5,0.6,0.6,1.1c0.3,1.3-0.3,3.4-1.4,4.3C64.4,225.7,62.2,226,61.2,225z"/>
	</g>
	<g>
		<path d="M60.6,228.3c-0.1,0-0.1,0-0.2,0c-0.2-0.1-0.3-0.2-0.4-0.3c-0.1-0.1,0-0.3,0-0.4c0.1-0.1,0.2-0.2,0.3-0.1
			c0.1-0.1,0.2-0.1,0.3-0.1c0.2,0.1,0.4,0.3,0.5,0.5c0,0.1,0,0.1,0,0.2c0,0.1-0.1,0.1-0.2,0.1C60.9,228.3,60.7,228.3,60.6,228.3z"/>
	</g>
	<g>
		<path d="M59.2,231.1C59.2,231.1,59.2,231.1,59.2,231.1c-0.2,0-0.3-0.1-0.4-0.3c-0.1-0.2-0.1-0.3,0-0.5c0-0.1,0.1-0.2,0.2-0.1
			c0.1-0.1,0.2-0.1,0.3-0.1l0.3,0.1c0.1,0,0.1,0.1,0.2,0.1c0.1,0.2,0.1,0.3,0,0.5C59.6,231,59.4,231.1,59.2,231.1z"/>
	</g>
	<g>
		<path d="M63,229.8c-0.2,0-0.3-0.1-0.4-0.1c-0.1-0.1-0.2-0.2-0.1-0.3l0.1-0.2c0-0.1,0.1-0.2,0.2-0.2l0.3,0c0.1,0,0.2,0.1,0.3,0.2
			c0.1,0,0.1,0.1,0.1,0.2c0,0.1,0,0.2-0.1,0.3C63.3,229.7,63.2,229.8,63,229.8C63,229.8,63,229.8,63,229.8z"/>
	</g>
	<g>
		<path d="M60.6,233.2c-0.1,0-0.2,0-0.2-0.1c-0.1-0.1-0.2-0.2-0.2-0.4c0-0.2,0.1-0.3,0.2-0.4c0.2-0.2,0.6-0.2,0.8,0
			c0.1,0.1,0.1,0.3,0,0.4c0,0,0,0-0.1,0c0,0.1-0.1,0.3-0.2,0.4C60.8,233.2,60.7,233.2,60.6,233.2z"/>
	</g>
	<g>
		<path d="M64.2,231.8c-0.1,0-0.2,0-0.3-0.1c-0.2-0.1-0.2-0.4-0.1-0.6c0.1-0.2,0.3-0.4,0.5-0.3c0.1,0,0.2,0.1,0.2,0.2
			c0.1,0,0.2,0.1,0.2,0.2c0.1,0.2,0,0.4-0.2,0.6C64.5,231.8,64.4,231.8,64.2,231.8z"/>
	</g>
	<g>
		<path d="M56,233.4c-0.1,0-0.2,0-0.3-0.1c-0.1,0-0.1-0.1-0.1-0.2c0-0.2,0-0.4,0.1-0.6c0.1-0.1,0.3-0.2,0.4-0.3c0.2,0,0.3,0,0.4,0.1
			c0.1,0.1,0.1,0.2,0.1,0.3c0.1,0.1,0.2,0.2,0.1,0.3c-0.1,0.2-0.2,0.3-0.4,0.4C56.1,233.3,56,233.4,56,233.4z M56.1,232.7
			C56.1,232.7,56.1,232.7,56.1,232.7c-0.1,0.1-0.1,0.1-0.1,0.2c0,0,0,0,0,0C56.1,232.8,56.2,232.8,56.1,232.7
			C56.2,232.7,56.2,232.7,56.1,232.7C56.2,232.7,56.1,232.7,56.1,232.7z"/>
	</g>
	<g>
		<path d="M58.2,227.1c-0.1,0-0.2,0-0.3-0.1c-0.2-0.1-0.2-0.3-0.3-0.4c0-0.2,0.1-0.4,0.2-0.5c0.2-0.1,0.4-0.1,0.5,0c0,0,0,0,0.1,0
			c0.1,0,0.2,0,0.3,0.1c0.1,0.2,0.1,0.3,0,0.5c-0.1,0.2-0.2,0.3-0.3,0.3C58.4,227.1,58.3,227.1,58.2,227.1z M58.2,226.5
			C58.2,226.5,58.2,226.6,58.2,226.5C58.3,226.6,58.3,226.6,58.2,226.5C58.3,226.5,58.2,226.5,58.2,226.5z"/>
	</g>
	<g>
		<path d="M56.2,230.1c-0.1,0-0.1,0-0.2,0c-0.2,0-0.3-0.2-0.4-0.3c-0.1-0.2-0.1-0.3-0.1-0.5c0.1-0.2,0.2-0.3,0.4-0.4
			c0.2-0.1,0.3,0,0.5,0c0,0,0,0,0.1,0c0.1,0,0.3,0.1,0.4,0.2c0.1,0.2,0.1,0.4,0,0.6C56.8,230,56.5,230.1,56.2,230.1z M56.2,229.4
			C56.2,229.4,56.2,229.4,56.2,229.4c-0.1,0-0.1,0-0.1,0.1c0,0,0,0.1,0,0.1c0,0,0.1,0.1,0.1,0.1c0.1,0,0.2,0,0.3-0.1c0,0,0,0,0-0.1
			c0,0,0,0-0.1,0C56.3,229.4,56.3,229.4,56.2,229.4C56.2,229.4,56.2,229.4,56.2,229.4z"/>
	</g>
	<g>
		<path d="M69,228.9C69,228.9,69,228.9,69,228.9c-0.3,0-0.5-0.1-0.6-0.4c-0.1-0.2-0.2-0.5-0.1-0.7c0.1-0.2,0.3-0.4,0.5-0.5
			c0.3-0.1,0.5,0,0.7,0.1c0.1,0.1,0.1,0.1,0.1,0.2c0.1,0,0.2,0.1,0.2,0.2c0.1,0.2,0,0.5-0.2,0.7C69.5,228.8,69.3,228.9,69,228.9z
			 M69.1,227.8C69,227.8,69,227.8,69.1,227.8c-0.2,0-0.3,0.1-0.3,0.2c0,0.1,0,0.2,0,0.2c0.1,0.1,0.1,0.1,0.2,0.1
			c0.1,0,0.2,0,0.2-0.1c0.1-0.1,0.1-0.2,0.1-0.3c0,0,0-0.1,0-0.1c0,0-0.1,0-0.1-0.1C69.2,227.8,69.1,227.8,69.1,227.8z"/>
	</g>
	<g>
		<path d="M71.2,230.2c-0.2,0-0.3-0.1-0.4-0.2c-0.1-0.1-0.1-0.3-0.1-0.5c0.1-0.2,0.2-0.3,0.4-0.3c0,0,0,0,0.1,0c0,0,0.1,0,0.1,0
			c0.2,0,0.3,0.1,0.4,0.3c0.1,0.2,0.1,0.3,0,0.5C71.6,230.1,71.4,230.2,71.2,230.2C71.2,230.2,71.2,230.2,71.2,230.2z"/>
	</g>
	<g>
		<path d="M72.3,225.3c-0.1,0-0.3-0.1-0.4-0.2c-0.1-0.1-0.2-0.2-0.2-0.4c0-0.2,0.1-0.3,0.2-0.4c0.1-0.1,0.3-0.1,0.4-0.1
			c0.1-0.1,0.2,0,0.3,0.1c0,0,0.1,0.1,0.1,0.2c0,0,0,0,0,0c0.1,0.1,0.2,0.2,0.1,0.3C72.8,225.1,72.6,225.3,72.3,225.3
			C72.3,225.3,72.3,225.3,72.3,225.3z"/>
	</g>
	<g>
		<path d="M75.2,227.1c-0.2,0-0.5-0.1-0.6-0.3c-0.1-0.2-0.1-0.4,0-0.6c0.1-0.2,0.3-0.3,0.5-0.2c0.1,0,0.2,0.1,0.2,0.2c0,0,0,0,0,0
			c0.1-0.1,0.3,0,0.3,0.1c0.1,0.2,0.1,0.5-0.1,0.7c0,0-0.1,0.1-0.1,0.1C75.4,227.1,75.3,227.1,75.2,227.1z M75,226.4
			C75,226.4,75,226.4,75,226.4c0,0.1,0,0.1,0,0.1c0,0.1,0.1,0.1,0.2,0.1c0-0.1,0-0.1,0-0.2c0,0,0,0,0-0.1
			C75.2,226.4,75.1,226.4,75,226.4z"/>
	</g>
	<g>
		<path d="M73.2,228.7c-0.1,0-0.2,0-0.3-0.1c-0.2-0.1-0.2-0.3-0.2-0.6c0.1-0.2,0.2-0.4,0.4-0.4c0.1,0,0.2,0.1,0.3,0.2
			c0.1,0,0.2,0.1,0.3,0.2c0,0.2-0.1,0.4-0.2,0.5C73.4,228.7,73.3,228.7,73.2,228.7z"/>
	</g>
	<g>
		<path d="M72.1,222.4c-0.2,0-0.4,0-0.5-0.1c-0.1,0-0.2-0.1-0.2-0.2l0-0.3c0-0.1,0.1-0.2,0.1-0.2l0.3-0.2c0.1-0.1,0.3,0,0.3,0.1
			c0,0,0,0,0,0.1c0,0,0,0,0,0c0.2,0.2,0.3,0.5,0.2,0.7c0,0.1-0.1,0.1-0.2,0.2C72.2,222.4,72.2,222.4,72.1,222.4z"/>
	</g>
	<g>
		<path d="M74.1,223.8c-0.1,0-0.2,0-0.3-0.1c0,0-0.1-0.1-0.1-0.1c-0.1-0.2,0-0.5,0.1-0.7s0.4-0.3,0.7-0.2c0,0,0.1,0,0.1,0.1
			c0,0,0,0,0,0c0.1,0,0.3,0.1,0.3,0.2c0,0.3-0.1,0.5-0.3,0.7C74.4,223.8,74.3,223.8,74.1,223.8z M74.3,223.2c0,0-0.1,0-0.1,0.1
			c0,0,0,0,0,0C74.2,223.3,74.3,223.3,74.3,223.2C74.3,223.2,74.3,223.2,74.3,223.2C74.3,223.2,74.3,223.2,74.3,223.2z"/>
	</g>
	<g>
		<path d="M77,228c-0.1,0-0.2,0-0.2-0.1c-0.2-0.1-0.3-0.2-0.3-0.3c0-0.2,0-0.3,0.1-0.5c0.1-0.1,0.2-0.2,0.4-0.3c0.1,0,0.2,0,0.3,0.1
			c0.1,0,0.1,0.1,0.1,0.1c0.1,0.2,0.1,0.4,0.1,0.7c0,0.1-0.1,0.1-0.1,0.2C77.2,228,77.1,228,77,228z"/>
	</g>
	<g>
		<path d="M48.8,235.6C48.8,235.6,48.7,235.6,48.8,235.6c-0.2,0-0.3-0.1-0.3-0.3c0.3-2.3,2-4.1,3.3-5.6c0.6-0.7,1.2-1.3,2-1.8
			c0.9-0.6,1.8-0.9,2.7-0.8c0.1,0,0.2,0.1,0.2,0.3c0,0.1-0.1,0.2-0.3,0.2c-0.7-0.1-1.5,0.1-2.3,0.7c-0.7,0.5-1.3,1.1-1.9,1.8
			c-1.3,1.4-2.9,3.2-3.2,5.3C49,235.5,48.9,235.6,48.8,235.6z"/>
	</g>
	<g>
		<path d="M53.9,242.2C53.9,242.2,53.9,242.2,53.9,242.2c-0.2,0-0.3-0.1-0.3-0.3c0.2-3.8,1.9-7.6,4.6-10.3c0.1-0.1,0.3-0.1,0.4,0
			c0.1,0.1,0.1,0.3,0,0.4c-2.6,2.6-4.2,6.2-4.4,9.9C54.2,242.1,54.1,242.2,53.9,242.2z"/>
	</g>
	<g>
		<path d="M58.3,241.7C58.3,241.7,58.3,241.7,58.3,241.7c-0.1,0-0.3-0.1-0.3-0.3c0-1.7,0.1-3.4,0.3-5.1c0.1-1.1,0.3-2.3,0.8-3.5
			c0.5-1.2,1.4-2.2,2.5-2.6c0.1-0.1,0.3,0,0.3,0.1c0.1,0.1,0,0.3-0.1,0.3c-0.9,0.4-1.7,1.2-2.2,2.4c-0.5,1.1-0.6,2.3-0.8,3.3
			c-0.2,1.7-0.3,3.4-0.3,5.1C58.6,241.6,58.4,241.7,58.3,241.7z"/>
	</g>
	<g>
		<path d="M51.4,240.2c-0.1,0-0.2-0.1-0.3-0.2c-0.1-1.2,0.2-2.4,0.6-3.3c0.5-1.4,1.1-3,2.3-4.1c0.5-0.5,1.2-0.9,1.8-1.2
			c0.1-0.1,0.3,0,0.3,0.1c0.1,0.1,0,0.3-0.1,0.3c-0.6,0.2-1.2,0.6-1.7,1.1c-1.1,1-1.7,2.5-2.2,3.9c-0.3,0.9-0.6,2-0.5,3.1
			C51.6,240.1,51.5,240.2,51.4,240.2C51.4,240.2,51.4,240.2,51.4,240.2z"/>
	</g>
	<g>
		<path d="M53.8,234.9C53.8,234.9,53.8,234.9,53.8,234.9c-0.2-0.1-0.3-0.2-0.2-0.3c0.4-1.3,0.9-2.6,1.6-3.7c0.9-1.3,2-2.2,3.3-2.5
			c0.1,0,0.3,0.1,0.3,0.2c0,0.1-0.1,0.3-0.2,0.3c-1.1,0.2-2.2,1-3,2.2c-0.7,1.1-1.2,2.3-1.6,3.6C54,234.8,53.9,234.9,53.8,234.9z"/>
	</g>
	<g>
		<path d="M78.3,232.3c-0.1,0-0.2,0-0.2-0.1c-1.1-1.6-2.5-3-4.1-4c-0.6-0.4-1.3-0.8-2-0.7c-0.1,0-0.3-0.1-0.3-0.2
			c0-0.1,0.1-0.3,0.2-0.3c0.9,0,1.7,0.4,2.3,0.8c1.7,1.1,3.2,2.5,4.3,4.2c0.1,0.1,0,0.3-0.1,0.4C78.4,232.3,78.3,232.3,78.3,232.3z"
			/>
	</g>
	<g>
		<path d="M78.8,229.6c-0.1,0-0.1,0-0.2-0.1c-1.2-1.2-2.8-2.2-4.7-2.8c-1.9-0.6-4-0.8-5.5-1c-0.1,0-0.2-0.1-0.2-0.3
			c0-0.1,0.1-0.2,0.3-0.2c1.6,0.1,3.6,0.3,5.6,1c2,0.7,3.7,1.7,4.9,3c0.1,0.1,0.1,0.3,0,0.4C79,229.5,78.9,229.6,78.8,229.6z"/>
	</g>
	<g>
		<path d="M83,228.2c-0.1,0-0.2-0.1-0.2-0.2c-0.9-2.2-3-3.9-5.7-4.7c-2.7-0.8-5.5-0.5-7.7-0.2c-0.1,0-0.3-0.1-0.3-0.2
			c0-0.1,0.1-0.3,0.2-0.3c2.2-0.3,5.2-0.6,7.9,0.2c2.9,0.8,5.1,2.7,6,5C83.3,228,83.2,228.2,83,228.2
			C83.1,228.2,83.1,228.2,83,228.2z"/>
	</g>
	<g>
		<path d="M81.7,228.4c-0.1,0-0.2,0-0.2-0.1c-0.7-1.2-1.7-2.4-2.7-3.3c-0.3-0.2-0.5-0.4-0.8-0.5c-0.4-0.2-1-0.2-1.4-0.1l-3.4,0.1
			c-0.2,0-0.3-0.1-0.3-0.2c0-0.1,0.1-0.3,0.2-0.3l3.4-0.1c0.5,0,1.1,0,1.6,0.2c0.4,0.1,0.7,0.4,0.9,0.6c1.1,1,2.1,2.1,2.9,3.4
			c0.1,0.1,0,0.3-0.1,0.3C81.8,228.4,81.8,228.4,81.7,228.4z"/>
	</g>
	<g>
		<path d="M81.6,222c0,0-0.1,0-0.1,0c-2.7-1.8-6.4-1.9-9.3-0.4c-0.1,0.1-0.3,0-0.3-0.1c-0.1-0.1,0-0.3,0.1-0.3c3-1.6,7-1.4,9.8,0.4
			c0.1,0.1,0.2,0.2,0.1,0.4C81.8,222,81.7,222,81.6,222z"/>
	</g>
	<g>
		<path d="M81.5,224.2c-0.1,0-0.1,0-0.2-0.1c-0.6-0.7-1.3-1.3-2-1.8c-0.7-0.6-1.6-1.2-2.6-1.2c-1.1-0.1-2.1,0.6-2.9,1.1
			c-0.1,0.1-0.3,0-0.3-0.1c-0.1-0.1,0-0.3,0.1-0.3c0.9-0.5,2-1.2,3.2-1.1c1.1,0.1,2.2,0.8,2.9,1.4c0.7,0.6,1.4,1.2,2,1.9
			c0.1,0.1,0.1,0.3,0,0.4C81.6,224.2,81.5,224.2,81.5,224.2z"/>
	</g>
	<g>
		<path class="st11" d="M59.4,237.9c-0.1,0-0.2-0.1-0.3-0.2c0-0.1,0.1-0.3,0.2-0.3c1.2-0.2,2.1-1.3,3-2.3c1.2-1.4,2.5-2.8,4.1-3.7
			c1.8-1,3.8-1.3,5.4-0.6c0.3,0.1,0.5,0.2,0.8,0.3c0.5,0.2,0.9,0.4,1.4,0.5c1,0.1,2-0.3,2.8-0.7c0.1-0.1,0.3,0,0.3,0.1
			c0.1,0.1,0,0.3-0.1,0.3c-0.9,0.4-1.9,0.9-3.1,0.8c-0.5-0.1-1-0.3-1.5-0.5c-0.2-0.1-0.5-0.2-0.7-0.3c-1.5-0.6-3.3-0.3-5,0.6
			c-1.6,0.9-2.8,2.2-4,3.5C61.9,236.4,60.9,237.6,59.4,237.9C59.5,237.9,59.4,237.9,59.4,237.9z"/>
	</g>
	<g>
		<path d="M68,232.4c0.5-0.4,0.7-1,0.9-1.5c-0.5,0-0.9,0.2-1.3,0.4c-0.7,0.3-1.4,0.6-2,1.1C66.1,233.1,67.4,232.9,68,232.4z"/>
	</g>
	<g>
		<path class="st7" d="M64.6,239.1c-1.1,0-2-0.5-2.5-1.3c-0.1-0.1,0-0.3,0.1-0.3c0.1-0.1,0.3,0,0.3,0.1c0.4,0.6,1.2,1,2.1,1
			c0.9,0,1.7-0.4,2.5-0.8c1.7-0.7,3.1-1.4,3.9-2.8c0.1-0.1,0.2-0.2,0.3-0.1c0.1,0.1,0.2,0.2,0.1,0.3c-0.9,1.6-2.7,2.4-4.1,3
			c-0.8,0.4-1.7,0.8-2.7,0.8C64.7,239.1,64.6,239.1,64.6,239.1z"/>
	</g>
	<g>
		<path class="st7" d="M65.6,241.9c-0.3,0-0.5,0-0.8,0c-0.1,0-0.2-0.1-0.2-0.3c0-0.1,0.1-0.2,0.3-0.2c1.8,0.2,3.6-0.5,5.2-1.1
			c0.8-0.3,1.5-0.6,2.2-1c1.5-1,2.6-2.5,3.7-4.2c0.1-0.1,0.2-0.2,0.4-0.1c0.1,0.1,0.2,0.2,0.1,0.4c-1.1,1.7-2.2,3.3-3.8,4.3
			c-0.7,0.5-1.5,0.8-2.3,1.1C68.9,241.2,67.3,241.9,65.6,241.9z"/>
	</g>
	<g>
		<path class="st12" d="M67.3,245.4c-0.1,0-0.2-0.1-0.2-0.2c0-0.1,0-0.3,0.2-0.3c2.4-0.7,4.7-1.6,7-2.7c0.9-0.4,2-1,2.9-1.6
			c1-0.8,1.9-1.7,2.7-2.5c2.3-2.5,4.3-5.3,5.9-8.3c0.1-0.1,0.2-0.2,0.3-0.1c0.1,0.1,0.2,0.2,0.1,0.3c-1.7,3-3.7,5.9-6,8.4
			c-0.7,0.8-1.7,1.8-2.7,2.5c-1,0.7-2,1.2-3,1.7C72.1,243.7,69.8,244.6,67.3,245.4C67.3,245.4,67.3,245.4,67.3,245.4z"/>
	</g>
	<g>
		<path class="st13" d="M92.8,256.5c0.1,0,0.2,0,0.3,0.1c0.3,0.1,0.3,0.5,0.3,0.8c0,0.4,0,0.8,0.1,1.3c0,0.2,0.1,0.4,0.2,0.5
			c0.1,0.1,0.3,0.1,0.4,0.1c0.5,0,1.1,0,1.4-0.4c0.8-0.9,0.3-3.9-0.8-4.6C93,253.2,92.2,256.2,92.8,256.5z"/>
	</g>
	<g>
		<path class="st7" d="M118.1,279.9c-0.5-0.4-1-0.8-1.5-1.1c-0.3-0.2-0.8-0.3-1.1-0.1c-0.2,0.2-0.2,0.5-0.2,0.7
			c0,0.5,0.3,0.9,0.4,1.4c0.1,0.5,0,1.1-0.5,1.3c0.7,0.5,1.6,0.7,2.4,0.5s1.5-0.9,1.7-1.8c0-0.1,0-0.2,0-0.3
			c-0.1-0.1-0.1-0.1-0.2-0.2C118.7,280.2,118.4,280.1,118.1,279.9"/>
	</g>
	<g>
		<path class="st7" d="M129.7,262c0.3,0,0.6-0.1,0.9,0.1c0.5,0.3,0.4,1,0.5,1.5c0.1,0.5,0.5,0.9,1,1.1c2.1,0.7,4.6-0.4,4.9-2.7
			c0.2-1.6-0.7-3.2-2.1-4c-1.4-0.9-3.5-1.1-4.8,0.1c-1.2,1.1,0.1,1.4-0.2,2.5C129.8,260.9,128.2,262,129.7,262z"/>
	</g>
	<g>
		<path class="st14" d="M129.4,304c-0.9,0.3-1.4,1.2-2.1,1.6c-0.8,0.5-1.8,0.4-2.8,0.4c-0.3,0-0.5,0-0.8,0.1
			c-0.2,0.1-0.4,0.3-0.5,0.5c-0.7,1-1.3,2.2-1.7,3.4c0.9,0.4,1.9-0.4,2.9-0.2c0.6,0.1,1.1,0.6,1.7,0.6c0.8,0,1.4-0.5,1.9-1.1
			c1.6-1.5,2.9,0.1,4.5-0.9c1-0.6,1.8-1.9,2.1-3c0.2-0.7,0.5-2-0.4-2.3c-0.7-0.2-1.3,0.7-1.9,0.8C131.4,304.3,130.4,303.7,129.4,304
			z"/>
	</g>
	<g>
		<path class="st14" d="M145,286.9c-0.1,0.1-0.2,0.3-0.2,0.5c0,0.2,0.1,0.5,0.1,0.7c0.2,0.8,0,1.7-0.2,2.5c-0.1,0.3-0.1,0.6,0,0.9
			c0.2,0.4,0.8,0.3,1.2,0.2c0.4-0.2,0.8-0.5,1.3-0.4c0.6,0.1,0.9,0.6,1,1.2c0.1,0.6,0,1.6,0.8,1.8c0.8,0.2,1.2-0.8,1.4-1.4
			c0.4-1,0.5-2.5,0.2-3.6c-0.3-1.1-1.2-1.8-2.1-2.4C147,285.5,146.3,285,145,286.9z"/>
	</g>
	<g>
		<path class="st14" d="M187.7,297.5c-0.4-0.3-0.8-0.5-1.1-0.8c-0.7-0.5-1.5-1-2.2-0.6c1.1,0.7,1.7,2.1,1.4,3.4
			c0.4,0.5,1.2,0,1.8,0.3c0.3,0.1,0.5,0.4,0.8,0.2c0.2-0.1,0.2-0.4,0.2-0.6c-0.1-0.5-0.2-1-0.5-1.4"/>
	</g>
	<g>
		<path class="st12" d="M195.9,295.5c0.2,0.2,0.5,0.4,0.6,0.6c0.3,0.4,0.2,1,0.3,1.5c0.1,0.5,0.5,1.1,1,0.9c0.3-0.1,0.5-0.4,0.5-0.7
			c0-0.3-0.1-0.6-0.2-0.9c-0.3-1.1,0-3.5-1.6-3.9C195.3,292.8,195.3,294.7,195.9,295.5z"/>
	</g>
	<g>
		<path class="st13" d="M192.9,307.4c-0.1,0.7,0.8,1,1.1,1.6c0.2,0.5,0.1,1,0.1,1.6c0,0.5,0.1,1.2,0.6,1.3c0.3,0.1,0.6,0,0.9,0
			c0.6,0.1,0.9,0.7,1.3,1.1c0.8,1.1,1.8,0.7,1.4-0.6c-0.3-0.8-1-1.8-1.4-2.6c-0.4-0.9-0.8-2-1.6-2.6
			C194.8,306.8,193,306.2,192.9,307.4z"/>
	</g>
	<g>
		<path class="st7" d="M204.3,322c-0.3,0.1-0.7,0.3-1,0.5c-0.1,0.1-0.2,0.2-0.2,0.3c0,0.2,0.3,0.3,0.5,0.4c0.9,0.4,1,1.6,1.5,2.5
			c0.5,0.7,1.3,2,1.9,2.6c0.9,1,1.9-0.1,1.8-1.3C208.8,325.9,205,321.7,204.3,322z"/>
	</g>
	<g>
		<path class="st13" d="M213.6,337.1c-0.2-0.5-0.6-0.9-1-1.1c-0.5-0.2-1.1,0-1.3,0.4c0,0.5-0.1,1,0.1,1.4c0.2,0.4,0.6,0.8,1.1,0.7
			c0.2,0,0.4-0.2,0.7-0.1c0,0.5,0,0.9,0,1.4c0.5,0.2,1.1-0.3,1.3-0.8c0.1-0.6-0.2-1.1-0.5-1.6"/>
	</g>
	<g>
		<path class="st14" d="M215.2,324.4c-0.2-0.4-0.4-0.8-0.8-1.2c-0.1-0.1-0.2-0.2-0.3-0.2c-0.3,0-0.5,0.4-0.5,0.7
			c0,0.6,0.2,1.1,0.5,1.6c0.3,0.4,0.6,0.8,0.7,1.2c0,0.3,0,0.6,0,0.9s0.1,0.6,0.4,0.7c0.3,0.1,0.7-0.1,0.8-0.4
			c0.2-0.3,0.2-0.6,0.1-1c0-0.4,0-0.9,0-1.3c0-0.4-0.1-0.9-0.5-1.1"/>
	</g>
	<g>
		<path class="st13" d="M170.8,333.7c0.1,0.3,0.2,0.6,0.2,0.8c0,0.5-0.3,1.1-0.3,1.6c0,0.2,0,0.4,0.1,0.6c0.1,0.4,0.4,0.7,0.8,0.9
			c0.2,0.1,0.3,0.1,0.5,0.1c0.3-0.1,0.5-0.4,0.5-0.7c0.6-11.4-0.9-3.7-2-4.3C170.5,333.1,170.7,333.4,170.8,333.7z"/>
	</g>
	<g>
		<path class="st15" d="M177.3,317.6c-0.3,0.5-1.3,3-1.3,3.5c0,0.3,0.1,0.6,0.3,0.8c0.2,0.2,0.5,0.4,0.8,0.6
			c0.1,0.1,0.3,0.1,0.4,0.1c0.1-0.1,0.2-0.2,0.2-0.3c0.4-0.9,1.4-4,0.7-5C177.8,316.3,177.7,316.8,177.3,317.6z"/>
	</g>
	<g>
		<path class="st7" d="M176.7,306.7c-0.1-0.9-0.2-1.8-0.4-2.7c0-0.3-0.1-0.7-0.3-0.9c-0.2-0.3-0.6-0.4-0.9-0.2
			c-0.2,0.1-0.2,0.3-0.2,0.5c-0.1,0.6,0,1.2,0,1.8c-0.1,0.7-0.4,1.3-0.3,2c0.1,0.5,0.3,1,0.6,1.4c0.2,0.3,0.4,0.6,0.7,0.6
			c0.5,0.1,0.9-0.5,1-1C177,307.8,176.9,307.3,176.7,306.7"/>
	</g>
	<g>
		<path class="st7" d="M169.5,301.4c-0.4,0.1-0.7-0.3-0.9-0.7c-0.1-0.4-0.1-0.8-0.3-1.2c-0.1-0.4-0.5-0.7-0.9-0.6
			c-0.5,0.1-0.6,0.7-0.5,1.2s0.5,0.8,0.6,1.3c0.1,0.5,0.1,1,0,1.5c0,0.5,0.1,1,0.5,1.3c0.6,0.4,1.5,0,1.7-0.7s-0.1-1.5-0.6-2"/>
	</g>
	<g>
		<path class="st16" d="M164.6,312.6c-0.2-0.2-0.6-0.2-0.8,0c-0.2,0.2-0.2,0.5-0.1,0.7c0.1,0.2,0.3,0.4,0.4,0.6
			c0.5,0.6,0.9,1.4,1.1,2.2c0.1,0.6,0.2,1.4,0.8,1.6c0.7,0.3,1.1,0.9,1.7,1c0.4-1.4-0.2-2.1-0.9-3.3c-0.3-0.5-0.4-1.4-0.8-1.8
			C165.9,313.2,165,312.9,164.6,312.6z"/>
	</g>
	<g>
		<path class="st14" d="M161.9,303.1c-0.5,0-1-0.3-1.4-0.6c-0.3-0.2-0.6-0.3-0.9-0.1c-0.2,0.3,0,0.7,0.2,0.9
			c0.2,0.3,0.5,0.5,0.5,0.9c0,0.2-0.2,0.5-0.1,0.7c0.1,0.2,0.5,0.2,0.7,0.1c0.7-0.3,1.3-0.9,1.4-1.7c-0.2,0-0.4-0.1-0.6-0.2"/>
	</g>
	<g>
		<path class="st7" d="M90.9,320.7c-0.3-0.5-0.3-1.1-0.5-1.6s-0.8-1-1.3-0.7c-0.3,0.2-0.4,0.6-0.5,1c-0.1,0.8,0,1.6,0.4,2.3
			c0.4,0.6,1.2,1,1.8,0.7c0.1-0.1,0.2-0.1,0.3-0.2c0.3-0.5-0.5-1-0.4-1.6"/>
	</g>
	<g>
		<path class="st14" d="M96.6,321.1c-0.3-0.1-0.6-0.4-0.7-0.7c0-0.2,0-0.3-0.1-0.5c-0.2-0.3-0.8-0.2-1,0.2c-0.2,0.4,0,0.8,0.1,1.2
			c0.1,0.4,0.2,0.8,0.1,1.2c-0.1,0.2-0.2,0.4-0.1,0.5c0.4,0.3,0.9,0.1,1.3-0.2c0.3-0.2,0.5-0.4,0.7-0.7c0.1-0.3,0.1-0.7-0.2-0.9"/>
	</g>
	<g>
		<path class="st14" d="M90.4,329.6c0.2-0.6,0-1.3-0.3-1.9c-0.2-0.5-0.4-1-0.7-1.5c-0.1-0.2-0.2-0.4-0.4-0.6c-0.4-0.2-0.9,0.1-1,0.5
			c-0.1,0.4,0,0.9,0.2,1.3c0.2,0.4,0.4,0.8,0.3,1.3c0,0.3-0.1,0.6,0,0.9c0.1,0.2,0.2,0.3,0.4,0.4c0.5,0.3,1,0.5,1.6,0.6
			c0-0.1,0-0.3,0-0.4"/>
	</g>
	<g>
		<path class="st13" d="M94.7,327.4c-0.4-0.8-1.3-1.2-2.2-1c-0.1,0-0.2,0-0.2,0.1c-0.3,0.2-0.1,0.6,0.1,0.8c0.2,0.2,0.6,0.3,0.8,0.5
			c0.5,0.4,0.4,1.2,0.4,1.9c0,0.1,0,0.2,0.1,0.3c0.2,0.3,0.7,0.3,0.9,0c0.2-0.3,0.3-0.7,0.3-1c0-0.4,0-0.9,0.1-1.3"/>
	</g>
	<g>
		<path class="st7" d="M91.8,335.3c0-0.5-0.2-1.1-0.7-1.3c-0.5-0.2-1.2,0-1.2,0.6c0,0.2,0.1,0.4,0.2,0.6c0.2,0.5,0.2,1,0,1.4
			c-0.1,0.3-0.4,0.6-0.3,0.9c0.1,0.5,0.8,0.7,1.3,0.5c0.5-0.3,0.7-0.8,0.8-1.3c0.1-0.4,0.2-0.9-0.1-1.2"/>
	</g>
	<g>
		<path class="st7" d="M88.2,343c0-0.5-0.1-1.1-0.5-1.4c-0.4-0.3-1.2,0-1.1,0.5c0,0.2,0.2,0.4,0.3,0.6c0.3,0.6,0.3,1.2,0.2,1.9
			c0.4,0.3,1.1,0.2,1.5-0.2c0.3-0.4,0.3-1.1-0.1-1.5"/>
	</g>
	<g>
		<path class="st14" d="M92,356.3c-0.3-0.3-0.5-0.7-0.6-1.1c-0.1-0.4-0.2-0.9-0.5-1.3s-0.9-0.4-1.2-0.1c-0.1,0.2-0.1,0.4-0.1,0.5
			c0.1,0.8,1,1.2,1,2c0,0.2,0,0.4,0,0.6c0.1,0.2,0.4,0.4,0.6,0.3s0.4-0.3,0.4-0.6"/>
	</g>
	<g>
		<path class="st14" d="M66.4,355c0-0.4-0.1-0.8-0.1-1.3c0-0.5-0.1-1-0.3-1.5c-0.2-0.5-0.6-0.9-1.1-1c-0.1,0-0.1,0-0.2,0
			c-0.2,0.1-0.2,0.3-0.2,0.4c0.1,1.3,0.2,2.5,0.4,3.8c0,0.3,0.1,0.7,0.4,0.8c0.4,0.1,0.6-0.4,0.6-0.8"/>
	</g>
	<g>
		<path class="st7" d="M67.6,339.7c0.1-0.4,0.1-0.9-0.2-1.3c-0.3-0.4-0.9-0.5-1.2-0.2c-0.2,0.3-0.1,0.7,0,1.1c0.2,0.3,0.4,0.6,0.4,1
			c0,0.3-0.1,0.6,0,0.8c0.1,0.3,0.4,0.5,0.6,0.4c0.3-0.6,0.5-1.3,0.6-2"/>
	</g>
	<g>
		<path class="st13" d="M62.4,327.2c-0.4-0.6-0.9-1.1-1.4-1.6c-0.2-0.2-0.5-0.3-0.8-0.3c-0.3,0-0.6,0.3-0.5,0.6
			c0.1,0.3,0.5,0.4,0.7,0.6c0.1,0.3-0.1,0.7,0.1,0.9c0.1,0.1,0.2,0.1,0.4,0.2c0.7,0.3,1,1.1,0.7,1.8c0.5,0.1,0.9-0.3,1.1-0.8
			s0.1-1,0-1.4"/>
	</g>
	<g>
		<path class="st7" d="M60.2,315c-0.1-0.7-0.8-1.1-1.5-1.4c-0.4-0.2-0.9-0.4-1.3-0.1c-0.3,0.2-0.4,0.5-0.2,0.8
			c0.1,0.3,0.5,0.5,0.8,0.4c-0.6,0.4-0.9,1.1-0.7,1.8c0.4,0.1,0.8,0,1.1-0.3c0.1-0.2,0.2-0.4,0.5-0.4c0.1,0,0.2,0,0.4,0.1
			c0.4,0.2,0.8,0.2,1.1,0.1c0.3-0.2,0.5-0.7,0.3-1"/>
	</g>
	<g>
		<path class="st14" d="M65.8,319.3c-0.1-0.3-0.3-0.6-0.5-0.9c-0.2-0.2-0.6-0.4-0.9-0.2c-0.2,0.1-0.3,0.3-0.5,0.4
			c-0.2,0.2-0.3,0.4-0.4,0.6s0.1,0.5,0.3,0.6c0.2,0,0.4-0.1,0.6,0c0.2,0.1,0.3,0.4,0.3,0.6c0,0.2-0.1,0.5-0.1,0.7
			c0.1,0.4,0.6,0.5,0.9,0.4s0.6-0.5,0.6-0.9c0-0.4-0.1-0.8-0.2-1.1"/>
	</g>
	<g>
		<path class="st7" d="M66.9,310c-0.1-0.5-0.1-1.1-0.2-1.6c-0.5-0.2-1.2-0.1-1.6,0.4c-0.4,0.4-0.5,1.1-0.3,1.6
			c0.1,0.2,0.2,0.4,0.3,0.6c0.2,0.5,0.1,1.2-0.2,1.6c1.4,0,2.6-1.1,2.8-2.5c-0.2,0-0.3,0-0.5,0"/>
	</g>
	<g>
		<path class="st15" d="M58.2,306.7c0-0.2,0-0.5,0-0.7c-0.2-0.2-0.5-0.2-0.7-0.1s-0.3,0.4-0.2,0.6c0.1,0.2,0.4,0.5,0.2,0.7
			c-0.1,0.1-0.3,0.1-0.4,0.2c-0.2,0.2-0.1,0.4,0.1,0.6c0.2,0.2,0.4,0.3,0.4,0.5c0.1,0.3-0.1,0.6,0.1,0.7c0.1,0.1,0.4,0,0.5-0.1
			c0.3-0.2,0.4-0.5,0.5-0.9c0-0.2,0-0.3,0-0.5s0.3-0.3,0.4-0.2c0-0.2,0-0.5,0-0.7c-0.3,0-0.6,0-0.8-0.1c-0.2-0.1-0.4-0.5-0.2-0.7"/>
	</g>
	<g>
		<path class="st8" d="M225.2,389.1c3.3,0.3,6.5,1,9.7,2.2l0.5,0.3c0,0,0.6,4.2-2.3,5.6c0,0-3.2,2.6-9.3,1.3c0,0,1.2-1.1,1.4-9
			L225.2,389.1z"/>
		<path class="st9" d="M227.1,399.2c-1,0-2.1-0.1-3.3-0.4c-0.1,0-0.2-0.1-0.2-0.2s0-0.2,0.1-0.3c0,0,1.2-1.3,1.4-8.9l0-0.4
			c0-0.1,0-0.1,0.1-0.2c0.1,0,0.1-0.1,0.2-0.1c3.4,0.3,6.6,1,9.7,2.2l0.5,0.3c0.1,0,0.1,0.1,0.1,0.2c0,0.2,0.5,4.3-2.4,5.8
			C232.9,397.7,230.9,399.2,227.1,399.2z M224.2,398.4c5.6,1.1,8.6-1.3,8.7-1.3c0,0,0,0,0,0c2.4-1.2,2.3-4.5,2.2-5.2l-0.4-0.2
			c-3-1.1-6.1-1.8-9.3-2.2l0,0.1C225.3,395.5,224.6,397.6,224.2,398.4z"/>
	</g>
	<g>
		<path class="st13" d="M169.5,248.1c-5.6-0.1-11.2,0.5-16.3,2.7c-5.1,2.2-9.6,6-11.9,11.1c-0.9,1.9-1.4,4-1.2,6.1
			c0.6,4.9,5.4,8.1,9.8,10.3c9.1,4.5,19,7.5,29,8.8c9.6,1.3,25.4-5,17.9-17c-2.9-4.5-7.8-7.8-11.3-11.8
			C180.4,252.6,177.6,248.3,169.5,248.1z"/>
	</g>
	<g>
		<path class="st17" d="M164,255.7c-0.2,0.7-0.8,1.1-1,1.7c-0.2,0.7,0.1,1.5,0.7,1.8c0.2,0.1,0.3,0.2,0.5,0.2
			c1.4,0.1,2.6-3.9,2.4-5.1c-0.1-0.8-0.6-1.5-1.5-1.5C163.2,252.8,164.3,254.6,164,255.7z"/>
	</g>
	<g>
		<path class="st7" d="M189.1,273.3c-0.2,0.6-0.5,1.3-0.1,1.7c0.1,0.1,0.2,0.2,0.3,0.3c0.6,0.6,0.3,1.6-0.1,2.3
			c-0.3,0.7-0.6,1.4-1,2.1c-0.1,0.2-0.1,0.3-0.1,0.5c0,0.1,0.1,0.1,0.2,0.2c4.3,2.5,4.6-7.5,4.6-9.7c0-1.3-0.1-2.5-1.7-2.4
			c-0.8,0-2.3,0.7-2.6,1.5C188.4,270.8,189.5,272.1,189.1,273.3z"/>
	</g>
	<g>
		<path class="st13" d="M98.8,312.5c-9.1-1.4-17.8-4.6-25.7-9.4c-8.7-5.3-16.6-13-19.4-22.9c-2.9-9.8,0.4-21.9,9.4-26.9
			c3.4-1.9,7.6-2.7,11.3-1.4c2.8,0.9,5,2.9,7.2,4.9c11.5,10.3,23.1,20.5,34.6,30.8c2.6,2.3,5.3,4.7,6.7,7.9
			c1.9,4.1,1.4,9.2-0.9,13.1c-2.1,3.4-6.7,7.6-10.9,8.2C106.8,317.3,103.1,313.2,98.8,312.5z"/>
	</g>
	<g>
		<path class="st7" d="M58.4,267.2c-1,0.2-2.1,0.6-2.8,1.3c-1.1,1.1-1.4,2.8-1.3,4.4c0,0.3,0.1,0.6,0.2,0.9c0.3,0.4,0.8,0.5,1.2,0.6
			c0.6,0.1,1.3,0.2,1.9-0.1c0.6-0.3,0.9-1,1.6-1.1c0.4-0.1,0.8,0.1,1.1,0c0.4-0.1,0.6-0.5,0.7-0.8c0.7-1.6,1.4-3.5,1.5-5.3
			C61.8,266.6,59.4,267.1,58.4,267.2z"/>
	</g>
	<g>
		<path class="st12" d="M69.1,282.2c-0.1,0.5-0.6,0.7-1,1c-0.5,0.4-1,0.9-1.2,1.5c-0.2,0.6-0.1,1.4,0.3,1.9c0.2,0.2,0.4,0.3,0.5,0.5
			c0.6,0.7,0.2,1.7,0.3,2.6c0.3,0.2,0.7,0,0.9-0.2c0.2-0.2,0.4-0.5,0.8-0.6c0.3-0.1,0.6,0,0.9-0.1c0.5-0.2,0.5-0.9,0.4-1.4
			s-0.3-1.1,0-1.6c0.2-0.3,0.5-0.4,0.6-0.6c0.4-0.5,0-3.3-0.3-3.9c-0.3-0.5-0.7-0.9-1.3-0.7C68.8,280.6,69.3,281.4,69.1,282.2z"/>
	</g>
	<g>
		<path class="st7" d="M83.7,267.9c-0.5-0.3-1.2-0.3-1.7-0.1s-0.8,1-0.4,1.5c0.1,0.2,0.3,0.3,0.4,0.4c0.5,0.6,0.4,1.5,0.2,2.3
			c0.7,0.3,1.4-0.4,1.9-1c0.4-0.5,0.7-1,0.8-1.6s-0.2-1.3-0.7-1.5"/>
	</g>
	<g>
		<path class="st15" d="M87.4,286.9c0.1,0.2,0.6,0.2,0.7,0.5c0,0.1,0,0.2,0,0.3c0,0.9-0.1,1.7-0.1,2.6c0,0.2,0,0.4,0.1,0.6
			c0.3,0.6,1.3,0,1.8,0.4c0.3,0.3,0.4,0.9,0.8,0.9c0.2,0,0.4-0.1,0.5-0.2c0.5-0.3,0.9-0.7,1.4-1c0.2-0.1,0.4-0.3,0.4-0.5
			c0.1-0.5-0.3-1-0.3-1.4c0-0.6,0.3-0.9,0.5-1.4c0.3-0.9,0.4-1.3-0.5-2C91.8,284.8,86.3,285,87.4,286.9z"/>
	</g>
	<g>
		<path class="st6" d="M108.7,298.5c-2,4.6-4,9.3-6,13.9c-1,2.3-1.7,4.4-2.6,6.8"/>
		<path class="st7" d="M100.1,319.4C100.1,319.4,100,319.4,100.1,319.4c-0.2-0.1-0.3-0.2-0.2-0.3c0.3-0.8,0.6-1.7,0.9-2.5
			c0.5-1.5,1.1-2.8,1.7-4.3l6-13.9c0.1-0.1,0.2-0.2,0.3-0.1c0.1,0.1,0.2,0.2,0.1,0.3l-6,13.9c-0.6,1.5-1.2,2.9-1.7,4.3
			c-0.3,0.8-0.6,1.6-0.9,2.5C100.3,319.4,100.2,319.4,100.1,319.4z"/>
	</g>
	<g>
		<path class="st13" d="M56.6,393.7c-0.1,0-0.1,0-0.2,0c-0.4-0.1-0.7-0.5-0.6-0.9l4.5-20.1c1.2-5.6,2.5-11.3,2.4-17.1
			c-0.1-7.3-2.5-14.5-4.8-21.5c-0.6-2-1.3-4-1.9-6c-2.3-7.6-4.8-18.8-0.5-28.5c0.2-0.4,0.6-0.6,1-0.4c0.4,0.2,0.6,0.6,0.4,1
			c-4.1,9.2-1.6,20.1,0.6,27.5c0.6,2,1.3,4,1.9,6c2.3,7.1,4.7,14.4,4.8,21.9c0.1,6-1.2,11.8-2.5,17.5l-4.5,20.1
			C57.2,393.5,56.9,393.7,56.6,393.7z"/>
	</g>
	<g>
		<path class="st13" d="M50.5,264.7C50.5,264.7,50.5,264.6,50.5,264.7c-0.5-0.1-0.8-0.4-0.8-0.9c1-9-1.5-17.9-1.7-18.4
			c-5.5-13.7-6.7-24.5-3.6-32.2c2.4-5.9,6.5-7.6,6.6-7.7c0.4-0.2,0.8,0,1,0.4c0.2,0.4,0,0.8-0.4,1l0,0c0,0-3.7,1.6-5.9,7
			c-3.6,9.1,0,21.9,3.7,31c0,0,0,0,0,0.1c0.1,0.4,2.9,9.5,1.8,19.1C51.2,264.4,50.9,264.7,50.5,264.7z"/>
	</g>
	<g>
		<path class="st18" d="M51.3,225.9C51.3,225.9,51.3,225.9,51.3,225.9c-0.2-0.1-0.3-0.2-0.2-0.3c0.1-0.2,6-16,27.8-9.4
			c0.1,0,0.2,0.2,0.2,0.3c0,0.1-0.2,0.2-0.3,0.2c-21.4-6.4-27.1,8.9-27.2,9.1C51.5,225.8,51.4,225.9,51.3,225.9z"/>
	</g>
	<g>
		<path class="st13" d="M226.3,385c-0.4,0-0.8-0.3-0.8-0.7c0-0.2-0.7-19-7.9-28.2c-7.4-9.6-8.5-15.9-8.5-16.1c0,0,0,0,0-0.1
			c-0.4-7.7-4-10-4-10c0,0,0,0-0.1,0l-14.2-10.3c-14.4-10.4-14.7-28.1-14.7-28.3c0-0.4,0.3-0.8,0.8-0.8c0,0,0,0,0,0
			c0.4,0,0.8,0.3,0.8,0.8c0,0.2,0.3,17.1,14.1,27.1l14.2,10.3c0.5,0.3,4.3,2.9,4.7,11.2c0.1,0.5,1.3,6.5,8.2,15.4
			c3.1,4.1,5.5,10.2,6.9,18.3c1.1,6,1.2,10.8,1.2,10.9C227.1,384.7,226.8,385,226.3,385C226.3,385,226.3,385,226.3,385z"/>
	</g>
</g>
<g>
	<g>
		<path class="st2" d="M202.3,274c16.2-23.8,23-34.7,41.9-56.4c2.1,1.7,5.8,0.7,7.4-1.4c1.6-2.1,1.1-5.6-1.1-7.1
			c2.3-0.9,4.4-2.6,5.3-4.9s0.2-5.3-1.9-6.6c3-0.3,5.7-2.6,6.4-5.5c0.7-2.9-0.6-6.2-3.2-7.8c2.6-1.5,4.8-3.8,6.1-6.5
			c0.6-1.4,1-3,0.7-4.5s-1.6-2.8-3.2-2.9c1.7-2.3,3-4.9,3.8-7.6c0.5-1.5,0.8-3.2,0.4-4.7s-1.6-3-3.2-3.2c2-2.5,3.6-5.5,3.1-8.6
			c-0.5-3.1-4.1-5.7-6.9-4.2c0.7-3,0.5-6.5-1.6-8.6s-6.7-1.7-7.4,1.3c-0.3-2.1-0.9-4.1-1.7-6c-0.6-1.4-1.6-3-3.1-2.9
			c-0.8,0-1.4,0.5-2,0.9c-1.4,1-2.8,2.1-4.2,3.1c1.4-2.3-0.2-5.6-2.8-6.5s-5.5,0.1-7.6,1.8c1.1-2.2,0.6-5-1.1-6.7
			c-1.7-1.7-4.5-2.3-6.7-1.3c0.6-2,0.6-4.4-0.7-6.2s-3.8-2.6-5.6-1.5c1-2.6,0.2-6-2.2-7.5s-6.1-0.6-7.2,1.9
			c-0.7-2.4-2.7-4.4-5.1-5.1s-5.2,0-7,1.7c-1.2-4-8.3-5.1-11-1.8c-3.7-4-10.8-4-14.5,0c-3.2-3.8-9.5-4.4-13.4-1.4
			c-2.4-4.9-10.4-5.8-13.8-1.5c-3.1-4.5-11.1-4.1-13.7,0.8c-2.1-2.3-4.7-4.5-7.8-4.8c-3.1-0.3-6.5,2.5-5.7,5.6
			c-2.4-2.4-5.1-4.7-8.4-5.1s-7.1,2.3-6.6,5.6c-2.2-1.7-4.6-3.4-7.4-3.5c-2.8-0.1-5.8,2.3-5.1,5c-3.3-1.6-6.8-3-10.3-4.2
			c-2-0.7-4.5-1.1-5.9,0.5c-1.7,1.9-0.2,4.8,1.2,6.8c-2.3,0-4.4-1.1-6.6-1.9c-2.2-0.8-4.7-1.2-6.7,0c-2,1.2-2.5,4.6-0.4,5.7
			c-2.9-0.2-6.3-0.3-8.4,1.8s-0.6,6.9,2.2,6.2c-2.7,0.1-5.5,0.2-8.2,0.3c-2.1,2.8-0.6,7.5,2.7,8.5c-3,0-5.7,2.8-5.4,5.7
			c0.4,2.9,4.3,4.9,6.7,3.1c-3.3,0.5-5.8,4.2-4.7,7.3c1.1,3.1,5.8,4.3,8,1.9c-2.8,1.5-3.8,5.6-1.8,8s6.6,1.9,7.7-1.1
			c-1.8,2.4-1,6.4,1.6,7.9s6.5,0.2,7.6-2.6c-1.1,2.7-1.6,5.9,0,8.4c1.6,2.4,5.8,3,7.2,0.5c-1.7,0.9-2.5,3.1-1.9,4.9
			c0.6,1.8,2.6,3.1,4.5,2.9c-3.3-0.7-7,2.2-6.8,5.6c0.2,3.4,4.7,5.8,7.4,3.7c-1.9,2.3-2.9,5.7-1.3,8.3c1.6,2.5,6.3,2.6,7.1-0.3
			c-0.8,4,0.3,8.6,3.7,10.8c3.4,2.2,9.1-5.5,9.3-9.5c0.1,3.6,1.8,7.6,5.2,8.7c3.4,1.2,7.8-9.1,6.3-12.4c0.4,4.2,5.3,9.8,8.8,7.4
			c1.2-0.8,1.3-2.5,1.9-3.7c-0.5,2.1,1.8,4.3,3.9,4.1c2.2-0.2,4-2.1,4.4-4.3c0.6,2.7,3.1,4.8,5.9,4.8c2.7,0,5.3-2,5.9-4.7
			c1.3,2.3,4.1,3.7,6.8,3.3s5-2.5,5.6-5c-0.4,3.3,2.5,8.2,5.9,8.3c3.3,0.1,6.5-4.5,6.4-7.8c-0.3,3.9,3.9,8.8,7.8,8.3
			c3.9-0.5,6.9-5.8,7.3-9.7c0.7,1.9,2.7,3.2,4.7,3.1s3.9-1.6,4.4-3.5c0.7,2.1,2.8,3.7,5,3.7s4.4-1.4,5.2-3.5
			c0.3,2.5,2.4,4.7,4.8,5.3s5.2-0.6,6.6-2.7c-6.4,14.9,9.6,16.4,10.6,13.8c0.8,3.4,5.6,4.9,8.1,2.6c-0.7,2.6,1.2,5.6,3.8,6.2
			l0.5,0.2l-26.7,61.2"/>
	</g>
	<g>
		<path class="st19" d="M202.3,274.5c-0.1,0-0.2,0-0.3-0.1c-0.2-0.2-0.3-0.5-0.1-0.7c1.9-2.8,3.7-5.4,5.3-7.9
			c12.4-18.3,19.9-29.4,36.6-48.5c0.2-0.2,0.5-0.2,0.7-0.1c0.8,0.6,1.8,0.8,3,0.7c1.5-0.2,2.9-1,3.7-2c0.7-0.9,1-2.1,0.8-3.4
			c-0.2-1.2-0.8-2.3-1.7-3c-0.2-0.1-0.2-0.3-0.2-0.5c0-0.2,0.1-0.3,0.3-0.4c2.4-1,4.3-2.7,5-4.6c0.8-2.2,0.1-4.9-1.7-5.9
			c-0.2-0.1-0.3-0.3-0.2-0.6c0-0.2,0.2-0.4,0.5-0.4c2.8-0.2,5.3-2.4,5.9-5.1c0.7-2.7-0.6-5.8-3-7.3c-0.2-0.1-0.2-0.3-0.2-0.4
			c0-0.2,0.1-0.3,0.3-0.4c2.6-1.4,4.6-3.6,5.8-6.3c0.7-1.6,0.9-3,0.7-4.1c-0.3-1.2-1.3-2.5-2.7-2.5c-0.2,0-0.4-0.1-0.4-0.3
			c-0.1-0.2-0.1-0.4,0-0.5c1.6-2.3,2.9-4.8,3.7-7.5c0.4-1.3,0.8-2.9,0.4-4.5c-0.3-1.3-1.3-2.6-2.8-2.8c-0.2,0-0.3-0.1-0.4-0.3
			c-0.1-0.2,0-0.4,0.1-0.5c2.4-3,3.4-5.8,3-8.2c-0.2-1.5-1.4-3.1-2.9-3.8c-1.1-0.5-2.3-0.5-3.2,0c-0.2,0.1-0.4,0.1-0.6,0
			c-0.2-0.1-0.2-0.3-0.2-0.5c0.4-1.6,1-5.7-1.5-8.1c-1-1-2.8-1.5-4.4-1c-0.7,0.2-1.9,0.7-2.2,2.1c-0.1,0.2-0.3,0.4-0.5,0.4
			c-0.2,0-0.4-0.2-0.5-0.4c-0.3-2-0.9-4-1.7-5.9c-0.4-1-1.3-2.7-2.6-2.6c-0.6,0-1.1,0.4-1.7,0.9l-4.2,3.1c-0.2,0.1-0.5,0.1-0.6,0
			c-0.2-0.2-0.2-0.4-0.1-0.6c0.5-0.8,0.6-1.9,0.2-2.9c-0.5-1.3-1.5-2.4-2.7-2.8c-2.5-0.9-5.3,0.3-7.1,1.7c-0.2,0.2-0.5,0.2-0.6,0
			c-0.2-0.1-0.2-0.4-0.1-0.6c1-2,0.6-4.6-1-6.2c-1.5-1.6-4.1-2.1-6.1-1.2c-0.2,0.1-0.4,0.1-0.5-0.1c-0.2-0.1-0.2-0.3-0.2-0.5
			c0.6-2.1,0.4-4.3-0.6-5.7c-1-1.4-3.3-2.4-5-1.4c-0.2,0.1-0.4,0.1-0.6,0c-0.2-0.1-0.2-0.4-0.1-0.6c1-2.5,0.1-5.5-2-6.9
			c-1.1-0.7-2.5-0.9-3.8-0.5c-1.2,0.4-2.1,1.2-2.6,2.2c-0.1,0.2-0.3,0.3-0.5,0.3c-0.2,0-0.4-0.2-0.5-0.4c-0.6-2.3-2.5-4.1-4.7-4.8
			c-2.3-0.6-4.8,0-6.5,1.6c-0.1,0.1-0.3,0.2-0.5,0.1c-0.2,0-0.3-0.2-0.4-0.3c-0.5-1.6-2.1-2.8-4.3-3.3c-2.4-0.5-4.6,0.2-5.8,1.6
			c-0.1,0.1-0.2,0.2-0.4,0.2c-0.2,0-0.3-0.1-0.4-0.2c-1.6-1.8-4.1-2.8-6.9-2.8c0,0,0,0,0,0c-2.7,0-5.2,1-6.9,2.8
			c-0.1,0.1-0.2,0.2-0.4,0.2c-0.1,0-0.3-0.1-0.4-0.2c-3.1-3.5-9-4.2-12.7-1.3c-0.1,0.1-0.3,0.1-0.4,0.1c-0.1,0-0.3-0.1-0.3-0.3
			c-1.1-2.2-3.4-3.6-6.1-3.9c-2.8-0.3-5.3,0.7-6.8,2.5c-0.1,0.1-0.3,0.2-0.4,0.2c-0.2,0-0.3-0.1-0.4-0.2c-1.4-2-3.8-3.1-6.6-2.9
			c-2.8,0.2-5.1,1.5-6.2,3.6c-0.1,0.1-0.2,0.2-0.4,0.3c-0.2,0-0.3,0-0.4-0.2c-1.9-2-4.4-4.4-7.4-4.6c-1.6-0.1-3.3,0.6-4.4,1.9
			c-0.8,0.9-1.1,2-0.8,3c0.1,0.2,0,0.5-0.2,0.6c-0.2,0.1-0.5,0.1-0.6-0.1c-2.4-2.3-5-4.6-8.1-4.9c-1.7-0.2-3.7,0.5-4.9,1.8
			c-0.9,0.9-1.3,2.1-1.2,3.2c0,0.2-0.1,0.4-0.2,0.5c-0.2,0.1-0.4,0.1-0.6,0c-2.4-1.8-4.6-3.3-7.1-3.4c-1.4-0.1-3,0.7-3.9,1.8
			c-0.5,0.6-1,1.5-0.7,2.6c0,0.2,0,0.4-0.2,0.5c-0.2,0.1-0.4,0.1-0.5,0.1c-3.3-1.6-6.7-3-10.2-4.2c-2.6-0.9-4.4-0.8-5.4,0.3
			c-1.5,1.7,0.1,4.6,1.3,6.2c0.1,0.2,0.1,0.4,0,0.5c-0.1,0.2-0.3,0.3-0.5,0.3c0,0,0,0,0,0c-1.9,0-3.6-0.7-5.3-1.4
			c-0.5-0.2-1-0.4-1.4-0.6c-2.6-1-4.7-1-6.2-0.1c-0.9,0.6-1.5,1.8-1.5,3c0,0.5,0.2,1.4,1,1.8c0.2,0.1,0.3,0.4,0.3,0.6
			c-0.1,0.2-0.3,0.4-0.5,0.4c-2.9-0.2-6.1-0.3-8,1.7c-1.1,1.1-1,3-0.3,4.2c0.2,0.4,0.6,1,1.3,1.1l0.9,0c0.2,0,0.5,0.2,0.5,0.4
			c0,0.3-0.1,0.5-0.4,0.6c-0.4,0.1-0.7,0.1-1.1,0l-7,0.2c-0.8,1.2-1,2.7-0.5,4.2c0.5,1.6,1.7,2.8,3.1,3.2c0.2,0.1,0.4,0.3,0.4,0.6
			c0,0.2-0.2,0.4-0.5,0.4c-1.4,0-2.8,0.7-3.7,1.8c-0.9,1-1.3,2.2-1.1,3.4c0.2,1.3,1.1,2.4,2.5,3c0.6,0.2,1.1,0.4,1.7,0.3
			c0.6-0.3,1.2-0.5,1.9-0.7c0.2,0,0.5,0.1,0.6,0.3c0.1,0.2,0,0.5-0.2,0.6c-0.6,0.4-1.3,0.7-2,0.7c-0.8,0.5-1.5,1.2-2,2
			c-0.8,1.3-1,2.7-0.6,4c0.5,1.3,1.8,2.4,3.4,2.7c1,0.2,1.9,0.1,2.6-0.3c0.4-0.4,0.8-0.7,1.2-0.9c0.2-0.1,0.5-0.1,0.6,0.1
			c0.2,0.2,0.1,0.5,0,0.7c-0.4,0.4-0.8,0.7-1.3,1c-0.7,0.7-1.2,1.7-1.4,2.7c-0.3,1.4,0,2.7,0.8,3.7c0.8,1,2.4,1.5,3.9,1.3
			c1-0.2,1.8-0.6,2.3-1.2c0.2-0.4,0.4-0.8,0.6-1.1c0.2-0.2,0.4-0.3,0.6-0.1c0.2,0.1,0.3,0.4,0.2,0.6c-0.1,0.4-0.4,0.8-0.6,1.1
			c-0.3,0.9-0.4,1.9-0.2,2.9c0.3,1.4,1.1,2.6,2.2,3.3c1.1,0.6,2.6,0.7,3.9,0.3c1.4-0.5,2.5-1.4,3-2.6c0.1-0.3,0.4-0.4,0.7-0.3
			c0.3,0.1,0.4,0.4,0.3,0.7c-0.7,1.8-1.7,5.3-0.1,7.9c0.7,1.2,2.3,1.9,3.8,1.9c0.3,0,0.7-0.1,1.2-0.2c0.4-0.6,0.9-1,1.5-1.4
			c0.2-0.1,0.4-0.1,0.6,0.1c0.2,0.2,0.2,0.4,0.1,0.6c-0.3,0.6-0.8,1.1-1.5,1.5c-0.6,0.9-0.7,2.1-0.4,3.1c0.4,1.2,1.5,2.1,2.7,2.4
			c0.5,0,0.9,0,1.4,0.1c0.2,0,0.4,0.3,0.4,0.5s-0.2,0.5-0.5,0.5c-0.5,0.1-1,0-1.5-0.1c-1.1,0.1-2.3,0.6-3.2,1.4
			c-1.2,1-1.8,2.4-1.7,3.7c0.1,1.5,1.1,2.8,2.7,3.6c1.4,0.7,2.9,0.6,3.9-0.2c0.2-0.2,0.5-0.1,0.7,0.1c0.2,0.2,0.2,0.5,0,0.7
			c-1.7,2-2.8,5.3-1.3,7.7c0.7,1.2,2.3,1.8,3.9,1.6c1.2-0.2,2-0.8,2.3-1.8c0.1-0.3,0.3-0.4,0.6-0.4c0.3,0.1,0.4,0.3,0.4,0.6
			c-0.7,3.6,0.1,8.1,3.5,10.3c0.7,0.4,1.6,0.4,2.6-0.1c2.9-1.5,5.8-6.3,5.9-9c0-0.3,0.2-0.5,0.5-0.5c0,0,0,0,0,0
			c0.3,0,0.5,0.2,0.5,0.5c0.1,3.3,1.6,7.1,4.8,8.3c0.9,0.3,1.8-0.5,2.4-1.2c2-2.3,3.6-6.6,3.5-9.2c-0.1-0.5-0.3-1-0.3-1.5
			c0-0.2,0.1-0.5,0.4-0.5c0.2-0.1,0.5,0.1,0.6,0.3c0.2,0.4,0.3,1,0.3,1.6c0.7,2.4,2.6,4.8,4.6,5.7c1.2,0.6,2.2,0.5,3.2-0.1
			c0.6-0.4,0.9-1.2,1.2-2.1c0.2-0.5,0.3-1,0.5-1.4c0.1-0.2,0.4-0.3,0.6-0.2c0.2,0.1,0.4,0.3,0.3,0.6c-0.2,0.8,0.1,1.6,0.7,2.3
			c0.7,0.8,1.7,1.3,2.7,1.2c2.1-0.2,3.6-2.1,4-3.9c0.1-0.2,0.3-0.4,0.5-0.4c0,0,0,0,0,0c0.2,0,0.4,0.2,0.5,0.4
			c0.5,2.4,2.9,4.4,5.4,4.4c2.5,0,4.9-1.9,5.4-4.3c0-0.2,0.2-0.4,0.4-0.4c0.2,0,0.4,0.1,0.5,0.3c1.2,2.1,3.8,3.4,6.3,3.1
			c2.5-0.3,4.6-2.3,5.2-4.7c0.1-0.3,0.3-0.4,0.6-0.4c0.3,0,0.4,0.3,0.4,0.6c-0.2,1.8,0.7,4.2,2.1,5.9c1,1.2,2.2,1.8,3.3,1.9
			c1.1,0,2.2-0.5,3.3-1.5c1.4-1.4,2.4-3.5,2.5-5.3c0-0.2,0-0.4,0-0.6c0-0.3,0.2-0.5,0.5-0.5c0,0,0,0,0,0c0.3,0,0.5,0.2,0.5,0.5
			c0,0.2,0,0.4,0,0.6c0.1,1.8,1.1,3.9,2.7,5.4c1.4,1.3,3.1,2,4.5,1.8c3.7-0.5,6.5-5.7,6.9-9.2c0-0.2,0.2-0.4,0.4-0.5
			c0.2,0,0.5,0.1,0.5,0.3c0.6,1.7,2.4,2.8,4.2,2.7c1.8-0.1,3.4-1.4,3.9-3.2c0.1-0.2,0.3-0.4,0.5-0.4c0.2,0,0.4,0.1,0.5,0.4
			c0.6,1.9,2.5,3.3,4.6,3.4c2,0.1,4-1.3,4.7-3.2c0.1-0.2,0.3-0.4,0.5-0.3c0.2,0,0.4,0.2,0.4,0.4c0.3,2.3,2.2,4.3,4.4,4.8
			c2.3,0.5,4.8-0.6,6.1-2.5c0.1-0.2,0.4-0.3,0.7-0.2c0.2,0.1,0.3,0.4,0.2,0.7c-2,4.6-2,8.3,0,10.9c2.2,2.9,6.2,3.5,8.2,3.1
			c0.9-0.1,1.3-0.4,1.4-0.7c0.1-0.2,0.3-0.3,0.5-0.3c0.2,0,0.4,0.2,0.5,0.4c0.3,1.4,1.5,2.5,3.1,3c1.6,0.5,3.2,0.2,4.2-0.7
			c0.2-0.2,0.4-0.2,0.6-0.1c0.2,0.1,0.3,0.3,0.2,0.6c-0.3,1.1-0.1,2.4,0.6,3.5c0.7,1.1,1.7,1.9,2.8,2.1c0,0,0.1,0,0.1,0l0.5,0.2
			c0.1,0.1,0.2,0.2,0.3,0.3c0,0.1,0,0.3,0,0.4l-26.7,61.2c-0.1,0.3-0.4,0.4-0.7,0.3c-0.3-0.1-0.4-0.4-0.3-0.7l26.5-60.7l0,0
			c-1.4-0.3-2.6-1.3-3.4-2.6c-0.6-1-0.9-2-0.9-3.1c-1.2,0.6-2.8,0.7-4.2,0.3c-1.6-0.5-2.9-1.6-3.5-2.9c-0.4,0.2-0.9,0.4-1.5,0.5
			c-2.8,0.4-6.9-0.7-9.1-3.5c-1.4-1.7-2.5-4.8-1-9.6c-1.5,1.1-3.6,1.6-5.4,1.1c-2.2-0.5-4.1-2.2-4.9-4.4c-1.1,1.6-3,2.6-4.9,2.6
			c0,0-0.1,0-0.1,0c-2,0-4-1.2-5-3c-0.9,1.6-2.6,2.7-4.4,2.8c-1.7,0.1-3.4-0.7-4.5-2.1c-0.9,4-4,8.2-7.5,8.7
			c-1.7,0.2-3.7-0.5-5.3-2.1c-1.2-1.1-2-2.4-2.5-3.8c-0.5,1.3-1.3,2.6-2.3,3.6c-1.3,1.3-2.7,1.9-4,1.8c-1.4-0.1-2.8-0.8-4-2.2
			c-1.1-1.3-1.9-2.9-2.2-4.5c-1.1,1.8-3,3.1-5.2,3.4c-2.5,0.3-5.1-0.7-6.7-2.7c-1,2.4-3.5,4.1-6.1,4.1c0,0,0,0,0,0
			c-2.4,0-4.8-1.6-5.9-3.8c-0.9,1.8-2.6,3.1-4.4,3.2c-1.3,0.1-2.7-0.5-3.6-1.5c-0.3-0.3-0.5-0.6-0.6-1c-0.3,0.8-0.7,1.6-1.4,2.1
			c-1.2,0.8-2.7,0.9-4.2,0.1c-1.7-0.8-3.3-2.5-4.3-4.4c-0.5,2.8-2,6-3.6,7.8c-1.5,1.7-2.7,1.7-3.5,1.5c-2.8-1-4.5-3.6-5.2-6.5
			c-1.1,2.8-3.5,5.9-5.8,7.1c-1.3,0.7-2.6,0.7-3.6,0.1c-3.2-2-4.3-5.9-4.2-9.4c-0.5,0.4-1.2,0.6-1.9,0.7c-1.9,0.3-3.9-0.6-4.9-2.1
			c-1.4-2.3-0.9-5.1,0.3-7.3c-1,0.2-2.1,0.1-3.2-0.4c-1.9-0.9-3.2-2.6-3.3-4.4c-0.1-1.7,0.7-3.3,2.1-4.6c0.7-0.6,1.4-1,2.2-1.3
			c-0.9-0.6-1.6-1.4-1.9-2.5c-0.3-1-0.3-2,0.1-3c-0.2,0-0.3,0-0.5,0c-1.9,0.1-3.8-0.9-4.7-2.4c-1.2-1.9-1.2-4.2-0.8-6.2
			c-0.5,0.4-1.1,0.7-1.8,1c-1.7,0.6-3.4,0.4-4.8-0.4c-1.4-0.8-2.4-2.2-2.7-3.9c-0.1-0.7-0.2-1.3-0.1-2c-0.5,0.3-1.1,0.5-1.7,0.6
			c-1.9,0.3-3.8-0.3-4.9-1.6c-1-1.2-1.3-2.8-1-4.5c0.1-0.7,0.4-1.4,0.8-2c-0.6,0.1-1.2,0-1.8-0.1c-2-0.4-3.6-1.7-4.2-3.4
			c-0.5-1.5-0.3-3.3,0.7-4.8c0.4-0.6,0.8-1.1,1.3-1.6c-0.3-0.1-0.6-0.2-0.8-0.3c-1.7-0.7-2.9-2.2-3.1-3.8c-0.2-1.5,0.3-2.9,1.4-4.2
			c0.8-0.9,1.8-1.5,2.9-1.9c-1-0.7-1.8-1.8-2.3-3.2c-0.6-1.9-0.3-3.9,0.8-5.4c0.1-0.1,0.2-0.2,0.4-0.2l5.6-0.2
			c-0.2-0.2-0.3-0.4-0.5-0.7c-0.9-1.6-0.9-4,0.5-5.4c1.9-1.9,4.7-2.1,7.4-2c-0.3-0.5-0.4-1-0.5-1.6c-0.1-1.6,0.7-3.1,2-3.9
			c1.8-1.1,4.2-1.1,7.1,0c0.5,0.2,1,0.4,1.5,0.6c1.3,0.5,2.6,1,3.9,1.2c-1.7-2.8-1.9-5.1-0.6-6.6c1.2-1.4,3.4-1.6,6.4-0.6
			c3.2,1.1,6.5,2.4,9.5,3.8c0-0.9,0.4-1.8,1-2.5c1.1-1.4,3-2.2,4.7-2.2c2.5,0.1,4.6,1.3,6.9,3c0.1-1.1,0.6-2.1,1.5-3
			c1.5-1.5,3.7-2.3,5.7-2.1c3,0.3,5.5,2.1,7.7,4.3c0.1-0.9,0.5-1.7,1.1-2.5c1.3-1.5,3.3-2.4,5.3-2.3c3.1,0.3,5.7,2.4,7.6,4.5
			c1.4-2.1,3.8-3.4,6.7-3.6c2.9-0.2,5.5,0.9,7.1,2.8c1.8-1.8,4.4-2.7,7.3-2.4c2.9,0.3,5.3,1.8,6.7,4c4-2.6,9.9-2,13.3,1.4
			c1.8-1.8,4.4-2.8,7.2-2.8c0,0,0,0,0,0c2.8,0,5.4,1,7.2,2.8c1.4-1.4,3.9-2,6.4-1.5c2.2,0.4,4,1.7,4.8,3.3c1.9-1.5,4.6-2,6.9-1.4
			c2.2,0.6,4.1,2.3,5.1,4.4c0.6-0.8,1.6-1.4,2.6-1.7c1.6-0.5,3.4-0.3,4.7,0.6c2.2,1.4,3.3,4.3,2.7,7c2-0.5,4.2,0.5,5.3,2.1
			c1,1.5,1.4,3.6,1,5.7c2.2-0.6,4.8,0.1,6.4,1.7c1.5,1.5,2.1,3.8,1.7,5.8c1.9-1.1,4.4-1.8,6.8-1c1.5,0.5,2.8,1.9,3.4,3.5
			c0.3,0.7,0.3,1.5,0.3,2.2l2.9-2.1c0.6-0.4,1.4-1,2.3-1c1.5-0.1,2.8,1.1,3.7,3.3c0.6,1.5,1.1,3.1,1.4,4.7c0.5-0.6,1.3-1.1,2.2-1.4
			c1.9-0.5,4.1,0,5.4,1.3c1.8,1.8,2.5,4.8,1.9,8.1c1-0.3,2.1-0.2,3.2,0.4c1.8,0.9,3.2,2.6,3.5,4.5c0.4,2.5-0.5,5.4-2.7,8.4
			c1.3,0.5,2.4,1.8,2.8,3.4c0.4,1.8,0,3.6-0.5,5c-0.8,2.5-1.9,4.9-3.4,7.1c1.4,0.4,2.5,1.8,2.8,3.1c0.3,1.4,0.1,3-0.7,4.8
			c-1.2,2.6-3.2,4.8-5.6,6.4c2.3,1.8,3.4,5,2.7,7.9c-0.7,2.8-3,5-5.7,5.7c1.5,1.6,2,4.2,1.2,6.4c-1,2.6-3.2,4.1-4.8,4.9
			c0.8,0.8,1.3,1.9,1.5,3.1c0.2,1.5-0.1,3-1,4.2c-1,1.3-2.6,2.2-4.4,2.4c-1.3,0.2-2.4-0.1-3.4-0.6c-16.4,18.9-23.5,29.3-36.2,48.1
			c-1.7,2.5-3.4,5.1-5.3,7.9C202.6,274.4,202.4,274.5,202.3,274.5z"/>
	</g>
</g>
<g>
	<path class="st3" d="M216.1,248.5c0,0-0.1,0-0.1,0c-0.1-0.1-0.2-0.2-0.1-0.3l28.8-53c0.1-0.1,0.2-0.2,0.3-0.1
		c0.1,0.1,0.2,0.2,0.1,0.3l-28.8,53C216.3,248.5,216.2,248.5,216.1,248.5z"/>
</g>
<path class="st20" d="M189.4,221.6c-1.2-0.8-2.9-0.5-3.9,0.5c-1,1-1.5,2.5-1.4,3.9c0.1,1.7,1.2,3.6,2.9,3.7c0.2,2.2-1.2,4.9,0.5,6.2
	c0.5,0.4,1.1,0.5,1.8,0.5c2.1,0,4.2-1.2,5.2-3.1c1,1.7,2.4,3.2,4.2,4.1c1.8,0.9,4,0.9,5.7-0.1c1.7-1.1,2.5-3.4,1.5-5.2
	c2.9,0.6,6.7,0.8,8.2-1.8c0.2-0.3,0.3-0.7,0.2-1.1c-0.3-1.3-2.7-1-3-2.3c1.5-0.6,3.1-1.2,4.4-2.3c1.3-1.1,3.2-3.2,2-4.3
	c-1.2-1.2-3.3-0.1-5,0.1c0.8-1.5,1.6-3.2,1.6-4.9s-1.4-3.5-3.2-3.4c-1.3,0.1-2.3,1.2-2.8,2.4c0.8-1,0.2-2.5-0.9-3.1
	c-1.1-0.6-2.4-0.6-3.6-0.4c-0.8,0.1-1.4,0.3-2,0.8C200.8,201.4,182.4,217.7,189.4,221.6z"/>
<path class="st21" d="M300.4,30.2c-0.3-7.4-41.2-2.5-56.8,9.2c-14.8-11.4-36.1-13.7-52.9-5.7c-2.8,1.3-5.7,3-8.8,3.2
	c-3,0.2-6-1-8.9-1.8c-15.8-4.4-34.1,3.1-42.4,17.2c-7.7-9.7-22.5-13-33.6-7.5S75,66.2,82.4,76.2c6.4,8.5,20.9,6.4,30.9,2.6
	c5.2-1.9,10.2-5.1,15.7-5.2c4.3-0.1,8.4,1.7,12.5,3.1c20,6.7,26.1-11,50.5,4.7c17.3,11.1,35.7-6.5,53.4,4.1
	c6.9,4.1,23.5,6.9,31.2,9.3c7.6,2.4,15.9,2,23.9,1.5C300.5,96.3,300.8,41.3,300.4,30.2z"/>
</svg>
